<svg width="21" height="24" viewBox="0 0 21 24" fill="none" xmlns="http://www.w3.org/2000/svg">
<path d="M2.8 1.41176H14C14.3713 1.41176 14.7274 1.5605 14.9899 1.82526C15.2525 2.09002 15.4 2.44911 15.4 2.82353V9.91341C15.8737 9.95668 16.3423 10.0441 16.8 10.1746V2.82353C16.8 2.07468 16.505 1.35651 15.9799 0.826993C15.4548 0.297478 14.7426 0 14 0H2.8C2.05739 0 1.3452 0.297478 0.820101 0.826993C0.294999 1.35651 0 2.07468 0 2.82353V19.7647C0 20.5136 0.294999 21.2317 0.820101 21.7612C1.3452 22.2908 2.05739 22.5882 2.8 22.5882H8.7598C8.40323 22.1528 8.0948 21.6794 7.84 21.1765H2.8C2.4287 21.1765 2.0726 21.0277 1.81005 20.763C1.5475 20.4982 1.4 20.1391 1.4 19.7647H7.2898C7.16026 19.3032 7.07355 18.8306 7.0308 18.3529H1.4V2.82353C1.4 2.44911 1.5475 2.09002 1.81005 1.82526C2.0726 1.5605 2.4287 1.41176 2.8 1.41176ZM4.2 2.82353C3.8287 2.82353 3.4726 2.97227 3.21005 3.23703C2.9475 3.50178 2.8 3.86087 2.8 4.23529V5.64706C2.8 6.02148 2.9475 6.38057 3.21005 6.64533C3.4726 6.91008 3.8287 7.05882 4.2 7.05882H12.6C12.9713 7.05882 13.3274 6.91008 13.5899 6.64533C13.8525 6.38057 14 6.02148 14 5.64706V4.23529C14 3.86087 13.8525 3.50178 13.5899 3.23703C13.3274 2.97227 12.9713 2.82353 12.6 2.82353H4.2ZM12.6 4.23529V5.64706H4.2V4.23529H12.6ZM21 17.6471C21 19.332 20.3363 20.9479 19.1548 22.1393C17.9733 23.3307 16.3709 24 14.7 24C13.0291 24 11.4267 23.3307 10.2452 22.1393C9.06375 20.9479 8.4 19.332 8.4 17.6471C8.4 15.9622 9.06375 14.3463 10.2452 13.1549C11.4267 11.9634 13.0291 11.2941 14.7 11.2941C16.3709 11.2941 17.9733 11.9634 19.1548 13.1549C20.3363 14.3463 21 15.9622 21 17.6471ZM14.028 14.8715C13.9372 14.8087 13.8317 14.7708 13.722 14.7616C13.6122 14.7525 13.502 14.7723 13.4022 14.8193C13.3207 14.8554 13.247 14.9072 13.1852 14.9718C13.0548 15.1065 12.9819 15.2875 12.9822 15.4758V19.8169C12.9813 19.9105 12.9988 20.0033 13.0337 20.0901C13.0685 20.1768 13.12 20.2558 13.1852 20.3224C13.2491 20.3864 13.3235 20.439 13.405 20.4776C13.547 20.5433 13.7082 20.5533 13.8572 20.5059C13.9217 20.4844 13.983 20.454 14.0392 20.4155L17.2536 18.2033C17.3514 18.1383 17.4302 18.0481 17.4818 17.9421C17.535 17.8353 17.5623 17.7173 17.5616 17.5978C17.5609 17.4783 17.5321 17.3607 17.4776 17.2546C17.4229 17.1501 17.3423 17.0616 17.2438 16.9976L14.028 14.8715Z" fill="#9CA3AF"/>
</svg>
