<svg width="24" height="24" viewBox="0 0 24 24" fill="none" xmlns="http://www.w3.org/2000/svg">
<path d="M6.19922 9.55273H10.3992" stroke="#9CA3AF" stroke-width="1.5" stroke-linecap="round" stroke-linejoin="round"/>
<path d="M21.775 10.6318H19.0429C17.1687 10.6318 15.6504 12.0808 15.6504 13.8686C15.6504 15.6564 17.1697 17.1053 19.0419 17.1053H21.775C21.8632 17.1053 21.9063 17.1053 21.943 17.1032C22.51 17.0676 22.9615 16.6371 22.9983 16.0966C23.0004 16.062 23.0004 16.0199 23.0004 15.9369V11.8003C23.0004 11.7172 23.0004 11.6751 22.9983 11.6406C22.9605 11.1001 22.51 10.6696 21.943 10.634C21.9063 10.6318 21.8632 10.6318 21.775 10.6318Z" stroke="#9CA3AF" stroke-width="1.5"/>
<path d="M21.9132 10.6319C21.8313 8.61216 21.5688 7.37356 20.7194 6.5018C19.4898 5.2373 17.5095 5.2373 13.55 5.2373H10.4C6.44045 5.2373 4.46015 5.2373 3.2306 6.5018C2 7.76521 2 9.80005 2 13.8686C2 17.9372 2 19.9721 3.2306 21.2355C4.46015 22.5 6.44045 22.5 10.4 22.5H13.55C17.5095 22.5 19.4898 22.5 20.7194 21.2355C21.5688 20.3637 21.8324 19.1251 21.9132 17.1054" stroke="#9CA3AF" stroke-width="1.5"/>
<path d="M6.2002 5.23732L10.1219 2.56484C10.6735 2.19622 11.3173 2 11.9752 2C12.6331 2 13.2769 2.19622 13.8284 2.56484L17.7502 5.23732" stroke="#9CA3AF" stroke-width="1.5" stroke-linecap="round"/>
<path d="M18.791 13.8682H18.8015" stroke="#9CA3AF" stroke-width="2" stroke-linecap="round" stroke-linejoin="round"/>
</svg>
