<svg xmlns="http://www.w3.org/2000/svg" xmlns:xlink="http://www.w3.org/1999/xlink" width="50" zoomAndPan="magnify" viewBox="0 0 375 374.999991" height="50" preserveAspectRatio="xMidYMid meet" version="1.0"><defs><clipPath id="468d927044"><path d="M 37.5 48.460938 L 337.5 48.460938 L 337.5 326.460938 L 37.5 326.460938 Z M 37.5 48.460938 " clip-rule="nonzero"/></clipPath></defs><g clip-path="url(#468d927044)"><path fill="#706563" d="M 333.257812 238.195312 C 330.160156 234.773438 326.1875 232.972656 321.785156 232.972656 C 318.164062 232.972656 309.308594 234.222656 305.015625 245.785156 C 303.921875 248.695312 303.613281 250.25 302.148438 250.113281 C 299.671875 249.851562 290.015625 239.550781 286.875 224.410156 L 279.035156 187.839844 C 285.226562 177.796875 291.585938 170.082031 297.929688 164.847656 C 301.332031 162.046875 305.214844 160.566406 309.925781 160.320312 C 321.96875 159.488281 326.339844 157.996094 329.296875 155.902344 C 334.179688 152.40625 336.859375 147.308594 336.859375 141.578125 C 336.859375 136.558594 334.949219 132.0625 331.332031 128.613281 C 327.851562 125.273438 323.199219 123.515625 317.902344 123.515625 C 310.125 123.515625 301.378906 127.121094 291.183594 134.527344 C 285.148438 138.886719 278.773438 145.246094 271.875 153.777344 C 269.625 145.429688 267.71875 141.535156 266.285156 139.175781 C 261.894531 131.925781 254.734375 131.925781 252.378906 131.925781 L 249.824219 131.957031 L 177.140625 133.695312 L 181.234375 116.308594 C 183.839844 104.976562 187.273438 96.011719 191.398438 89.683594 C 193.417969 86.574219 196.496094 82.910156 199.730469 82.910156 C 200.945312 82.910156 203.347656 83.09375 207.859375 84.03125 C 220.410156 86.726562 225.109375 87.050781 227.539062 87.050781 C 232.929688 87.050781 237.65625 85.25 241.246094 81.863281 C 244.957031 78.320312 246.914062 73.714844 246.914062 68.496094 C 246.914062 64.414062 245.574219 58.53125 239.199219 53.605469 C 234.792969 50.1875 228.757812 48.460938 221.257812 48.460938 C 210 48.460938 198.082031 52.066406 185.808594 59.148438 C 173.628906 66.183594 163.605469 75.917969 156.042969 88.066406 C 149.40625 98.738281 143.644531 113.691406 138.519531 133.695312 L 106.488281 133.695312 L 99.433594 161.523438 L 131.558594 161.523438 L 107.148438 259.675781 C 102.097656 279.988281 98.386719 284.976562 97.386719 286.023438 C 94.617188 288.886719 88.933594 289.472656 84.636719 289.472656 C 79.324219 289.472656 73.671875 289.089844 67.773438 288.347656 C 63.710938 287.855469 60.628906 287.609375 58.335938 287.609375 C 52.40625 287.609375 47.539062 289.132812 43.859375 292.183594 C 39.765625 295.539062 37.5 300.421875 37.5 305.886719 C 37.5 310.167969 38.886719 316.328125 45.507812 321.320312 C 50.035156 324.738281 56.195312 326.460938 63.832031 326.460938 C 82.972656 326.460938 100.820312 318.855469 116.867188 303.871094 C 132.464844 289.273438 143.894531 267.882812 150.835938 240.164062 L 170.132812 161.523438 L 235.949219 162.644531 L 243.03125 193.042969 L 228.601562 214.339844 C 226.015625 218.144531 222.136719 222.855469 217.070312 228.339844 C 214.421875 231.25 212.664062 232.851562 211.648438 233.683594 C 207.492188 228.585938 202.792969 226.011719 197.667969 226.011719 C 192.863281 226.011719 188.488281 227.984375 185.054688 231.726562 C 181.773438 235.222656 180.050781 239.640625 180.050781 244.445312 C 180.050781 250.207031 182.527344 255.363281 187.195312 259.304688 C 191.476562 262.925781 196.757812 264.757812 202.902344 264.757812 C 210.523438 264.757812 218.300781 261.832031 226.0625 256.101562 C 232.546875 251.3125 240.875 241.828125 251.53125 227.136719 C 258.371094 246.800781 268.085938 259.476562 272.707031 264.757812 C 279.992188 273.089844 291.785156 278.0625 304.230469 278.0625 C 314.777344 278.0625 320.75 273.644531 326.035156 269.714844 L 326.496094 269.378906 C 335.734375 262.554688 337.660156 255.054688 337.660156 249.945312 C 337.660156 245.417969 336.136719 241.351562 333.257812 238.195312 Z M 333.257812 238.195312 " fill-opacity="1" fill-rule="nonzero"/></g></svg>