<svg xmlns="http://www.w3.org/2000/svg" xmlns:xlink="http://www.w3.org/1999/xlink" width="50" zoomAndPan="magnify" viewBox="0 0 375 374.999991" height="50" preserveAspectRatio="xMidYMid meet" version="1.0"><defs><clipPath id="81f0dd1e89"><path d="M 71.792969 166 L 303.542969 166 L 303.542969 233.296875 L 71.792969 233.296875 Z M 71.792969 166 " clip-rule="nonzero"/></clipPath><clipPath id="07a4eddfb2"><path d="M 71.792969 141.796875 L 303 141.796875 L 303 206 L 71.792969 206 Z M 71.792969 141.796875 " clip-rule="nonzero"/></clipPath></defs><path fill="#89fc00" d="M 301.386719 201.300781 C 301.332031 201.742188 301.265625 202.179688 301.179688 202.605469 C 300.519531 205.886719 298.441406 208.394531 295.941406 210.527344 C 285.152344 219.730469 268.714844 223.050781 255.242188 225.726562 C 232.957031 230.152344 210.070312 231.714844 187.378906 231.714844 C 164.667969 231.714844 141.757812 230.152344 119.453125 225.714844 C 105.992188 223.035156 89.53125 219.710938 78.765625 210.484375 C 76.25 208.328125 73.472656 206.996094 73.585938 200.871094 C 73.761719 191.398438 73.472656 184.023438 73.472656 173.722656 C 93.011719 172.183594 112.5 170.082031 132.097656 170.402344 C 142.027344 170.566406 151.949219 170.96875 161.859375 171.605469 C 170.171875 172.144531 179.152344 172.519531 187.082031 169.386719 C 191.992188 167.445312 198.078125 168.625 203.351562 168.785156 C 209.910156 168.992188 216.472656 169.195312 223.03125 169.402344 C 229.527344 169.601562 300.972656 171.746094 300.972656 171.832031 C 300.839844 177.316406 301.894531 197.125 301.386719 201.300781 " fill-opacity="1" fill-rule="nonzero"/><g clip-path="url(#81f0dd1e89)"><path fill="#bcff70" d="M 301.386719 201.304688 L 299.894531 201.121094 C 299.847656 201.527344 299.785156 201.921875 299.707031 202.3125 C 299.421875 203.726562 298.835938 204.972656 298.019531 206.136719 C 297.203125 207.300781 296.152344 208.375 294.96875 209.386719 C 289.796875 213.800781 283.167969 216.871094 276.132812 219.148438 C 269.101562 221.429688 261.679688 222.921875 254.949219 224.257812 C 232.789062 228.65625 210 230.210938 187.378906 230.210938 C 164.734375 230.210938 141.925781 228.65625 119.746094 224.242188 C 113.019531 222.90625 105.59375 221.414062 98.5625 219.128906 C 91.527344 216.847656 84.902344 213.773438 79.742188 209.347656 C 79.082031 208.78125 78.445312 208.300781 77.890625 207.824219 C 77.046875 207.105469 76.394531 206.429688 75.910156 205.476562 C 75.429688 204.527344 75.085938 203.242188 75.082031 201.226562 C 75.082031 201.121094 75.082031 201.011719 75.085938 200.898438 C 75.125 198.679688 75.144531 196.574219 75.144531 194.527344 C 75.144531 187.777344 74.972656 181.597656 74.972656 173.722656 L 73.472656 173.722656 L 73.589844 175.21875 C 91.804688 173.78125 109.910156 171.871094 128.035156 171.871094 C 129.378906 171.871094 130.726562 171.882812 132.070312 171.902344 C 141.976562 172.066406 151.878906 172.464844 161.761719 173.105469 C 164.722656 173.296875 167.792969 173.46875 170.890625 173.46875 C 176.515625 173.46875 182.257812 172.902344 187.632812 170.78125 C 189.527344 170.03125 191.714844 169.78125 194.054688 169.785156 C 197.046875 169.78125 200.242188 170.1875 203.304688 170.289062 C 209.863281 170.492188 216.425781 170.695312 222.984375 170.902344 C 226.234375 171 245.71875 171.589844 264.390625 172.160156 C 273.726562 172.445312 282.859375 172.730469 289.660156 172.945312 C 293.058594 173.054688 295.871094 173.144531 297.835938 173.210938 C 298.816406 173.246094 299.585938 173.273438 300.105469 173.292969 C 300.367188 173.300781 300.566406 173.3125 300.691406 173.316406 L 300.816406 173.324219 L 300.820312 173.324219 L 300.90625 172.253906 L 300.765625 173.320312 L 300.820312 173.324219 L 300.90625 172.253906 L 300.765625 173.320312 L 300.957031 171.886719 L 300.621094 173.292969 C 300.710938 173.3125 300.738281 173.3125 300.765625 173.320312 L 300.957031 171.886719 L 300.621094 173.292969 L 300.96875 171.839844 L 300.359375 173.203125 C 300.511719 173.269531 300.570312 173.277344 300.621094 173.292969 L 300.96875 171.839844 L 300.359375 173.203125 L 300.96875 171.835938 L 299.992188 172.96875 C 300.171875 173.121094 300.277344 173.164062 300.359375 173.203125 L 300.96875 171.835938 L 299.992188 172.96875 L 300.972656 171.832031 L 299.46875 171.796875 C 299.460938 172.136719 299.460938 172.523438 299.460938 172.949219 C 299.460938 175.628906 299.601562 180 299.742188 184.5625 C 299.882812 189.125 300.023438 193.882812 300.023438 197.253906 C 300.023438 198.144531 300.015625 198.9375 299.992188 199.597656 C 299.972656 200.257812 299.9375 200.789062 299.894531 201.121094 L 301.386719 201.304688 L 302.875 201.484375 C 302.933594 200.996094 302.96875 200.40625 302.992188 199.695312 C 303.015625 198.988281 303.023438 198.167969 303.023438 197.253906 C 303.023438 193.804688 302.882812 189.039062 302.742188 184.472656 C 302.601562 179.90625 302.457031 175.535156 302.457031 172.949219 C 302.457031 172.539062 302.464844 172.175781 302.46875 171.871094 L 302.46875 171.832031 C 302.472656 171.421875 302.296875 171.085938 302.152344 170.910156 C 302.050781 170.777344 301.929688 170.667969 301.792969 170.578125 C 301.609375 170.464844 301.523438 170.4375 301.457031 170.414062 C 301.328125 170.371094 301.28125 170.367188 301.242188 170.355469 C 301.167969 170.34375 301.144531 170.34375 301.117188 170.339844 C 301.035156 170.332031 301 170.332031 300.9375 170.328125 C 300.5 170.304688 299.101562 170.253906 296.910156 170.179688 C 281.613281 169.664062 228.625 168.074219 223.078125 167.902344 C 216.515625 167.695312 209.957031 167.492188 203.394531 167.289062 C 200.539062 167.203125 197.304688 166.785156 194.054688 166.785156 C 191.515625 166.785156 188.945312 167.039062 186.53125 167.992188 C 181.675781 169.910156 176.316406 170.46875 170.890625 170.46875 C 167.902344 170.46875 164.898438 170.300781 161.957031 170.109375 C 152.023438 169.46875 142.074219 169.066406 132.121094 168.90625 C 130.757812 168.878906 129.394531 168.871094 128.035156 168.871094 C 109.699219 168.871094 91.515625 170.796875 73.355469 172.226562 C 72.574219 172.289062 71.972656 172.941406 71.972656 173.722656 C 71.972656 181.644531 72.140625 187.828125 72.140625 194.527344 C 72.140625 196.5625 72.128906 198.644531 72.085938 200.839844 C 72.082031 200.972656 72.082031 201.101562 72.082031 201.226562 C 72.082031 202.796875 72.265625 204.125 72.609375 205.265625 C 73.117188 206.980469 74.015625 208.25 74.976562 209.21875 C 75.9375 210.1875 76.9375 210.886719 77.789062 211.625 C 83.394531 216.425781 90.382812 219.625 97.636719 221.984375 C 104.890625 224.335938 112.425781 225.847656 119.160156 227.1875 C 141.59375 231.648438 164.597656 233.210938 187.378906 233.214844 C 210.136719 233.210938 233.121094 231.648438 255.53125 227.199219 C 262.269531 225.859375 269.808594 224.351562 277.058594 222 C 284.3125 219.648438 291.296875 216.457031 296.914062 211.667969 C 298.226562 210.546875 299.464844 209.300781 300.476562 207.859375 C 301.488281 206.417969 302.273438 204.769531 302.648438 202.902344 C 302.742188 202.433594 302.816406 201.960938 302.875 201.484375 L 301.386719 201.304688 " fill-opacity="1" fill-rule="nonzero"/></g><path fill="#89fc00" d="M 301.285156 173.722656 C 301.285156 190.523438 250.285156 204.144531 187.378906 204.144531 C 124.46875 204.144531 73.472656 190.523438 73.472656 173.722656 C 73.472656 156.921875 124.46875 143.300781 187.378906 143.300781 C 250.285156 143.300781 301.285156 156.921875 301.285156 173.722656 " fill-opacity="1" fill-rule="nonzero"/><g clip-path="url(#07a4eddfb2)"><path fill="#bcff70" d="M 301.285156 173.722656 L 299.785156 173.722656 C 299.78125 175.433594 299.148438 177.148438 297.777344 178.941406 C 296.582031 180.503906 294.824219 182.089844 292.542969 183.636719 C 288.546875 186.34375 282.957031 188.921875 276.085938 191.226562 C 265.78125 194.6875 252.59375 197.546875 237.496094 199.535156 C 222.394531 201.527344 205.378906 202.644531 187.378906 202.644531 C 156.035156 202.648438 127.65625 199.246094 107.222656 193.785156 C 97.007812 191.0625 88.78125 187.808594 83.226562 184.296875 C 80.445312 182.542969 78.34375 180.726562 76.976562 178.941406 C 75.609375 177.148438 74.976562 175.433594 74.972656 173.722656 C 74.976562 172.011719 75.609375 170.300781 76.976562 168.503906 C 78.171875 166.941406 79.929688 165.355469 82.214844 163.8125 C 86.210938 161.101562 91.800781 158.523438 98.667969 156.222656 C 108.976562 152.757812 122.160156 149.898438 137.261719 147.910156 C 152.359375 145.921875 169.378906 144.800781 187.378906 144.800781 C 218.722656 144.800781 247.101562 148.203125 267.535156 153.660156 C 277.746094 156.386719 285.972656 159.636719 291.53125 163.152344 C 294.308594 164.902344 296.414062 166.71875 297.777344 168.503906 C 299.148438 170.300781 299.78125 172.011719 299.785156 173.722656 L 302.78125 173.722656 C 302.785156 171.234375 301.824219 168.847656 300.160156 166.679688 C 298.699219 164.777344 296.699219 163.003906 294.222656 161.328125 C 289.890625 158.394531 284.082031 155.742188 277.042969 153.375 C 266.480469 149.832031 253.132812 146.945312 237.886719 144.9375 C 222.644531 142.929688 205.503906 141.804688 187.378906 141.804688 C 155.8125 141.804688 127.238281 145.214844 106.449219 150.761719 C 96.046875 153.542969 87.59375 156.847656 81.625 160.613281 C 78.640625 162.5 76.265625 164.503906 74.597656 166.679688 C 72.929688 168.847656 71.96875 171.234375 71.972656 173.722656 C 71.96875 176.210938 72.929688 178.597656 74.597656 180.765625 C 76.054688 182.667969 78.058594 184.441406 80.53125 186.121094 C 84.867188 189.054688 90.671875 191.703125 97.714844 194.070312 C 108.277344 197.613281 121.621094 200.5 136.867188 202.511719 C 152.113281 204.519531 169.253906 205.644531 187.378906 205.644531 C 218.941406 205.640625 247.515625 202.234375 268.308594 196.683594 C 278.707031 193.902344 287.160156 190.597656 293.132812 186.832031 C 296.117188 184.945312 298.492188 182.941406 300.160156 180.765625 C 301.824219 178.597656 302.785156 176.210938 302.78125 173.722656 L 301.285156 173.722656 " fill-opacity="1" fill-rule="nonzero"/></g><path fill="#bcff70" d="M 89.054688 174.582031 C 98.660156 170.089844 112.707031 166.265625 129.605469 163.59375 C 146.503906 160.917969 166.269531 159.378906 187.378906 159.378906 C 208.871094 159.378906 228.964844 160.972656 246.0625 163.738281 C 263.160156 166.5 277.273438 170.453125 286.722656 175.070312 C 287.464844 175.433594 288.363281 175.125 288.726562 174.378906 C 289.089844 173.632812 288.78125 172.738281 288.035156 172.375 C 278.148438 167.550781 263.828125 163.578125 246.539062 160.777344 C 229.257812 157.984375 209.019531 156.378906 187.378906 156.378906 C 166.121094 156.378906 146.214844 157.929688 129.136719 160.632812 C 112.050781 163.339844 97.804688 167.1875 87.785156 171.863281 C 87.035156 172.214844 86.710938 173.109375 87.0625 173.859375 C 87.414062 174.609375 88.304688 174.933594 89.054688 174.582031 " fill-opacity="1" fill-rule="nonzero"/><path fill="#89fc00" d="M 148.121094 174.605469 C 148.121094 178.546875 143.296875 181.738281 137.347656 181.738281 C 131.398438 181.738281 126.574219 178.546875 126.574219 174.605469 C 126.574219 170.667969 131.398438 167.476562 137.347656 167.476562 C 143.296875 167.476562 148.121094 170.667969 148.121094 174.605469 " fill-opacity="1" fill-rule="nonzero"/><path fill="#bcff70" d="M 148.121094 174.605469 L 146.621094 174.605469 C 146.621094 175.28125 146.421875 175.929688 146.011719 176.574219 C 145.398438 177.539062 144.273438 178.476562 142.761719 179.148438 C 141.253906 179.824219 139.378906 180.238281 137.347656 180.238281 C 134.640625 180.242188 132.214844 179.5 130.558594 178.398438 C 129.726562 177.851562 129.09375 177.21875 128.683594 176.574219 C 128.273438 175.929688 128.078125 175.28125 128.074219 174.605469 C 128.078125 173.933594 128.273438 173.285156 128.683594 172.640625 C 129.296875 171.675781 130.425781 170.738281 131.9375 170.066406 C 133.445312 169.390625 135.316406 168.976562 137.347656 168.976562 C 140.054688 168.972656 142.484375 169.714844 144.140625 170.816406 C 144.96875 171.367188 145.601562 171.996094 146.011719 172.640625 C 146.421875 173.285156 146.621094 173.933594 146.621094 174.605469 L 149.621094 174.605469 C 149.625 173.3125 149.21875 172.082031 148.539062 171.023438 C 147.515625 169.429688 145.910156 168.191406 143.984375 167.328125 C 142.054688 166.464844 139.78125 165.980469 137.347656 165.976562 C 134.105469 165.980469 131.144531 166.835938 128.902344 168.316406 C 127.78125 169.054688 126.835938 169.960938 126.15625 171.023438 C 125.476562 172.082031 125.074219 173.3125 125.074219 174.605469 C 125.074219 175.902344 125.476562 177.132812 126.15625 178.191406 C 127.179688 179.785156 128.785156 181.023438 130.710938 181.890625 C 132.644531 182.75 134.914062 183.238281 137.347656 183.238281 C 140.59375 183.234375 143.550781 182.378906 145.792969 180.898438 C 146.914062 180.15625 147.859375 179.253906 148.539062 178.191406 C 149.21875 177.132812 149.625 175.902344 149.621094 174.605469 L 148.121094 174.605469 " fill-opacity="1" fill-rule="nonzero"/><path fill="#89fc00" d="M 200.726562 172.929688 C 200.726562 176.867188 195.902344 180.058594 189.949219 180.058594 C 184 180.058594 179.175781 176.867188 179.175781 172.929688 C 179.175781 168.992188 184 165.800781 189.949219 165.800781 C 195.902344 165.800781 200.726562 168.992188 200.726562 172.929688 " fill-opacity="1" fill-rule="nonzero"/><path fill="#bcff70" d="M 200.726562 172.929688 L 199.226562 172.929688 C 199.222656 173.605469 199.023438 174.25 198.617188 174.898438 C 198.003906 175.863281 196.875 176.800781 195.363281 177.472656 C 193.855469 178.148438 191.980469 178.5625 189.949219 178.558594 C 187.246094 178.5625 184.816406 177.820312 183.160156 176.722656 C 182.332031 176.171875 181.699219 175.539062 181.289062 174.898438 C 180.875 174.25 180.679688 173.605469 180.679688 172.929688 C 180.679688 172.253906 180.875 171.609375 181.289062 170.960938 C 181.902344 169.996094 183.027344 169.0625 184.539062 168.386719 C 186.046875 167.710938 187.921875 167.296875 189.949219 167.300781 C 192.660156 167.296875 195.085938 168.039062 196.742188 169.140625 C 197.570312 169.6875 198.203125 170.320312 198.617188 170.960938 C 199.023438 171.609375 199.222656 172.253906 199.226562 172.929688 L 202.226562 172.929688 C 202.226562 171.636719 201.820312 170.40625 201.144531 169.347656 C 200.121094 167.753906 198.515625 166.511719 196.589844 165.648438 C 194.65625 164.785156 192.386719 164.300781 189.949219 164.300781 C 186.707031 164.300781 183.75 165.15625 181.503906 166.636719 C 180.386719 167.378906 179.441406 168.285156 178.761719 169.347656 C 178.082031 170.40625 177.675781 171.636719 177.675781 172.929688 C 177.675781 174.222656 178.082031 175.453125 178.761719 176.511719 C 179.785156 178.105469 181.386719 179.347656 183.316406 180.210938 C 185.246094 181.074219 187.519531 181.558594 189.949219 181.558594 C 193.195312 181.558594 196.152344 180.703125 198.398438 179.222656 C 199.519531 178.480469 200.460938 177.574219 201.144531 176.511719 C 201.820312 175.453125 202.226562 174.222656 202.226562 172.929688 L 200.726562 172.929688 " fill-opacity="1" fill-rule="nonzero"/><path fill="#89fc00" d="M 169.144531 184.464844 C 169.144531 186.894531 166.164062 188.867188 162.488281 188.867188 C 158.8125 188.867188 155.832031 186.894531 155.832031 184.464844 C 155.832031 182.03125 158.8125 180.058594 162.488281 180.058594 C 166.164062 180.058594 169.144531 182.03125 169.144531 184.464844 " fill-opacity="1" fill-rule="nonzero"/><path fill="#bcff70" d="M 169.144531 184.464844 L 167.644531 184.464844 C 167.640625 184.761719 167.558594 185.050781 167.355469 185.371094 C 167.054688 185.847656 166.449219 186.367188 165.597656 186.746094 C 164.746094 187.128906 163.664062 187.367188 162.488281 187.367188 C 160.917969 187.371094 159.519531 186.933594 158.609375 186.328125 C 158.152344 186.023438 157.820312 185.6875 157.621094 185.371094 C 157.417969 185.050781 157.335938 184.761719 157.332031 184.464844 C 157.335938 184.164062 157.417969 183.878906 157.621094 183.554688 C 157.917969 183.082031 158.523438 182.558594 159.378906 182.179688 C 160.230469 181.800781 161.3125 181.558594 162.488281 181.558594 C 164.058594 181.558594 165.457031 181.992188 166.367188 182.601562 C 166.824219 182.902344 167.152344 183.238281 167.355469 183.558594 C 167.558594 183.878906 167.640625 184.164062 167.644531 184.464844 L 170.644531 184.464844 C 170.644531 183.546875 170.355469 182.675781 169.882812 181.941406 C 169.171875 180.835938 168.089844 180.011719 166.820312 179.441406 C 165.546875 178.875 164.066406 178.5625 162.488281 178.558594 C 160.382812 178.5625 158.453125 179.113281 156.953125 180.097656 C 156.207031 180.59375 155.5625 181.207031 155.09375 181.941406 C 154.621094 182.675781 154.332031 183.546875 154.332031 184.464844 C 154.332031 185.378906 154.621094 186.253906 155.09375 186.984375 C 155.800781 188.089844 156.886719 188.914062 158.15625 189.484375 C 159.429688 190.054688 160.910156 190.367188 162.488281 190.367188 C 164.59375 190.363281 166.523438 189.816406 168.019531 188.828125 C 168.769531 188.332031 169.414062 187.722656 169.882812 186.984375 C 170.355469 186.253906 170.644531 185.378906 170.644531 184.464844 L 169.144531 184.464844 " fill-opacity="1" fill-rule="nonzero"/><path fill="#89fc00" d="M 221.746094 186.140625 C 221.746094 188.574219 218.765625 190.542969 215.089844 190.542969 C 211.417969 190.542969 208.4375 188.574219 208.4375 186.140625 C 208.4375 183.707031 211.417969 181.738281 215.089844 181.738281 C 218.765625 181.738281 221.746094 183.707031 221.746094 186.140625 " fill-opacity="1" fill-rule="nonzero"/><path fill="#bcff70" d="M 221.746094 186.140625 L 220.246094 186.140625 C 220.242188 186.441406 220.160156 186.726562 219.957031 187.046875 C 219.660156 187.523438 219.054688 188.042969 218.199219 188.421875 C 217.347656 188.804688 216.269531 189.046875 215.089844 189.046875 C 213.519531 189.046875 212.121094 188.613281 211.214844 188.003906 C 210.757812 187.703125 210.425781 187.363281 210.222656 187.046875 C 210.019531 186.726562 209.9375 186.441406 209.9375 186.140625 C 209.9375 185.84375 210.019531 185.554688 210.222656 185.234375 C 210.523438 184.757812 211.128906 184.238281 211.984375 183.859375 C 212.832031 183.476562 213.914062 183.238281 215.089844 183.238281 C 216.660156 183.234375 218.058594 183.671875 218.96875 184.277344 C 219.425781 184.582031 219.757812 184.917969 219.957031 185.234375 C 220.160156 185.554688 220.242188 185.84375 220.246094 186.140625 L 223.246094 186.140625 C 223.246094 185.222656 222.957031 184.351562 222.488281 183.621094 C 221.777344 182.515625 220.695312 181.691406 219.421875 181.121094 C 218.148438 180.550781 216.671875 180.238281 215.089844 180.238281 C 212.984375 180.242188 211.054688 180.789062 209.558594 181.777344 C 208.808594 182.269531 208.167969 182.882812 207.695312 183.621094 C 207.226562 184.351562 206.933594 185.222656 206.9375 186.140625 C 206.933594 187.058594 207.226562 187.929688 207.695312 188.664062 C 208.40625 189.765625 209.488281 190.59375 210.757812 191.164062 C 212.03125 191.730469 213.511719 192.042969 215.089844 192.042969 C 217.195312 192.042969 219.125 191.492188 220.625 190.507812 C 221.371094 190.011719 222.015625 189.398438 222.488281 188.664062 C 222.957031 187.929688 223.246094 187.058594 223.246094 186.140625 L 221.746094 186.140625 " fill-opacity="1" fill-rule="nonzero"/><path fill="#89fc00" d="M 235.054688 171.261719 C 235.054688 173.691406 232.078125 175.664062 228.398438 175.664062 C 224.722656 175.664062 221.746094 173.691406 221.746094 171.261719 C 221.746094 168.828125 224.722656 166.855469 228.398438 166.855469 C 232.078125 166.855469 235.054688 168.828125 235.054688 171.261719 " fill-opacity="1" fill-rule="nonzero"/><path fill="#bcff70" d="M 235.054688 171.261719 L 233.554688 171.261719 C 233.554688 171.558594 233.472656 171.84375 233.269531 172.167969 C 232.96875 172.644531 232.363281 173.164062 231.507812 173.542969 C 230.65625 173.925781 229.578125 174.164062 228.398438 174.164062 C 226.832031 174.167969 225.433594 173.730469 224.523438 173.125 C 224.066406 172.820312 223.734375 172.484375 223.53125 172.167969 C 223.332031 171.84375 223.246094 171.558594 223.246094 171.261719 C 223.246094 170.960938 223.332031 170.675781 223.53125 170.355469 C 223.832031 169.878906 224.4375 169.355469 225.292969 168.976562 C 226.140625 168.597656 227.222656 168.355469 228.398438 168.355469 C 229.96875 168.351562 231.367188 168.789062 232.277344 169.398438 C 232.734375 169.699219 233.066406 170.035156 233.269531 170.355469 C 233.472656 170.675781 233.554688 170.960938 233.554688 171.261719 L 236.554688 171.261719 C 236.554688 170.34375 236.269531 169.472656 235.796875 168.738281 C 235.085938 167.632812 234.003906 166.808594 232.734375 166.238281 C 231.460938 165.671875 229.980469 165.355469 228.398438 165.355469 C 226.292969 165.359375 224.363281 165.90625 222.867188 166.894531 C 222.121094 167.390625 221.476562 168.003906 221.003906 168.738281 C 220.535156 169.472656 220.242188 170.34375 220.246094 171.261719 C 220.242188 172.179688 220.535156 173.050781 221.003906 173.78125 C 221.714844 174.886719 222.796875 175.710938 224.066406 176.28125 C 225.339844 176.851562 226.820312 177.164062 228.398438 177.164062 C 230.507812 177.160156 232.433594 176.609375 233.933594 175.625 C 234.679688 175.128906 235.324219 174.519531 235.796875 173.78125 C 236.269531 173.050781 236.554688 172.179688 236.554688 171.261719 L 235.054688 171.261719 " fill-opacity="1" fill-rule="nonzero"/><path fill="#89fc00" d="M 248.023438 180.058594 C 248.023438 181.667969 246.050781 182.976562 243.617188 182.976562 C 241.1875 182.976562 239.214844 181.667969 239.214844 180.058594 C 239.214844 178.453125 241.1875 177.144531 243.617188 177.144531 C 246.050781 177.144531 248.023438 178.453125 248.023438 180.058594 " fill-opacity="1" fill-rule="nonzero"/><path fill="#bcff70" d="M 248.023438 180.058594 L 246.523438 180.058594 C 246.519531 180.152344 246.5 180.242188 246.414062 180.386719 C 246.285156 180.59375 245.960938 180.886719 245.46875 181.109375 C 244.976562 181.328125 244.328125 181.476562 243.617188 181.476562 C 242.671875 181.476562 241.835938 181.207031 241.332031 180.871094 C 241.078125 180.703125 240.914062 180.527344 240.824219 180.386719 C 240.734375 180.242188 240.714844 180.152344 240.714844 180.058594 C 240.714844 179.964844 240.734375 179.875 240.824219 179.734375 C 240.953125 179.523438 241.273438 179.230469 241.769531 179.011719 C 242.261719 178.792969 242.90625 178.644531 243.617188 178.644531 C 244.566406 178.640625 245.402344 178.910156 245.902344 179.25 C 246.160156 179.417969 246.324219 179.59375 246.414062 179.734375 C 246.5 179.875 246.519531 179.964844 246.523438 180.058594 L 249.523438 180.058594 C 249.523438 179.347656 249.296875 178.671875 248.941406 178.117188 C 248.398438 177.28125 247.601562 176.683594 246.691406 176.273438 C 245.78125 175.867188 244.730469 175.644531 243.617188 175.644531 C 242.132812 175.648438 240.765625 176.03125 239.675781 176.746094 C 239.132812 177.109375 238.65625 177.558594 238.296875 178.117188 C 237.941406 178.671875 237.710938 179.347656 237.714844 180.058594 C 237.710938 180.773438 237.941406 181.449219 238.296875 182.003906 C 238.835938 182.839844 239.632812 183.4375 240.542969 183.84375 C 241.457031 184.253906 242.503906 184.472656 243.617188 184.472656 C 245.101562 184.472656 246.46875 184.089844 247.5625 183.371094 C 248.105469 183.011719 248.582031 182.558594 248.941406 182.003906 C 249.296875 181.449219 249.523438 180.773438 249.523438 180.058594 L 248.023438 180.058594 " fill-opacity="1" fill-rule="nonzero"/></svg>