<svg xmlns="http://www.w3.org/2000/svg" xmlns:xlink="http://www.w3.org/1999/xlink" width="50" zoomAndPan="magnify" viewBox="0 0 375 374.999991" height="50" preserveAspectRatio="xMidYMid meet" version="1.0"><defs><clipPath id="97f7ee91a7"><path d="M 126 60 L 249 60 L 249 314.964844 L 126 314.964844 Z M 126 60 " clip-rule="nonzero"/></clipPath><clipPath id="af435bfa97"><path d="M 125.585938 59.964844 L 249.335938 59.964844 L 249.335938 314.964844 L 125.585938 314.964844 Z M 125.585938 59.964844 " clip-rule="nonzero"/></clipPath></defs><g clip-path="url(#97f7ee91a7)"><path fill="#0d1f2d" d="M 227.117188 60.425781 C 233.5625 60.425781 238.796875 62.089844 242.863281 65.40625 C 246.925781 68.738281 248.949219 73.058594 248.949219 78.398438 C 248.949219 82.425781 247.777344 85.554688 245.445312 87.851562 C 243.117188 90.128906 239.871094 91.253906 235.722656 91.253906 C 230.433594 91.253906 226.453125 88.414062 223.816406 82.714844 C 221.183594 77.019531 218.5625 74.179688 216.011719 74.179688 C 207.019531 74.179688 201.867188 102.152344 200.539062 158.09375 C 200.183594 169.453125 199.929688 178.296875 199.742188 184.65625 C 198.855469 210.074219 197.378906 230.734375 195.300781 246.632812 C 193.226562 262.515625 190.421875 274.570312 186.902344 282.785156 C 182.667969 292.765625 177.109375 300.554688 170.238281 306.164062 C 163.351562 311.777344 155.957031 314.582031 148.015625 314.582031 C 141.570312 314.582031 136.300781 312.882812 132.203125 309.480469 C 128.101562 306.078125 126.046875 301.691406 126.046875 296.320312 C 126.046875 292.359375 127.183594 289.246094 129.480469 286.984375 C 131.777344 284.722656 135.039062 283.617188 139.273438 283.617188 C 144.5625 283.617188 148.558594 286.457031 151.246094 292.152344 C 153.933594 297.851562 156.652344 300.691406 159.375 300.691406 C 168.011719 300.691406 173.128906 271.425781 174.726562 212.882812 C 175 203.085938 175.171875 195.488281 175.253906 190.097656 C 176.054688 164.8125 177.464844 144.339844 179.488281 128.644531 C 181.511719 112.949219 184.386719 100.757812 188.09375 92.035156 C 192.328125 82.085938 197.851562 74.332031 204.6875 68.773438 C 211.523438 63.230469 219.007812 60.441406 227.117188 60.441406 Z M 227.117188 60.425781 " fill-opacity="1" fill-rule="nonzero"/></g><g clip-path="url(#af435bfa97)"><path fill="#0d1f2d" d="M 148.015625 315.023438 C 141.503906 315.023438 136.078125 313.273438 131.914062 309.820312 C 127.710938 306.351562 125.585938 301.796875 125.585938 296.304688 C 125.585938 292.222656 126.792969 288.972656 129.15625 286.644531 C 131.519531 284.316406 134.9375 283.140625 139.273438 283.140625 C 144.734375 283.140625 148.898438 286.101562 151.671875 291.933594 C 154.273438 297.425781 156.855469 300.195312 159.390625 300.195312 C 167.707031 300.195312 172.703125 270.796875 174.269531 212.832031 C 174.539062 203.054688 174.710938 195.382812 174.796875 190.046875 C 175.59375 164.863281 177.007812 144.167969 179.03125 128.542969 C 181.054688 112.882812 183.960938 100.519531 187.667969 91.8125 C 191.902344 81.832031 197.546875 73.960938 204.398438 68.382812 C 211.285156 62.789062 218.9375 59.949219 227.117188 59.949219 C 233.628906 59.949219 239.019531 61.664062 243.152344 65.03125 C 247.300781 68.433594 249.410156 72.921875 249.410156 78.378906 C 249.410156 82.511719 248.183594 85.792969 245.769531 88.15625 C 243.355469 90.503906 239.972656 91.695312 235.722656 91.695312 C 230.261719 91.695312 226.113281 88.734375 223.394531 82.902344 C 220.84375 77.410156 218.359375 74.640625 215.996094 74.640625 C 207.339844 74.640625 202.292969 102.714844 200.980469 158.09375 C 200.625 169.46875 200.371094 178.3125 200.183594 184.65625 C 199.296875 209.992188 197.820312 230.855469 195.746094 246.683594 C 193.671875 262.53125 190.832031 274.742188 187.3125 282.953125 C 183.058594 292.953125 177.414062 300.875 170.511719 306.503906 C 163.589844 312.152344 156.007812 315.023438 147.996094 315.023438 Z M 139.273438 284.058594 C 135.195312 284.058594 131.996094 285.148438 129.804688 287.308594 C 127.609375 289.449219 126.503906 292.476562 126.503906 296.304688 C 126.503906 301.507812 128.511719 305.824219 132.492188 309.105469 C 136.484375 312.421875 141.707031 314.089844 147.996094 314.089844 C 155.785156 314.089844 163.164062 311.300781 169.933594 305.773438 C 176.71875 300.246094 182.277344 292.441406 186.476562 282.582031 C 189.980469 274.4375 192.785156 262.3125 194.84375 246.550781 C 196.902344 230.753906 198.398438 209.90625 199.265625 184.605469 C 199.433594 178.261719 199.707031 169.417969 200.0625 158.042969 C 201.40625 101.285156 206.628906 73.6875 215.996094 73.6875 C 218.769531 73.6875 221.472656 76.5625 224.226562 82.480469 C 226.8125 88.039062 230.570312 90.742188 235.722656 90.742188 C 239.71875 90.742188 242.878906 89.636719 245.125 87.460938 C 247.351562 85.285156 248.492188 82.207031 248.492188 78.347656 C 248.492188 73.195312 246.5 68.945312 242.574219 65.710938 C 238.613281 62.480469 233.425781 60.832031 227.117188 60.832031 C 219.160156 60.832031 211.710938 63.605469 204.976562 69.0625 C 198.226562 74.554688 192.683594 82.308594 188.5 92.152344 C 184.828125 100.792969 181.953125 113.070312 179.929688 128.644531 C 177.90625 144.238281 176.496094 164.898438 175.695312 190.046875 C 175.613281 195.382812 175.425781 203.054688 175.171875 212.832031 C 173.554688 272.226562 168.386719 301.082031 159.355469 301.082031 C 156.398438 301.082031 153.609375 298.207031 150.804688 292.289062 C 148.167969 286.730469 144.394531 284.027344 139.242188 284.027344 Z M 139.273438 284.058594 " fill-opacity="1" fill-rule="nonzero"/></g></svg>