<svg xmlns="http://www.w3.org/2000/svg" xmlns:xlink="http://www.w3.org/1999/xlink" width="50" zoomAndPan="magnify" viewBox="0 0 375 374.999991" height="50" preserveAspectRatio="xMidYMid meet" version="1.0"><defs><clipPath id="3924ae4a92"><path d="M 54 50 L 337.5 50 L 337.5 334.125 L 54 334.125 Z M 54 50 " clip-rule="nonzero"/></clipPath></defs><g clip-path="url(#3924ae4a92)"><path fill="#007f5f" d="M 80.035156 260.695312 C 93.25 258.328125 106.066406 262.136719 114.792969 273.359375 C 117.476562 276.78125 120.53125 278.125 124.101562 276.4375 C 127.421875 274.855469 130.746094 270.492188 130.539062 267.234375 C 129.808594 256.316406 133.390625 248.941406 139.285156 244.296875 C 153.304688 233.273438 180.242188 238.886719 192.046875 249.546875 L 192.046875 58.046875 C 180.53125 58.378906 169.125 60.1875 157.960938 63.457031 C 163.003906 68.464844 167.921875 75.734375 167.90625 82.550781 C 167.867188 88.882812 163.734375 92.777344 157.488281 93.921875 C 143.070312 96.605469 133.402344 100.824219 128.113281 105.679688 C 116.824219 116.039062 129.628906 125.519531 141.308594 130.21875 C 153.449219 135.089844 152.390625 147.089844 146.4375 156.007812 C 144.070312 159.574219 140.875 162.824219 137.359375 165.195312 C 130.574219 169.769531 122.5625 171.15625 116.351562 165.835938 C 94.84375 147.371094 72.910156 167.335938 62.496094 176.792969 L 62.230469 177.039062 C 60.371094 193.179688 61.433594 209.921875 65.8125 226.585938 C 69.058594 238.855469 73.894531 250.277344 80.035156 260.695312 Z M 192.046875 272.960938 C 189.230469 274.457031 185.609375 275.652344 181.507812 276.996094 C 168.964844 281.101562 150.671875 287.101562 140.8125 314.976562 C 156.757812 322.125 174.132812 326.210938 192.046875 326.703125 Z M 134.8125 320.277344 C 134.726562 320.242188 134.652344 320.210938 134.566406 320.15625 C 125.574219 315.859375 117.039062 310.609375 109.125 304.503906 C 52.765625 261.046875 37.511719 182.4375 73.339844 121.003906 C 95.496094 83.023438 133.789062 57.5625 177.574219 51.855469 C 262.003906 40.867188 337.445312 106.652344 337.445312 192.371094 C 337.445312 270.628906 273.984375 334.089844 195.726562 334.089844 C 174.359375 334.089844 153.542969 329.199219 134.8125 320.277344 Z M 149.210938 58.539062 C 149.316406 58.5 149.402344 58.480469 149.488281 58.453125 Z M 199.421875 86.425781 L 199.421875 112.808594 C 241.820312 114.738281 275.382812 149.707031 275.382812 192.371094 C 275.382812 235.035156 241.820312 270.003906 199.421875 271.933594 L 199.421875 298.296875 C 256.304688 296.363281 301.707031 249.585938 301.707031 192.371094 C 301.707031 135.15625 256.304688 88.378906 199.421875 86.425781 Z M 199.421875 120.152344 L 199.421875 144.777344 C 224.167969 146.652344 243.488281 167.335938 243.488281 192.371094 C 243.488281 217.40625 224.167969 238.089844 199.421875 239.964844 L 199.421875 264.574219 C 237.695312 262.660156 268.027344 230.972656 268.027344 192.371094 C 268.027344 153.769531 237.695312 122.078125 199.421875 120.152344 Z M 199.421875 120.152344 " fill-opacity="1" fill-rule="evenodd"/></g></svg>