<svg xmlns="http://www.w3.org/2000/svg" xmlns:xlink="http://www.w3.org/1999/xlink" width="50" zoomAndPan="magnify" viewBox="0 0 375 374.999991" height="50" preserveAspectRatio="xMidYMid meet" version="1.0"><defs><clipPath id="c64c3c33fb"><path d="M 75.132812 88.054688 L 300 88.054688 L 300 286.804688 L 75.132812 286.804688 Z M 75.132812 88.054688 " clip-rule="nonzero"/></clipPath><clipPath id="c835190e48"><path d="M 75.132812 88.054688 L 258 88.054688 L 258 286.804688 L 75.132812 286.804688 Z M 75.132812 88.054688 " clip-rule="nonzero"/></clipPath><clipPath id="fe3114f5c1"><path d="M 130 88.054688 L 300 88.054688 L 300 260 L 130 260 Z M 130 88.054688 " clip-rule="nonzero"/></clipPath><clipPath id="17fca1db04"><path d="M 91 138 L 300 138 L 300 286.804688 L 91 286.804688 Z M 91 138 " clip-rule="nonzero"/></clipPath></defs><g clip-path="url(#c64c3c33fb)"><path fill="#ba1f33" d="M 201.015625 88.054688 L 170.960938 88.054688 L 75.214844 262.097656 L 91.308594 286.921875 L 280.140625 286.921875 L 299.785156 259.546875 Z M 142.789062 237.742188 L 186.496094 162.632812 L 230.078125 237.742188 Z M 142.789062 237.742188 " fill-opacity="1" fill-rule="nonzero"/></g><g clip-path="url(#c835190e48)"><path fill="#dc2e45" d="M 75.214844 262.097656 L 170.960938 88.054688 L 257.28125 237.742188 L 230.300781 238.132812 L 172.730469 138.90625 L 91.308594 286.921875 Z M 75.214844 262.097656 " fill-opacity="1" fill-rule="nonzero"/></g><g clip-path="url(#fe3114f5c1)"><path fill="#e15164" d="M 299.785156 259.546875 L 130.105469 259.546875 L 142.789062 237.742188 L 257.28125 237.742188 L 170.960938 88.054688 L 201.003906 88.054688 Z M 299.785156 259.546875 " fill-opacity="1" fill-rule="nonzero"/></g><g clip-path="url(#17fca1db04)"><path fill="#ba1f33" d="M 186.507812 162.644531 L 130.105469 259.558594 L 299.785156 259.558594 L 280.140625 286.933594 L 91.308594 286.933594 L 172.730469 138.90625 Z M 186.507812 162.644531 " fill-opacity="1" fill-rule="nonzero"/></g></svg>