<svg xmlns="http://www.w3.org/2000/svg" xmlns:xlink="http://www.w3.org/1999/xlink" width="50" zoomAndPan="magnify" viewBox="0 0 375 374.999991" height="50" preserveAspectRatio="xMidYMid meet" version="1.0"><defs><clipPath id="4ba060be4e"><path d="M 37.5 51 L 337.5 51 L 337.5 323.863281 L 37.5 323.863281 Z M 37.5 51 " clip-rule="nonzero"/></clipPath></defs><g clip-path="url(#4ba060be4e)"><path fill="#0077ff" d="M 274.34375 165.96875 L 337.5 323.863281 L 306.566406 323.863281 L 289.328125 280.800781 L 230.621094 280.800781 L 213.410156 323.863281 L 182.492188 323.863281 L 245.632812 165.96875 Z M 152.332031 51.132812 L 152.332031 79.84375 L 238.457031 79.84375 L 238.457031 108.550781 L 210.207031 108.550781 C 204.671875 125.214844 197.53125 141.164062 188.78125 156.390625 C 180.035156 171.617188 169.855469 185.820312 158.246094 198.996094 C 168.625 208.257812 179.800781 216.425781 191.777344 223.5 L 180.996094 250.457031 C 165.527344 241.683594 151.1875 231.34375 137.976562 219.4375 C 131.585938 225.222656 124.902344 230.644531 117.925781 235.707031 C 110.945312 240.769531 103.714844 245.441406 96.234375 249.722656 C 88.75 254.003906 81.058594 257.871094 73.160156 261.320312 C 65.257812 264.769531 57.195312 267.785156 48.96875 270.363281 L 41.273438 242.675781 C 55.414062 238.167969 68.925781 232.234375 81.808594 224.875 C 94.695312 217.515625 106.671875 208.894531 117.738281 199.011719 C 101.273438 180.367188 87.765625 159.785156 77.21875 137.257812 L 109.371094 137.257812 C 117.394531 152.070312 126.929688 165.835938 137.976562 178.554688 C 146.949219 168.214844 154.945312 157.164062 161.960938 145.410156 C 168.976562 133.652344 174.90625 121.371094 179.75 108.566406 L 37.5 108.550781 L 37.5 79.84375 L 123.625 79.84375 L 123.625 51.132812 Z M 259.988281 207.378906 L 242.089844 252.089844 L 277.859375 252.089844 Z M 259.988281 207.378906 " fill-opacity="1" fill-rule="nonzero"/></g></svg>