<svg xmlns="http://www.w3.org/2000/svg" xmlns:xlink="http://www.w3.org/1999/xlink" width="50" zoomAndPan="magnify" viewBox="0 0 375 374.999991" height="50" preserveAspectRatio="xMidYMid meet" version="1.0"><defs><clipPath id="7ea12ceae0"><path d="M 46.125 51 L 328.875 51 L 328.875 326 L 46.125 326 Z M 46.125 51 " clip-rule="nonzero"/></clipPath></defs><g clip-path="url(#7ea12ceae0)"><path fill="#fb5607" d="M 252.621094 190.988281 C 248.410156 264.15625 262.609375 271.332031 262.609375 271.332031 C 288.203125 296.1875 315.285156 243.585938 315.285156 243.585938 L 328.078125 243.585938 C 325.273438 297.585938 291.792969 316.839844 291.792969 316.839844 C 214.226562 347.382812 208.53125 269.839844 208.53125 269.839844 L 222.46875 93.929688 C 200.472656 93.929688 177.945312 94.019531 158.226562 94.28125 L 152.96875 173.921875 C 151.566406 242.183594 134.476562 293.292969 134.476562 293.292969 C 121.679688 335.300781 89.601562 323.925781 89.601562 323.925781 C 54.019531 308.261719 71.109375 278.414062 71.109375 278.414062 C 134.476562 214.53125 132.285156 118.261719 130.621094 94.71875 C 118.875 94.984375 109.496094 95.332031 103.886719 95.769531 C 67.605469 98.570312 54.722656 135.503906 54.722656 135.503906 L 46.21875 132.703125 C 46.21875 132.703125 53.320312 75.816406 92.496094 61.636719 C 131.496094 47.460938 328.78125 52.363281 328.78125 52.363281 L 328.78125 94.28125 C 328.78125 94.28125 298.28125 94.019531 259.457031 93.933594 Z M 252.621094 190.988281 " fill-opacity="1" fill-rule="nonzero"/></g></svg>