<svg xmlns="http://www.w3.org/2000/svg" xmlns:xlink="http://www.w3.org/1999/xlink" width="50" zoomAndPan="magnify" viewBox="0 0 375 374.999991" height="50" preserveAspectRatio="xMidYMid meet" version="1.0"><defs><clipPath id="7c30f0fb7e"><path d="M 102.800781 89.910156 L 272.300781 89.910156 L 272.300781 284.910156 L 102.800781 284.910156 Z M 102.800781 89.910156 " clip-rule="nonzero"/></clipPath></defs><g clip-path="url(#7c30f0fb7e)"><path fill="#370617" d="M 266.609375 279.5625 L 108.375 279.5625 L 108.375 268.773438 L 117.824219 268.773438 L 117.824219 247.195312 L 127.113281 247.195312 L 129.820312 150.070312 C 120.695312 147.628906 113.953125 139.292969 113.953125 129.410156 L 113.953125 95.433594 L 261.027344 95.433594 L 261.027344 129.410156 C 261.027344 139.292969 254.289062 147.628906 245.160156 150.070312 L 247.867188 247.195312 L 257.15625 247.195312 L 257.15625 268.773438 L 266.609375 268.773438 Z M 266.609375 263.25 L 262.679688 263.25 L 262.679688 247.195312 C 262.679688 244.144531 260.207031 241.671875 257.15625 241.671875 L 253.242188 241.671875 L 250.789062 153.902344 C 260.253906 149.585938 266.550781 140.0625 266.550781 129.410156 L 266.550781 95.433594 C 266.550781 92.382812 264.078125 89.910156 261.027344 89.910156 L 113.953125 89.910156 C 110.902344 89.910156 108.429688 92.382812 108.429688 95.433594 L 108.429688 129.410156 C 108.429688 140.0625 114.726562 149.585938 124.1875 153.902344 L 121.742188 241.671875 L 117.824219 241.671875 C 114.773438 241.671875 112.300781 244.144531 112.300781 247.195312 L 112.300781 263.25 L 108.375 263.25 C 105.320312 263.25 102.847656 265.722656 102.847656 268.773438 L 102.847656 279.5625 C 102.847656 282.613281 105.320312 285.085938 108.375 285.085938 L 266.609375 285.085938 C 269.65625 285.085938 272.132812 282.613281 272.132812 279.5625 L 272.132812 268.773438 C 272.132812 265.722656 269.65625 263.25 266.609375 263.25 " fill-opacity="1" fill-rule="nonzero"/></g><path fill="#370617" d="M 168.636719 155.625 L 164.785156 234.109375 L 154.007812 233.582031 L 157.855469 155.09375 Z M 182.140625 137.320312 L 192.933594 137.320312 L 192.933594 226.683594 L 182.140625 226.683594 Z M 217.304688 155.070312 L 221.152344 233.554688 L 210.371094 234.082031 L 206.527344 155.597656 Z M 145.945312 129.410156 L 145.945312 127.613281 L 135.34375 127.613281 L 135.34375 116.824219 L 156.734375 116.824219 L 156.734375 129.410156 C 156.734375 139.386719 149.867188 147.792969 140.609375 150.144531 L 137.90625 247.195312 L 237.070312 247.195312 L 234.371094 150.144531 C 225.113281 147.792969 218.246094 139.386719 218.246094 129.410156 L 218.246094 116.824219 L 239.636719 116.824219 L 239.636719 127.613281 L 229.035156 127.613281 L 229.035156 129.410156 C 229.035156 135.257812 233.789062 140.011719 239.636719 140.011719 C 245.480469 140.011719 250.238281 135.257812 250.238281 129.410156 L 250.238281 106.222656 L 124.742188 106.222656 L 124.742188 129.410156 C 124.742188 135.257812 129.5 140.011719 135.34375 140.011719 C 141.191406 140.011719 145.945312 135.257812 145.945312 129.410156 " fill-opacity="1" fill-rule="nonzero"/><path fill="#370617" d="M 128.613281 268.773438 L 246.367188 268.773438 L 246.367188 257.984375 L 128.613281 257.984375 L 128.613281 268.773438 " fill-opacity="1" fill-rule="nonzero"/></svg>