<svg xmlns="http://www.w3.org/2000/svg" xmlns:xlink="http://www.w3.org/1999/xlink" width="50" zoomAndPan="magnify" viewBox="0 0 375 374.999991" height="50" preserveAspectRatio="xMidYMid meet" version="1.0"><defs><clipPath id="be4320c7a9"><path d="M 49 37.5 L 326 37.5 L 326 337.5 L 49 337.5 Z M 49 37.5 " clip-rule="nonzero"/></clipPath></defs><g clip-path="url(#be4320c7a9)"><path fill="#fcac12" d="M 307.902344 246.207031 C 302.328125 257.613281 276.503906 260.175781 241.265625 252.472656 C 242.957031 243.152344 244.253906 233.464844 245.1875 223.597656 C 258.5 215.511719 270.753906 206.964844 281.441406 198.1875 C 283.675781 200.277344 285.871094 202.367188 287.898438 204.460938 C 304.714844 221.800781 312.199219 237.410156 307.902344 246.207031 Z M 219.613281 274.445312 C 211.484375 276.101562 205.355469 283.296875 205.355469 291.902344 C 205.355469 295.707031 206.578125 299.21875 208.617188 302.117188 C 201.972656 314.363281 194.578125 321.414062 187.457031 321.414062 C 174.757812 321.414062 161.136719 299.347656 152.609375 264.324219 C 164.082031 261.097656 175.8125 257.027344 187.460938 252.378906 C 199.113281 257.027344 210.84375 261.097656 222.316406 264.324219 C 221.464844 267.832031 220.558594 271.210938 219.613281 274.445312 Z M 67.027344 246.207031 C 62.730469 237.410156 70.210938 221.800781 87.027344 204.460938 C 89.054688 202.367188 91.25 200.277344 93.484375 198.1875 C 104.175781 206.964844 116.425781 215.515625 129.742188 223.597656 C 130.671875 233.464844 131.964844 243.152344 133.65625 252.472656 C 98.417969 260.179688 72.601562 257.617188 67.027344 246.207031 Z M 87.027344 170.539062 C 70.210938 153.199219 62.730469 137.589844 67.027344 128.792969 C 69.992188 122.714844 78.789062 119.199219 91.609375 118.351562 C 94.613281 123.949219 100.457031 127.808594 107.238281 127.808594 C 113.222656 127.808594 118.503906 124.820312 121.734375 120.273438 C 125.582031 120.898438 129.535156 121.625 133.65625 122.527344 C 131.964844 131.84375 130.671875 141.535156 129.742188 151.402344 C 116.425781 159.484375 104.175781 168.035156 93.484375 176.8125 C 91.25 174.722656 89.054688 172.632812 87.027344 170.539062 Z M 187.457031 53.585938 C 200.167969 53.585938 213.796875 75.652344 222.320312 110.691406 C 210.847656 113.917969 199.109375 117.917969 187.460938 122.566406 C 175.8125 117.917969 164.078125 113.917969 152.605469 110.6875 C 161.128906 75.652344 174.757812 53.585938 187.457031 53.585938 Z M 246.5625 171.28125 C 254.621094 176.554688 262.152344 181.980469 269.027344 187.5 C 262.152344 193.019531 254.621094 198.445312 246.5625 203.71875 C 246.789062 198.308594 246.941406 192.894531 246.941406 187.5 C 246.941406 182.105469 246.789062 176.691406 246.5625 171.28125 Z M 208.75 131.855469 C 214.511719 129.867188 220.148438 128.070312 225.609375 126.523438 C 226.476562 131.335938 227.238281 136.328125 227.910156 141.480469 C 223.203125 138.949219 218.421875 136.46875 213.527344 134.082031 C 211.953125 133.316406 210.339844 132.605469 208.75 131.855469 Z M 147.019531 141.480469 C 147.6875 136.316406 148.453125 131.320312 149.320312 126.507812 C 154.8125 128.0625 160.445312 129.820312 166.238281 131.824219 C 164.628906 132.582031 162.988281 133.304688 161.386719 134.082031 C 156.496094 136.46875 151.71875 138.945312 147.019531 141.480469 Z M 128.367188 203.722656 C 120.304688 198.449219 112.777344 193.019531 105.898438 187.5 C 112.777344 181.980469 120.304688 176.550781 128.367188 171.273438 C 128.136719 176.691406 127.988281 182.105469 127.988281 187.5 C 127.988281 192.894531 128.136719 198.308594 128.367188 203.722656 Z M 166.261719 243.164062 C 160.460938 245.171875 154.816406 246.933594 149.316406 248.488281 C 148.453125 243.675781 147.6875 238.683594 147.019531 233.519531 C 151.71875 236.050781 156.496094 238.53125 161.386719 240.917969 C 162.992188 241.699219 164.644531 242.402344 166.261719 243.164062 Z M 227.910156 233.519531 C 227.238281 238.679688 226.472656 243.675781 225.609375 248.492188 C 220.105469 246.933594 214.457031 245.171875 208.65625 243.164062 C 210.273438 242.40625 211.921875 241.699219 213.527344 240.917969 C 218.421875 238.53125 223.203125 236.050781 227.910156 233.519531 Z M 206.464844 226.449219 C 200.042969 229.578125 193.714844 232.375 187.457031 235.007812 C 181.199219 232.375 174.875 229.578125 168.453125 226.449219 C 160.355469 222.5 152.535156 218.335938 145.03125 214.011719 C 144.425781 205.484375 144.082031 196.640625 144.082031 187.5 C 144.082031 178.359375 144.425781 169.515625 145.03125 160.988281 C 152.535156 156.664062 160.355469 152.5 168.453125 148.550781 C 174.875 145.421875 181.199219 142.625 187.460938 139.992188 C 193.71875 142.625 200.042969 145.421875 206.464844 148.550781 C 214.5625 152.5 222.390625 156.667969 229.894531 160.992188 C 230.5 169.515625 230.847656 178.359375 230.847656 187.5 C 230.847656 196.640625 230.5 205.484375 229.894531 214.007812 C 222.390625 218.332031 214.5625 222.5 206.464844 226.449219 Z M 277.191406 118.097656 C 293.398438 118.097656 304.476562 121.777344 307.902344 128.792969 C 310.28125 133.667969 308.925781 140.675781 304.496094 148.867188 C 304.179688 148.851562 303.882812 148.773438 303.566406 148.773438 C 293.746094 148.773438 285.75 156.761719 285.75 166.585938 C 285.75 168.40625 286.105469 170.128906 286.617188 171.789062 C 284.957031 173.460938 283.234375 175.136719 281.441406 176.8125 C 270.753906 168.035156 258.5 159.488281 245.1875 151.402344 C 244.253906 141.542969 242.960938 131.855469 241.273438 122.546875 C 254.839844 119.582031 267.042969 118.097656 277.191406 118.097656 Z M 293.535156 187.5 C 294.992188 186.121094 296.425781 184.742188 297.796875 183.359375 C 299.613281 183.992188 301.535156 184.402344 303.566406 184.402344 C 313.382812 184.402344 321.378906 176.40625 321.378906 166.585938 C 321.378906 163 320.289062 159.671875 318.460938 156.875 C 325.707031 143.5625 327.140625 131.523438 322.359375 121.730469 C 311.894531 100.296875 277.855469 97.929688 237.957031 106.746094 C 228.386719 67.035156 211.332031 37.492188 187.457031 37.492188 C 163.585938 37.492188 146.53125 67.035156 136.96875 106.742188 C 132.566406 105.769531 128.257812 104.957031 124.023438 104.269531 C 121.625 97.261719 115.042969 92.175781 107.238281 92.175781 C 100.234375 92.175781 94.214844 96.28125 91.304688 102.1875 C 72.765625 103.316406 58.640625 109.261719 52.566406 121.730469 C 44.945312 137.335938 53.078125 158.652344 75.472656 181.746094 C 77.332031 183.667969 79.367188 185.582031 81.390625 187.5 C 79.367188 189.417969 77.332031 191.332031 75.472656 193.25 C 53.078125 216.347656 44.945312 237.664062 52.566406 253.269531 C 59.367188 267.199219 76.097656 273.089844 97.945312 273.089844 C 109.714844 273.089844 122.992188 271.328125 136.960938 268.242188 C 146.527344 307.957031 163.585938 337.507812 187.457031 337.507812 C 201.804688 337.507812 213.683594 326.820312 222.96875 309.699219 C 223.039062 309.699219 223.105469 309.722656 223.179688 309.722656 C 232.992188 309.722656 240.988281 301.726562 240.988281 291.902344 C 240.988281 286.722656 238.730469 282.089844 235.1875 278.832031 C 236.179688 275.40625 237.09375 271.851562 237.960938 268.242188 C 251.933594 271.328125 265.210938 273.089844 276.984375 273.089844 C 298.816406 273.089844 315.570312 267.195312 322.359375 253.269531 C 329.980469 237.65625 321.847656 216.347656 299.457031 193.25 C 297.59375 191.332031 295.558594 189.417969 293.535156 187.5 " fill-opacity="1" fill-rule="nonzero"/></g><path fill="#fcac12" d="M 187.457031 161.585938 C 173.167969 161.585938 161.546875 173.210938 161.546875 187.5 C 161.546875 201.789062 173.167969 213.414062 187.457031 213.414062 C 201.75 213.414062 213.371094 201.789062 213.371094 187.5 C 213.371094 173.210938 201.75 161.585938 187.457031 161.585938 " fill-opacity="1" fill-rule="nonzero"/></svg>