<svg xmlns="http://www.w3.org/2000/svg" xmlns:xlink="http://www.w3.org/1999/xlink" width="50" zoomAndPan="magnify" viewBox="0 0 375 374.999991" height="50" preserveAspectRatio="xMidYMid meet" version="1.0"><defs><clipPath id="16d1c93c72"><path d="M 129 50 L 248 50 L 248 325.875 L 129 325.875 Z M 129 50 " clip-rule="nonzero"/></clipPath><clipPath id="52e0154671"><path d="M 205 49.125 L 337 49.125 L 337 234 L 205 234 Z M 205 49.125 " clip-rule="nonzero"/></clipPath></defs><g clip-path="url(#16d1c93c72)"><path fill="#7f3dff" d="M 210.402344 284.253906 L 210.402344 99.90625 C 210.402344 75.859375 216.125 63.261719 244.75 63.261719 L 244.75 50.667969 L 129.101562 50.667969 L 129.101562 63.261719 C 158.875 63.261719 165.746094 75.859375 165.746094 99.90625 L 165.746094 284.253906 C 165.746094 303.722656 160.019531 312.882812 131.394531 312.882812 L 131.394531 325.476562 L 247.042969 325.476562 L 247.042969 312.882812 C 217.269531 312.882812 210.402344 303.722656 210.402344 284.253906 Z M 210.402344 284.253906 " fill-opacity="1" fill-rule="nonzero"/></g><g clip-path="url(#52e0154671)"><path fill="#7f3dff" d="M 205.820312 210.972656 C 275.667969 210.972656 280.25 198.378906 280.25 129.675781 C 280.25 111.355469 282.539062 49.523438 328.339844 49.523438 C 337.5 50.667969 336.355469 50.667969 336.355469 50.667969 L 336.355469 64.410156 C 321.46875 64.410156 313.453125 74.714844 313.453125 95.324219 L 313.453125 142.269531 C 313.453125 230.4375 250.476562 233.875 236.738281 233.875 C 228.722656 233.875 205.820312 233.875 205.820312 233.875 Z M 205.820312 210.972656 " fill-opacity="1" fill-rule="nonzero"/></g><path fill="#7f3dff" d="M 169.179688 210.972656 C 99.332031 210.972656 94.75 198.378906 94.75 130.820312 C 94.75 112.5 92.460938 50.667969 46.660156 50.667969 C 37.5 50.667969 38.644531 50.667969 38.644531 50.667969 L 38.644531 64.410156 C 53.53125 64.410156 61.546875 74.714844 61.546875 95.324219 L 61.546875 142.269531 C 61.546875 230.4375 124.523438 233.875 138.261719 233.875 C 146.277344 233.875 169.179688 233.875 169.179688 233.875 Z M 169.179688 210.972656 " fill-opacity="1" fill-rule="nonzero"/></svg>