<svg xmlns="http://www.w3.org/2000/svg" xmlns:xlink="http://www.w3.org/1999/xlink" width="50" zoomAndPan="magnify" viewBox="0 0 375 374.999991" height="50" preserveAspectRatio="xMidYMid meet" version="1.0"><defs><clipPath id="506e0aca1d"><path d="M 50.0625 225 L 163 225 L 163 263 L 50.0625 263 Z M 50.0625 225 " clip-rule="nonzero"/></clipPath><clipPath id="1b9f0272fc"><path d="M 74 295 L 275 295 L 275 337.5 L 74 337.5 Z M 74 295 " clip-rule="nonzero"/></clipPath></defs><g clip-path="url(#506e0aca1d)"><path fill="#fd3c4a" d="M 143.558594 225.210938 L 68.761719 225.210938 C 58.164062 225.210938 50.0625 233.3125 50.0625 243.910156 C 50.0625 254.503906 58.164062 262.609375 68.761719 262.609375 L 143.558594 262.609375 C 154.152344 262.609375 162.257812 254.503906 162.257812 243.910156 C 162.257812 233.3125 154.152344 225.210938 143.558594 225.210938 Z M 143.558594 225.210938 " fill-opacity="1" fill-rule="nonzero"/></g><g clip-path="url(#1b9f0272fc)"><path fill="#fd3c4a" d="M 255.128906 295.019531 C 233.3125 313.71875 205.265625 324.9375 174.722656 324.9375 C 145.425781 324.9375 116.753906 314.339844 94.316406 295.019531 C 82.472656 303.121094 74.996094 316.210938 74.996094 331.171875 C 74.996094 334.910156 77.488281 337.402344 81.226562 337.402344 L 268.21875 337.402344 C 271.957031 337.402344 274.449219 334.910156 274.449219 331.171875 C 274.449219 319.328125 270.085938 308.730469 261.984375 300.628906 C 259.492188 298.136719 257.621094 296.890625 255.128906 295.019531 Z M 255.128906 295.019531 " fill-opacity="1" fill-rule="nonzero"/></g><path fill="#fd3c4a" d="M 174.722656 137.949219 C 171.605469 137.949219 168.488281 138.570312 164.75 138.570312 L 151.035156 152.285156 C 148.542969 154.777344 148.542969 158.515625 151.035156 161.011719 L 152.90625 162.878906 L 138.570312 177.214844 C 136.078125 179.707031 136.078125 183.449219 138.570312 185.941406 L 140.441406 187.8125 L 138.570312 189.679688 C 136.078125 192.175781 136.078125 195.914062 138.570312 198.40625 C 139.816406 199.65625 141.6875 200.277344 142.933594 200.277344 C 144.179688 200.277344 146.050781 199.652344 147.296875 198.40625 L 149.167969 196.539062 L 152.90625 200.277344 L 151.035156 202.148438 C 148.542969 204.640625 148.542969 208.378906 151.035156 210.875 C 152.285156 212.121094 154.152344 212.742188 155.398438 212.742188 C 156.648438 212.742188 158.515625 212.121094 159.761719 210.875 L 161.632812 209.003906 L 165.371094 212.742188 L 163.503906 214.613281 C 161.011719 217.105469 161.011719 220.847656 163.503906 223.339844 C 164.75 224.585938 166.621094 225.210938 167.867188 225.210938 C 169.113281 225.210938 170.984375 224.585938 172.230469 223.339844 L 174.097656 221.46875 L 175.96875 223.339844 C 177.214844 224.585938 179.085938 225.210938 180.332031 225.210938 C 181.578125 225.210938 183.449219 224.585938 184.695312 223.339844 L 199.03125 209.003906 L 200.902344 210.875 C 202.148438 212.121094 204.015625 212.742188 205.265625 212.742188 C 206.511719 212.742188 208.378906 212.121094 209.628906 210.875 L 234.558594 185.941406 C 228.949219 158.515625 204.015625 137.949219 174.722656 137.949219 Z M 174.722656 137.949219 " fill-opacity="1" fill-rule="nonzero"/><path fill="#fd3c4a" d="M 322.445312 65.023438 L 297.511719 40.089844 C 295.019531 37.597656 291.28125 37.597656 288.785156 40.089844 L 268.21875 60.660156 L 260.113281 52.554688 C 257.621094 50.0625 253.882812 50.0625 251.386719 52.554688 L 219.601562 84.34375 C 246.402344 94.941406 268.839844 114.261719 282.554688 138.570312 L 309.976562 111.144531 C 312.472656 108.652344 312.472656 104.914062 309.976562 102.417969 L 301.875 94.316406 L 322.445312 73.746094 C 324.9375 71.253906 324.9375 67.515625 322.445312 65.023438 Z M 322.445312 65.023438 " fill-opacity="1" fill-rule="nonzero"/><path fill="#fd3c4a" d="M 286.917969 200.277344 C 286.917969 261.984375 236.429688 312.472656 174.722656 312.472656 C 141.6875 312.472656 111.769531 298.136719 91.199219 275.074219 L 143.558594 275.074219 C 147.921875 275.074219 152.285156 273.828125 156.023438 272.582031 C 162.257812 273.828125 168.488281 275.074219 174.722656 275.074219 C 215.859375 275.074219 249.519531 241.414062 249.519531 200.277344 C 249.519531 191.550781 248.273438 183.449219 245.15625 175.96875 C 235.183594 147.921875 209.003906 127.351562 177.839844 125.480469 L 209.628906 93.695312 C 237.050781 103.042969 260.113281 122.363281 273.203125 147.296875 C 281.929688 163.503906 286.917969 180.957031 286.917969 200.277344 Z M 286.917969 200.277344 " fill-opacity="1" fill-rule="nonzero"/></svg>