<svg xmlns="http://www.w3.org/2000/svg" xmlns:xlink="http://www.w3.org/1999/xlink" width="50" zoomAndPan="magnify" viewBox="0 0 375 374.999991" height="50" preserveAspectRatio="xMidYMid meet" version="1.0"><defs><clipPath id="a71e9c1295"><path d="M 233 83.40625 L 270 83.40625 L 270 119 L 233 119 Z M 233 83.40625 " clip-rule="nonzero"/></clipPath><clipPath id="17b2dff7bd"><path d="M 212 119 L 290.074219 119 L 290.074219 162 L 212 162 Z M 212 119 " clip-rule="nonzero"/></clipPath><clipPath id="7c7664db03"><path d="M 84.574219 150 L 184 150 L 184 201 L 84.574219 201 Z M 84.574219 150 " clip-rule="nonzero"/></clipPath></defs><g clip-path="url(#a71e9c1295)"><path fill="#354f52" d="M 269.121094 101.257812 C 269.121094 101.835938 269.09375 102.417969 269.035156 102.996094 C 268.980469 103.574219 268.894531 104.148438 268.78125 104.71875 C 268.667969 105.289062 268.527344 105.851562 268.359375 106.40625 C 268.1875 106.964844 267.992188 107.511719 267.769531 108.046875 C 267.546875 108.585938 267.300781 109.109375 267.027344 109.621094 C 266.753906 110.132812 266.453125 110.632812 266.132812 111.113281 C 265.808594 111.597656 265.460938 112.066406 265.09375 112.515625 C 264.726562 112.964844 264.335938 113.394531 263.925781 113.804688 C 263.511719 114.214844 263.082031 114.605469 262.632812 114.972656 C 262.183594 115.34375 261.71875 115.6875 261.234375 116.011719 C 260.753906 116.332031 260.253906 116.632812 259.742188 116.90625 C 259.230469 117.179688 258.703125 117.429688 258.167969 117.652344 C 257.628906 117.875 257.085938 118.070312 256.527344 118.238281 C 255.972656 118.40625 255.410156 118.546875 254.839844 118.660156 C 254.269531 118.773438 253.695312 118.859375 253.117188 118.914062 C 252.539062 118.972656 251.957031 119 251.378906 119 C 250.796875 119 250.214844 118.972656 249.636719 118.914062 C 249.058594 118.859375 248.484375 118.773438 247.914062 118.660156 C 247.34375 118.546875 246.78125 118.40625 246.226562 118.238281 C 245.667969 118.070312 245.125 117.875 244.585938 117.652344 C 244.050781 117.429688 243.523438 117.179688 243.011719 116.90625 C 242.5 116.632812 242 116.332031 241.519531 116.011719 C 241.035156 115.6875 240.570312 115.34375 240.121094 114.972656 C 239.671875 114.605469 239.242188 114.214844 238.828125 113.804688 C 238.417969 113.394531 238.027344 112.964844 237.660156 112.515625 C 237.292969 112.066406 236.945312 111.597656 236.621094 111.113281 C 236.300781 110.632812 236 110.132812 235.726562 109.621094 C 235.453125 109.109375 235.207031 108.585938 234.984375 108.046875 C 234.761719 107.511719 234.566406 106.964844 234.394531 106.40625 C 234.226562 105.851562 234.085938 105.289062 233.972656 104.71875 C 233.859375 104.148438 233.773438 103.574219 233.71875 102.996094 C 233.660156 102.417969 233.632812 101.835938 233.632812 101.257812 C 233.632812 100.675781 233.660156 100.097656 233.71875 99.515625 C 233.773438 98.9375 233.859375 98.363281 233.972656 97.792969 C 234.085938 97.226562 234.226562 96.660156 234.394531 96.105469 C 234.566406 95.550781 234.761719 95.003906 234.984375 94.464844 C 235.207031 93.929688 235.453125 93.40625 235.726562 92.890625 C 236 92.378906 236.300781 91.882812 236.621094 91.398438 C 236.945312 90.914062 237.292969 90.449219 237.660156 90 C 238.027344 89.550781 238.417969 89.121094 238.828125 88.710938 C 239.242188 88.296875 239.671875 87.910156 240.121094 87.539062 C 240.570312 87.171875 241.035156 86.824219 241.519531 86.503906 C 242 86.179688 242.5 85.882812 243.011719 85.605469 C 243.523438 85.332031 244.050781 85.085938 244.585938 84.863281 C 245.125 84.640625 245.667969 84.445312 246.226562 84.277344 C 246.78125 84.105469 247.34375 83.964844 247.914062 83.851562 C 248.484375 83.738281 249.058594 83.652344 249.636719 83.597656 C 250.214844 83.539062 250.796875 83.511719 251.378906 83.511719 C 251.957031 83.511719 252.539062 83.539062 253.117188 83.597656 C 253.695312 83.652344 254.269531 83.738281 254.839844 83.851562 C 255.410156 83.964844 255.972656 84.105469 256.527344 84.277344 C 257.085938 84.445312 257.628906 84.640625 258.167969 84.863281 C 258.703125 85.085938 259.230469 85.332031 259.742188 85.605469 C 260.253906 85.882812 260.753906 86.179688 261.234375 86.503906 C 261.71875 86.824219 262.183594 87.171875 262.632812 87.539062 C 263.082031 87.910156 263.511719 88.296875 263.925781 88.710938 C 264.335938 89.121094 264.726562 89.550781 265.09375 90 C 265.460938 90.449219 265.808594 90.914062 266.132812 91.398438 C 266.453125 91.882812 266.753906 92.378906 267.027344 92.890625 C 267.300781 93.40625 267.546875 93.929688 267.769531 94.464844 C 267.992188 95.003906 268.1875 95.550781 268.359375 96.105469 C 268.527344 96.660156 268.667969 97.226562 268.78125 97.792969 C 268.894531 98.363281 268.980469 98.9375 269.035156 99.515625 C 269.09375 100.097656 269.121094 100.675781 269.121094 101.257812 Z M 269.121094 101.257812 " fill-opacity="1" fill-rule="nonzero"/></g><g clip-path="url(#17b2dff7bd)"><path fill="#354f52" d="M 279.839844 121.945312 L 276.929688 121.414062 C 258.972656 118.078125 240.695312 118.21875 222.808594 121.804688 C 216.773438 123.011719 212.375 129.292969 212.375 136.640625 L 212.375 153.996094 C 236.753906 163.789062 263.054688 164.144531 287.613281 155.058594 L 290.449219 153.996094 L 290.449219 136.816406 C 290.449219 129.398438 285.945312 123.082031 279.875 121.945312 Z M 279.839844 121.945312 " fill-opacity="1" fill-rule="nonzero"/></g><path fill="#354f52" d="M 244.277344 207.726562 C 244.277344 193.992188 233.171875 182.882812 219.4375 182.882812 C 205.703125 182.882812 194.59375 193.992188 194.59375 207.726562 C 194.59375 221.460938 205.703125 232.566406 219.4375 232.566406 C 210.597656 232.566406 201.796875 233.101562 193.03125 234.199219 L 181.320312 235.65625 C 170.671875 236.96875 162.652344 245.949219 162.652344 256.59375 L 162.652344 281.792969 L 167.800781 283.070312 C 201.691406 291.480469 237.179688 291.480469 271.074219 283.070312 L 276.21875 281.792969 L 276.21875 256.59375 C 276.21875 245.949219 268.234375 236.96875 257.550781 235.65625 L 245.839844 234.199219 C 237.074219 233.101562 228.238281 232.566406 219.4375 232.566406 C 233.171875 232.566406 244.277344 221.460938 244.277344 207.726562 Z M 244.277344 207.726562 " fill-opacity="1" fill-rule="nonzero"/><path fill="#354f52" d="M 155.554688 129.648438 C 155.554688 130.347656 155.519531 131.042969 155.453125 131.734375 C 155.382812 132.429688 155.28125 133.117188 155.144531 133.800781 C 155.007812 134.488281 154.839844 135.164062 154.636719 135.828125 C 154.4375 136.496094 154.199219 137.152344 153.933594 137.796875 C 153.667969 138.441406 153.371094 139.070312 153.039062 139.6875 C 152.710938 140.300781 152.355469 140.898438 151.964844 141.480469 C 151.578125 142.058594 151.164062 142.617188 150.722656 143.15625 C 150.277344 143.695312 149.8125 144.210938 149.316406 144.707031 C 148.824219 145.199219 148.308594 145.667969 147.769531 146.109375 C 147.230469 146.550781 146.671875 146.964844 146.089844 147.351562 C 145.511719 147.742188 144.914062 148.097656 144.300781 148.429688 C 143.683594 148.757812 143.054688 149.054688 142.410156 149.320312 C 141.765625 149.589844 141.109375 149.824219 140.441406 150.023438 C 139.773438 150.226562 139.097656 150.398438 138.414062 150.53125 C 137.730469 150.667969 137.042969 150.769531 136.347656 150.839844 C 135.65625 150.90625 134.957031 150.941406 134.261719 150.941406 C 133.5625 150.941406 132.867188 150.90625 132.175781 150.839844 C 131.480469 150.769531 130.789062 150.667969 130.105469 150.53125 C 129.421875 150.398438 128.746094 150.226562 128.078125 150.023438 C 127.414062 149.824219 126.757812 149.589844 126.113281 149.320312 C 125.46875 149.054688 124.839844 148.757812 124.222656 148.429688 C 123.609375 148.097656 123.011719 147.742188 122.429688 147.351562 C 121.851562 146.964844 121.292969 146.550781 120.753906 146.109375 C 120.214844 145.667969 119.699219 145.199219 119.203125 144.707031 C 118.710938 144.210938 118.242188 143.695312 117.800781 143.15625 C 117.359375 142.617188 116.945312 142.058594 116.554688 141.480469 C 116.167969 140.898438 115.808594 140.300781 115.480469 139.6875 C 115.152344 139.070312 114.855469 138.441406 114.589844 137.796875 C 114.320312 137.152344 114.085938 136.496094 113.882812 135.828125 C 113.683594 135.164062 113.511719 134.488281 113.375 133.800781 C 113.242188 133.117188 113.136719 132.429688 113.070312 131.734375 C 113 131.042969 112.96875 130.347656 112.96875 129.648438 C 112.96875 128.949219 113 128.253906 113.070312 127.5625 C 113.136719 126.867188 113.242188 126.179688 113.375 125.492188 C 113.511719 124.808594 113.683594 124.132812 113.882812 123.46875 C 114.085938 122.800781 114.320312 122.144531 114.589844 121.5 C 114.855469 120.855469 115.152344 120.226562 115.480469 119.609375 C 115.808594 118.996094 116.167969 118.398438 116.554688 117.816406 C 116.945312 117.238281 117.359375 116.679688 117.800781 116.140625 C 118.242188 115.601562 118.710938 115.085938 119.203125 114.589844 C 119.699219 114.097656 120.214844 113.628906 120.753906 113.1875 C 121.292969 112.746094 121.851562 112.332031 122.429688 111.941406 C 123.011719 111.554688 123.609375 111.199219 124.222656 110.867188 C 124.839844 110.539062 125.46875 110.242188 126.113281 109.976562 C 126.757812 109.707031 127.414062 109.472656 128.078125 109.269531 C 128.746094 109.070312 129.421875 108.898438 130.105469 108.765625 C 130.789062 108.628906 131.480469 108.527344 132.175781 108.457031 C 132.867188 108.390625 133.5625 108.355469 134.261719 108.355469 C 134.957031 108.355469 135.65625 108.390625 136.347656 108.457031 C 137.042969 108.527344 137.730469 108.628906 138.414062 108.765625 C 139.097656 108.898438 139.773438 109.070312 140.441406 109.269531 C 141.109375 109.472656 141.765625 109.707031 142.410156 109.976562 C 143.054688 110.242188 143.683594 110.539062 144.300781 110.867188 C 144.914062 111.199219 145.511719 111.554688 146.089844 111.941406 C 146.671875 112.332031 147.230469 112.746094 147.769531 113.1875 C 148.308594 113.628906 148.824219 114.097656 149.316406 114.589844 C 149.8125 115.085938 150.277344 115.601562 150.722656 116.140625 C 151.164062 116.679688 151.578125 117.238281 151.964844 117.816406 C 152.355469 118.398438 152.710938 118.996094 153.039062 119.609375 C 153.371094 120.226562 153.667969 120.855469 153.933594 121.5 C 154.199219 122.144531 154.4375 122.800781 154.636719 123.46875 C 154.839844 124.132812 155.007812 124.808594 155.144531 125.492188 C 155.28125 126.179688 155.382812 126.867188 155.453125 127.5625 C 155.519531 128.253906 155.554688 128.949219 155.554688 129.648438 Z M 155.554688 129.648438 " fill-opacity="1" fill-rule="nonzero"/><g clip-path="url(#7c7664db03)"><path fill="#354f52" d="M 179.441406 195.125 L 183.945312 194.027344 L 183.945312 171.988281 C 183.945312 162.6875 176.957031 154.847656 167.621094 153.675781 L 157.363281 152.398438 C 149.699219 151.4375 141.960938 150.976562 134.261719 150.976562 C 126.558594 150.976562 118.824219 151.4375 111.15625 152.398438 L 100.902344 153.675781 C 91.566406 154.847656 84.574219 162.6875 84.574219 171.988281 L 84.574219 194.027344 L 89.082031 195.125 C 118.753906 202.472656 149.804688 202.472656 179.476562 195.125 Z M 179.441406 195.125 " fill-opacity="1" fill-rule="nonzero"/></g><path fill="#354f52" d="M 156.578125 108.425781 L 224.019531 94.226562 L 225.484375 101.171875 L 158.042969 115.371094 Z M 156.578125 108.425781 " fill-opacity="1" fill-rule="nonzero"/><path fill="#354f52" d="M 124.777344 210.34375 L 129.523438 205.070312 L 165.003906 237.003906 L 160.253906 242.277344 Z M 124.777344 210.34375 " fill-opacity="1" fill-rule="nonzero"/><path fill="#354f52" d="M 249.007812 199.769531 L 280.945312 171.382812 L 285.660156 176.691406 L 253.722656 205.074219 Z M 249.007812 199.769531 " fill-opacity="1" fill-rule="nonzero"/></svg>