<svg width="550" height="660" viewBox="0 0 665 700" fill="none" xmlns="http://www.w3.org/2000/svg">
    <g filter="url(#filter0_d_2249_16783)">
        <path
            d="M121.545 587.846C238.019 652.918 426.801 652.918 543.301 587.846C659.801 522.774 659.775 417.284 543.301 352.226C426.827 287.168 238.045 287.168 121.545 352.226C5.04588 417.284 5.13604 522.788 121.545 587.846Z"
            fill="#F6F6F6" />
    </g>
    <path
        d="M441.652 514.92L506.632 474.152C507.622 473.603 508.709 473.29 509.82 473.234C510.93 473.179 512.039 473.382 513.072 473.83L579.339 515.41C581.155 516.32 581.233 517.944 579.494 519.036L513.265 560.49C512.311 561.019 511.247 561.267 510.177 561.208C509.108 561.149 508.072 560.786 507.173 560.154L441.485 519.204C441.117 518.996 440.812 518.679 440.604 518.289C440.397 517.9 440.296 517.454 440.313 517.004C440.331 516.554 440.466 516.119 440.703 515.75C440.94 515.381 441.27 515.093 441.652 514.92Z"
        fill="#E0E0E0" />
    <path
        d="M337.247 480.424C373.888 480.424 403.592 465.036 403.592 446.054C403.592 427.072 373.888 411.684 337.247 411.684C300.605 411.684 270.902 427.072 270.902 446.054C270.902 465.036 300.605 480.424 337.247 480.424Z"
        fill="#E0E0E0" />
    <path
        d="M566.433 495.698C566.549 489.104 571.148 475.524 577.588 467.082C584.028 458.64 594.022 452.564 601.003 455.308C607.521 457.87 606.658 467.194 598.608 473.228C590.558 479.262 578.502 486.822 574.831 497.448L567.296 510.44L566.433 495.698Z"
        fill="#6695FF" />
    <path
        d="M566.433 495.698C566.549 489.104 571.148 475.524 577.588 467.082C584.028 458.64 594.022 452.564 601.003 455.308C607.521 457.87 606.658 467.194 598.608 473.228C590.558 479.262 578.502 486.822 574.831 497.448L567.296 510.44L566.433 495.698Z"
        fill="white" fill-opacity="0.24" />
    <path opacity="0.1"
        d="M566.433 495.698C566.549 489.104 571.148 475.524 577.588 467.082C584.028 458.64 594.022 452.564 601.003 455.308C607.521 457.87 606.658 467.194 598.608 473.228C590.558 479.262 578.502 486.822 574.831 497.448L567.296 510.44L566.433 495.698Z"
        fill="black" />
    <path
        d="M565.841 504.714C565.939 504.71 566.032 504.671 566.107 504.602C566.182 504.534 566.233 504.44 566.253 504.336C570.671 481.936 587.724 463.918 597.809 460.068C597.919 460.024 598.01 459.935 598.063 459.821C598.115 459.706 598.126 459.575 598.093 459.452C598.074 459.392 598.044 459.336 598.005 459.288C597.966 459.241 597.919 459.202 597.866 459.175C597.813 459.147 597.756 459.132 597.698 459.129C597.639 459.126 597.581 459.136 597.526 459.158C587.222 463.078 569.872 481.348 565.39 504.126C565.367 504.25 565.389 504.379 565.451 504.486C565.514 504.593 565.612 504.67 565.725 504.7L565.841 504.714Z"
        fill="white" />
    <path
        d="M568.7 519.176C569.744 515.494 574.007 509.446 580.82 504.532C588.368 499.072 597.835 496.692 600.14 492.38C602.845 487.2 598.852 482.188 591.124 483.07C583.396 483.952 569.821 495.054 567.387 512.106L568.7 519.176Z"
        fill="#6695FF" />
    <path
        d="M568.7 519.176C569.744 515.494 574.007 509.446 580.82 504.532C588.368 499.072 597.835 496.692 600.14 492.38C602.845 487.2 598.852 482.188 591.124 483.07C583.396 483.952 569.821 495.054 567.387 512.106L568.7 519.176Z"
        fill="white" fill-opacity="0.24" />
    <path
        d="M567.284 515.2C567.368 515.193 567.449 515.161 567.518 515.106C567.586 515.052 567.639 514.978 567.67 514.892C574.329 495.726 587.982 489.216 594.267 488.446C594.382 488.429 594.487 488.363 594.559 488.264C594.631 488.165 594.665 488.04 594.654 487.914C594.649 487.851 594.632 487.789 594.605 487.733C594.577 487.677 594.539 487.627 594.493 487.588C594.447 487.548 594.394 487.52 594.338 487.504C594.281 487.487 594.222 487.484 594.164 487.494C587.209 488.334 573.646 494.984 566.846 514.556C566.82 514.63 566.811 514.711 566.821 514.79C566.831 514.869 566.859 514.944 566.903 515.008C566.946 515.072 567.004 515.123 567.071 515.157C567.137 515.19 567.21 515.205 567.284 515.2Z"
        fill="white" />
    <path
        d="M142.076 474.6L149.701 469.868C149.701 469.868 153.359 447.972 150.628 429.156C146.764 402.696 130.201 393.568 124.186 396.2C118.171 398.832 116.754 406.672 127.625 421.96C134.039 430.99 142.282 450.058 142.076 474.6Z"
        fill="#6695FF" />
    <path
        d="M142.076 474.6L149.701 469.868C149.701 469.868 153.359 447.972 150.628 429.156C146.764 402.696 130.201 393.568 124.186 396.2C118.171 398.832 116.754 406.672 127.625 421.96C134.039 430.99 142.282 450.058 142.076 474.6Z"
        fill="white" fill-opacity="0.24" />
    <g opacity="0.1">
        <path
            d="M142.076 474.6L149.701 469.868C149.701 469.868 153.359 447.972 150.628 429.156C146.764 402.696 130.201 393.568 124.186 396.2C118.171 398.832 116.754 406.672 127.625 421.96C134.039 430.99 142.282 450.058 142.076 474.6Z"
            fill="black" />
    </g>
    <path
        d="M144.845 464.114H144.768C144.627 464.093 144.498 464.012 144.411 463.889C144.325 463.766 144.286 463.61 144.304 463.456C147.46 438.676 138.289 411.544 127.998 400.61C127.894 400.5 127.834 400.35 127.832 400.193C127.829 400.035 127.885 399.883 127.985 399.77C128.086 399.657 128.224 399.592 128.369 399.589C128.514 399.586 128.654 399.647 128.758 399.756C139.243 410.956 148.581 438.48 145.386 463.61C145.365 463.75 145.299 463.877 145.2 463.969C145.101 464.061 144.976 464.113 144.845 464.114Z"
        fill="white" />
    <path
        d="M120.94 487.9C119.729 488.642 117.256 487.004 116.303 486.304C114.658 485.108 113.326 483.468 112.439 481.544C111.464 479.374 111.131 476.928 111.486 474.544C111.677 473.278 111.952 472.029 112.31 470.806C112.62 469.588 112.942 468.384 113.264 467.166C113.655 465.997 113.821 464.754 113.753 463.512C113.457 461.034 111.435 459.312 109.593 457.8C107.751 456.288 105.432 453.95 105.445 450.954C105.597 448.639 106.449 446.444 107.867 444.71C109.155 442.89 110.739 441.294 111.924 439.39C112.871 438.052 113.367 436.402 113.328 434.714C113.2 433.688 112.88 432.702 112.388 431.816C111.273 429.967 110.296 428.024 109.464 426.006C109.061 424.986 108.934 423.861 109.099 422.765C109.263 421.669 109.711 420.647 110.391 419.818C111.06 419.272 111.823 418.877 112.636 418.659C113.448 418.44 114.292 418.401 115.118 418.544C116.68 418.738 118.181 419.312 119.51 420.224C123.877 422.856 126.362 428.47 130.999 430.5C132.838 431.119 134.709 431.619 136.602 431.998C137.55 432.188 138.451 432.591 139.248 433.182C140.044 433.772 140.718 434.538 141.226 435.428C142.926 439.124 139.771 443.674 140.968 447.594C142.025 451.052 145.116 452.382 146.867 455.504C147.573 456.885 147.857 458.473 147.679 460.04C147.526 462.693 146.928 465.293 145.914 467.712C144.788 470.115 143.497 472.423 142.05 474.614C142.012 474.698 121.12 487.774 120.94 487.9Z"
        fill="#6695FF" />
    <path
        d="M120.94 487.9C119.729 488.642 117.256 487.004 116.303 486.304C114.658 485.108 113.326 483.468 112.439 481.544C111.464 479.374 111.131 476.928 111.486 474.544C111.677 473.278 111.952 472.029 112.31 470.806C112.62 469.588 112.942 468.384 113.264 467.166C113.655 465.997 113.821 464.754 113.753 463.512C113.457 461.034 111.435 459.312 109.593 457.8C107.751 456.288 105.432 453.95 105.445 450.954C105.597 448.639 106.449 446.444 107.867 444.71C109.155 442.89 110.739 441.294 111.924 439.39C112.871 438.052 113.367 436.402 113.328 434.714C113.2 433.688 112.88 432.702 112.388 431.816C111.273 429.967 110.296 428.024 109.464 426.006C109.061 424.986 108.934 423.861 109.099 422.765C109.263 421.669 109.711 420.647 110.391 419.818C111.06 419.272 111.823 418.877 112.636 418.659C113.448 418.44 114.292 418.401 115.118 418.544C116.68 418.738 118.181 419.312 119.51 420.224C123.877 422.856 126.362 428.47 130.999 430.5C132.838 431.119 134.709 431.619 136.602 431.998C137.55 432.188 138.451 432.591 139.248 433.182C140.044 433.772 140.718 434.538 141.226 435.428C142.926 439.124 139.771 443.674 140.968 447.594C142.025 451.052 145.116 452.382 146.867 455.504C147.573 456.885 147.857 458.473 147.679 460.04C147.526 462.693 146.928 465.293 145.914 467.712C144.788 470.115 143.497 472.423 142.05 474.614C142.012 474.698 121.12 487.774 120.94 487.9Z"
        fill="white" fill-opacity="0.24" />
    <path
        d="M133.305 480.732C133.233 480.73 133.161 480.713 133.096 480.681C133.03 480.649 132.97 480.602 132.921 480.545C132.872 480.488 132.834 480.42 132.809 480.346C132.784 480.273 132.773 480.194 132.777 480.116C133.678 456.666 123.516 430.78 116.123 423.262C116.072 423.209 116.031 423.144 116.003 423.073C115.976 423.002 115.961 422.926 115.961 422.849C115.961 422.772 115.976 422.696 116.003 422.625C116.031 422.554 116.072 422.49 116.123 422.436C116.226 422.327 116.365 422.265 116.509 422.265C116.654 422.265 116.792 422.327 116.896 422.436C124.43 430.094 134.799 456.414 133.897 480.186C133.884 480.343 133.815 480.489 133.704 480.591C133.593 480.693 133.45 480.744 133.305 480.732Z"
        fill="white" />
    <path
        d="M130.072 453.026C130.021 453.04 129.968 453.04 129.917 453.026C124.808 451.486 119.562 450.548 114.268 450.226C114.125 450.226 113.987 450.164 113.886 450.054C113.784 449.944 113.727 449.794 113.727 449.638C113.727 449.482 113.784 449.333 113.886 449.222C113.987 449.112 114.125 449.05 114.268 449.05C119.657 449.347 125 450.286 130.201 451.85C130.27 451.872 130.334 451.909 130.389 451.959C130.445 452.009 130.491 452.07 130.524 452.139C130.558 452.208 130.579 452.284 130.585 452.361C130.591 452.439 130.583 452.518 130.561 452.592C130.53 452.71 130.467 452.815 130.379 452.892C130.292 452.97 130.185 453.017 130.072 453.026Z"
        fill="white" />
    <path d="M211.383 391.706V388.346L156.45 422.884L159.065 424.564L211.383 391.706Z" fill="#37474F" />
    <path
        d="M142.952 164.318C143.085 164.406 143.189 164.537 143.252 164.692C143.314 164.848 143.331 165.02 143.3 165.186L97.7174 384.818L96.4294 391.048C95.8026 391.097 95.1751 390.962 94.6133 390.656L91.5607 388.738C91.4265 388.651 91.3208 388.52 91.2584 388.365C91.196 388.209 91.1801 388.036 91.213 387.87L137.942 162.47C137.967 162.348 138.018 162.234 138.091 162.137C138.164 162.041 138.257 161.964 138.362 161.914C138.467 161.863 138.582 161.84 138.697 161.847C138.812 161.854 138.924 161.89 139.024 161.952L142.952 164.318Z"
        fill="#37474F" />
    <path
        d="M148.593 161.322L101.633 387.8C101.55 388.156 101.342 388.463 101.053 388.654L98.0007 390.6C97.5154 390.888 96.9693 391.033 96.4165 391.02L97.7045 384.79L143.338 164.584L148.593 161.322Z"
        fill="#455A64" />
    <path
        d="M153.836 466.606V473.2C153.25 473.214 152.67 473.069 152.148 472.78L149.315 471.002C149.125 470.906 148.961 470.757 148.841 470.57C148.721 470.383 148.649 470.165 148.632 469.938V273.168L153.874 276.458L153.836 466.606Z"
        fill="#37474F" />
    <path
        d="M159.078 273.182V469.938C159.048 470.154 158.968 470.358 158.847 470.531C158.725 470.705 158.565 470.843 158.382 470.932L155.561 472.71C155.037 473.021 154.446 473.176 153.848 473.158V276.458L159.078 273.182Z"
        fill="#455A64" />
    <path
        d="M221.752 430.542C221.176 430.517 220.614 430.339 220.116 430.024L217.205 428.19C217.02 428.074 216.86 427.917 216.736 427.729C216.611 427.541 216.525 427.325 216.484 427.098L185.276 250.138L190.518 253.428L220.631 424.228L221.752 430.542Z"
        fill="#37474F" />
    <path
        d="M226.981 427.224C226.953 427.455 226.872 427.674 226.746 427.862C226.62 428.05 226.453 428.202 226.26 428.302L223.594 429.982L223.465 430.066C222.938 430.37 222.348 430.524 221.752 430.514L220.631 424.144L190.518 253.4L195.773 250.124L226.93 427L226.981 427.224Z"
        fill="#455A64" />
    <path d="M157.262 432.236L216.613 394.996V388.43L157.262 425.67V432.236Z" fill="#455A64" />
    <path
        d="M75.3577 334.712V337.078C75.3891 337.709 75.5571 338.323 75.8481 338.871C76.139 339.418 76.5447 339.883 77.0321 340.228L94.6133 351.26C95.1307 351.543 95.7019 351.69 96.2812 351.69C96.8605 351.69 97.4318 351.543 97.9492 351.26L246.34 258.146C246.823 257.798 247.225 257.332 247.514 256.785C247.802 256.238 247.969 255.625 248.001 254.996V252.63C247.971 252 247.805 251.386 247.516 250.839C247.228 250.292 246.825 249.826 246.34 249.48L228.758 238.448C228.241 238.158 227.667 238.007 227.084 238.007C226.502 238.007 225.928 238.158 225.41 238.448L77.0321 331.562C76.544 331.906 76.1378 332.371 75.8467 332.918C75.5557 333.466 75.3881 334.08 75.3577 334.712Z"
        fill="#6695FF" />
    <path
        d="M75.3577 334.712V337.078C75.3891 337.709 75.5571 338.323 75.8481 338.871C76.139 339.418 76.5447 339.883 77.0321 340.228L94.6133 351.26C95.1307 351.543 95.7019 351.69 96.2812 351.69C96.8605 351.69 97.4318 351.543 97.9492 351.26L246.34 258.146C246.823 257.798 247.225 257.332 247.514 256.785C247.802 256.238 247.969 255.625 248.001 254.996V252.63C247.971 252 247.805 251.386 247.516 250.839C247.228 250.292 246.825 249.826 246.34 249.48L228.758 238.448C228.241 238.158 227.667 238.007 227.084 238.007C226.502 238.007 225.928 238.158 225.41 238.448L77.0321 331.562C76.544 331.906 76.1378 332.371 75.8467 332.918C75.5557 333.466 75.3881 334.08 75.3577 334.712Z"
        fill="white" fill-opacity="0.24" />
    <path opacity="0.4"
        d="M77.0322 333.662L94.6134 344.694C95.1308 344.977 95.7021 345.124 96.2814 345.124C96.8606 345.124 97.4319 344.977 97.9493 344.694L246.34 251.58C246.543 251.507 246.72 251.366 246.845 251.178C246.97 250.989 247.038 250.762 247.038 250.53C247.038 250.297 246.97 250.071 246.845 249.882C246.72 249.694 246.543 249.553 246.34 249.48L228.759 238.448C228.241 238.158 227.667 238.007 227.084 238.007C226.502 238.007 225.928 238.158 225.41 238.448L77.0322 331.562C76.1048 332.136 76.1048 333.074 77.0322 333.662Z"
        fill="white" />
    <path opacity="0.1"
        d="M96.2748 345.128V351.694C95.6962 351.703 95.1247 351.554 94.6133 351.26L77.0321 340.2C76.5461 339.853 76.1415 339.388 75.8508 338.841C75.56 338.294 75.3911 337.681 75.3577 337.05V334.684C75.3778 334.131 75.5025 333.588 75.7241 333.089C75.9457 332.591 76.2594 332.147 76.6457 331.786C76.0661 332.36 76.182 333.186 76.9805 333.634L94.5617 344.666C95.0867 344.977 95.6767 345.137 96.2748 345.128Z"
        fill="black" />
    <path
        d="M88.2635 340.704L83.3691 337.638C82.5509 337.055 81.8604 336.284 81.3463 335.379C80.8322 334.474 80.507 333.458 80.3938 332.402L70.3088 142.38C70.3011 141.343 70.5328 140.32 70.9829 139.405C71.4329 138.49 72.0868 137.713 72.8848 137.144L219.06 45.4299C219.924 44.9539 220.879 44.7058 221.848 44.7058C222.817 44.7058 223.773 44.9539 224.637 45.4299L229.531 48.4959C230.35 49.0774 231.039 49.8484 231.552 50.7535C232.064 51.6587 232.385 52.6758 232.494 53.7319L242.592 243.754C242.597 244.791 242.364 245.813 241.914 246.727C241.465 247.641 240.812 248.419 240.016 248.99L93.8405 340.704C92.9762 341.18 92.0209 341.428 91.052 341.428C90.0831 341.428 89.1278 341.18 88.2635 340.704Z"
        fill="#E0E0E0" />
    <path
        d="M232.429 53.1998C232.133 51.6598 230.922 51.1138 229.518 51.9818L83.3691 143.71C82.5511 144.268 81.8878 145.056 81.45 145.992L70.9785 139.426C71.4325 138.513 72.0986 137.745 72.9105 137.2L219.06 45.4298C219.923 44.9571 220.876 44.7109 221.842 44.7109C222.808 44.7109 223.761 44.9571 224.624 45.4298L229.544 48.5098C230.288 49.0435 230.926 49.7333 231.422 50.5386C231.917 51.344 232.26 52.2487 232.429 53.1998Z"
        fill="#FAFAFA" />
    <path
        d="M80.7674 148.96L90.8653 338.968C90.8234 339.361 90.891 339.759 91.0595 340.109C91.2281 340.46 91.4896 340.748 91.8103 340.935C92.131 341.122 92.4961 341.2 92.8581 341.159C93.2201 341.118 93.5624 340.959 93.8406 340.704L239.99 248.99C240.786 248.419 241.439 247.641 241.889 246.727C242.339 245.813 242.571 244.791 242.566 243.754L232.494 53.732C232.533 53.3415 232.464 52.9471 232.296 52.5994C232.128 52.2516 231.868 51.9663 231.55 51.7799C231.232 51.5935 230.87 51.5145 230.51 51.553C230.151 51.5915 229.81 51.7457 229.531 51.996L83.3691 143.71C82.567 144.28 81.9088 145.059 81.4544 145.976C81 146.893 80.7638 147.918 80.7674 148.96Z"
        fill="#F0F0F0" />
    <path
        d="M190.453 77.9799V88.1999C190.433 88.6432 190.317 89.075 190.113 89.4596C189.909 89.8442 189.624 90.1706 189.281 90.4119L128.848 128.31C128.485 128.511 128.084 128.617 127.676 128.617C127.269 128.617 126.867 128.511 126.504 128.31L123.632 126.49C123.293 126.248 123.012 125.924 122.811 125.542C122.609 125.16 122.493 124.732 122.473 124.292V119.196L112.04 112.63L106.888 115.906V104.244C106.91 103.803 107.028 103.374 107.231 102.992C107.435 102.61 107.719 102.286 108.06 102.046L168.493 64.1059C168.856 63.9044 169.258 63.7993 169.665 63.7993C170.073 63.7993 170.474 63.9044 170.837 64.1059L189.32 75.7679C189.655 76.0139 189.933 76.3424 190.13 76.7267C190.327 77.111 190.438 77.5404 190.453 77.9799Z"
        fill="#263238" />
    <path
        d="M190.453 77.9798V88.1998C190.431 88.6407 190.314 89.0696 190.11 89.4516C189.906 89.8336 189.622 90.1578 189.281 90.3978L128.848 128.31C128.486 128.51 128.083 128.611 127.676 128.604V115.486C128.084 115.49 128.487 115.385 128.848 115.178L189.32 77.2378C189.887 76.8878 189.951 76.3278 189.526 75.9358C189.804 76.1868 190.03 76.4985 190.19 76.8506C190.349 77.2027 190.439 77.5875 190.453 77.9798Z"
        fill="#37474F" />
    <path
        d="M107.918 103.516L126.504 115.178C126.867 115.379 127.269 115.485 127.676 115.485C128.084 115.485 128.486 115.379 128.848 115.178L189.32 77.2379C189.458 77.1822 189.577 77.082 189.661 76.9506C189.745 76.8192 189.79 76.663 189.79 76.5029C189.79 76.3429 189.745 76.1867 189.661 76.0553C189.577 75.9239 189.458 75.8236 189.32 75.7679L170.734 64.1059C170.371 63.9044 169.97 63.7993 169.562 63.7993C169.155 63.7993 168.753 63.9044 168.39 64.1059L107.918 102.046C107.774 102.095 107.648 102.193 107.559 102.325C107.469 102.457 107.421 102.617 107.421 102.781C107.421 102.945 107.469 103.105 107.559 103.237C107.648 103.369 107.774 103.467 107.918 103.516Z"
        fill="#455A64" />
    <path
        d="M98.5803 185.794C99.3016 199.346 108.807 204.736 119.819 197.834C130.832 190.932 139.139 174.342 138.444 160.776C137.748 147.21 128.217 141.834 117.192 148.75C106.167 155.666 97.8719 172.2 98.5803 185.794Z"
        fill="#6695FF" />
    <path
        d="M98.5803 185.794C99.3016 199.346 108.807 204.736 119.819 197.834C130.832 190.932 139.139 174.342 138.444 160.776C137.748 147.21 128.217 141.834 117.192 148.75C106.167 155.666 97.8719 172.2 98.5803 185.794Z"
        fill="white" fill-opacity="0.24" />
    <path opacity="0.1"
        d="M131.36 146.888L118.48 173.292L117.192 148.75C122.537 145.418 127.496 144.942 131.36 146.888Z"
        fill="black" />
    <path opacity="0.2"
        d="M135.366 177.702L118.48 173.292L131.36 146.888C135.417 148.946 138.148 153.776 138.521 160.79C138.667 166.615 137.588 172.399 135.366 177.702Z"
        fill="black" />
    <path
        d="M148.375 144.494L148.49 146.65C148.468 146.884 148.509 147.12 148.61 147.329C148.711 147.537 148.866 147.708 149.056 147.82C149.247 147.933 149.463 147.981 149.679 147.96C149.895 147.938 150.1 147.848 150.268 147.7L217.914 105.266C218.394 104.923 218.788 104.456 219.06 103.906C219.333 103.356 219.474 102.741 219.472 102.116L219.369 99.96C219.394 99.7234 219.354 99.484 219.253 99.2728C219.151 99.0615 218.994 98.8881 218.801 98.7751C218.609 98.662 218.389 98.6144 218.171 98.6384C217.953 98.6625 217.747 98.7571 217.579 98.91L149.946 141.4C149.47 141.736 149.078 142.194 148.804 142.733C148.53 143.273 148.382 143.878 148.375 144.494Z"
        fill="#37474F" />
    <path
        d="M153.733 156.8L153.926 160.356C153.926 160.773 153.831 161.183 153.649 161.55C153.467 161.916 153.203 162.228 152.882 162.456L150.525 163.8C150.414 163.904 150.277 163.968 150.132 163.985C149.986 164.002 149.839 163.97 149.711 163.894C149.582 163.818 149.478 163.702 149.412 163.56C149.346 163.418 149.321 163.258 149.34 163.1L149.16 159.544C149.16 159.127 149.255 158.717 149.437 158.35C149.619 157.984 149.883 157.672 150.203 157.444L152.548 156.044C152.661 155.933 152.805 155.864 152.957 155.848C153.109 155.831 153.262 155.868 153.394 155.952C153.526 156.036 153.63 156.163 153.691 156.316C153.751 156.468 153.766 156.638 153.733 156.8Z"
        fill="#6695FF" />
    <path
        d="M153.733 156.8L153.926 160.356C153.926 160.773 153.831 161.183 153.649 161.55C153.467 161.916 153.203 162.228 152.882 162.456L150.525 163.8C150.414 163.904 150.277 163.968 150.132 163.985C149.986 164.002 149.839 163.97 149.711 163.894C149.582 163.818 149.478 163.702 149.412 163.56C149.346 163.418 149.321 163.258 149.34 163.1L149.16 159.544C149.16 159.127 149.255 158.717 149.437 158.35C149.619 157.984 149.883 157.672 150.203 157.444L152.548 156.044C152.661 155.933 152.805 155.864 152.957 155.848C153.109 155.831 153.262 155.868 153.394 155.952C153.526 156.036 153.63 156.163 153.691 156.316C153.751 156.468 153.766 156.638 153.733 156.8Z"
        fill="white" fill-opacity="0.24" />
    <path
        d="M218.725 121.072L160.984 157.262C160.816 157.41 160.611 157.5 160.395 157.522C160.179 157.543 159.963 157.495 159.773 157.382C159.582 157.27 159.427 157.099 159.326 156.89C159.226 156.682 159.184 156.446 159.207 156.212L159.104 154.056C159.1 153.431 159.241 152.815 159.514 152.265C159.786 151.715 160.181 151.248 160.662 150.906L218.352 114.716C218.52 114.568 218.725 114.477 218.94 114.456C219.156 114.434 219.373 114.483 219.563 114.595C219.753 114.708 219.909 114.879 220.009 115.087C220.11 115.296 220.152 115.532 220.129 115.766L220.245 117.936C220.254 118.555 220.119 119.167 219.853 119.715C219.588 120.263 219.2 120.729 218.725 121.072Z"
        fill="#455A64" />
    <path
        d="M154.39 172.676L154.57 176.232C154.57 176.649 154.475 177.059 154.293 177.426C154.111 177.792 153.847 178.104 153.527 178.332L151.182 179.802C151.071 179.906 150.934 179.97 150.789 179.987C150.643 180.004 150.496 179.972 150.368 179.896C150.239 179.82 150.135 179.704 150.069 179.562C150.003 179.42 149.978 179.259 149.997 179.102L149.817 175.546C149.817 175.129 149.912 174.719 150.094 174.352C150.276 173.986 150.54 173.674 150.86 173.446L153.205 172.046C153.312 171.948 153.442 171.886 153.581 171.868C153.72 171.849 153.86 171.875 153.986 171.942C154.111 172.008 154.216 172.113 154.288 172.244C154.36 172.374 154.395 172.524 154.39 172.676Z"
        fill="#6695FF" />
    <path
        d="M154.39 172.676L154.57 176.232C154.57 176.649 154.475 177.059 154.293 177.426C154.111 177.792 153.847 178.104 153.527 178.332L151.182 179.802C151.071 179.906 150.934 179.97 150.789 179.987C150.643 180.004 150.496 179.972 150.368 179.896C150.239 179.82 150.135 179.704 150.069 179.562C150.003 179.42 149.978 179.259 149.997 179.102L149.817 175.546C149.817 175.129 149.912 174.719 150.094 174.352C150.276 173.986 150.54 173.674 150.86 173.446L153.205 172.046C153.312 171.948 153.442 171.886 153.581 171.868C153.72 171.849 153.86 171.875 153.986 171.942C154.111 172.008 154.216 172.113 154.288 172.244C154.36 172.374 154.395 172.524 154.39 172.676Z"
        fill="white" fill-opacity="0.24" />
    <path opacity="0.1"
        d="M154.39 172.676L154.57 176.232C154.57 176.649 154.475 177.059 154.293 177.426C154.111 177.792 153.847 178.104 153.527 178.332L151.182 179.802C151.071 179.906 150.934 179.97 150.789 179.987C150.643 180.004 150.496 179.972 150.368 179.896C150.239 179.82 150.135 179.704 150.069 179.562C150.003 179.42 149.978 179.259 149.997 179.102L149.817 175.546C149.817 175.129 149.912 174.719 150.094 174.352C150.276 173.986 150.54 173.674 150.86 173.446L153.205 172.046C153.312 171.948 153.442 171.886 153.581 171.868C153.72 171.849 153.86 171.875 153.986 171.942C154.111 172.008 154.216 172.113 154.288 172.244C154.36 172.374 154.395 172.524 154.39 172.676Z"
        fill="black" />
    <path
        d="M219.382 137.018L161.667 173.222C161.498 173.37 161.293 173.46 161.078 173.482C160.862 173.503 160.645 173.455 160.455 173.342C160.265 173.23 160.11 173.059 160.009 172.85C159.908 172.642 159.866 172.406 159.889 172.172L159.786 170.016C159.784 169.391 159.926 168.776 160.198 168.226C160.47 167.676 160.864 167.208 161.345 166.866L219.06 130.662C219.228 130.514 219.433 130.423 219.649 130.402C219.864 130.38 220.081 130.429 220.271 130.541C220.462 130.654 220.617 130.825 220.718 131.033C220.818 131.242 220.86 131.478 220.837 131.712L220.953 133.882C220.953 134.506 220.809 135.119 220.534 135.667C220.26 136.215 219.864 136.679 219.382 137.018Z"
        fill="#455A64" />
    <path
        d="M155.033 188.762L155.227 192.304C155.227 192.721 155.132 193.131 154.95 193.498C154.768 193.864 154.504 194.176 154.183 194.404L151.813 195.888C151.701 195.984 151.564 196.043 151.421 196.056C151.278 196.069 151.135 196.036 151.009 195.962C150.883 195.887 150.78 195.774 150.712 195.637C150.644 195.499 150.615 195.343 150.628 195.188L150.448 191.646C150.444 191.228 150.538 190.817 150.72 190.449C150.903 190.082 151.168 189.771 151.491 189.546L153.848 188.062C153.959 187.958 154.097 187.894 154.242 187.877C154.388 187.86 154.535 187.892 154.663 187.967C154.792 188.043 154.896 188.16 154.962 188.302C155.028 188.444 155.053 188.604 155.033 188.762Z"
        fill="#6695FF" />
    <path
        d="M155.033 188.762L155.227 192.304C155.227 192.721 155.132 193.131 154.95 193.498C154.768 193.864 154.504 194.176 154.183 194.404L151.813 195.888C151.701 195.984 151.564 196.043 151.421 196.056C151.278 196.069 151.135 196.036 151.009 195.962C150.883 195.887 150.78 195.774 150.712 195.637C150.644 195.499 150.615 195.343 150.628 195.188L150.448 191.646C150.444 191.228 150.538 190.817 150.72 190.449C150.903 190.082 151.168 189.771 151.491 189.546L153.848 188.062C153.959 187.958 154.097 187.894 154.242 187.877C154.388 187.86 154.535 187.892 154.663 187.967C154.792 188.043 154.896 188.16 154.962 188.302C155.028 188.444 155.053 188.604 155.033 188.762Z"
        fill="white" fill-opacity="0.24" />
    <path opacity="0.2"
        d="M155.033 188.762L155.227 192.304C155.227 192.721 155.132 193.131 154.95 193.498C154.768 193.864 154.504 194.176 154.183 194.404L151.813 195.888C151.701 195.984 151.564 196.043 151.421 196.056C151.278 196.069 151.135 196.036 151.009 195.962C150.883 195.887 150.78 195.774 150.712 195.637C150.644 195.499 150.615 195.343 150.628 195.188L150.448 191.646C150.444 191.228 150.538 190.817 150.72 190.449C150.903 190.082 151.168 189.771 151.491 189.546L153.848 188.062C153.959 187.958 154.097 187.894 154.242 187.877C154.388 187.86 154.535 187.892 154.663 187.967C154.792 188.043 154.896 188.16 154.962 188.302C155.028 188.444 155.053 188.604 155.033 188.762Z"
        fill="black" />
    <path
        d="M220.013 153.104L162.272 189.294C162.104 189.442 161.899 189.532 161.683 189.554C161.467 189.575 161.251 189.527 161.06 189.414C160.87 189.302 160.715 189.131 160.614 188.922C160.513 188.714 160.472 188.478 160.494 188.244L160.391 186.102C160.388 185.477 160.529 184.861 160.802 184.311C161.074 183.761 161.469 183.293 161.95 182.952L219.652 146.748C219.821 146.6 220.026 146.509 220.241 146.488C220.457 146.466 220.674 146.515 220.864 146.627C221.054 146.74 221.209 146.911 221.31 147.119C221.411 147.328 221.452 147.564 221.43 147.798L221.546 149.954C221.55 150.576 221.413 151.189 221.145 151.739C220.878 152.289 220.489 152.758 220.013 153.104Z"
        fill="#455A64" />
    <path
        d="M107.055 216.132L135.031 198.534C135.199 198.381 135.405 198.286 135.623 198.262C135.841 198.238 136.061 198.286 136.254 198.399C136.446 198.512 136.604 198.685 136.705 198.897C136.806 199.108 136.847 199.347 136.821 199.584L137.092 204.666C137.095 205.291 136.954 205.906 136.682 206.457C136.409 207.007 136.014 207.474 135.533 207.816L107.545 225.4C107.377 225.553 107.171 225.647 106.953 225.671C106.735 225.695 106.515 225.648 106.322 225.535C106.129 225.422 105.972 225.248 105.871 225.037C105.77 224.826 105.729 224.586 105.755 224.35L105.484 219.268C105.486 218.644 105.63 218.031 105.905 217.484C106.179 216.936 106.574 216.472 107.055 216.132Z"
        fill="#37474F" />
    <path
        d="M101.221 257.278L142.334 231.476C142.502 231.328 142.707 231.237 142.923 231.216C143.138 231.194 143.355 231.243 143.545 231.355C143.736 231.468 143.891 231.639 143.992 231.847C144.092 232.056 144.134 232.292 144.111 232.526L144.227 234.682C144.234 235.307 144.094 235.924 143.822 236.475C143.549 237.026 143.152 237.493 142.669 237.832L101.556 263.634C101.387 263.782 101.182 263.872 100.967 263.894C100.751 263.915 100.535 263.867 100.344 263.754C100.154 263.642 99.9987 263.471 99.8979 263.262C99.7972 263.054 99.7556 262.818 99.7783 262.584L99.6624 260.4C99.66 259.779 99.8016 259.168 100.074 258.622C100.346 258.076 100.741 257.614 101.221 257.278Z"
        fill="#455A64" />
    <path
        d="M102.122 274.232L143.235 248.416C143.401 248.262 143.606 248.166 143.822 248.14C144.039 248.115 144.258 248.161 144.45 248.273C144.642 248.385 144.799 248.557 144.899 248.768C145 248.978 145.039 249.217 145.013 249.452L145.129 251.622C145.133 252.247 144.992 252.863 144.72 253.414C144.448 253.964 144.052 254.431 143.57 254.772L102.457 280.56C102.29 280.707 102.086 280.797 101.872 280.818C101.658 280.84 101.442 280.793 101.252 280.682C101.063 280.572 100.907 280.403 100.806 280.197C100.704 279.991 100.66 279.757 100.68 279.524L100.564 277.382C100.56 276.757 100.7 276.141 100.972 275.59C101.245 275.04 101.64 274.573 102.122 274.232Z"
        fill="#455A64" />
    <path
        d="M103.024 291.2L144.137 265.356C144.305 265.208 144.51 265.117 144.726 265.096C144.942 265.074 145.158 265.123 145.348 265.235C145.539 265.348 145.694 265.519 145.795 265.727C145.896 265.936 145.937 266.172 145.914 266.406L146.03 268.562C146.037 269.187 145.898 269.805 145.625 270.355C145.352 270.906 144.956 271.373 144.472 271.712L103.359 297.5C103.191 297.648 102.986 297.738 102.77 297.76C102.554 297.781 102.338 297.733 102.147 297.62C101.957 297.508 101.802 297.337 101.701 297.128C101.6 296.92 101.559 296.684 101.581 296.45L101.466 294.336C101.466 293.714 101.608 293.101 101.88 292.554C102.152 292.006 102.545 291.541 103.024 291.2Z"
        fill="#455A64" />
    <path
        d="M103.939 308.14L145.039 282.282C145.206 282.13 145.411 282.036 145.627 282.012C145.844 281.988 146.062 282.034 146.254 282.145C146.447 282.256 146.604 282.427 146.706 282.636C146.809 282.845 146.851 283.082 146.829 283.318L146.945 285.488C146.943 286.113 146.799 286.728 146.524 287.278C146.25 287.828 145.855 288.295 145.374 288.638L104.312 314.426C104.144 314.579 103.938 314.673 103.72 314.697C103.502 314.721 103.282 314.674 103.089 314.561C102.897 314.448 102.739 314.274 102.638 314.063C102.537 313.852 102.496 313.612 102.522 313.376L102.419 311.29C102.411 310.669 102.547 310.056 102.812 309.506C103.077 308.956 103.464 308.486 103.939 308.14Z"
        fill="#455A64" />
    <path
        d="M158.124 231.476L164.036 227.766C164.205 227.618 164.41 227.527 164.625 227.506C164.841 227.484 165.058 227.533 165.248 227.645C165.438 227.758 165.593 227.929 165.694 228.137C165.795 228.346 165.837 228.582 165.814 228.816L167.643 262.64C167.647 263.265 167.507 263.881 167.234 264.432C166.962 264.982 166.566 265.449 166.084 265.79L160.172 269.486C160.005 269.638 159.8 269.731 159.584 269.756C159.367 269.78 159.149 269.734 158.957 269.623C158.764 269.511 158.607 269.34 158.505 269.132C158.402 268.923 158.36 268.685 158.382 268.45L156.566 234.626C156.562 234.001 156.702 233.385 156.975 232.834C157.247 232.284 157.642 231.817 158.124 231.476Z"
        fill="#6695FF" />
    <path
        d="M158.124 231.476L164.036 227.766C164.205 227.618 164.41 227.527 164.625 227.506C164.841 227.484 165.058 227.533 165.248 227.645C165.438 227.758 165.593 227.929 165.694 228.137C165.795 228.346 165.837 228.582 165.814 228.816L167.643 262.64C167.647 263.265 167.507 263.881 167.234 264.432C166.962 264.982 166.566 265.449 166.084 265.79L160.172 269.486C160.005 269.638 159.8 269.731 159.584 269.756C159.367 269.78 159.149 269.734 158.957 269.623C158.764 269.511 158.607 269.34 158.505 269.132C158.402 268.923 158.36 268.685 158.382 268.45L156.566 234.626C156.562 234.001 156.702 233.385 156.975 232.834C157.247 232.284 157.642 231.817 158.124 231.476Z"
        fill="white" fill-opacity="0.24" />
    <path
        d="M160.507 275.8L166.419 272.09C167.347 271.516 168.132 271.754 168.184 272.636C168.137 273.183 167.967 273.71 167.688 274.169C167.41 274.628 167.031 275.006 166.587 275.268L160.675 278.978C159.76 279.566 158.962 279.328 158.923 278.446C158.965 277.897 159.132 277.368 159.409 276.906C159.685 276.444 160.063 276.064 160.507 275.8Z"
        fill="#37474F" />
    <path
        d="M179.171 234.878L185.082 231.168C185.25 231.015 185.457 230.92 185.675 230.896C185.893 230.872 186.112 230.92 186.305 231.033C186.498 231.146 186.655 231.319 186.756 231.531C186.858 231.742 186.898 231.981 186.873 232.218L187.826 249.942C187.829 250.567 187.688 251.182 187.416 251.733C187.143 252.283 186.749 252.75 186.267 253.092L180.304 256.802C180.136 256.955 179.93 257.049 179.712 257.073C179.494 257.097 179.274 257.05 179.081 256.937C178.888 256.824 178.731 256.65 178.63 256.439C178.529 256.228 178.488 255.988 178.514 255.752L177.612 238C177.613 237.38 177.756 236.77 178.028 236.225C178.3 235.68 178.693 235.217 179.171 234.878Z"
        fill="#6695FF" />
    <path
        d="M179.171 234.878L185.082 231.168C185.25 231.015 185.457 230.92 185.675 230.896C185.893 230.872 186.112 230.92 186.305 231.033C186.498 231.146 186.655 231.319 186.756 231.531C186.858 231.742 186.898 231.981 186.873 232.218L187.826 249.942C187.829 250.567 187.688 251.182 187.416 251.733C187.143 252.283 186.749 252.75 186.267 253.092L180.304 256.802C180.136 256.955 179.93 257.049 179.712 257.073C179.494 257.097 179.274 257.05 179.081 256.937C178.888 256.824 178.731 256.65 178.63 256.439C178.529 256.228 178.488 255.988 178.514 255.752L177.612 238C177.613 237.38 177.756 236.77 178.028 236.225C178.3 235.68 178.693 235.217 179.171 234.878Z"
        fill="white" fill-opacity="0.24" />
    <path opacity="0.1"
        d="M179.171 234.878L185.082 231.168C185.25 231.015 185.457 230.92 185.675 230.896C185.893 230.872 186.112 230.92 186.305 231.033C186.498 231.146 186.655 231.319 186.756 231.531C186.858 231.742 186.898 231.981 186.873 232.218L187.826 249.942C187.829 250.567 187.688 251.182 187.416 251.733C187.143 252.283 186.749 252.75 186.267 253.092L180.304 256.802C180.136 256.955 179.93 257.049 179.712 257.073C179.494 257.097 179.274 257.05 179.081 256.937C178.888 256.824 178.731 256.65 178.63 256.439C178.529 256.228 178.488 255.988 178.514 255.752L177.612 238C177.613 237.38 177.756 236.77 178.028 236.225C178.3 235.68 178.693 235.217 179.171 234.878Z"
        fill="black" />
    <path
        d="M180.69 263.2L186.602 259.49C187.53 258.916 188.315 259.154 188.354 260.036C188.311 260.583 188.144 261.11 187.867 261.569C187.591 262.028 187.214 262.406 186.77 262.668L180.858 266.378C179.931 266.952 179.145 266.714 179.106 265.832C179.149 265.285 179.317 264.758 179.593 264.299C179.87 263.84 180.247 263.462 180.69 263.2Z"
        fill="#37474F" />
    <path
        d="M198.053 196.378L203.965 192.668C204.133 192.52 204.338 192.429 204.554 192.408C204.769 192.386 204.986 192.435 205.176 192.547C205.366 192.66 205.522 192.831 205.622 193.039C205.723 193.248 205.765 193.484 205.742 193.718L208.009 237.258C208.011 237.882 207.869 238.498 207.597 239.048C207.325 239.598 206.931 240.065 206.45 240.408L200.539 244.118C200.371 244.271 200.164 244.365 199.946 244.389C199.728 244.413 199.509 244.366 199.316 244.253C199.123 244.14 198.966 243.966 198.865 243.755C198.763 243.544 198.723 243.304 198.748 243.068L196.494 199.528C196.49 198.903 196.63 198.287 196.903 197.736C197.175 197.186 197.571 196.719 198.053 196.378Z"
        fill="#6695FF" />
    <path
        d="M198.053 196.378L203.965 192.668C204.133 192.52 204.338 192.429 204.554 192.408C204.769 192.386 204.986 192.435 205.176 192.547C205.366 192.66 205.522 192.831 205.622 193.039C205.723 193.248 205.765 193.484 205.742 193.718L208.009 237.258C208.011 237.882 207.869 238.498 207.597 239.048C207.325 239.598 206.931 240.065 206.45 240.408L200.539 244.118C200.371 244.271 200.164 244.365 199.946 244.389C199.728 244.413 199.509 244.366 199.316 244.253C199.123 244.14 198.966 243.966 198.865 243.755C198.763 243.544 198.723 243.304 198.748 243.068L196.494 199.528C196.49 198.903 196.63 198.287 196.903 197.736C197.175 197.186 197.571 196.719 198.053 196.378Z"
        fill="white" fill-opacity="0.24" />
    <path opacity="0.2"
        d="M198.053 196.378L203.965 192.668C204.133 192.52 204.338 192.429 204.554 192.408C204.769 192.386 204.986 192.435 205.176 192.547C205.366 192.66 205.522 192.831 205.622 193.039C205.723 193.248 205.765 193.484 205.742 193.718L208.009 237.258C208.011 237.882 207.869 238.498 207.597 239.048C207.325 239.598 206.931 240.065 206.45 240.408L200.539 244.118C200.371 244.271 200.164 244.365 199.946 244.389C199.728 244.413 199.509 244.366 199.316 244.253C199.123 244.14 198.966 243.966 198.865 243.755C198.763 243.544 198.723 243.304 198.748 243.068L196.494 199.528C196.49 198.903 196.63 198.287 196.903 197.736C197.175 197.186 197.571 196.719 198.053 196.378Z"
        fill="black" />
    <path
        d="M200.912 250.474L206.824 246.764C207.738 246.176 208.537 246.414 208.576 247.296C208.533 247.845 208.367 248.374 208.09 248.836C207.814 249.297 207.436 249.678 206.991 249.942L201.08 253.652C200.152 254.226 199.366 253.988 199.315 253.106C199.362 252.558 199.532 252.032 199.81 251.573C200.089 251.113 200.467 250.736 200.912 250.474Z"
        fill="#37474F" />
    <path
        d="M219.266 202.916L225.178 199.206C225.346 199.058 225.551 198.967 225.767 198.946C225.982 198.924 226.199 198.973 226.389 199.085C226.58 199.198 226.735 199.369 226.836 199.577C226.936 199.786 226.978 200.022 226.955 200.256L228.243 224.574C228.245 225.198 228.102 225.813 227.828 226.361C227.553 226.909 227.155 227.373 226.672 227.71L220.76 231.42C220.593 231.567 220.389 231.657 220.175 231.678C219.96 231.7 219.745 231.653 219.555 231.542C219.366 231.432 219.21 231.263 219.108 231.057C219.006 230.851 218.963 230.617 218.983 230.384L217.695 206.066C217.694 205.44 217.838 204.824 218.112 204.274C218.386 203.724 218.783 203.257 219.266 202.916Z"
        fill="#6695FF" />
    <path
        d="M219.266 202.916L225.178 199.206C225.346 199.058 225.551 198.967 225.767 198.946C225.982 198.924 226.199 198.973 226.389 199.085C226.58 199.198 226.735 199.369 226.836 199.577C226.936 199.786 226.978 200.022 226.955 200.256L228.243 224.574C228.245 225.198 228.102 225.813 227.828 226.361C227.553 226.909 227.155 227.373 226.672 227.71L220.76 231.42C220.593 231.567 220.389 231.657 220.175 231.678C219.96 231.7 219.745 231.653 219.555 231.542C219.366 231.432 219.21 231.263 219.108 231.057C219.006 230.851 218.963 230.617 218.983 230.384L217.695 206.066C217.694 205.44 217.838 204.824 218.112 204.274C218.386 203.724 218.783 203.257 219.266 202.916Z"
        fill="white" fill-opacity="0.24" />
    <path opacity="0.3"
        d="M219.266 202.916L225.178 199.206C225.346 199.058 225.551 198.967 225.767 198.946C225.982 198.924 226.199 198.973 226.389 199.085C226.58 199.198 226.735 199.369 226.836 199.577C226.936 199.786 226.978 200.022 226.955 200.256L228.243 224.574C228.245 225.198 228.102 225.813 227.828 226.361C227.553 226.909 227.155 227.373 226.672 227.71L220.76 231.42C220.593 231.567 220.389 231.657 220.175 231.678C219.96 231.7 219.745 231.653 219.555 231.542C219.366 231.432 219.21 231.263 219.108 231.057C219.006 230.851 218.963 230.617 218.983 230.384L217.695 206.066C217.694 205.44 217.838 204.824 218.112 204.274C218.386 203.724 218.783 203.257 219.266 202.916Z"
        fill="black" />
    <path
        d="M221.056 237.776L226.968 234.066C227.883 233.492 228.668 233.73 228.72 234.612C228.675 235.158 228.506 235.684 228.23 236.143C227.954 236.602 227.578 236.98 227.136 237.244L221.224 240.954C220.296 241.542 219.511 241.29 219.459 240.422C219.507 239.873 219.678 239.345 219.956 238.884C220.234 238.423 220.612 238.042 221.056 237.776Z"
        fill="#37474F" />
    <path
        d="M365.866 266.406L375.913 259.98C376.595 261.926 377.201 263.634 377.793 265.034C378.386 266.434 380.936 268.156 382.172 268.772C385.457 270.41 386.938 272.356 389.54 274.638C391.575 276.43 393.172 276.724 393.004 277.438C392.747 278.204 392.231 278.836 391.562 279.205C390.892 279.574 390.119 279.653 389.398 279.426C387.792 278.981 386.24 278.333 384.774 277.494C386.191 280.335 388.017 282.911 390.184 285.124C395.13 290.206 395.735 293.678 387.131 294.924C381.747 295.736 377.007 292.726 371.392 280.364C369.247 275.86 367.4 271.196 365.866 266.406Z"
        fill="#B16668" />
    <path
        d="M351.492 157.948C350.351 161.433 348.973 164.821 347.37 168.084C345.735 171.122 347.113 219.59 347.937 223.65C348.761 227.71 365.08 267.4 365.08 267.4C367.373 267.929 369.752 267.809 371.989 267.051C374.226 266.294 376.247 264.924 377.857 263.074L365.776 221.536L364.964 186.2C364.964 186.2 365.441 160.65 351.492 157.948Z"
        fill="#6695FF" />
    <path
        d="M351.492 157.948C350.351 161.433 348.973 164.821 347.37 168.084C345.735 171.122 347.113 219.59 347.937 223.65C348.761 227.71 365.08 267.4 365.08 267.4C367.373 267.929 369.752 267.809 371.989 267.051C374.226 266.294 376.247 264.924 377.857 263.074L365.776 221.536L364.964 186.2C364.964 186.2 365.441 160.65 351.492 157.948Z"
        fill="white" fill-opacity="0.24" />
    <path opacity="0.1"
        d="M351.492 157.948C350.351 161.433 348.973 164.821 347.37 168.084C345.735 171.122 347.113 219.59 347.937 223.65C348.761 227.71 365.08 267.4 365.08 267.4C367.373 267.929 369.752 267.809 371.989 267.051C374.226 266.294 376.247 264.924 377.857 263.074L365.776 221.536L364.964 186.2C364.964 186.2 365.441 160.65 351.492 157.948Z"
        fill="black" />
    <path d="M300.358 437.612H312.427V415.156H300.358V437.612Z" fill="#B16668" />
    <path d="M349.702 420.616L361.757 421.064L362.363 397.306L349.702 396.858V420.616Z" fill="#B16668" />
    <path
        d="M302.059 254.898C302.059 267.498 301.26 340.298 301.26 340.298C300.977 343.896 297.795 350.308 297.538 363.286C297.177 382.102 299.843 426.44 299.843 426.44C301.926 427.554 304.209 428.158 306.53 428.209C308.851 428.26 311.154 427.756 313.277 426.734C313.277 426.734 322.757 364.014 324.869 345.394C326.75 329.126 333.267 285.726 333.267 285.726L342.592 340.634C341.2 347.468 340.697 354.48 341.098 361.466C341.665 370.09 349.006 413.266 349.006 413.266C351.109 414.556 353.447 415.329 355.855 415.53C358.263 415.731 360.683 415.355 362.942 414.428C362.942 414.428 363.664 346.668 363.792 338.828C363.96 329.812 360.341 252.28 360.341 252.28L302.059 254.898Z"
        fill="#37474F" />
    <path
        d="M312.427 431.2V429.338C313.071 429.338 313.47 430.01 313.715 431.704C313.895 432.908 314.063 433.818 314.423 435.414C314.964 437.706 315.67 439.949 316.536 442.12C318.236 446.698 319.666 448.392 323.581 453.74C324.919 455.217 326.171 456.783 327.329 458.43C328.051 459.83 328.308 463.764 327.072 464.66C322.512 467.964 315.596 468.048 310.701 466.494C308.876 465.94 307.237 464.828 305.978 463.288C304.72 461.749 303.896 459.849 303.604 457.814C303.424 456.61 303.488 455.378 303.36 454.16C302.934 451.392 301.895 448.778 300.333 446.544C299.428 445.238 298.655 443.83 298.027 442.344C297.01 439.642 297.821 436.604 298.465 433.944C299.032 431.62 299.637 429.072 300.359 429.282V430.682C302.08 432.148 304.212 432.929 306.399 432.894C308.164 432.978 312.44 432.6 312.427 431.2Z"
        fill="#263238" />
    <path
        d="M361.912 417.018C362.543 417.018 363.058 417.998 364.488 419.622C366.55 421.906 368.948 423.799 371.585 425.222C376.106 427.672 384.89 431.452 388.857 433.398C391.343 434.616 391.227 437.878 388.664 439.74C386.101 441.602 379.892 442.932 372.461 441.14C368.404 440.146 363.123 436.072 359.787 436.296C356.451 436.52 350.191 436.464 347.731 434.616C345.271 432.768 346.25 428.82 346.945 425.432C347.705 421.736 348.658 415.968 349.779 416.22V417.494C351.234 419.888 358.718 420.854 361.912 419.09V417.018Z"
        fill="#263238" />
    <path
        d="M333.318 285.67C339.535 283.547 345.249 279.973 350.062 275.198C350.062 275.198 346.817 281.792 337.182 287.938L341.845 336.826L333.318 285.67Z"
        fill="#263238" />
    <path
        d="M322.976 158.83C318.88 159.908 310.598 161.378 308.743 170.268C306.515 180.936 305.781 204.19 305.781 204.19L305.021 255.99C313.329 262.556 343.854 266.14 361.332 252.266C361.332 252.266 359.194 190.148 359.194 180.488C359.194 170.828 354.248 159.194 340.608 158.34L322.976 158.83Z"
        fill="#F5F5F5" />
    <path
        d="M340.415 157.262C340.415 157.262 346.546 162.554 348.208 170.38C349.869 178.206 350.14 265.58 350.14 265.58C350.14 265.58 358.666 263.872 362.659 260.456C362.659 260.456 362.144 191.506 361.371 180.11C360.083 162.82 360.276 157.836 340.467 156.016L340.415 157.262Z"
        fill="#6695FF" />
    <path
        d="M340.415 157.262C340.415 157.262 346.546 162.554 348.208 170.38C349.869 178.206 350.14 265.58 350.14 265.58C350.14 265.58 358.666 263.872 362.659 260.456C362.659 260.456 362.144 191.506 361.371 180.11C360.083 162.82 360.276 157.836 340.467 156.016L340.415 157.262Z"
        fill="white" fill-opacity="0.24" />
    <path
        d="M319.408 155.988C319.408 155.988 330.781 163.59 330.897 193.788C331.013 219.94 331.811 265.496 331.811 265.496C331.811 265.496 312.994 268.506 301.067 260.764C301.067 260.764 299.65 197.33 299.869 187.516C300.127 176.316 302.548 161.728 305.871 160.286C310.279 158.489 314.803 157.052 319.408 155.988Z"
        fill="#6695FF" />
    <path
        d="M319.408 155.988C319.408 155.988 330.781 163.59 330.897 193.788C331.013 219.94 331.811 265.496 331.811 265.496C331.811 265.496 312.994 268.506 301.067 260.764C301.067 260.764 299.65 197.33 299.869 187.516C300.127 176.316 302.548 161.728 305.871 160.286C310.279 158.489 314.803 157.052 319.408 155.988Z"
        fill="white" fill-opacity="0.24" />
    <path
        d="M293.3 176.89C287.968 186.69 276.427 206.57 276.427 206.57C275.41 205.702 251.144 189.182 245.67 181.804C244.558 179.016 243.176 176.364 241.548 173.894C239.462 170.926 237.298 168.028 235.108 165.172C234.949 164.949 234.757 164.755 234.542 164.598C233.717 164.066 232.623 164.85 232.352 165.844C232.177 166.869 232.289 167.927 232.674 168.882C233.06 170.17 234.271 171.962 232.584 172.27C231.129 172.345 229.683 171.992 228.398 171.248C226.26 170.24 224.147 169.134 222.087 167.944C220.819 167.039 219.37 166.478 217.862 166.306C216.759 166.356 215.696 166.772 214.816 167.497C213.937 168.223 213.283 169.224 212.942 170.366C212.63 171.515 212.537 172.721 212.67 173.911C212.803 175.1 213.158 176.247 213.715 177.282C214.846 179.342 216.354 181.129 218.145 182.532C221.919 185.71 226.917 187.166 231.489 188.482C233.795 189.158 235.974 190.267 237.929 191.758C241.574 194.558 260.559 212.114 269.653 219.338C277.883 225.89 280.201 223.328 285.005 218.036C289.81 212.744 307.919 187.866 307.919 187.866L293.3 176.89Z"
        fill="#B16668" />
    <path
        d="M309.207 158.998C296.868 162.918 297.692 167.664 289.475 181.93C281.257 196.196 275.758 202.65 275.758 202.65L249.534 184.688C245.773 187.651 242.858 191.708 241.123 196.392C241.123 196.392 267.489 218.624 271.159 221.116C276.389 224.672 279.081 226.044 283.37 222.096C287.659 218.148 305.021 197.4 305.021 197.4C312.968 188.706 314.617 165.424 309.207 158.998Z"
        fill="#6695FF" />
    <path
        d="M309.207 158.998C296.868 162.918 297.692 167.664 289.475 181.93C281.257 196.196 275.758 202.65 275.758 202.65L249.534 184.688C245.773 187.651 242.858 191.708 241.123 196.392C241.123 196.392 267.489 218.624 271.159 221.116C276.389 224.672 279.081 226.044 283.37 222.096C287.659 218.148 305.021 197.4 305.021 197.4C312.968 188.706 314.617 165.424 309.207 158.998Z"
        fill="white" fill-opacity="0.24" />
    <path opacity="0.1"
        d="M309.207 158.998C296.868 162.918 297.692 167.664 289.475 181.93C281.257 196.196 275.758 202.65 275.758 202.65L249.534 184.688C245.773 187.651 242.858 191.708 241.123 196.392C241.123 196.392 267.489 218.624 271.159 221.116C276.389 224.672 279.081 226.044 283.37 222.096C287.659 218.148 305.021 197.4 305.021 197.4C312.968 188.706 314.617 165.424 309.207 158.998Z"
        fill="black" />
    <path opacity="0.1"
        d="M318.107 172.522L323.311 179.536L320.709 187.502L327.548 206.57L319.305 187.502L322.19 179.984L318.107 172.522Z"
        fill="black" />
    <path opacity="0.1"
        d="M354.828 170.268L353.707 177.52L358.215 183.89L351.943 205.366L356.799 184.128L352.638 178.164L354.828 170.268Z"
        fill="black" />
    <path
        d="M354.224 128.462C360.698 121.426 360.698 110.017 354.224 102.981C347.75 95.9443 337.255 95.9443 330.781 102.981C324.308 110.017 324.308 121.426 330.781 128.462C337.255 135.499 347.75 135.499 354.224 128.462Z"
        fill="#263238" />
    <path
        d="M313.844 128.548C313.844 128.548 316.523 142.268 317.605 144.522C318.319 145.913 319.501 146.951 320.902 147.42L320.696 137.76L313.844 128.548Z"
        fill="#263238" />
    <path
        d="M317.205 108.892C316.266 108.768 315.313 108.881 314.42 109.221C313.526 109.56 312.717 110.119 312.053 110.852C309.838 113.316 311.074 121.002 313.831 128.548L318.88 129.178L317.205 108.892Z"
        fill="#263238" />
    <path
        d="M320.413 129.178C319.395 129.836 317.953 127.778 316.703 126.294C315.454 124.81 311.371 122.934 309.323 127.596C307.275 132.258 311.126 138.642 314.346 139.734C319.885 141.624 320.786 137.76 320.786 137.76L321.186 160.16C325.05 165.494 333.64 171.78 338.264 170.884C341.974 170.17 342.772 163.366 339.243 158.914V152.306C341.713 152.734 344.217 152.875 346.714 152.726C350.784 152.04 353.347 148.526 354.583 143.752C356.567 136.038 357.327 129.752 355.64 114.674C353.798 98.0699 336.023 97.8739 326.428 104.454C316.832 111.034 320.413 129.178 320.413 129.178Z"
        fill="#B16668" />
    <path
        d="M320.413 131.04C319.91 131.04 317.965 127.54 316.703 126.294C314.951 124.558 317.205 108.892 317.205 108.892C316.616 107.52 316.416 105.987 316.632 104.491C316.848 102.995 317.469 101.603 318.416 100.492C320.812 97.6919 324.161 94.1219 335.044 95.5219C342.772 96.5159 351.234 99.1479 358.061 95.5219C358.693 97.9389 358.645 100.506 357.924 102.893C357.204 105.281 355.843 107.38 354.016 108.92C354.016 108.92 351.543 110.656 345 111.51C338.457 112.364 328.398 111.342 326.968 111.146C325.088 110.866 324.689 112.84 323.671 118.258C322.873 122.934 322.126 130.998 320.413 131.04Z"
        fill="#263238" />
    <path
        d="M317.218 110.11L311.087 106.526C311.283 106.077 311.56 105.677 311.902 105.348C312.244 105.02 312.644 104.77 313.078 104.614C313.511 104.458 313.969 104.4 314.424 104.442C314.879 104.484 315.321 104.626 315.724 104.86C316.549 105.355 317.166 106.179 317.445 107.158C317.723 108.136 317.642 109.195 317.218 110.11Z"
        fill="#263238" />
    <path
        d="M339.166 152.306C339.166 152.306 330.06 150.318 326.878 148.47C325.013 147.41 323.483 145.767 322.486 143.752C322.963 145.783 323.813 147.688 324.985 149.352C327.303 152.586 339.153 154.952 339.153 154.952L339.166 152.306Z"
        fill="#9A4A4D" />
    <path
        d="M336.976 126.7C336.956 127.088 336.832 127.46 336.619 127.772C336.406 128.084 336.114 128.321 335.779 128.455C335.443 128.588 335.079 128.612 334.732 128.523C334.384 128.434 334.068 128.237 333.822 127.955C333.576 127.673 333.412 127.319 333.35 126.936C333.287 126.554 333.329 126.16 333.47 125.803C333.611 125.447 333.845 125.143 334.143 124.929C334.441 124.715 334.79 124.6 335.147 124.6C335.395 124.603 335.64 124.661 335.867 124.769C336.095 124.877 336.3 125.034 336.47 125.23C336.641 125.426 336.773 125.657 336.86 125.909C336.947 126.162 336.987 126.43 336.976 126.7Z"
        fill="#263238" />
    <path
        d="M335.044 119.224L331.18 121.562C330.9 120.982 330.838 120.307 331.006 119.677C331.174 119.048 331.56 118.515 332.082 118.188C332.339 118.043 332.619 117.955 332.908 117.928C333.196 117.902 333.486 117.938 333.762 118.034C334.037 118.131 334.293 118.285 334.513 118.49C334.733 118.694 334.914 118.943 335.044 119.224Z"
        fill="#263238" />
    <path
        d="M338.342 140.392L342.502 142.1C342.409 142.403 342.262 142.682 342.068 142.922C341.875 143.162 341.639 143.358 341.375 143.497C341.111 143.637 340.824 143.718 340.531 143.735C340.238 143.752 339.945 143.706 339.668 143.598C339.109 143.354 338.658 142.883 338.41 142.286C338.163 141.688 338.138 141.009 338.342 140.392Z"
        fill="#9A4A4D" />
    <path
        d="M353.231 120.876L349.676 117.894C349.843 117.633 350.058 117.413 350.306 117.245C350.554 117.077 350.831 116.965 351.12 116.917C351.409 116.868 351.704 116.884 351.987 116.963C352.27 117.042 352.535 117.182 352.767 117.376C353.243 117.783 353.557 118.373 353.644 119.025C353.73 119.677 353.582 120.339 353.231 120.876Z"
        fill="#263238" />
    <path
        d="M352.136 126.14C352.123 126.53 352.005 126.908 351.796 127.226C351.587 127.544 351.296 127.788 350.96 127.927C350.625 128.066 350.258 128.095 349.908 128.01C349.557 127.924 349.237 127.728 348.988 127.446C348.739 127.164 348.573 126.808 348.509 126.424C348.444 126.039 348.486 125.643 348.628 125.284C348.77 124.925 349.006 124.62 349.307 124.406C349.608 124.192 349.96 124.079 350.32 124.082C350.564 124.087 350.804 124.145 351.027 124.251C351.25 124.358 351.452 124.511 351.62 124.702C351.789 124.893 351.921 125.118 352.01 125.365C352.098 125.612 352.141 125.875 352.136 126.14Z"
        fill="#263238" />
    <path d="M342.85 124.264L343.442 136.178L349.174 134.064L342.85 124.264Z" fill="#9A4A4D" />
    <path
        d="M344.833 169.512C343.712 172.396 341.652 173.572 337.904 174.034C336.031 174.175 334.152 173.899 332.381 173.226C330.609 172.552 328.983 171.493 327.6 170.114L332.249 165.088L338.148 169.918L338.651 164.528L344.833 169.512Z"
        fill="#6695FF" />
    <path
        d="M344.833 169.512C343.712 172.396 341.652 173.572 337.904 174.034C336.031 174.175 334.152 173.899 332.381 173.226C330.609 172.552 328.983 171.493 327.6 170.114L332.249 165.088L338.148 169.918L338.651 164.528L344.833 169.512Z"
        fill="white" fill-opacity="0.24" />
    <path opacity="0.1"
        d="M344.833 169.512C343.712 172.396 341.652 173.572 337.904 174.034C336.031 174.175 334.152 173.899 332.381 173.226C330.609 172.552 328.983 171.493 327.6 170.114L332.249 165.088L338.148 169.918L338.651 164.528L344.833 169.512Z"
        fill="black" />
    <path
        d="M341.897 168C342.441 169.741 342.652 171.585 342.515 173.418C342.339 175.054 341.765 176.61 340.853 177.926C340.262 178.336 339.592 178.592 338.895 178.674C338.198 178.757 337.493 178.664 336.835 178.402C335.63 177.285 334.661 175.9 333.994 174.339C333.327 172.778 332.978 171.079 332.971 169.358L338.123 169.988L341.897 168Z"
        fill="#6695FF" />
    <path
        d="M341.897 168C342.441 169.741 342.652 171.585 342.515 173.418C342.339 175.054 341.765 176.61 340.853 177.926C340.262 178.336 339.592 178.592 338.895 178.674C338.198 178.757 337.493 178.664 336.835 178.402C335.63 177.285 334.661 175.9 333.994 174.339C333.327 172.778 332.978 171.079 332.971 169.358L338.123 169.988L341.897 168Z"
        fill="white" fill-opacity="0.24" />
    <path
        d="M340.853 177.8C340.853 177.8 346.907 214.2 347.151 217C347.396 219.8 343.674 230.356 341.368 230.44C339.063 230.524 334.529 221.102 334.452 218.442C334.374 215.782 336.835 178.22 336.835 178.22L340.853 177.8Z"
        fill="#6695FF" />
    <path
        d="M340.853 177.8C340.853 177.8 346.907 214.2 347.151 217C347.396 219.8 343.674 230.356 341.368 230.44C339.063 230.524 334.529 221.102 334.452 218.442C334.374 215.782 336.835 178.22 336.835 178.22L340.853 177.8Z"
        fill="white" fill-opacity="0.24" />
    <path opacity="0.1"
        d="M336.835 178.332C337.484 178.643 338.197 178.762 338.903 178.679C339.608 178.595 340.281 178.311 340.853 177.856L340.943 178.43C340.366 178.935 339.686 179.281 338.959 179.44C338.233 179.598 337.482 179.564 336.77 179.34L336.835 178.332Z"
        fill="black" />
    <path
        d="M338.11 169.918L321.044 155.792L320.966 151.592C320.966 151.592 316.999 153.216 316.111 160.832C318.863 167.419 323.54 172.833 329.416 176.232L332.996 169.232L338.11 169.918Z"
        fill="#E0E0E0" />
    <path
        d="M339.166 153.524C341.372 153.92 343.347 155.242 344.666 157.206C346.366 160.258 345.954 171.962 345.954 171.962L341.896 168L338.11 169.988C338.47 166.082 339.179 158.984 339.179 158.984L339.166 153.524Z"
        fill="#E0E0E0" />
    <path
        d="M444.846 483.924C445.529 484.918 445.658 487.186 446.34 490.252C447.023 493.318 447.268 495.698 446.804 497.252C446.092 498.789 445.076 500.135 443.829 501.195C442.582 502.255 441.135 503.003 439.591 503.384C436.076 503.993 432.478 503.149 429.506 501.018C425.075 498.134 423.337 495.936 413.226 495.138C407.986 494.77 403.005 492.531 399.058 488.768C395.194 485.002 396.095 478.324 402.845 478.366C410.946 478.366 422.306 479.962 433.293 478.366L444.846 483.924Z"
        fill="#263238" />
    <path
        d="M484.027 470.106C484.71 471.1 484.839 473.368 485.521 476.434C486.204 479.5 486.449 481.88 485.985 483.434C485.273 484.971 484.257 486.317 483.01 487.377C481.763 488.437 480.316 489.185 478.772 489.566C475.257 490.175 471.659 489.331 468.687 487.2C464.256 484.316 462.518 482.118 452.407 481.32C447.167 480.952 442.186 478.713 438.239 474.95C434.375 471.184 435.276 464.506 442.026 464.548C450.127 464.548 461.487 466.144 472.474 464.548L484.027 470.106Z"
        fill="#263238" />
    <path
        d="M484.053 460.852V471.632C484.053 471.632 482.688 475.216 477.033 475.44C475.58 475.54 474.128 475.234 472.814 474.553C471.5 473.872 470.368 472.838 469.524 471.548V460.852H484.053Z"
        fill="#FFA8A7" />
    <path
        d="M465.106 390.32C465.029 403.732 468.571 465.584 468.571 465.584C468.571 465.584 473.62 472.514 484.581 465.584L488.303 396.984L465.106 390.32Z"
        fill="#37474F" />
    <path
        d="M446.83 474.936L444.846 485.716C444.846 485.716 443.481 489.3 437.827 489.524C436.374 489.626 434.921 489.321 433.609 488.637C432.296 487.953 431.167 486.913 430.33 485.618L431.129 473.228L446.83 474.936Z"
        fill="#FFA8A7" />
    <path
        d="M435.56 408.8C434.516 414.988 430.266 477.008 430.266 477.008C430.266 477.008 435.869 485.492 446.83 478.548L458.512 418.026L435.56 408.8Z"
        fill="#37474F" />
    <path
        d="M465.557 432.6V518.294C465.538 518.687 465.434 519.07 465.252 519.41C465.071 519.751 464.818 520.04 464.514 520.254L461.693 522.032C461.369 522.205 461.012 522.295 460.65 522.295C460.288 522.295 459.932 522.205 459.607 522.032L456.786 520.268C456.485 520.048 456.234 519.755 456.053 519.413C455.872 519.071 455.766 518.688 455.743 518.294V432.6C455.743 431.578 456.116 430.597 456.779 429.873C457.443 429.149 458.344 428.74 459.285 428.736H462.015C462.956 428.74 463.857 429.149 464.521 429.873C465.185 430.597 465.557 431.578 465.557 432.6Z"
        fill="#455A64" />
    <path
        d="M458.203 428.708C458.853 428.712 459.476 428.995 459.934 429.496C460.393 429.997 460.65 430.675 460.65 431.382V521.346C460.65 522.06 460.186 522.354 459.607 522.004L456.747 520.212C456.455 520.002 456.211 519.721 456.037 519.39C455.862 519.059 455.762 518.689 455.743 518.308V431.382C455.743 430.673 456.002 429.993 456.463 429.491C456.925 428.99 457.55 428.708 458.203 428.708Z"
        fill="#263238" />
    <path
        d="M560.38 432.6V518.294C560.401 518.688 560.508 519.071 560.692 519.412C560.875 519.752 561.13 520.041 561.436 520.254L564.244 522.032C564.571 522.204 564.93 522.294 565.294 522.294C565.657 522.294 566.016 522.204 566.343 522.032L569.151 520.268C569.455 520.05 569.707 519.758 569.888 519.416C570.069 519.073 570.174 518.689 570.194 518.294V432.6C570.194 431.578 569.822 430.597 569.158 429.873C568.494 429.149 567.593 428.74 566.652 428.736H563.922C562.981 428.74 562.08 429.149 561.417 429.873C560.753 430.597 560.38 431.578 560.38 432.6Z"
        fill="#455A64" />
    <path
        d="M567.747 428.708C567.096 428.712 566.472 428.995 566.011 429.495C565.551 429.996 565.29 430.674 565.287 431.382V521.346C565.287 522.06 565.764 522.354 566.33 522.004L569.19 520.212C569.483 520.002 569.726 519.721 569.901 519.39C570.075 519.059 570.176 518.689 570.194 518.308V431.382C570.194 430.675 569.937 429.997 569.478 429.496C569.02 428.995 568.397 428.712 567.747 428.708Z"
        fill="#263238" />
    <path
        d="M517.876 462.854V551.054C517.858 551.449 517.754 551.834 517.572 552.177C517.391 552.52 517.137 552.812 516.833 553.028L514.012 554.792C513.689 554.971 513.331 555.065 512.969 555.065C512.606 555.065 512.248 554.971 511.925 554.792L509.105 553.028C508.802 552.809 508.55 552.517 508.369 552.175C508.188 551.832 508.082 551.448 508.061 551.054V462.854C508.065 462.507 508.194 462.176 508.42 461.933C508.647 461.689 508.953 461.552 509.272 461.552H516.665C516.984 461.552 517.29 461.689 517.517 461.933C517.743 462.176 517.872 462.507 517.876 462.854Z"
        fill="#455A64" />
    <path
        d="M509.272 461.552H511.758C512.077 461.552 512.383 461.689 512.609 461.933C512.836 462.176 512.965 462.507 512.969 462.854V554.176C512.969 554.904 512.505 555.198 511.925 554.834L509.105 553.07C508.802 552.851 508.55 552.559 508.369 552.217C508.188 551.874 508.082 551.49 508.061 551.096V462.896C508.058 462.721 508.087 462.547 508.146 462.384C508.205 462.221 508.294 462.072 508.407 461.947C508.519 461.822 508.654 461.723 508.803 461.655C508.951 461.587 509.111 461.552 509.272 461.552Z"
        fill="#263238" />
    <path
        d="M449.496 434.63V435.82C449.539 436.898 449.791 437.954 450.235 438.919C450.678 439.884 451.304 440.736 452.072 441.42L510.29 477.722C511.088 478.282 512.009 478.604 512.958 478.656C513.908 478.707 514.853 478.487 515.699 478.016L574.432 441.238C575.241 440.661 575.915 439.885 576.398 438.973C576.881 438.061 577.161 437.039 577.214 435.988V434.784C577.164 433.752 576.868 432.751 576.355 431.88C575.843 431.009 575.131 430.297 574.29 429.814L515.596 392.98C514.679 392.585 513.695 392.405 512.709 392.454C511.723 392.502 510.758 392.777 509.877 393.26L452.317 429.38C451.5 429.953 450.819 430.726 450.329 431.638C449.839 432.551 449.553 433.576 449.496 434.63Z"
        fill="#6695FF" />
    <path
        d="M449.496 434.63V435.82C449.539 436.898 449.791 437.954 450.235 438.919C450.678 439.884 451.304 440.736 452.072 441.42L510.29 477.722C511.088 478.282 512.009 478.604 512.958 478.656C513.908 478.707 514.853 478.487 515.699 478.016L574.432 441.238C575.241 440.661 575.915 439.885 576.398 438.973C576.881 438.061 577.161 437.039 577.214 435.988V434.784C577.164 433.752 576.868 432.751 576.355 431.88C575.843 431.009 575.131 430.297 574.29 429.814L515.596 392.98C514.679 392.585 513.695 392.405 512.709 392.454C511.723 392.502 510.758 392.777 509.877 393.26L452.317 429.38C451.5 429.953 450.819 430.726 450.329 431.638C449.839 432.551 449.553 433.576 449.496 434.63Z"
        fill="white" fill-opacity="0.24" />
    <g opacity="0.4">
        <path
            d="M452.317 429.38L509.877 393.26C510.758 392.777 511.723 392.502 512.709 392.454C513.695 392.405 514.679 392.585 515.596 392.98L574.29 429.8C575.9 430.612 575.965 432.054 574.432 433.02L515.764 469.742C514.916 470.211 513.97 470.429 513.021 470.375C512.071 470.321 511.152 469.996 510.354 469.434L452.136 433.174C451.813 432.986 451.546 432.702 451.366 432.355C451.186 432.008 451.101 431.613 451.12 431.215C451.139 430.817 451.261 430.433 451.473 430.109C451.685 429.784 451.978 429.531 452.317 429.38Z"
            fill="white" />
    </g>
    <path d="M460.534 295.092L421.92 316.988L441.111 374.01L477.136 352.072L460.534 295.092Z" fill="#6695FF" />
    <path d="M460.534 295.092L421.92 316.988L441.111 374.01L477.136 352.072L460.534 295.092Z" fill="white"
        fill-opacity="0.24" />
    <path d="M458.757 300.664L426.364 319.046L443.352 368.06L473.582 349.664L458.757 300.664Z" fill="#F5F5F5" />
    <path opacity="0.15"
        d="M451.93 305.956L451.299 304.22C450.951 303.254 448.259 303.828 445.271 305.494L439.578 308.7C436.59 310.366 434.426 312.508 434.8 313.474L435.431 315.21L451.93 305.956Z"
        fill="black" />
    <path
        d="M451.299 298.984C451.08 298.382 449.908 298.48 448.723 299.208L446.482 300.51C446.482 300.51 445.104 296.744 439.978 299.348C434.851 301.952 436.011 306.348 436.011 306.348L433.641 307.748C432.353 308.532 431.4 309.666 431.554 310.268L431.838 311.388L451.737 300.104L451.299 298.984Z"
        fill="#37474F" />
    <path
        d="M449.148 301.518C447.306 302.498 446.572 302.918 447.113 304.458C447.718 306.166 448.285 307.384 448.285 307.384L439.488 312.382C439.488 312.382 438.754 310.226 438.432 309.386C438.11 308.546 437.466 308.168 436.062 308.952L435.547 308.364L449.419 300.664L449.148 301.518Z"
        fill="#263238" />
    <path
        d="M452.304 306.054L451.673 304.304C451.325 303.338 448.633 303.912 445.658 305.592L439.952 308.784C436.977 310.464 434.8 312.592 435.186 313.558L435.817 315.308L452.304 306.054Z"
        fill="#37474F" />
    <path
        d="M559.633 406.742C559.633 406.742 508.486 389.942 499.599 387.324C490.712 384.706 473.646 380.226 468.687 382.648C463.728 385.07 461.178 387.898 460.714 395.71C460.624 397.18 460.714 404.334 460.714 404.334C460.714 404.334 485.431 412.65 505.691 412.65C525.952 412.65 559.633 406.742 559.633 406.742Z"
        fill="#263238" />
    <path d="M516.459 312.242L516.086 332.5L534.053 338.954L536.513 311.416L516.459 312.242Z" fill="#FFA8A7" />
    <path
        d="M502.304 292.796C502.304 292.796 498.35 300.314 498.994 300.972C499.638 301.63 502.974 302.134 502.974 302.134L502.304 292.796Z"
        fill="#F28F8F" />
    <path
        d="M511.874 268.058C508.01 270.97 503.85 276.36 502.252 292.04C500.514 309.232 504.3 314.762 506.116 316.19C508.692 318.318 519.164 317.968 522.86 316.106C527.523 313.768 536.655 307.426 540.519 297.906C545.079 286.706 544.615 272.804 537.273 268.366C526.905 262.136 515.184 265.58 511.874 268.058Z"
        fill="#FFA8A7" />
    <path
        d="M505.292 274.288C507.378 276.903 509.872 279.098 512.659 280.77C514.45 283.85 511.578 292.334 515.506 294.392C515.506 294.392 517.309 287.966 522.307 289.03C527.304 290.094 527.742 297.136 524.38 301.252C521.019 305.368 518.108 303.59 518.108 303.59C517.911 305.734 518.223 307.897 519.014 309.873C519.806 311.848 521.05 313.57 522.629 314.874C524.577 316.311 526.816 317.216 529.154 317.511C531.493 317.806 533.863 317.482 536.062 316.568C539.463 315.168 545.156 310.002 548.337 303.142C555.048 288.624 556.606 276.71 548.067 272.342C547.397 265.468 544.756 262.724 539.166 261.044C527.162 257.432 517.438 265.468 507.314 263.2C502.033 261.968 502.304 270.354 505.292 274.288Z"
        fill="#263238" />
    <path
        d="M539.218 267.316L545.439 264.418C545.278 263.953 545.031 263.528 544.715 263.169C544.398 262.81 544.018 262.525 543.597 262.33C543.176 262.135 542.723 262.035 542.266 262.036C541.808 262.036 541.356 262.138 540.935 262.333C540.515 262.529 540.135 262.816 539.82 263.175C539.504 263.535 539.258 263.96 539.098 264.426C538.937 264.892 538.865 265.388 538.886 265.884C538.906 266.381 539.02 266.868 539.218 267.316Z"
        fill="#263238" />
    <path
        d="M557.92 400.232C557.92 410.914 559.208 422.436 555.073 430.262C551.119 437.836 533.68 453.614 512.775 449.792C499.123 447.286 454.996 429.016 454.996 429.016C454.996 429.016 435.47 421.162 435.38 415.576C435.38 414.176 435.251 412.776 435.38 411.376C435.792 403.942 438.561 395.976 452.845 396.354C468.455 396.802 514.772 405.048 514.772 405.048L557.92 400.232Z"
        fill="#37474F" />
    <path
        d="M556.31 332.836C554.623 327.236 547.667 319.382 541.15 320.698C529.185 323.12 516.098 327.334 512.621 328.44C512.621 328.44 514.179 357.112 500.642 365.792L500.166 416.192C500.166 416.192 501.145 419.79 506.31 423.36C511.9 427.224 522.719 428.96 536.32 424.914C554.597 419.524 557.92 408.114 557.92 408.114C557.92 408.114 557.778 374.318 557.92 358.862C558.049 344.876 557.469 336.672 556.31 332.836Z"
        fill="#F0F0F0" />
    <path
        d="M500.578 372.526C500.578 372.526 507.366 364.882 509.865 355.628C509.865 355.628 510.238 369.418 500.539 376.726L500.578 372.526Z"
        fill="#E0E0E0" />
    <path
        d="M512.608 328.44C505.215 330.848 500.72 331.24 492.554 344.932C484.388 358.624 465.918 384.132 464.153 387.422C461.693 391.944 461.23 398.818 463.355 402.976C465.338 406.868 470.104 404.572 478.206 396.858C486.037 389.382 502.562 368.858 502.562 368.858C507.692 355.985 511.076 342.37 512.608 328.44Z"
        fill="#FFA8A7" />
    <path
        d="M512.608 328.44C508.945 329.279 505.368 330.512 501.93 332.122C498.347 333.386 495.182 335.76 492.824 338.954C486.191 348.586 477.639 364.868 477.639 364.868C477.639 364.868 479.159 377.468 493.443 381.948L500.462 372.652C503.577 369.033 506.134 364.892 508.036 360.388C511.32 352.702 514.939 340.508 512.608 328.44Z"
        fill="#F0F0F0" />
    <path
        d="M465.854 404.894C459.014 403.998 444.267 381.528 439.733 373.842C436.147 367.604 431.442 362.215 425.9 357.994C418.674 352.184 419.717 343.252 422.873 335.076C423.968 332.276 427.677 334.082 427.677 334.082L428.965 337.974L431.232 344.694C432.765 346.234 433.628 346.738 433.731 346.276C433.924 345.408 432.61 341.796 432.649 338.03C432.649 333.494 435.598 336.476 436.513 338.03C437.708 340.435 438.737 342.934 439.591 345.506C441.047 349.566 440.454 353.668 442.167 356.44C443.88 359.212 467.747 383.992 467.747 383.992L465.854 404.894Z"
        fill="#FFA8A7" />
    <path
        d="M528.064 406.826V463.316C528.073 463.514 528.124 463.707 528.214 463.879C528.303 464.052 528.428 464.199 528.579 464.31L529.996 465.192C530.158 465.282 530.336 465.329 530.518 465.329C530.699 465.329 530.878 465.282 531.039 465.192L532.443 464.31C532.597 464.202 532.726 464.055 532.817 463.882C532.909 463.709 532.962 463.515 532.971 463.316V406.826C532.971 406.314 532.784 405.822 532.451 405.46C532.117 405.098 531.665 404.894 531.194 404.894H529.829C529.596 404.894 529.365 404.944 529.15 405.041C528.935 405.139 528.74 405.281 528.576 405.461C528.412 405.64 528.283 405.853 528.195 406.088C528.107 406.322 528.062 406.573 528.064 406.826Z"
        fill="#263238" />
    <path
        d="M531.773 404.894C531.432 404.894 531.104 405.042 530.863 405.304C530.621 405.567 530.485 405.923 530.485 406.294V464.8C530.485 465.164 530.73 465.318 531.013 465.136L532.443 464.24C532.588 464.134 532.709 463.992 532.796 463.827C532.883 463.662 532.934 463.478 532.945 463.288V406.168C532.919 405.84 532.787 405.532 532.573 405.299C532.359 405.066 532.075 404.922 531.773 404.894Z"
        fill="#455A64" />
    <path
        d="M554.249 390.74V447.23C554.258 447.428 554.309 447.621 554.398 447.793C554.488 447.966 554.613 448.113 554.764 448.224L556.181 449.106C556.342 449.196 556.521 449.242 556.703 449.242C556.884 449.242 557.063 449.196 557.224 449.106L558.628 448.224C558.781 448.114 558.908 447.967 559 447.794C559.091 447.622 559.145 447.429 559.156 447.23V390.74C559.156 390.228 558.969 389.736 558.636 389.374C558.302 389.012 557.85 388.808 557.379 388.808H556.014C555.781 388.808 555.55 388.858 555.335 388.955C555.12 389.053 554.925 389.195 554.761 389.375C554.597 389.554 554.467 389.767 554.38 390.002C554.292 390.236 554.247 390.487 554.249 390.74Z"
        fill="#263238" />
    <path
        d="M557.92 388.808C557.6 388.825 557.298 388.971 557.072 389.216C556.846 389.462 556.712 389.791 556.696 390.138V448.77C556.696 449.134 556.941 449.288 557.224 449.106L558.654 448.21C558.799 448.103 558.92 447.962 559.007 447.797C559.094 447.632 559.145 447.448 559.156 447.258V390.138C559.14 389.788 559.005 389.458 558.776 389.212C558.547 388.966 558.241 388.822 557.92 388.808Z"
        fill="#455A64" />
    <path
        d="M569.782 343.658C568.924 343.203 567.986 342.951 567.031 342.919C566.076 342.888 565.126 343.078 564.244 343.476L517.76 366.8C516.921 367.257 516.213 367.954 515.712 368.816L515.493 369.208C515.39 369.432 515.287 369.656 515.197 369.894C514.967 370.488 514.844 371.125 514.836 371.77V409.178C514.866 410.196 515.114 411.192 515.562 412.086C516.009 412.981 516.643 413.749 517.412 414.33C518.225 414.753 519.106 414.997 520.006 415.048C520.906 415.098 521.806 414.954 522.654 414.624C522.757 414.594 522.857 414.552 522.951 414.498L525.256 413.336L569.422 391.16C570.263 390.682 570.976 389.973 571.489 389.104C572.001 388.235 572.297 387.235 572.345 386.204V348.796C572.316 347.782 572.069 346.789 571.624 345.897C571.179 345.005 570.548 344.238 569.782 343.658Z"
        fill="#6695FF" />
    <path
        d="M569.782 343.658C568.924 343.203 567.986 342.951 567.031 342.919C566.076 342.888 565.126 343.078 564.244 343.476L517.76 366.8C516.921 367.257 516.213 367.954 515.712 368.816L515.493 369.208C515.39 369.432 515.287 369.656 515.197 369.894C514.967 370.488 514.844 371.125 514.836 371.77V409.178C514.866 410.196 515.114 411.192 515.562 412.086C516.009 412.981 516.643 413.749 517.412 414.33C518.225 414.753 519.106 414.997 520.006 415.048C520.906 415.098 521.806 414.954 522.654 414.624C522.757 414.594 522.857 414.552 522.951 414.498L525.256 413.336L569.422 391.16C570.263 390.682 570.976 389.973 571.489 389.104C572.001 388.235 572.297 387.235 572.345 386.204V348.796C572.316 347.782 572.069 346.789 571.624 345.897C571.179 345.005 570.548 344.238 569.782 343.658Z"
        fill="white" fill-opacity="0.24" />
    <path opacity="0.4"
        d="M572.397 348.796C572.448 348.402 572.394 348.001 572.242 347.64C572.089 347.279 571.844 346.973 571.536 346.759C571.227 346.545 570.869 346.432 570.503 346.433C570.138 346.434 569.78 346.55 569.473 346.766L523.002 370.09C522.164 370.555 521.457 371.256 520.954 372.12L515.725 368.83C516.221 367.965 516.924 367.263 517.76 366.8L564.231 343.462C565.113 343.064 566.063 342.874 567.018 342.905C567.973 342.937 568.911 343.189 569.769 343.644C570.549 344.218 571.193 344.983 571.65 345.879C572.106 346.774 572.362 347.773 572.397 348.796Z"
        fill="white" />
    <path opacity="0.1"
        d="M522.706 414.638C521.858 414.968 520.958 415.112 520.058 415.062C519.158 415.011 518.276 414.767 517.464 414.344C516.694 413.763 516.06 412.995 515.613 412.1C515.166 411.206 514.917 410.21 514.888 409.192V371.784C514.896 371.139 515.018 370.502 515.248 369.908C515.338 369.67 515.442 369.446 515.545 369.222L515.764 368.83L520.993 372.12C520.453 372.991 520.149 374.01 520.117 375.06V412.482C520.069 412.84 520.11 413.205 520.235 413.539C520.36 413.874 520.565 414.166 520.829 414.386C521.093 414.606 521.406 414.745 521.736 414.789C522.066 414.834 522.401 414.781 522.706 414.638Z"
        fill="black" />
    <defs>
        <filter id="filter0_d_2249_16783" x="0.20459" y="289.432" width="664.462" height="401.218"
            filterUnits="userSpaceOnUse" color-interpolation-filters="sRGB">
            <feFlood flood-opacity="0" result="BackgroundImageFix" />
            <feColorMatrix in="SourceAlpha" type="matrix" values="0 0 0 0 0 0 0 0 0 0 0 0 0 0 0 0 0 0 127 0"
                result="hardAlpha" />
            <feOffset dy="20" />
            <feGaussianBlur stdDeviation="17" />
            <feComposite in2="hardAlpha" operator="out" />
            <feColorMatrix type="matrix" values="0 0 0 0 0 0 0 0 0 0 0 0 0 0 0 0 0 0 0.09 0" />
            <feBlend mode="normal" in2="BackgroundImageFix" result="effect1_dropShadow_2249_16783" />
            <feBlend mode="normal" in="SourceGraphic" in2="effect1_dropShadow_2249_16783" result="shape" />
        </filter>
    </defs>
</svg>