<svg width="644" height="715" viewBox="0 0 644 715" fill="none" xmlns="http://www.w3.org/2000/svg">
<g clip-path="url(#clip0_2249_22080)">
<g filter="url(#filter0_d_2249_22080)">
<path d="M529.651 379.562C414.221 312.879 227.667 312.879 112.983 379.562C-1.70026 446.244 -1.09489 554.34 114.271 621.022C229.637 687.705 416.269 687.692 530.952 621.022C645.636 554.353 645.095 446.231 529.651 379.562Z" fill="#F6F6F6"/>
</g>
<path d="M135.24 450.973C173.39 428.939 235.047 428.939 272.94 450.973C306.428 470.443 310.15 500.595 284.262 522.552C305.153 521.263 326.766 525.245 342.763 534.522C370.777 550.809 370.622 577.212 342.441 593.486C314.259 609.761 268.69 609.773 240.689 593.486C218.406 580.601 213.963 561.182 227.268 545.604C195.158 550.255 159.815 545.307 134.802 530.773C96.8447 508.738 97.0378 473.02 135.24 450.973Z" fill="#E0E0E0"/>
<path d="M510.112 507.025L351.843 414.893C351.384 414.638 351.002 414.264 350.736 413.811C350.47 413.358 350.33 412.842 350.33 412.316C350.33 411.791 350.47 411.275 350.736 410.822C351.002 410.369 351.384 409.995 351.843 409.739L410.679 375.528C411.129 375.268 411.64 375.131 412.16 375.131C412.68 375.131 413.191 375.268 413.641 375.528L573.353 468.523C573.812 468.779 574.194 469.153 574.46 469.606C574.726 470.059 574.866 470.575 574.866 471.1C574.866 471.625 574.726 472.141 574.46 472.594C574.194 473.047 573.812 473.421 573.353 473.677L515.999 507.025C515.103 507.54 514.088 507.812 513.055 507.812C512.022 507.812 511.008 507.54 510.112 507.025Z" fill="#E0E0E0"/>
<path d="M540.96 543.362C531.57 537.95 516.411 537.95 507.086 543.362C497.76 548.774 497.812 557.536 507.201 562.986C516.591 568.437 531.751 568.411 541.063 562.986C550.375 557.561 550.349 548.786 540.96 543.362Z" fill="#E0E0E0"/>
<path d="M152.048 169.747L152.151 203.597L156.247 205.981L156.144 167.389L152.048 169.747Z" fill="#F0F0F0"/>
<path d="M107.87 229.175L107.896 233.917L156.247 205.981L152.152 203.597L107.87 229.175Z" fill="#F5F5F5"/>
<path d="M161.077 158.885L102.808 192.49L102.95 242.473L161.219 208.816L161.077 158.885ZM107.896 233.917V229.175L107.806 195.325L152.074 169.747L156.17 167.389L156.273 206.046L107.896 233.917Z" fill="#E0E0E0"/>
<path d="M161.077 158.833L156.982 156.449L98.7124 190.106L102.808 192.49L161.077 158.833Z" fill="#F5F5F5"/>
<path d="M98.7124 190.106L98.8541 240.089L102.95 242.473L102.808 192.49L98.7124 190.106Z" fill="#F0F0F0"/>
<path d="M152.023 245.72L152.126 279.57L156.222 281.954L156.106 243.362L152.023 245.72Z" fill="#F0F0F0"/>
<path d="M107.844 305.148L107.857 309.89L156.222 281.954L152.126 279.57L107.844 305.148Z" fill="#F5F5F5"/>
<path d="M161 234.806L102.782 268.411L102.924 318.394L161.193 284.737L161 234.806ZM107.806 309.89V305.148L107.716 271.285L151.984 245.72L156.067 243.362L156.183 281.954L107.806 309.89Z" fill="#E0E0E0"/>
<path d="M161.051 234.806L156.956 232.422L98.6736 266.079L102.782 268.463L161.051 234.806Z" fill="#F5F5F5"/>
<path d="M98.6736 266.079L98.8153 316.062L102.924 318.446L102.782 268.463L98.6736 266.079Z" fill="#F0F0F0"/>
<path d="M238.744 204.461V196.24L238.37 196.446L237.688 196.858C231.621 200.518 225.529 206.29 219.849 212.514C218.909 213.545 217.981 214.589 217.067 215.632C212.288 221.122 207.613 226.92 202.796 232.383V245.668L208.592 242.331C216.132 227.897 226.367 215.041 238.744 204.461Z" fill="#EBEBEB"/>
<path d="M238.808 224.845V213.854C233.77 219.202 229.613 225.317 226.495 231.971L238.808 224.845Z" fill="#EBEBEB"/>
<path d="M226.456 231.971C229.575 225.318 233.731 219.202 238.769 213.854V204.461C226.411 215.034 216.189 227.875 208.656 242.293L226.508 231.984L226.456 231.971Z" fill="#FAFAFA"/>
<path d="M214.349 193.135L215.186 192.838C216.732 192.284 218.303 191.627 219.887 190.905L220.454 190.622C220.982 190.377 221.523 190.119 222.051 189.849L222.386 189.681C223.185 189.269 223.996 188.831 224.807 188.393L225.323 188.096L225.748 187.851C230.126 185.254 234.271 182.284 238.138 178.973L238.679 178.51V164.619C229.869 169.129 221.201 170.533 214.207 168.356C209.405 166.803 205.302 163.61 202.615 159.336L202.718 195.415C206.682 195.197 210.596 194.429 214.349 193.135Z" fill="#FAFAFA"/>
<path d="M219.823 212.514C225.503 206.29 231.595 200.518 237.662 196.858L238.344 196.446L238.718 196.24V188.276C226.955 195.204 216.055 203.505 206.247 213.004C205.075 214.125 203.903 215.271 202.731 216.367V232.358C207.548 226.933 212.224 221.134 217.002 215.606C217.955 214.588 218.883 213.545 219.823 212.514Z" fill="#FAFAFA"/>
<path d="M238.705 188.276V178.483L238.164 178.947C234.297 182.258 230.151 185.228 225.774 187.825L225.349 188.07L224.833 188.367C224.022 188.83 223.21 189.269 222.412 189.655L222.077 189.823C221.549 190.08 221.021 190.351 220.493 190.596L219.9 190.879C218.329 191.601 216.758 192.258 215.212 192.812L214.375 193.108C210.607 194.416 206.675 195.193 202.693 195.415L202.757 216.328C203.929 215.233 205.101 214.086 206.273 212.965C216.071 203.482 226.957 195.195 238.705 188.276Z" fill="#EBEBEB"/>
<path d="M238.602 153.357V143.049C233.038 141.76 228.71 137.688 226.443 131.619L214.13 138.732C216.281 143.337 219.763 147.191 224.124 149.798C228.486 152.405 233.529 153.645 238.602 153.357Z" fill="#FAFAFA"/>
<path d="M214.156 168.33C221.15 170.507 229.818 169.103 238.628 164.593V153.357C233.559 153.648 228.52 152.414 224.158 149.814C219.797 147.215 216.313 143.368 214.156 138.771L202.564 145.458V159.336C205.255 163.6 209.358 166.783 214.156 168.33Z" fill="#EBEBEB"/>
<path d="M240.547 121.169L200.49 144.363L200.786 249.186L240.843 225.992L240.547 121.169ZM202.808 245.63V232.345V216.354L202.744 195.441L202.641 159.361V145.484L214.233 138.796L226.546 131.683L238.653 124.687V143.113V153.421V164.657V178.548V188.341V196.253V204.474V213.867V224.858L226.301 231.984L208.45 242.292L202.808 245.63Z" fill="white"/>
<path d="M238.576 143.087V124.661L226.469 131.658C228.684 137.727 233.012 141.786 238.576 143.087Z" fill="#EBEBEB"/>
<path d="M240.843 225.992L200.786 249.134V251.918L243.239 227.397L240.843 225.992Z" fill="#CACACA"/>
<path d="M240.534 121.169L240.843 225.992L243.239 227.397L242.942 119.79L240.534 121.169Z" fill="#F0F0F0"/>
<path d="M249.383 108.631L193.999 140.613L194.346 263.025L249.73 231.043L249.383 108.631ZM200.786 251.918V249.083L200.49 144.26L240.547 121.066L242.943 119.687L243.239 227.294L200.786 251.918Z" fill="#E0E0E0"/>
<path d="M249.382 108.632L244.81 106.17L189.439 138.152L193.998 140.613L249.382 108.632Z" fill="#F5F5F5"/>
<path d="M189.439 138.152L189.787 260.628L194.346 263.076L193.998 140.613L189.439 138.152Z" fill="#F0F0F0"/>
<path d="M137.983 182.607L150.065 192.104L150.091 201.407L109.931 224.601L109.905 215.31L117.556 200.093L124.434 205.44L121.999 212.991L125.528 206.278L137.983 182.607Z" fill="#E0E0E0"/>
<path d="M124.794 187.233C126.688 186.137 128.22 187.014 128.233 189.191C128.169 190.376 127.826 191.529 127.233 192.556C126.64 193.584 125.813 194.457 124.82 195.106C122.927 196.188 121.394 195.312 121.381 193.147C121.445 191.962 121.787 190.809 122.38 189.781C122.973 188.753 123.8 187.88 124.794 187.233Z" fill="#E0E0E0"/>
<path d="M137.958 258.567L150.026 268.089L150.052 277.38L109.905 300.574L109.879 291.283L117.53 276.065L124.395 281.413L121.974 288.964L125.49 282.25L137.958 258.567Z" fill="#E0E0E0"/>
<path d="M124.769 263.257C126.662 262.162 128.195 263.038 128.195 265.216C128.133 266.399 127.793 267.552 127.202 268.58C126.611 269.607 125.786 270.481 124.794 271.13C122.901 272.212 121.355 271.336 121.355 269.171C121.416 267.986 121.757 266.831 122.35 265.803C122.943 264.775 123.772 263.902 124.769 263.257Z" fill="#E0E0E0"/>
<path d="M369.823 412.638L363.989 416.04L364.002 409.275L369.823 412.638Z" fill="#E6E6E6"/>
<path d="M364.234 343.714L506.596 425.859L364.234 343.714Z" fill="#CFCFCF"/>
<path d="M369.823 412.638L506.467 491.497V498.249L512.547 501.767L512.766 422.354L358.206 333.122L357.974 412.522L364.066 416.04V409.275L369.823 412.638ZM506.532 451.617L364.169 369.459L364.234 343.688L506.596 425.833L506.532 451.617ZM506.429 484.41L364.066 402.266L364.143 376.585V376.507L506.506 458.665L506.429 484.41Z" fill="#EBEBEB"/>
<path d="M364.079 402.265L364.143 376.585V376.507L506.506 458.665L506.429 484.41L364.079 402.265Z" fill="#F5F5F5"/>
<path d="M364.169 369.459L364.234 343.714L506.596 425.859L506.532 451.617L364.169 369.459Z" fill="#F5F5F5"/>
<path d="M512.753 422.354L573.07 387.292L572.838 466.706L512.534 501.767L512.753 422.354Z" fill="#E6E6E6"/>
<path d="M512.753 422.354L358.128 333.122L418.433 298.061L573.07 387.292L512.753 422.354Z" fill="#F5F5F5"/>
<path d="M444.785 400.023V404.649C444.785 406.969 443.136 407.909 441.114 406.737L423.61 396.635C422.55 395.943 421.668 395.011 421.037 393.913C420.406 392.816 420.043 391.585 419.978 390.321V385.669L444.785 400.023Z" fill="#EBEBEB"/>
<path d="M444.785 395.681L444.772 400.023L419.978 385.694L419.991 381.352L444.785 395.681Z" fill="#E0E0E0"/>
<g opacity="0.1">
<path d="M444.785 395.681L444.772 400.023L419.978 385.694L419.991 381.352L444.785 395.681Z" fill="black"/>
</g>
<path d="M444.785 433.1V437.713C444.785 440.045 443.136 440.973 441.114 439.813L423.61 429.711C422.551 429.019 421.67 428.087 421.038 426.989C420.407 425.892 420.044 424.662 419.978 423.397V418.771L444.785 433.1Z" fill="#EBEBEB"/>
<path d="M444.785 428.758L444.772 433.1L419.978 418.772L419.991 414.429L444.785 428.758Z" fill="#E0E0E0"/>
<g opacity="0.1">
<path d="M444.785 428.758L444.772 433.1L419.978 418.772L419.991 414.429L444.785 428.758Z" fill="black"/>
</g>
<path d="M546.808 512.179L524.087 512.849L501.38 512.179C500.401 527.525 503.389 543.168 507.523 550.835C508.504 552.795 510.077 554.395 512.019 555.41C518.729 559.275 529.561 559.275 536.22 555.41C538.192 554.382 539.772 552.734 540.715 550.719C544.824 543.014 547.786 527.409 546.808 512.179Z" fill="white"/>
<path d="M540.097 502.927C549.01 508.081 549.049 516.405 540.213 521.546C531.377 526.688 517.029 526.701 508.077 521.546C499.126 516.392 499.139 508.081 507.974 502.927C516.81 497.773 531.197 497.773 540.097 502.927Z" fill="#EBEBEB"/>
<path d="M536.581 504.924C543.523 508.932 543.562 515.439 536.671 519.446C529.78 523.454 518.549 523.454 511.606 519.446C504.664 515.439 504.625 508.932 511.516 504.924C518.407 500.917 529.638 500.904 536.581 504.924Z" fill="#E0E0E0"/>
<g opacity="0.15">
<path d="M536.581 504.924C543.523 508.932 543.562 515.439 536.671 519.446C529.78 523.454 518.549 523.454 511.606 519.446C504.664 515.439 504.625 508.932 511.516 504.924C518.407 500.917 529.638 500.904 536.581 504.924Z" fill="black"/>
</g>
<path d="M561.439 415.203C510.254 431.954 509.79 466.242 521.331 490.634C524.242 495.569 533.052 498.224 540.715 467.878L527.269 469.605L542.931 461.693L547.001 449.53L533.94 450.496L550.53 443.525C553.58 433.868 557.223 424.41 561.439 415.203Z" fill="#407BFF"/>
<path opacity="0.2" d="M561.439 415.203C510.254 431.954 509.79 466.242 521.331 490.634C524.242 495.569 533.052 498.224 540.715 467.878L527.269 469.605L542.931 461.693L547.001 449.53L533.94 450.496L550.53 443.525C553.58 433.868 557.223 424.41 561.439 415.203Z" fill="black"/>
<path opacity="0.2" d="M561.439 415.203C510.254 431.954 509.79 466.242 521.331 490.634C524.242 495.569 533.052 498.224 540.715 467.878L527.269 469.605L542.931 461.693L547.001 449.53L533.94 450.496L550.53 443.525C553.58 433.868 557.223 424.41 561.439 415.203Z" fill="white"/>
<path d="M546.962 423.771C519.914 444.272 517.531 467.775 525.156 492.309C522.451 470.713 519.54 448.808 546.962 423.771Z" fill="white"/>
<path d="M474.731 450.006C525.195 457.119 531.313 488.946 524.615 513.596C522.735 518.673 514.968 522.616 502.784 495.621L515.599 494.99L499.744 490.196L493.935 479.54L506.261 478.251L489.594 474.579C485.15 466.09 480.186 457.883 474.731 450.006Z" fill="#407BFF"/>
<path opacity="0.2" d="M474.731 450.006C525.195 457.119 531.313 488.946 524.615 513.596C522.735 518.673 514.968 522.616 502.784 495.621L515.599 494.99L499.744 490.196L493.935 479.54L506.261 478.251L489.594 474.579C485.15 466.09 480.186 457.883 474.731 450.006Z" fill="white"/>
<path opacity="0.1" d="M474.731 450.006C525.195 457.119 531.313 488.946 524.615 513.596C522.735 518.673 514.968 522.616 502.784 495.621L515.599 494.99L499.744 490.196L493.935 479.54L506.261 478.251L489.594 474.579C485.15 466.09 480.186 457.883 474.731 450.006Z" fill="black"/>
<path d="M489.646 455.586C518.188 470.185 524.358 491.665 521.331 515.787C520.262 495.196 519.347 474.386 489.646 455.586Z" fill="white"/>
<path d="M576.212 461.938C529.935 462.698 520.828 490.699 524.139 513.66C525.272 518.454 531.867 522.874 545.829 499.912L534.352 497.902L549.229 495.324L555.669 486.369L544.695 483.792L560.087 482.284C565.042 475.179 570.427 468.385 576.212 461.938Z" fill="#407BFF"/>
<path d="M562.148 465.289C534.79 475.262 526.818 493.933 526.856 516.006C530.128 497.58 533.232 478.921 562.148 465.289Z" fill="white"/>
<path opacity="0.2" d="M576.212 461.938C529.935 462.698 520.828 490.699 524.139 513.66C525.272 518.454 531.867 522.874 545.829 499.912L534.352 497.902L549.229 495.324L555.669 486.369L544.695 483.792L560.087 482.284C565.042 475.179 570.427 468.385 576.212 461.938Z" fill="white"/>
<path d="M426.38 95.875L418.214 91.2104L417.698 269.7L417.724 269.713L483.515 307.3L483.541 297.958L484.03 128.81L426.38 95.875Z" fill="#F0F0F0"/>
<path opacity="0.1" d="M425.89 265.023L426.38 95.875L418.214 91.2104L417.698 269.7L417.724 269.713L425.916 265.035L425.89 265.023Z" fill="black"/>
<path opacity="0.2" d="M483.541 297.958L425.916 265.036L417.724 269.713L483.515 307.3L483.541 297.958Z" fill="black"/>
<path d="M516.411 147.301L508.245 142.636L507.73 321.126L507.755 321.139L573.546 358.726L573.572 349.384L574.062 180.236L516.411 147.301Z" fill="#F0F0F0"/>
<path opacity="0.1" d="M515.921 316.448L516.411 147.301L508.245 142.636L507.73 321.126L507.755 321.139L515.947 316.461L515.921 316.448Z" fill="black"/>
<path opacity="0.2" d="M573.572 349.384L515.947 316.461L507.755 321.139L573.546 358.726L573.572 349.384Z" fill="black"/>
<path d="M254.457 375.052C267.466 384.072 282.124 390.347 292.994 402.472C313.28 425.099 313.757 461.513 297.824 487.4C281.892 513.287 252.242 528.853 222.051 532.409C190.379 536.146 157.149 527.384 132.303 507.386C107.458 487.387 91.6541 456.153 91.667 424.248C91.6799 392.344 108.012 360.581 134.725 343.147C159.094 327.247 194.102 322.711 218.548 340.905C230.913 350.105 239.156 363.674 251.482 372.9C252.448 373.647 253.453 374.356 254.457 375.052Z" fill="#6695FF"/>
<path opacity="0.2" d="M254.457 375.052C267.466 384.072 282.124 390.347 292.994 402.472C313.28 425.099 313.757 461.513 297.824 487.4C281.892 513.287 252.242 528.853 222.051 532.409C190.379 536.146 157.149 527.384 132.303 507.386C107.458 487.387 91.6541 456.153 91.667 424.248C91.6799 392.344 108.012 360.581 134.725 343.147C159.094 327.247 194.102 322.711 218.548 340.905C230.913 350.105 239.156 363.674 251.482 372.9C252.448 373.647 253.453 374.356 254.457 375.052Z" fill="black"/>
<path opacity="0.1" d="M254.457 375.052C267.466 384.072 282.124 390.347 292.994 402.472C313.28 425.099 313.757 461.513 297.824 487.4C281.892 513.287 252.242 528.853 222.051 532.409C190.379 536.146 157.149 527.384 132.303 507.386C107.458 487.387 91.6541 456.153 91.667 424.248C91.6799 392.344 108.012 360.581 134.725 343.147C159.094 327.247 194.102 322.711 218.548 340.905C230.913 350.105 239.156 363.674 251.482 372.9C252.448 373.647 253.453 374.356 254.457 375.052Z" fill="white"/>
<path d="M108.669 419.88C109.072 397.852 117.269 376.681 131.803 360.129C146.337 343.577 166.266 332.715 188.048 329.476C191.084 329.775 194.096 330.279 197.064 330.983C174.165 332.2 152.575 342.046 136.637 358.541C120.699 375.035 111.594 396.956 111.155 419.893C110.562 449.53 125.078 479.849 149.975 500.852C169.488 517.307 195.415 528.221 223.906 532.138L222.077 532.383C219.501 532.684 216.925 532.903 214.349 533.04C189.027 528.118 166.113 517.681 148.378 502.721C122.914 481.279 108.076 450.29 108.669 419.88Z" fill="white"/>
<path opacity="0.1" d="M249.164 507.669C249.164 507.45 249.164 507.244 249.073 507.025C248.005 499.96 244.755 493.406 239.777 488.281C234.8 483.156 228.345 479.717 221.317 478.445C208.762 476.035 196.732 471.424 185.781 464.825C178.053 460.122 170.673 454.362 161.953 451.811C153.475 449.38 144.422 449.907 136.283 453.305C143.599 445.574 156.157 442.224 166.191 445.703C159.248 435.072 153.13 423.617 150.735 411.144C148.339 398.671 150.039 384.974 157.561 374.743C160.767 370.38 164.901 366.783 169.663 364.21C174.426 361.637 179.699 360.152 185.104 359.862C190.509 359.573 195.911 360.486 200.921 362.535C205.931 364.584 210.425 367.719 214.078 371.714C221.523 379.871 225.67 391.339 230.603 401.235C234.12 408.348 237.752 415.615 243.483 421.04C252.216 429.209 264.774 432.16 273.842 439.982C284.146 448.847 288.538 463.021 288.589 476.602C288.413 485.754 287.076 494.847 284.609 503.662C273.986 513.794 261.321 521.54 247.463 526.379C249.5 520.364 250.083 513.952 249.164 507.669Z" fill="black"/>
<path d="M282.33 497.773C281.042 503.056 280.746 512.591 280.746 512.591L277.229 511.303C275.564 510.667 273.748 510.54 272.01 510.936C270.272 511.333 268.691 512.236 267.466 513.532L267.299 513.712C266.667 514.37 265.806 514.759 264.895 514.8C263.984 514.841 263.093 514.53 262.404 513.931C262.037 513.608 261.741 513.212 261.535 512.769C261.329 512.325 261.217 511.843 261.207 511.354L260.73 496.394L282.33 497.773Z" fill="#FFA8A7"/>
<path d="M268.767 553.348C276.057 561.144 289.478 567.973 299.228 561.311L298.133 563.798C288.383 570.447 274.949 563.63 267.672 555.835C260.395 548.039 265.096 542.627 258.553 535.708C256.079 533.333 254.142 530.455 252.873 527.268C253.169 526.533 253.453 525.554 253.788 524.446C255.209 527.694 257.193 530.664 259.648 533.221C266.204 540.14 261.464 545.539 268.767 553.348Z" fill="#F5F5F5"/>
<path d="M257.381 516.289C258.506 514.694 259.287 512.881 259.674 510.967C259.743 510.524 259.908 510.1 260.158 509.727C260.407 509.353 260.734 509.038 261.116 508.803L261.206 511.315C261.217 511.805 261.329 512.286 261.535 512.73C261.741 513.173 262.037 513.569 262.404 513.893C263.093 514.491 263.984 514.802 264.895 514.761C265.806 514.72 266.667 514.331 267.299 513.673L267.466 513.493C268.691 512.198 270.272 511.294 272.01 510.898C273.748 510.501 275.564 510.628 277.229 511.264L280.784 512.591C281.309 512.787 281.761 513.139 282.078 513.6C282.396 514.061 282.565 514.608 282.562 515.168C282.33 525.386 287.108 538.981 292.118 546.441C297.27 548.58 301.714 555.603 299.447 560.744L299.215 561.259C289.465 567.921 276.031 561.092 268.754 553.296C261.477 545.501 266.178 540.089 259.635 533.169C257.171 530.631 255.174 527.678 253.736 524.446C254.569 521.572 255.796 518.827 257.381 516.289Z" fill="#6695FF"/>
<path opacity="0.3" d="M257.381 516.289C258.506 514.694 259.287 512.881 259.674 510.967C259.743 510.524 259.908 510.1 260.158 509.727C260.407 509.353 260.734 509.038 261.116 508.803L261.206 511.315C261.217 511.805 261.329 512.286 261.535 512.73C261.741 513.173 262.037 513.569 262.404 513.893C263.093 514.491 263.984 514.802 264.895 514.761C265.806 514.72 266.667 514.331 267.299 513.673L267.466 513.493C268.691 512.198 270.272 511.294 272.01 510.898C273.748 510.501 275.564 510.628 277.229 511.264L280.784 512.591C281.309 512.787 281.761 513.139 282.078 513.6C282.396 514.061 282.565 514.608 282.562 515.168C282.33 525.386 287.108 538.981 292.118 546.441C297.27 548.58 301.714 555.603 299.447 560.744L299.215 561.259C289.465 567.921 276.031 561.092 268.754 553.296C261.477 545.501 266.178 540.089 259.635 533.169C257.171 530.631 255.174 527.678 253.736 524.446C254.569 521.572 255.796 518.827 257.381 516.289Z" fill="black"/>
<path opacity="0.2" d="M257.381 516.289C258.506 514.694 259.287 512.881 259.674 510.967C259.743 510.524 259.908 510.1 260.158 509.727C260.407 509.353 260.734 509.038 261.116 508.803L261.206 511.315C261.217 511.805 261.329 512.286 261.535 512.73C261.741 513.173 262.037 513.569 262.404 513.893C263.093 514.491 263.984 514.802 264.895 514.761C265.806 514.72 266.667 514.331 267.299 513.673L267.466 513.493C268.691 512.198 270.272 511.294 272.01 510.898C273.748 510.501 275.564 510.628 277.229 511.264L280.784 512.591C281.309 512.787 281.761 513.139 282.078 513.6C282.396 514.061 282.565 514.608 282.562 515.168C282.33 525.386 287.108 538.981 292.118 546.441C297.27 548.58 301.714 555.603 299.447 560.744L299.215 561.259C289.465 567.921 276.031 561.092 268.754 553.296C261.477 545.501 266.178 540.089 259.635 533.169C257.171 530.631 255.174 527.678 253.736 524.446C254.569 521.572 255.796 518.827 257.381 516.289Z" fill="white"/>
<path d="M271.652 531.056C271.356 531.19 271.021 531.208 270.713 531.105C270.405 531.002 270.147 530.787 269.991 530.502C269.857 530.212 269.836 529.883 269.931 529.578C270.026 529.273 270.231 529.015 270.506 528.852C272.64 527.639 275.052 527.001 277.506 527.001C279.96 527.001 282.373 527.639 284.506 528.852C284.725 529.664 284.957 530.463 285.202 531.262C281.067 529.175 276.92 528.414 271.652 531.056Z" fill="white"/>
<path d="M269.849 525.528C269.571 525.592 269.279 525.561 269.02 525.441C268.761 525.321 268.549 525.118 268.418 524.864C268.286 524.61 268.243 524.32 268.295 524.039C268.346 523.758 268.49 523.502 268.703 523.312C270.942 522.088 273.456 521.457 276.008 521.477C278.559 521.497 281.063 522.169 283.283 523.428C283.429 524.287 283.596 525.124 283.785 525.94C279.496 523.698 275.246 522.796 269.849 525.528Z" fill="white"/>
<path d="M273.623 536.558C273.327 536.692 272.991 536.71 272.683 536.607C272.375 536.504 272.117 536.289 271.961 536.004C271.827 535.714 271.806 535.385 271.901 535.08C271.997 534.775 272.201 534.517 272.476 534.355C274.562 533.173 276.913 532.54 279.31 532.516C281.707 532.491 284.071 533.075 286.181 534.213C286.49 535.072 286.812 535.931 287.147 536.79C283.025 534.677 278.839 533.916 273.623 536.558Z" fill="white"/>
<path d="M292.131 546.493C297.283 548.632 301.727 555.654 299.46 560.796L299.228 561.311C289.62 567.87 276.469 561.311 269.102 553.683C275.246 541.648 288.074 544.65 292.131 546.493Z" fill="white"/>
<path d="M275.774 541.931C275.498 541.99 275.211 541.957 274.956 541.837C274.701 541.717 274.492 541.516 274.362 541.266C274.232 541.016 274.188 540.73 274.236 540.452C274.283 540.174 274.421 539.92 274.627 539.728C276.717 538.544 279.074 537.911 281.476 537.888C283.877 537.866 286.246 538.454 288.357 539.599C288.795 540.553 289.246 541.467 289.645 542.344C285.447 540.102 281.17 539.212 275.774 541.931Z" fill="white"/>
<path d="M297.657 527.487C298.571 532.86 302.178 541.661 302.178 541.661L298.43 541.867C296.652 541.965 294.942 542.585 293.513 543.648C292.084 544.711 290.999 546.171 290.392 547.846L290.302 548.078C289.992 548.931 289.366 549.633 288.554 550.039C287.741 550.444 286.804 550.522 285.936 550.255C285.471 550.11 285.042 549.87 284.674 549.551C284.306 549.231 284.008 548.84 283.798 548.4L277.358 534.909L297.657 527.487Z" fill="#FFA8A7"/>
<path d="M307.678 583.835C317.492 588.023 332.523 588.847 338.757 578.823V581.528C332.523 591.566 317.492 590.742 307.678 586.554C297.863 582.366 299.95 575.498 291.204 571.813C287.986 570.639 285.057 568.789 282.613 566.388C282.613 565.589 282.446 564.597 282.317 563.437C284.92 565.839 287.929 567.759 291.204 569.107C300.001 572.779 297.85 579.634 307.678 583.835Z" fill="#F5F5F5"/>
<path d="M282.317 554.469C282.717 552.561 282.717 550.591 282.317 548.683C282.195 548.248 282.172 547.791 282.247 547.346C282.323 546.9 282.496 546.477 282.755 546.106L283.849 548.361C284.158 548.97 284.636 549.477 285.226 549.819C285.816 550.162 286.493 550.326 287.174 550.292C287.855 550.258 288.512 550.027 289.065 549.627C289.618 549.227 290.043 548.676 290.289 548.039L290.38 547.807C290.986 546.132 292.071 544.672 293.5 543.609C294.929 542.546 296.639 541.927 298.417 541.828L302.281 541.622C302.847 541.59 303.41 541.735 303.89 542.038C304.37 542.34 304.744 542.785 304.96 543.31C308.824 552.755 318.728 563.257 326.328 568.063C331.892 567.934 338.795 572.573 338.795 578.191V578.758C332.562 588.783 317.531 587.958 307.716 583.77C297.901 579.583 299.988 572.715 291.243 569.042C287.968 567.694 284.958 565.775 282.355 563.373C281.92 560.422 281.907 557.424 282.317 554.469Z" fill="#6695FF"/>
<path opacity="0.3" d="M282.317 554.469C282.717 552.561 282.717 550.591 282.317 548.683C282.195 548.248 282.172 547.791 282.247 547.346C282.323 546.9 282.496 546.477 282.755 546.106L283.849 548.361C284.158 548.97 284.636 549.477 285.226 549.819C285.816 550.162 286.493 550.326 287.174 550.292C287.855 550.258 288.512 550.027 289.065 549.627C289.618 549.227 290.043 548.676 290.289 548.039L290.38 547.807C290.986 546.132 292.071 544.672 293.5 543.609C294.929 542.546 296.639 541.927 298.417 541.828L302.281 541.622C302.847 541.59 303.41 541.735 303.89 542.038C304.37 542.34 304.744 542.785 304.96 543.31C308.824 552.755 318.728 563.257 326.328 568.063C331.892 567.934 338.795 572.573 338.795 578.191V578.758C332.562 588.783 317.531 587.958 307.716 583.77C297.901 579.583 299.988 572.715 291.243 569.042C287.968 567.694 284.958 565.775 282.355 563.373C281.92 560.422 281.907 557.424 282.317 554.469Z" fill="black"/>
<path opacity="0.2" d="M282.317 554.469C282.717 552.561 282.717 550.591 282.317 548.683C282.195 548.248 282.172 547.791 282.247 547.346C282.323 546.9 282.496 546.477 282.755 546.106L283.849 548.361C284.158 548.97 284.636 549.477 285.226 549.819C285.816 550.162 286.493 550.326 287.174 550.292C287.855 550.258 288.512 550.027 289.065 549.627C289.618 549.227 290.043 548.676 290.289 548.039L290.38 547.807C290.986 546.132 292.071 544.672 293.5 543.609C294.929 542.546 296.639 541.927 298.417 541.828L302.281 541.622C302.847 541.59 303.41 541.735 303.89 542.038C304.37 542.34 304.744 542.785 304.96 543.31C308.824 552.755 318.728 563.257 326.328 568.063C331.892 567.934 338.795 572.573 338.795 578.191V578.758C332.562 588.783 317.531 587.958 307.716 583.77C297.901 579.583 299.988 572.715 291.243 569.042C287.968 567.694 284.958 565.775 282.355 563.373C281.92 560.422 281.907 557.424 282.317 554.469Z" fill="white"/>
<path d="M301.315 562.277C301.086 562.441 300.809 562.526 300.528 562.518C300.246 562.51 299.975 562.409 299.756 562.233C299.537 562.056 299.382 561.812 299.314 561.538C299.247 561.265 299.271 560.977 299.383 560.718C300.849 558.75 302.8 557.196 305.047 556.209C307.293 555.222 309.758 554.835 312.198 555.087C312.726 555.732 313.254 556.376 313.808 557.007C311.448 556.727 309.055 557.066 306.865 557.99C304.675 558.914 302.762 560.391 301.315 562.277Z" fill="white"/>
<path d="M297.451 557.948C297.233 558.187 296.934 558.336 296.612 558.365C296.289 558.394 295.968 558.3 295.712 558.103C295.468 557.893 295.312 557.599 295.274 557.279C295.236 556.96 295.319 556.638 295.506 556.376C297.06 554.353 299.105 552.76 301.447 551.75C303.789 550.74 306.351 550.345 308.888 550.603C309.352 551.316 309.841 552.012 310.357 552.691C305.565 552.356 301.276 553.271 297.451 557.948Z" fill="white"/>
<path d="M305.346 566.517C305.129 566.756 304.829 566.905 304.507 566.934C304.185 566.962 303.864 566.869 303.607 566.671C303.48 566.573 303.374 566.451 303.295 566.311C303.215 566.171 303.165 566.017 303.146 565.858C303.126 565.698 303.139 565.536 303.183 565.382C303.227 565.227 303.301 565.083 303.401 564.958C304.834 563.036 306.73 561.509 308.913 560.52C311.095 559.53 313.493 559.111 315.882 559.301C316.513 559.971 317.17 560.589 317.801 561.247C315.447 560.97 313.061 561.31 310.877 562.234C308.694 563.158 306.788 564.634 305.346 566.517Z" fill="white"/>
<path d="M326.289 568.128C331.853 567.999 338.757 572.638 338.757 578.256V578.823C332.613 588.706 317.943 588.049 308.128 583.977C308.875 570.511 321.832 568.089 326.289 568.128Z" fill="white"/>
<path d="M309.481 570.563C309.252 570.733 308.974 570.823 308.689 570.817C308.404 570.812 308.129 570.713 307.906 570.535C307.684 570.356 307.527 570.109 307.46 569.832C307.393 569.555 307.42 569.264 307.536 569.004C308.972 567.076 310.874 565.546 313.064 564.556C315.254 563.566 317.66 563.15 320.055 563.347C320.841 564.043 321.614 564.7 322.399 565.319C317.595 564.984 313.319 565.898 309.481 570.563Z" fill="white"/>
<path d="M239.98 399.74L289.117 427.122C293.578 429.608 297.145 433.434 299.315 438.058C301.486 442.682 302.149 447.871 301.212 452.893L291.668 504.216L299.486 529.072C292.737 538.092 277.255 538.594 277.255 538.594C268.612 521.25 262.263 513.88 257.355 499.358C252.448 484.836 249.177 474.798 249.177 474.798L208.373 463.639C199.038 461.108 190.676 455.832 184.371 448.495C178.065 441.158 174.106 432.096 173.004 422.483C172.309 416.311 172.283 412.097 172.283 412.097L239.98 399.74Z" fill="#455A64"/>
<path opacity="0.2" d="M239.568 413.553C239.555 419.037 237.608 424.339 234.068 428.526L268.741 450.251C273.832 453.432 277.602 458.347 279.354 464.09L291.668 504.215L280.604 459.503C279.33 454.359 276.094 449.918 271.588 447.133L239.568 427.354C242.84 419.171 239.568 413.553 239.568 413.553Z" fill="black"/>
<path d="M276.675 346.6L283.553 353.275C290.611 344.255 300.091 338.16 308.386 325.507C310.781 322.479 310.524 316.487 312.147 313.369C313.435 310.946 315.65 307.325 316.577 305.289C316.656 305.11 316.773 304.95 316.919 304.821C317.066 304.691 317.239 304.595 317.426 304.538C317.613 304.482 317.811 304.467 318.005 304.494C318.198 304.522 318.384 304.591 318.548 304.697C320.918 306.41 319.669 310.508 318.432 314.812C316.977 319.863 324.589 313.021 325.606 311.861C330.436 307.377 334.622 296.398 337.868 297.468C341.114 298.537 338.551 304.04 338.551 304.04C341.578 304.684 340.431 309.516 340.431 309.516C342.234 312.673 341.719 317.556 338.048 322.079C335.369 325.378 328.144 329.888 324.396 332.104C322.853 333.039 321.534 334.302 320.532 335.802L296.884 370.889C295.801 372.5 294.402 373.873 292.772 374.926C291.142 375.979 289.315 376.689 287.403 377.015C285.49 377.34 283.531 377.273 281.645 376.818C279.759 376.364 277.985 375.53 276.431 374.368L263.551 364.769L276.675 346.6Z" fill="#FFA8A7"/>
<path d="M300.619 335.416C296.279 340.57 288.615 343.805 283.733 351.987L277.538 346.24C267.543 336.241 249.795 315.006 236.721 315.585V345.467C245.257 353.009 254.237 360.032 263.615 366.496L278.208 376.65C279.756 377.717 281.506 378.457 283.35 378.823C285.194 379.19 287.093 379.175 288.931 378.781C290.77 378.386 292.508 377.62 294.039 376.529C295.571 375.438 296.863 374.045 297.837 372.436L314.414 344.99C311.43 344.921 308.532 343.977 306.079 342.275C303.627 340.573 301.728 338.188 300.619 335.416Z" fill="#6695FF"/>
<path opacity="0.2" d="M300.619 335.416C296.279 340.57 288.615 343.805 283.733 351.987L277.538 346.24C267.543 336.241 249.795 315.006 236.721 315.585V345.467C245.257 353.009 254.237 360.032 263.615 366.496L278.208 376.65C279.756 377.717 281.506 378.457 283.35 378.823C285.194 379.19 287.093 379.175 288.931 378.781C290.77 378.386 292.508 377.62 294.039 376.529C295.571 375.438 296.863 374.045 297.837 372.436L314.414 344.99C311.43 344.921 308.532 343.977 306.079 342.275C303.627 340.573 301.728 338.188 300.619 335.416Z" fill="white"/>
<path d="M171.497 415.95C180.204 424.326 222.077 425.872 243.445 405.526C241.397 391.158 242.08 375.773 243.445 360.555C244.81 345.338 253.749 318.716 236.721 315.624C214.053 311.191 199.241 311.539 184.081 320.082C167.904 347.013 170.119 387.396 171.497 415.95Z" fill="#6695FF"/>
<path d="M171.497 415.95C180.204 424.326 222.077 425.872 243.445 405.526C241.397 391.158 242.08 375.773 243.445 360.555C244.81 345.338 253.749 318.716 236.721 315.624C214.053 311.191 199.241 311.539 184.081 320.082C167.904 347.013 170.119 387.396 171.497 415.95Z" fill="#6695FF"/>
<path opacity="0.4" d="M171.497 415.95C180.204 424.326 222.077 425.872 243.445 405.526C241.397 391.158 242.08 375.773 243.445 360.555C244.81 345.338 253.749 318.716 236.721 315.624C214.053 311.191 199.241 311.539 184.081 320.082C167.904 347.013 170.119 387.396 171.497 415.95Z" fill="white"/>
<path d="M205.294 434.016C205.277 434.237 205.299 434.459 205.359 434.673C205.413 434.855 205.5 435.025 205.616 435.175V435.24C205.745 435.422 205.896 435.586 206.067 435.729C206.266 435.915 206.486 436.075 206.724 436.206L242.685 457.119C243.015 457.298 243.36 457.449 243.715 457.57L244.115 457.686L244.643 457.815C244.85 457.867 245.061 457.906 245.274 457.931H245.428C245.724 457.95 246.021 457.95 246.317 457.931H246.446C246.738 457.951 247.03 457.951 247.322 457.931H247.451C247.733 457.904 248.012 457.856 248.288 457.789H248.442C248.687 457.73 248.928 457.657 249.164 457.57H249.292C249.567 457.464 249.834 457.339 250.091 457.197L309.416 422.921C309.657 422.782 309.885 422.623 310.099 422.444C310.151 422.381 310.207 422.321 310.266 422.264C310.376 422.155 310.48 422.038 310.575 421.916C310.575 421.839 310.653 421.762 310.691 421.697C310.758 421.586 310.814 421.47 310.859 421.349C310.866 421.268 310.866 421.186 310.859 421.104C310.865 420.997 310.865 420.89 310.859 420.782V422.883C310.865 422.994 310.865 423.106 310.859 423.218C310.865 423.299 310.865 423.381 310.859 423.462C310.813 423.579 310.757 423.691 310.691 423.797C310.661 423.874 310.622 423.948 310.575 424.016C310.483 424.142 310.38 424.258 310.266 424.364C310.214 424.427 310.158 424.488 310.099 424.545C309.889 424.727 309.66 424.887 309.416 425.022L250.091 459.297C249.836 459.445 249.569 459.57 249.292 459.671H249.164C248.928 459.761 248.687 459.839 248.442 459.903H248.288C248.017 459.967 247.734 460.019 247.451 460.057H247.322H246.446H246.317H245.428H245.274L244.643 459.954L244.115 459.825L243.715 459.696C243.36 459.575 243.015 459.424 242.685 459.245L206.788 438.371C206.551 438.244 206.331 438.088 206.132 437.907C205.961 437.764 205.809 437.599 205.681 437.417C205.57 437.264 205.483 437.094 205.423 436.915C205.404 436.756 205.404 436.596 205.423 436.438V434.157L205.294 434.016Z" fill="#E0E0E0"/>
<path opacity="0.2" d="M205.294 434.016C205.277 434.237 205.299 434.459 205.359 434.673C205.413 434.855 205.5 435.025 205.616 435.175V435.24C205.745 435.422 205.896 435.586 206.067 435.729C206.266 435.915 206.486 436.075 206.724 436.206L242.685 457.119C243.015 457.298 243.36 457.449 243.715 457.57L244.115 457.686L244.643 457.815C244.85 457.867 245.061 457.906 245.274 457.931H245.428C245.724 457.95 246.021 457.95 246.317 457.931H246.446C246.738 457.951 247.03 457.951 247.322 457.931H247.451C247.733 457.904 248.012 457.856 248.288 457.789H248.442C248.687 457.73 248.928 457.657 249.164 457.57H249.292C249.567 457.464 249.834 457.339 250.091 457.197L309.416 422.921C309.657 422.782 309.885 422.623 310.099 422.444C310.151 422.381 310.207 422.321 310.266 422.264C310.376 422.155 310.48 422.038 310.575 421.916C310.575 421.839 310.653 421.762 310.691 421.697C310.758 421.586 310.814 421.47 310.859 421.349C310.866 421.268 310.866 421.186 310.859 421.104C310.865 420.997 310.865 420.89 310.859 420.782V422.883C310.865 422.994 310.865 423.106 310.859 423.218C310.865 423.299 310.865 423.381 310.859 423.462C310.813 423.579 310.757 423.691 310.691 423.797C310.661 423.874 310.622 423.948 310.575 424.016C310.483 424.142 310.38 424.258 310.266 424.364C310.214 424.427 310.158 424.488 310.099 424.545C309.889 424.727 309.66 424.887 309.416 425.022L250.091 459.297C249.836 459.445 249.569 459.57 249.292 459.671H249.164C248.928 459.761 248.687 459.839 248.442 459.903H248.288C248.017 459.967 247.734 460.019 247.451 460.057H247.322H246.446H246.317H245.428H245.274L244.643 459.954L244.115 459.825L243.715 459.696C243.36 459.575 243.015 459.424 242.685 459.245L206.788 438.371C206.551 438.244 206.331 438.088 206.132 437.907C205.961 437.764 205.809 437.599 205.681 437.417C205.57 437.264 205.483 437.094 205.423 436.915C205.404 436.756 205.404 436.596 205.423 436.438V434.157L205.294 434.016Z" fill="black"/>
<path d="M310.923 421.336C310.878 421.457 310.822 421.573 310.756 421.684C310.756 421.748 310.692 421.826 310.64 421.903C310.544 422.025 310.441 422.142 310.331 422.251C310.272 422.308 310.216 422.368 310.163 422.431C309.95 422.609 309.722 422.769 309.481 422.908L250.156 457.183C249.898 457.326 249.631 457.451 249.357 457.557H249.228C248.992 457.644 248.751 457.717 248.507 457.776H248.352C248.077 457.843 247.797 457.891 247.515 457.918H247.386C247.095 457.938 246.802 457.938 246.51 457.918H246.382C246.086 457.937 245.789 457.937 245.493 457.918H245.338C245.131 457.901 244.924 457.871 244.72 457.828L244.192 457.699L243.793 457.583C243.437 457.462 243.093 457.311 242.762 457.132L206.801 436.219C206.564 436.087 206.343 435.927 206.145 435.742C205.974 435.599 205.822 435.434 205.694 435.252V435.188C205.578 435.038 205.49 434.867 205.436 434.685C205.377 434.472 205.355 434.249 205.372 434.028C205.438 433.59 205.613 433.175 205.881 432.822C206.148 432.468 206.5 432.188 206.904 432.005L266.23 397.73C267.372 397.145 268.637 396.84 269.92 396.84C271.203 396.84 272.468 397.145 273.61 397.73L309.571 418.643C309.995 418.829 310.361 419.126 310.631 419.502C310.901 419.878 311.064 420.321 311.104 420.782C311.11 420.889 311.11 420.997 311.104 421.104C311.052 421.188 310.992 421.265 310.923 421.336Z" fill="#E0E0E0"/>
<path d="M305.99 420.757L248.352 454.053L248.12 454.169H247.992C247.845 454.223 247.694 454.266 247.541 454.297H247.232H247.013H246.446H245.854L245.48 454.233L245.016 454.104C244.876 454.067 244.742 454.011 244.617 453.937L226.07 443.164L285.563 408.863L305.99 420.757Z" fill="#E0E0E0"/>
<path d="M251.16 411.608L262.005 417.986C262.171 418.082 262.308 418.221 262.404 418.387C262.499 418.553 262.55 418.741 262.55 418.933C262.55 419.125 262.499 419.313 262.404 419.48C262.308 419.646 262.171 419.784 262.005 419.88L245.789 429.248C245.514 429.41 245.2 429.496 244.881 429.496C244.562 429.496 244.248 429.41 243.973 429.248L233.128 422.857C232.962 422.761 232.825 422.622 232.729 422.456C232.633 422.29 232.583 422.102 232.583 421.91C232.583 421.718 232.633 421.53 232.729 421.363C232.825 421.197 232.962 421.059 233.128 420.963L249.331 411.595C249.609 411.432 249.925 411.348 250.247 411.35C250.569 411.352 250.884 411.441 251.16 411.608Z" fill="#E0E0E0"/>
<path opacity="0.4" d="M305.99 420.757L248.352 454.053L248.12 454.169H247.992C247.845 454.223 247.694 454.266 247.541 454.297H247.232H247.013H246.446H245.854L245.48 454.233L245.016 454.104C244.876 454.067 244.742 454.011 244.617 453.937L226.07 443.164L285.563 408.863L305.99 420.757Z" fill="black"/>
<path opacity="0.4" d="M251.16 411.608L262.005 417.986C262.171 418.082 262.308 418.221 262.404 418.387C262.499 418.553 262.55 418.741 262.55 418.933C262.55 419.125 262.499 419.313 262.404 419.48C262.308 419.646 262.171 419.784 262.005 419.88L245.789 429.248C245.514 429.41 245.2 429.496 244.881 429.496C244.562 429.496 244.248 429.41 243.973 429.248L233.128 422.857C232.962 422.761 232.825 422.622 232.729 422.456C232.633 422.29 232.583 422.102 232.583 421.91C232.583 421.718 232.633 421.53 232.729 421.363C232.825 421.197 232.962 421.059 233.128 420.963L249.331 411.595C249.609 411.432 249.925 411.348 250.247 411.35C250.569 411.352 250.884 411.441 251.16 411.608Z" fill="black"/>
<path d="M246.807 455.045L252.95 415.976C253.11 414.909 253.508 413.892 254.115 412.999C254.721 412.107 255.521 411.363 256.454 410.822L316.191 376.031C316.429 375.892 316.696 375.811 316.971 375.793C317.246 375.775 317.521 375.821 317.775 375.928L319.192 376.637L318.716 376.817C318.866 377.148 318.92 377.514 318.87 377.874L312.726 416.942C312.568 418.01 312.171 419.028 311.564 419.921C310.958 420.813 310.157 421.557 309.223 422.097L249.486 456.887C249.364 456.956 249.234 457.008 249.099 457.042V457.622L247.721 456.939C247.387 456.762 247.118 456.482 246.954 456.142C246.789 455.801 246.738 455.417 246.807 455.045Z" fill="#E0E0E0"/>
<path opacity="0.3" d="M246.807 455.045L252.95 415.976C253.11 414.909 253.508 413.892 254.115 412.999C254.721 412.107 255.521 411.363 256.454 410.822L316.191 376.031C316.429 375.892 316.696 375.811 316.971 375.793C317.246 375.775 317.521 375.821 317.775 375.928L319.192 376.637L318.716 376.817C318.866 377.148 318.92 377.514 318.87 377.874L312.726 416.942C312.568 418.01 312.171 419.028 311.564 419.921C310.958 420.813 310.157 421.557 309.223 422.097L249.486 456.887C249.364 456.956 249.234 457.008 249.099 457.042V457.622L247.721 456.939C247.387 456.762 247.118 456.482 246.954 456.142C246.789 455.801 246.738 455.417 246.807 455.045Z" fill="black"/>
<path d="M257.6 411.44L317.338 376.65C317.632 376.478 317.968 376.393 318.308 376.404C318.649 376.416 318.979 376.524 319.26 376.715C319.542 376.907 319.764 377.174 319.9 377.486C320.036 377.798 320.081 378.143 320.029 378.479L313.886 417.561C313.724 418.626 313.326 419.641 312.722 420.532C312.119 421.424 311.324 422.17 310.395 422.715L250.645 457.506C250.35 457.675 250.014 457.757 249.674 457.744C249.335 457.73 249.006 457.62 248.726 457.428C248.446 457.235 248.226 456.967 248.092 456.655C247.957 456.343 247.914 455.999 247.966 455.663L254.148 416.594C254.303 415.532 254.694 414.518 255.291 413.627C255.888 412.735 256.677 411.988 257.6 411.44Z" fill="#E0E0E0"/>
<path d="M286.606 412.471C285.091 413.418 283.784 414.664 282.765 416.133C281.746 417.602 281.037 419.262 280.681 421.014C280.282 424.068 282.304 425.189 285.189 423.527C286.705 422.578 288.012 421.332 289.033 419.864C290.053 418.395 290.766 416.735 291.127 414.984C291.513 411.93 289.491 410.809 286.606 412.471Z" fill="white"/>
<path d="M186.76 368.377L181.363 386.88L214.323 410.306L225.413 414.971C228.347 416.209 230.886 418.228 232.754 420.808L241.77 433.32C242.788 435.42 238.074 438.835 235.807 439.415C234.503 439.75 233.135 439.755 231.829 439.428C230.522 439.102 229.318 438.455 228.324 437.546L221.343 431.103L219.411 430.433C213.777 428.434 208.887 424.761 205.397 419.906L166.757 404.894C163.356 403.579 160.561 401.049 158.913 397.794C157.265 394.539 156.88 390.789 157.831 387.267L164.271 363.416L186.76 368.377Z" fill="#FFA8A7"/>
<path d="M202.821 402.15L181.325 386.88L186.348 372.178L195.905 343.598C195.905 343.598 196.214 318.549 185.601 319.322C174.988 320.095 169.578 326.254 161.425 363.403L156.582 385.579C155.625 389.981 156.318 394.581 158.529 398.505C160.739 402.43 164.314 405.405 168.573 406.866L195.931 416.259C195.511 413.486 195.946 410.65 197.177 408.129C198.408 405.609 200.377 403.523 202.821 402.15Z" fill="#6695FF"/>
<path opacity="0.2" d="M202.821 402.15L181.325 386.88L186.348 372.178L195.905 343.598C195.905 343.598 196.214 318.549 185.601 319.322C174.988 320.095 169.578 326.254 161.425 363.403L156.582 385.579C155.625 389.981 156.318 394.581 158.529 398.505C160.739 402.43 164.314 405.405 168.573 406.866L195.931 416.259C195.511 413.486 195.946 410.65 197.177 408.129C198.408 405.609 200.377 403.523 202.821 402.15Z" fill="white"/>
<path d="M207.561 305.779C204.419 299.942 201.688 293.886 198.545 288.049C196.497 284.248 194.385 280.318 194.269 275.962C194.24 273.53 194.837 271.13 196.004 268.995C197.17 266.861 198.866 265.062 200.928 263.773C202.461 256.041 208.72 249.367 216.513 248.31C221.381 247.679 226.263 248.954 231.157 249.405C236.052 249.856 241.461 249.238 244.887 245.694C245.985 247.188 246.572 248.995 246.562 250.849C246.589 252.663 246.024 254.436 244.952 255.9C246.414 255.464 247.986 255.578 249.37 256.222C249.926 256.665 250.343 257.259 250.572 257.933C250.8 258.607 250.83 259.333 250.658 260.023C250.311 261.414 249.584 262.681 248.558 263.682C249.523 264.201 250.328 264.973 250.886 265.915C251.445 266.858 251.735 267.934 251.727 269.03C251.627 270.1 251.316 271.139 250.812 272.088C250.307 273.037 249.62 273.876 248.79 274.558C245.66 277.238 241.294 277.766 237.198 278.179L216.384 280.279L207.561 305.779Z" fill="#37474F"/>
<path d="M228.581 331.641C229.361 329.787 229.763 327.796 229.763 325.784C229.763 323.773 229.361 321.782 228.581 319.928V304.259L207.909 292.894L207.445 310.277C211.232 321.242 224.589 325.829 228.581 331.641Z" fill="#FFA8A7"/>
<path opacity="0.2" d="M217.942 309.297C221.394 310.959 225.67 312.647 228.581 313.73V304.259L207.909 292.894C208.076 303.202 212.211 306.527 217.942 309.297Z" fill="black"/>
<path d="M203.118 317.904C203.697 322.685 207.664 329.501 215.998 336.369C215.998 336.369 219.089 329.192 223.043 328.638C224.954 329.503 226.809 330.488 228.594 331.589C224.602 325.777 211.219 321.28 207.458 310.186C206.08 311.578 204.792 314.799 203.118 317.904Z" fill="#6695FF"/>
<path d="M228.581 331.64C229.361 329.786 229.763 327.795 229.763 325.784C229.763 323.772 229.361 321.781 228.581 319.927V313.729C232.355 317.595 237.378 323.458 238.615 329.72C236.606 327.904 233.63 323.806 232.497 326.087C231.106 330.493 228.581 331.64 228.581 331.64Z" fill="#6695FF"/>
<path opacity="0.2" d="M203.118 317.904C203.697 322.685 207.664 329.501 215.998 336.369C215.998 336.369 219.089 329.192 223.043 328.638C224.954 329.503 226.809 330.488 228.594 331.589C224.602 325.777 211.219 321.28 207.458 310.186C206.08 311.578 204.792 314.799 203.118 317.904Z" fill="white"/>
<path opacity="0.2" d="M228.581 331.64C229.361 329.786 229.763 327.795 229.763 325.784C229.763 323.772 229.361 321.781 228.581 319.927V313.729C232.355 317.595 237.378 323.458 238.615 329.72C236.606 327.904 233.63 323.806 232.497 326.087C231.106 330.493 228.581 331.64 228.581 331.64Z" fill="white"/>
<path d="M246.626 264.224C247.489 276.296 247.157 288.425 245.635 300.432C245.475 301.834 245.035 303.19 244.341 304.419C243.647 305.648 242.712 306.724 241.593 307.584C240.474 308.444 239.194 309.069 237.828 309.424C236.462 309.778 235.039 309.853 233.643 309.645C228.599 308.839 223.602 307.755 218.677 306.398C216.238 305.735 214.022 304.429 212.261 302.615C210.501 300.802 209.26 298.548 208.669 296.089L207.909 292.92C206.299 295.342 202.757 295.87 200.091 294.749C198.767 294.131 197.619 293.19 196.753 292.012C195.886 290.835 195.329 289.459 195.132 288.01C194.868 286.581 194.997 285.107 195.506 283.745C196.017 282.379 197.044 281.269 198.365 280.653C199.575 280.231 200.887 280.192 202.12 280.543C203.353 280.893 204.448 281.616 205.256 282.611C206.837 284.641 207.803 287.083 208.038 289.647C211.843 285.355 213.797 279.731 213.473 274.004C215.403 273.803 217.187 272.883 218.471 271.427C219.018 270.697 219.414 269.865 219.635 268.98C219.856 268.095 219.898 267.174 219.759 266.272C227.899 270.383 239.04 269.275 246.626 264.224Z" fill="#FFA8A7"/>
<path d="M232.201 281.516L239.375 290.214L232.793 292.546L232.201 281.516Z" fill="#F28F8F"/>
<path d="M226.765 296.862L232.304 298.563C231.953 299.217 231.399 299.739 230.724 300.048C230.05 300.358 229.293 300.438 228.569 300.277C227.922 300.001 227.391 299.511 227.062 298.889C226.734 298.268 226.629 297.552 226.765 296.862Z" fill="#F28F8F"/>
<path opacity="0.3" d="M226.765 296.862L232.304 298.563C231.953 299.217 231.399 299.739 230.724 300.048C230.05 300.358 229.293 300.438 228.569 300.277C227.922 300.001 227.391 299.511 227.062 298.889C226.734 298.268 226.629 297.552 226.765 296.862Z" fill="black"/>
<path d="M230.385 300.174C229.804 300.393 229.17 300.429 228.569 300.277C228.056 300.085 227.612 299.745 227.293 299.3C226.974 298.855 226.795 298.325 226.778 297.777C227.516 297.662 228.27 297.803 228.916 298.177C229.281 298.396 229.598 298.685 229.85 299.028C230.102 299.371 230.284 299.76 230.385 300.174Z" fill="#F28F8F"/>
<path d="M222.438 283.423C222.459 283.813 222.595 284.187 222.829 284.499C223.063 284.812 223.384 285.047 223.752 285.177C224.12 285.306 224.518 285.323 224.896 285.226C225.274 285.129 225.614 284.922 225.874 284.631C226.134 284.34 226.302 283.979 226.357 283.592C226.411 283.206 226.35 282.812 226.181 282.461C226.011 282.109 225.741 281.816 225.405 281.618C225.069 281.42 224.682 281.326 224.292 281.348C224.034 281.362 223.781 281.426 223.547 281.537C223.314 281.649 223.105 281.806 222.933 281.999C222.76 282.192 222.628 282.417 222.543 282.661C222.458 282.906 222.422 283.165 222.438 283.423Z" fill="#263238"/>
<path d="M238.924 281.902C238.945 282.291 239.081 282.666 239.314 282.978C239.547 283.29 239.868 283.526 240.235 283.655C240.602 283.785 241 283.803 241.377 283.707C241.755 283.611 242.096 283.406 242.356 283.116C242.617 282.826 242.786 282.466 242.842 282.08C242.898 281.695 242.839 281.301 242.671 280.949C242.504 280.598 242.236 280.303 241.901 280.104C241.567 279.904 241.181 279.808 240.792 279.828C240.27 279.858 239.781 280.092 239.432 280.481C239.082 280.869 238.899 281.38 238.924 281.902Z" fill="#263238"/>
<path d="M240.418 273.965L244.939 276.748C245.106 276.198 245.097 275.61 244.915 275.066C244.733 274.521 244.385 274.046 243.922 273.707C243.373 273.416 242.753 273.285 242.133 273.331C241.513 273.376 240.919 273.596 240.418 273.965Z" fill="#263238"/>
<path d="M223.558 274.635L219.359 277.882C219.139 277.353 219.086 276.769 219.208 276.209C219.33 275.649 219.621 275.14 220.042 274.751C220.558 274.404 221.162 274.21 221.783 274.189C222.405 274.169 223.02 274.323 223.558 274.635Z" fill="#263238"/>
<path d="M420.249 330.506C421.872 329.566 423.198 330.313 423.198 332.182V342.606C423.147 343.623 422.855 344.614 422.347 345.496C421.839 346.379 421.128 347.128 420.275 347.683L329.38 400.178C327.758 401.119 326.431 400.371 326.431 398.503V388.079C326.482 387.062 326.774 386.071 327.283 385.189C327.791 384.306 328.501 383.557 329.355 383.002L420.249 330.506Z" fill="#407BFF"/>
<g opacity="0.3">
<path d="M420.249 330.506C421.872 329.566 423.198 330.313 423.198 332.182V342.606C423.147 343.623 422.855 344.614 422.347 345.496C421.839 346.379 421.128 347.128 420.275 347.683L329.38 400.178C327.758 401.119 326.431 400.371 326.431 398.503V388.079C326.482 387.062 326.774 386.071 327.283 385.189C327.791 384.306 328.501 383.557 329.355 383.002L420.249 330.506Z" fill="black"/>
</g>
<g opacity="0.2">
<path d="M420.249 330.506C421.872 329.566 423.198 330.313 423.198 332.182V342.606C423.147 343.623 422.855 344.614 422.347 345.496C421.839 346.379 421.128 347.128 420.275 347.683L329.38 400.178C327.758 401.119 326.431 400.371 326.431 398.503V388.079C326.482 387.062 326.774 386.071 327.283 385.189C327.791 384.306 328.501 383.557 329.355 383.002L420.249 330.506Z" fill="white"/>
</g>
<path d="M422.129 349.59C422.735 349.242 423.211 349.526 423.211 350.208V354.074C423.191 354.446 423.084 354.807 422.898 355.129C422.712 355.452 422.453 355.726 422.142 355.93L327.5 410.912C326.907 411.26 326.418 410.989 326.418 410.293V406.428C326.435 406.054 326.541 405.689 326.727 405.364C326.913 405.04 327.173 404.764 327.487 404.559L422.129 349.59Z" fill="#407BFF"/>
<g opacity="0.3">
<path d="M422.129 349.59C422.735 349.242 423.211 349.526 423.211 350.208V354.074C423.191 354.446 423.084 354.807 422.898 355.129C422.712 355.452 422.453 355.726 422.142 355.93L327.5 410.912C326.907 411.26 326.418 410.989 326.418 410.293V406.428C326.435 406.054 326.541 405.689 326.727 405.364C326.913 405.04 327.173 404.764 327.487 404.559L422.129 349.59Z" fill="white"/>
</g>
<path d="M422.129 358.816C422.735 358.468 423.211 358.739 423.211 359.434V363.3C423.191 363.673 423.084 364.037 422.898 364.361C422.713 364.686 422.454 364.962 422.142 365.168L327.5 420.151C326.907 420.499 326.418 420.151 326.418 419.532V415.667C326.436 415.295 326.543 414.932 326.728 414.61C326.914 414.287 327.174 414.013 327.487 413.811L422.129 358.816Z" fill="#407BFF"/>
<g opacity="0.3">
<path d="M422.129 358.816C422.735 358.468 423.211 358.739 423.211 359.434V363.3C423.191 363.673 423.084 364.037 422.898 364.361C422.713 364.686 422.454 364.962 422.142 365.168L327.5 420.151C326.907 420.499 326.418 420.151 326.418 419.532V415.667C326.436 415.295 326.543 414.932 326.728 414.61C326.914 414.287 327.174 414.013 327.487 413.811L422.129 358.816Z" fill="white"/>
</g>
<path d="M345.094 355.917V361.187C345.105 362.538 344.752 363.867 344.072 365.035C343.392 366.203 342.41 367.166 341.23 367.823C338.796 369.227 337.366 368.467 337.366 365.658V360.414L339.697 359.125V364.279C339.697 365.903 340.29 366.212 341.269 365.645C341.799 365.316 342.225 364.844 342.498 364.283C342.772 363.722 342.881 363.096 342.814 362.475V357.321L345.094 355.917Z" fill="#407BFF"/>
<path d="M350.439 352.837C352.68 351.548 354.084 352.064 354.097 354.216C354.026 355.385 353.652 356.517 353.014 357.499C352.375 358.482 351.492 359.281 350.452 359.821L349.022 360.645V363.119L346.691 364.472V355.002L350.439 352.837ZM350.31 357.785C350.724 357.58 351.075 357.267 351.327 356.879C351.578 356.491 351.721 356.043 351.74 355.581C351.74 354.692 351.263 354.46 350.297 355.027L349.009 355.775V358.532L350.297 357.785" fill="#407BFF"/>
<path d="M357.549 348.727L357.562 356.058L361.49 353.791V355.917L355.243 359.525L355.218 350.067L357.549 348.727Z" fill="#407BFF"/>
<path d="M366.41 343.405C368.986 341.884 370.996 342.851 370.996 345.686C370.916 347.223 370.46 348.717 369.667 350.036C368.874 351.355 367.769 352.459 366.449 353.249C363.809 354.77 361.864 353.804 361.851 350.969C361.933 349.431 362.391 347.936 363.187 346.617C363.982 345.298 365.089 344.195 366.41 343.405ZM366.41 351.033C367.08 350.606 367.632 350.018 368.017 349.322C368.402 348.627 368.607 347.846 368.613 347.052C368.613 345.415 367.634 344.913 366.397 345.634C365.727 346.062 365.173 346.65 364.787 347.345C364.4 348.04 364.192 348.82 364.182 349.616C364.182 351.239 365.161 351.755 366.41 351.033Z" fill="#407BFF"/>
<path d="M377.036 337.465L380.707 344.822L378.273 346.227L377.629 344.745L374.151 346.768L373.507 348.984L371.137 350.35L374.744 338.753L377.036 337.465ZM374.808 344.436L376.908 343.225L375.851 340.789L374.808 344.436Z" fill="#407BFF"/>
<path d="M385.228 332.736C387.959 331.164 389.826 331.911 389.839 334.81C389.769 336.331 389.311 337.807 388.508 339.1C387.706 340.393 386.585 341.458 385.254 342.194L381.39 344.436V334.978L385.228 332.736ZM385.151 340.106C385.85 339.71 386.433 339.138 386.842 338.446C387.251 337.754 387.472 336.967 387.482 336.163C387.482 334.527 386.542 334.115 385.138 334.875L383.67 335.725V340.88L385.138 340.029" fill="#407BFF"/>
<path d="M393.381 328.033L393.407 337.491L391.076 338.831L391.05 329.373L393.381 328.033Z" fill="#407BFF"/>
<path d="M402.874 322.543L402.899 332.001L400.967 333.122L397.335 330.159L397.348 335.21L395.068 336.524L395.03 327.066L396.949 325.958L400.594 328.909L400.581 323.871L402.874 322.543Z" fill="#407BFF"/>
<path d="M408.683 319C410.215 318.111 411.465 317.995 412.276 318.652L410.795 321.049C410.491 320.86 410.137 320.769 409.781 320.787C409.424 320.806 409.081 320.933 408.798 321.152C408.094 321.572 407.509 322.165 407.098 322.876C406.688 323.586 406.466 324.39 406.454 325.211C406.454 326.795 407.407 327.375 408.786 326.499C409.271 326.232 409.707 325.883 410.074 325.468V322.891L412.122 321.706V325.571C411.204 326.864 410.028 327.952 408.67 328.767C406.094 330.287 404.123 329.347 404.123 326.473C404.205 324.947 404.664 323.465 405.46 322.161C406.256 320.856 407.363 319.77 408.683 319Z" fill="#407BFF"/>
<g opacity="0.3">
<path d="M345.094 355.917V361.187C345.105 362.538 344.752 363.867 344.072 365.035C343.392 366.203 342.41 367.166 341.23 367.823C338.796 369.227 337.366 368.467 337.366 365.658V360.414L339.697 359.125V364.279C339.697 365.903 340.29 366.212 341.269 365.645C341.799 365.316 342.225 364.844 342.498 364.283C342.772 363.722 342.881 363.096 342.814 362.475V357.321L345.094 355.917Z" fill="black"/>
<path d="M350.439 352.837C352.68 351.548 354.084 352.064 354.097 354.216C354.026 355.385 353.653 356.517 353.014 357.499C352.375 358.482 351.492 359.281 350.452 359.821L349.022 360.645V363.119L346.691 364.472V355.002L350.439 352.837ZM350.31 357.785C350.724 357.58 351.075 357.267 351.327 356.879C351.578 356.491 351.721 356.043 351.74 355.581C351.74 354.692 351.264 354.46 350.298 355.027L349.01 355.775V358.532L350.298 357.785" fill="black"/>
<path d="M357.549 348.727L357.562 356.058L361.49 353.791V355.917L355.243 359.525L355.218 350.067L357.549 348.727Z" fill="black"/>
<path d="M366.41 343.405C368.986 341.884 370.996 342.851 370.996 345.686C370.916 347.223 370.46 348.717 369.667 350.036C368.874 351.355 367.769 352.459 366.449 353.249C363.809 354.77 361.864 353.804 361.851 350.969C361.933 349.431 362.391 347.936 363.187 346.617C363.982 345.298 365.089 344.195 366.41 343.405ZM366.41 351.033C367.08 350.606 367.632 350.018 368.017 349.322C368.402 348.627 368.607 347.846 368.613 347.052C368.613 345.415 367.634 344.913 366.397 345.634C365.727 346.062 365.173 346.65 364.787 347.345C364.4 348.04 364.192 348.82 364.182 349.616C364.182 351.239 365.161 351.755 366.41 351.033Z" fill="black"/>
<path d="M377.036 337.465L380.707 344.822L378.273 346.227L377.629 344.745L374.151 346.768L373.507 348.984L371.137 350.35L374.744 338.753L377.036 337.465ZM374.808 344.436L376.908 343.225L375.851 340.789L374.808 344.436Z" fill="black"/>
<path d="M385.228 332.735C387.959 331.163 389.826 331.911 389.839 334.81C389.769 336.33 389.311 337.807 388.508 339.1C387.706 340.392 386.585 341.457 385.254 342.193L381.39 344.435V334.978L385.228 332.735ZM385.151 340.106C385.85 339.71 386.433 339.137 386.842 338.445C387.251 337.754 387.472 336.967 387.482 336.163C387.482 334.527 386.542 334.114 385.138 334.874L383.67 335.725V340.879L385.138 340.029" fill="black"/>
<path d="M393.381 328.033L393.407 337.491L391.076 338.831L391.05 329.373L393.381 328.033Z" fill="black"/>
<path d="M402.874 322.543L402.899 332.001L400.967 333.122L397.335 330.159L397.348 335.21L395.068 336.524L395.03 327.066L396.949 325.958L400.594 328.909L400.581 323.871L402.874 322.543Z" fill="black"/>
<path d="M408.683 319C410.215 318.111 411.465 317.995 412.276 318.652L410.795 321.049C410.491 320.86 410.137 320.769 409.781 320.787C409.424 320.806 409.081 320.933 408.798 321.152C408.094 321.572 407.509 322.165 407.098 322.876C406.688 323.586 406.466 324.39 406.454 325.211C406.454 326.795 407.407 327.375 408.786 326.499C409.271 326.232 409.707 325.883 410.074 325.468V322.891L412.122 321.706V325.571C411.204 326.864 410.028 327.952 408.67 328.767C406.094 330.287 404.123 329.347 404.123 326.473C404.205 324.947 404.664 323.465 405.46 322.161C406.256 320.856 407.363 319.77 408.683 319Z" fill="black"/>
</g>
<g opacity="0.1">
<path d="M345.094 355.917V361.187C345.105 362.538 344.752 363.867 344.072 365.035C343.392 366.203 342.41 367.166 341.23 367.823C338.796 369.227 337.366 368.467 337.366 365.658V360.414L339.697 359.125V364.279C339.697 365.903 340.29 366.212 341.269 365.645C341.799 365.316 342.225 364.844 342.498 364.283C342.772 363.722 342.881 363.096 342.814 362.475V357.321L345.094 355.917Z" fill="white"/>
<path d="M350.439 352.837C352.68 351.548 354.084 352.064 354.097 354.216C354.026 355.385 353.653 356.517 353.014 357.499C352.375 358.482 351.492 359.281 350.452 359.821L349.022 360.645V363.119L346.691 364.472V355.002L350.439 352.837ZM350.31 357.785C350.724 357.58 351.075 357.267 351.327 356.879C351.578 356.491 351.721 356.043 351.74 355.581C351.74 354.692 351.264 354.46 350.298 355.027L349.01 355.775V358.532L350.298 357.785" fill="white"/>
<path d="M357.549 348.727L357.562 356.058L361.49 353.791V355.917L355.243 359.525L355.218 350.067L357.549 348.727Z" fill="white"/>
<path d="M366.41 343.405C368.986 341.884 370.996 342.851 370.996 345.686C370.916 347.223 370.46 348.717 369.667 350.036C368.874 351.355 367.769 352.459 366.449 353.249C363.809 354.77 361.864 353.804 361.851 350.969C361.933 349.431 362.391 347.936 363.187 346.617C363.982 345.298 365.089 344.195 366.41 343.405ZM366.41 351.033C367.08 350.606 367.632 350.018 368.017 349.322C368.402 348.627 368.607 347.846 368.613 347.052C368.613 345.415 367.634 344.913 366.397 345.634C365.727 346.062 365.173 346.65 364.787 347.345C364.4 348.04 364.192 348.82 364.182 349.616C364.182 351.239 365.161 351.755 366.41 351.033Z" fill="white"/>
<path d="M377.036 337.465L380.707 344.822L378.273 346.227L377.629 344.745L374.151 346.768L373.507 348.984L371.137 350.35L374.744 338.753L377.036 337.465ZM374.808 344.436L376.908 343.225L375.851 340.789L374.808 344.436Z" fill="white"/>
<path d="M385.228 332.735C387.959 331.163 389.826 331.911 389.839 334.81C389.769 336.33 389.311 337.807 388.508 339.1C387.706 340.392 386.585 341.457 385.254 342.193L381.39 344.435V334.978L385.228 332.735ZM385.151 340.106C385.85 339.71 386.433 339.137 386.842 338.445C387.251 337.754 387.472 336.967 387.482 336.163C387.482 334.527 386.542 334.114 385.138 334.874L383.67 335.725V340.879L385.138 340.029" fill="white"/>
<path d="M393.381 328.033L393.407 337.491L391.076 338.831L391.05 329.373L393.381 328.033Z" fill="white"/>
<path d="M402.874 322.543L402.899 332.001L400.967 333.122L397.335 330.159L397.348 335.21L395.068 336.524L395.03 327.066L396.949 325.958L400.594 328.909L400.581 323.871L402.874 322.543Z" fill="white"/>
<path d="M408.683 319C410.215 318.111 411.465 317.995 412.276 318.652L410.795 321.049C410.491 320.86 410.137 320.769 409.781 320.787C409.424 320.806 409.081 320.933 408.798 321.152C408.094 321.572 407.509 322.165 407.098 322.876C406.688 323.586 406.466 324.39 406.454 325.211C406.454 326.795 407.407 327.375 408.786 326.499C409.271 326.232 409.707 325.883 410.074 325.468V322.891L412.122 321.706V325.571C411.204 326.864 410.028 327.952 408.67 328.767C406.094 330.287 404.123 329.347 404.123 326.473C404.205 324.947 404.664 323.465 405.46 322.161C406.256 320.856 407.363 319.77 408.683 319Z" fill="white"/>
</g>
<path d="M364.517 366.225L364.543 375.683L362.211 377.023L362.186 369.64L360.666 370.516L360.653 368.454L364.517 366.225Z" fill="white"/>
<path d="M369.386 363.235C371.472 362.024 373.005 362.939 373.005 366.057C373.059 367.436 372.756 368.806 372.127 370.034C371.497 371.261 370.562 372.306 369.411 373.067C367.312 374.278 365.766 373.363 365.766 370.245C365.715 368.864 366.022 367.493 366.656 366.265C367.29 365.037 368.23 363.993 369.386 363.235ZM369.386 370.877C370.133 370.451 370.674 369.395 370.674 367.41C370.674 365.426 370.133 364.988 369.386 365.413C368.639 365.838 368.098 366.908 368.098 368.892C368.098 370.877 368.639 371.302 369.386 370.877Z" fill="white"/>
<path d="M377.384 358.61C379.484 357.385 381.016 358.3 381.016 361.431C381.07 362.812 380.766 364.182 380.134 365.411C379.502 366.639 378.564 367.683 377.41 368.441C375.31 369.652 373.778 368.738 373.765 365.619C373.715 364.238 374.022 362.868 374.656 361.64C375.29 360.412 376.23 359.368 377.384 358.61ZM377.384 366.251C378.131 365.825 378.672 364.769 378.672 362.772C378.672 360.774 378.118 360.362 377.384 360.8C376.65 361.238 376.096 362.282 376.096 364.266C376.096 366.251 376.637 366.676 377.384 366.251Z" fill="white"/>
<path d="M385.949 356.355C385.958 357.126 385.769 357.887 385.399 358.564C385.029 359.241 384.491 359.812 383.837 360.221C382.626 360.916 381.738 360.452 381.725 358.816C381.714 358.046 381.902 357.286 382.27 356.609C382.637 355.932 383.173 355.361 383.824 354.95C385.112 354.242 385.936 354.744 385.949 356.355ZM383.141 357.978C383.141 358.932 383.463 359.125 383.824 358.919C384.083 358.716 384.283 358.448 384.406 358.143C384.528 357.837 384.567 357.505 384.52 357.18C384.52 356.213 384.223 356.007 383.824 356.239C383.571 356.446 383.375 356.715 383.255 357.019C383.136 357.324 383.096 357.654 383.141 357.978Z" fill="white"/>
<path d="M388.693 352.257L390.38 351.278L384.79 363.983L383.103 364.962L388.693 352.257Z" fill="white"/>
<path d="M389.646 356.033C390.857 355.324 391.758 355.788 391.771 357.437C391.778 358.208 391.587 358.968 391.217 359.645C390.847 360.321 390.311 360.892 389.659 361.303C388.435 361.999 387.546 361.535 387.546 359.898C387.532 359.127 387.718 358.366 388.086 357.689C388.454 357.011 388.992 356.441 389.646 356.033ZM389.646 359.989C390.032 359.77 390.328 359.216 390.328 358.262C390.328 357.308 390.019 357.089 389.633 357.321C389.375 357.525 389.175 357.793 389.053 358.098C388.931 358.404 388.891 358.735 388.937 359.061C388.937 360.014 389.259 360.221 389.646 359.989Z" fill="white"/>
<path d="M251.237 154.632L214.156 175.906C213.057 176.546 212.144 177.461 211.507 178.561C210.87 179.662 210.531 180.91 210.524 182.182V209.241C210.555 210.502 210.919 211.733 211.579 212.808C212.239 213.883 213.171 214.765 214.282 215.363C215.392 215.961 216.641 216.254 217.902 216.213C219.162 216.172 220.389 215.798 221.459 215.13L227.899 211.444L228.478 212.385L228.569 212.475C229.625 213.184 231.492 214.176 231.917 214.395C232.015 214.424 232.12 214.415 232.211 214.37C232.302 214.324 232.372 214.246 232.407 214.15L234.777 207.424L258.437 193.894C259.545 193.261 260.465 192.345 261.106 191.241C261.746 190.137 262.083 188.883 262.082 187.606V160.547C262.16 155.29 254.483 152.764 251.237 154.632Z" fill="#407BFF"/>
<path opacity="0.2" d="M228.479 212.321L228.569 212.411C229.625 213.12 231.492 214.112 231.917 214.331C231.87 214.32 231.825 214.299 231.785 214.27C231.745 214.242 231.711 214.205 231.686 214.163L229.457 210.427L229.921 210.169L227.899 211.329L228.479 212.321Z" fill="white"/>
<path opacity="0.4" d="M218.664 182.736C219.127 181.796 219.786 180.965 220.596 180.3C220.87 180.074 221.163 179.871 221.472 179.695L258.54 158.421C258.906 158.211 259.321 158.101 259.743 158.102C260.165 158.103 260.579 158.214 260.944 158.426C261.309 158.637 261.613 158.941 261.824 159.306C262.035 159.672 262.146 160.086 262.147 160.508C262.147 155.29 254.419 152.777 251.224 154.633L214.143 175.906C213.016 176.557 212.085 177.501 211.451 178.638L218.664 182.736Z" fill="white"/>
<path opacity="0.2" d="M217.84 213.004V185.944C217.841 185.655 217.863 185.367 217.904 185.081C218.02 184.249 218.277 183.443 218.664 182.697L211.464 178.6C210.849 179.679 210.525 180.9 210.524 182.143V209.203C210.555 210.464 210.919 211.695 211.579 212.77C212.239 213.845 213.171 214.726 214.282 215.324C215.392 215.922 216.641 216.216 217.902 216.175C219.162 216.134 220.389 215.76 221.459 215.091C221.092 215.3 220.677 215.41 220.254 215.408C219.832 215.407 219.417 215.296 219.051 215.085C218.686 214.874 218.381 214.571 218.169 214.206C217.956 213.841 217.843 213.426 217.84 213.004Z" fill="white"/>
<path d="M253.144 168.188C253.358 168.035 253.608 167.94 253.87 167.913C254.132 167.886 254.397 167.927 254.638 168.033C255.475 168.51 255.475 170.056 254.638 171.486L238.473 199.499C238.114 200.14 237.6 200.68 236.979 201.071C236.764 201.227 236.511 201.323 236.246 201.35C235.982 201.377 235.715 201.334 235.472 201.226L228.363 197.18C227.538 196.703 227.525 195.17 228.363 193.74C228.71 193.091 229.221 192.545 229.844 192.155C230.061 192.002 230.313 191.907 230.577 191.88C230.841 191.853 231.107 191.894 231.351 192L236.954 195.209L251.637 169.76C252 169.118 252.518 168.577 253.144 168.188Z" fill="white"/>
<path d="M366.797 130.434C375.46 137.696 384.758 144.164 394.579 149.762C396.485 150.857 398.443 151.939 400.362 152.983L400.993 153.331C406.519 156.527 409.12 161.062 407.433 165.534C406.8 167.173 406.596 168.947 406.841 170.688C407.433 174.785 410.486 178.535 415.509 181.434L408.116 185.777C405.479 187.099 402.571 187.787 399.621 187.787C396.672 187.787 393.764 187.099 391.127 185.777C395.045 184.489 398.805 182.76 402.333 180.623C401.599 180.945 400.839 181.254 400.079 181.563C397.224 182.607 394.186 183.052 391.152 182.87C388.119 182.688 385.155 181.884 382.446 180.507C382.214 180.378 381.995 180.236 381.789 180.094C386.915 178.907 391.938 177.308 396.807 175.314C389.182 178.174 379.406 177.362 373.224 173.793C372.618 173.452 372.037 173.068 371.485 172.646C370.197 171.693 369.141 170.842 368.523 170.327C375.149 170.803 381.805 170.626 388.396 169.799H388.139C380.113 169.824 372.207 167.849 365.135 164.052C360.46 161.346 357.085 157.867 355.643 153.937L355.449 153.357C364.627 157.85 374.419 160.959 384.507 162.583C377.399 160.365 370.502 157.519 363.899 154.078C363.615 153.941 363.332 153.786 363.049 153.615C356.441 149.749 354.239 144.066 357.472 138.964C361.342 141.973 365.413 144.716 369.656 147.172C375.341 150.412 381.241 153.258 387.315 155.689C385.55 154.774 383.824 153.846 382.163 152.88C375.94 149.328 370.13 145.098 364.839 140.265C361.413 137.108 362.224 133.024 366.797 130.434Z" fill="#407BFF"/>
<g opacity="0.2">
<path d="M366.797 130.434C375.46 137.696 384.758 144.164 394.579 149.762C396.485 150.857 398.443 151.939 400.362 152.983L400.993 153.331C406.519 156.527 409.12 161.062 407.433 165.534C406.8 167.173 406.596 168.947 406.841 170.688C407.433 174.785 410.486 178.535 415.509 181.434L408.116 185.777C405.479 187.099 402.571 187.787 399.621 187.787C396.672 187.787 393.764 187.099 391.127 185.777C395.045 184.489 398.805 182.76 402.333 180.623C401.599 180.945 400.839 181.254 400.079 181.563C397.224 182.607 394.186 183.052 391.152 182.87C388.119 182.688 385.155 181.884 382.446 180.507C382.214 180.378 381.995 180.236 381.789 180.094C386.915 178.907 391.938 177.308 396.807 175.314C389.182 178.174 379.406 177.362 373.224 173.793C372.618 173.452 372.037 173.068 371.485 172.646C370.197 171.693 369.141 170.842 368.523 170.327C375.149 170.803 381.805 170.626 388.396 169.799H388.139C380.113 169.824 372.207 167.849 365.135 164.052C360.46 161.346 357.085 157.867 355.643 153.937L355.449 153.357C364.627 157.85 374.419 160.959 384.507 162.583C377.399 160.365 370.502 157.519 363.899 154.078C363.615 153.941 363.332 153.786 363.049 153.615C356.441 149.749 354.239 144.066 357.472 138.964C361.342 141.973 365.413 144.716 369.656 147.172C375.341 150.412 381.241 153.258 387.315 155.689C385.55 154.774 383.824 153.846 382.163 152.88C375.94 149.328 370.13 145.098 364.839 140.265C361.413 137.108 362.224 133.024 366.797 130.434Z" fill="black"/>
</g>
<g opacity="0.4">
<path d="M366.797 130.434C375.46 137.696 384.758 144.164 394.579 149.762C396.485 150.857 398.443 151.939 400.362 152.983L400.993 153.331C406.519 156.527 409.12 161.062 407.433 165.534C406.8 167.173 406.596 168.947 406.841 170.688C407.433 174.785 410.486 178.535 415.509 181.434L408.116 185.777C405.479 187.099 402.571 187.787 399.621 187.787C396.672 187.787 393.764 187.099 391.127 185.777C395.045 184.489 398.805 182.76 402.333 180.623C401.599 180.945 400.839 181.254 400.079 181.563C397.224 182.607 394.186 183.052 391.152 182.87C388.119 182.688 385.155 181.884 382.446 180.507C382.214 180.378 381.995 180.236 381.789 180.094C386.915 178.907 391.938 177.308 396.807 175.314C389.182 178.174 379.406 177.362 373.224 173.793C372.618 173.452 372.037 173.068 371.485 172.646C370.197 171.693 369.141 170.842 368.523 170.327C375.149 170.803 381.805 170.626 388.396 169.799H388.139C380.113 169.824 372.207 167.849 365.135 164.052C360.46 161.346 357.085 157.867 355.643 153.937L355.449 153.357C364.627 157.85 374.419 160.959 384.507 162.583C377.399 160.365 370.502 157.519 363.899 154.078C363.615 153.941 363.332 153.786 363.049 153.615C356.441 149.749 354.239 144.066 357.472 138.964C361.342 141.973 365.413 144.716 369.656 147.172C375.341 150.412 381.241 153.258 387.315 155.689C385.55 154.774 383.824 153.846 382.163 152.88C375.94 149.328 370.13 145.098 364.839 140.265C361.413 137.108 362.224 133.024 366.797 130.434Z" fill="white"/>
</g>
<path d="M422.361 170.585V168.446C422.365 167.965 422.496 167.494 422.74 167.08C422.984 166.666 423.333 166.323 423.752 166.088L442.879 155.019C443.085 154.899 443.319 154.835 443.557 154.834C443.796 154.833 444.03 154.895 444.237 155.015C444.443 155.134 444.615 155.305 444.734 155.512C444.853 155.719 444.915 155.953 444.914 156.192V201.639L395.867 229.987V187.465L420.996 172.943C421.411 172.705 421.755 172.361 421.995 171.947C422.235 171.533 422.361 171.063 422.361 170.585Z" fill="#455A64"/>
<path opacity="0.2" d="M422.361 170.585V168.446C422.365 167.965 422.496 167.494 422.74 167.08C422.984 166.666 423.333 166.323 423.752 166.088L442.879 155.019C443.085 154.899 443.319 154.835 443.557 154.834C443.796 154.833 444.03 154.895 444.237 155.015C444.443 155.134 444.615 155.305 444.734 155.512C444.853 155.719 444.915 155.953 444.914 156.192V201.639L395.867 229.987V187.465L420.996 172.943C421.411 172.705 421.755 172.361 421.995 171.947C422.235 171.533 422.361 171.063 422.361 170.585Z" fill="black"/>
<path opacity="0.1" d="M422.361 170.585V168.446C422.365 167.965 422.496 167.494 422.74 167.08C422.984 166.666 423.333 166.323 423.752 166.088L442.879 155.019C443.085 154.899 443.319 154.835 443.557 154.834C443.796 154.833 444.03 154.895 444.237 155.015C444.443 155.134 444.615 155.305 444.734 155.512C444.853 155.719 444.915 155.953 444.914 156.192V201.639L395.867 229.987V187.465L420.996 172.943C421.411 172.705 421.755 172.361 421.995 171.947C422.235 171.533 422.361 171.063 422.361 170.585Z" fill="white"/>
<path d="M395.867 230.644L399.499 190.531L448.546 161.513L444.914 201.626L395.867 230.644Z" fill="#455A64"/>
<path opacity="0.6" d="M395.867 230.644L399.499 190.531L448.546 161.513L444.914 201.626L395.867 230.644Z" fill="white"/>
<path d="M444.914 201.626L452.191 163.511L403.131 191.356L395.867 229.961L444.914 201.626Z" fill="#455A64"/>
<path opacity="0.2" d="M444.914 201.626L452.191 163.511L403.131 191.356L395.867 229.961L444.914 201.626Z" fill="black"/>
<path opacity="0.2" d="M444.914 201.626L452.191 163.511L403.131 191.356L395.867 229.961L444.914 201.626Z" fill="white"/>
<path d="M520.352 219.034C515.805 221.74 508.76 222.217 503.312 220.323C495.754 217.639 488.449 214.293 481.48 210.324C479.806 209.344 478.183 208.348 476.612 207.334C481.243 211.136 486.18 214.549 491.372 217.539C495.971 220.187 500.743 222.52 505.656 224.523C496.64 226.443 486.787 225.193 480.166 221.366L479.368 220.877C473.983 217.523 469.03 213.52 464.62 208.958C468.454 215.815 473.973 221.581 480.656 225.709L479.651 225.606C473.522 224.957 467.582 223.1 462.173 220.142C456.171 216.676 452.41 211.973 452.165 206.832V206.677C450.768 210.353 450.477 214.357 451.328 218.197C450.427 217.836 448.971 217.217 447.31 216.496C446.632 216.195 445.97 215.859 445.326 215.491C439.144 211.921 437.727 206.252 442.518 201.909C439.424 204.378 436.723 207.302 434.507 210.581C434.238 210.454 433.975 210.312 433.721 210.156C429.033 207.45 428.144 203.172 431.841 199.951C432.356 199.5 432.884 199.075 433.438 198.662C430.177 200.396 427.184 202.592 424.551 205.182C419.927 202.463 419.94 198.031 424.551 195.338L431.982 191.008C437.702 194.118 444.074 195.836 450.581 196.021C453.536 196.153 456.496 196.032 459.43 195.66C466.665 194.654 474.033 195.952 480.488 199.371C480.695 199.487 480.901 199.603 481.094 199.732C482.923 200.866 484.782 201.978 486.671 203.069C497.469 209.253 508.73 214.591 520.352 219.034Z" fill="#407BFF"/>
<g opacity="0.2">
<path d="M520.352 219.034C515.805 221.74 508.76 222.217 503.312 220.323C495.754 217.639 488.449 214.293 481.48 210.324C479.806 209.344 478.183 208.348 476.612 207.334C481.243 211.136 486.18 214.549 491.372 217.539C495.971 220.187 500.743 222.52 505.656 224.523C496.64 226.443 486.787 225.193 480.166 221.366L479.368 220.877C473.983 217.523 469.03 213.52 464.62 208.958C468.454 215.815 473.973 221.581 480.656 225.709L479.651 225.606C473.522 224.957 467.582 223.1 462.173 220.142C456.171 216.676 452.41 211.973 452.165 206.832V206.677C450.768 210.353 450.477 214.357 451.328 218.197C450.427 217.836 448.971 217.217 447.31 216.496C446.632 216.195 445.97 215.859 445.326 215.491C439.144 211.921 437.727 206.252 442.518 201.909C439.424 204.378 436.723 207.302 434.507 210.581C434.238 210.454 433.975 210.312 433.721 210.156C429.033 207.45 428.144 203.172 431.841 199.951C432.356 199.5 432.884 199.075 433.438 198.662C430.177 200.396 427.184 202.592 424.551 205.182C419.927 202.463 419.94 198.031 424.551 195.338L431.982 191.008C437.702 194.118 444.074 195.836 450.581 196.021C453.536 196.153 456.496 196.032 459.43 195.66C466.665 194.654 474.033 195.952 480.488 199.371C480.695 199.487 480.901 199.603 481.094 199.732C482.923 200.866 484.782 201.978 486.671 203.069C497.469 209.253 508.73 214.591 520.352 219.034Z" fill="black"/>
</g>
<g opacity="0.4">
<path d="M520.352 219.034C515.805 221.74 508.76 222.217 503.312 220.323C495.754 217.639 488.449 214.293 481.48 210.324C479.806 209.344 478.183 208.348 476.612 207.334C481.243 211.136 486.18 214.549 491.372 217.539C495.971 220.187 500.743 222.52 505.656 224.523C496.64 226.443 486.787 225.193 480.166 221.366L479.368 220.877C473.983 217.523 469.03 213.52 464.62 208.958C468.454 215.815 473.973 221.581 480.656 225.709L479.651 225.606C473.522 224.957 467.582 223.1 462.173 220.142C456.171 216.676 452.41 211.973 452.165 206.832V206.677C450.768 210.353 450.477 214.357 451.328 218.197C450.427 217.836 448.971 217.217 447.31 216.496C446.632 216.195 445.97 215.859 445.326 215.491C439.144 211.921 437.727 206.252 442.518 201.909C439.424 204.378 436.723 207.302 434.507 210.581C434.238 210.454 433.975 210.312 433.721 210.156C429.033 207.45 428.144 203.172 431.841 199.951C432.356 199.5 432.884 199.075 433.438 198.662C430.177 200.396 427.184 202.592 424.551 205.182C419.927 202.463 419.94 198.031 424.551 195.338L431.982 191.008C437.702 194.118 444.074 195.836 450.581 196.021C453.536 196.153 456.496 196.032 459.43 195.66C466.665 194.654 474.033 195.952 480.488 199.371C480.695 199.487 480.901 199.603 481.094 199.732C482.923 200.866 484.782 201.978 486.671 203.069C497.469 209.253 508.73 214.591 520.352 219.034Z" fill="white"/>
</g>
<path d="M389.272 214.898C389.049 214.898 388.829 214.839 388.635 214.729C388.441 214.618 388.279 214.459 388.165 214.266C388.079 214.12 388.023 213.958 388 213.79C387.977 213.622 387.987 213.451 388.03 213.287C388.073 213.123 388.148 212.97 388.251 212.835C388.354 212.7 388.482 212.586 388.628 212.501L390.844 211.212C391.134 211.081 391.463 211.062 391.767 211.16C392.071 211.257 392.327 211.463 392.488 211.739C392.648 212.015 392.7 212.34 392.634 212.652C392.569 212.965 392.39 213.241 392.132 213.429L389.916 214.717C389.723 214.837 389.5 214.899 389.272 214.898Z" fill="#E0E0E0"/>
<path d="M292.028 373.157C291.687 373.157 291.359 373.021 291.117 372.78C290.876 372.538 290.74 372.21 290.74 371.869C290.74 370.103 290.818 368.351 290.895 366.585C290.908 366.244 291.057 365.921 291.308 365.689C291.56 365.457 291.893 365.335 292.234 365.348C292.576 365.362 292.898 365.511 293.13 365.762C293.362 366.014 293.484 366.347 293.471 366.689C293.394 368.428 293.355 370.181 293.316 371.92C293.303 372.253 293.161 372.567 292.921 372.798C292.681 373.029 292.361 373.157 292.028 373.157ZM292.672 360.027H292.556C292.216 359.994 291.904 359.828 291.686 359.565C291.469 359.301 291.365 358.962 291.397 358.622C291.552 356.818 291.745 355.04 291.964 353.339C291.986 353.17 292.041 353.007 292.126 352.859C292.211 352.711 292.324 352.581 292.459 352.477C292.595 352.373 292.749 352.297 292.914 352.252C293.078 352.208 293.25 352.196 293.419 352.218C293.588 352.24 293.752 352.295 293.899 352.38C294.047 352.465 294.177 352.579 294.281 352.714C294.385 352.849 294.461 353.004 294.506 353.168C294.55 353.333 294.562 353.505 294.54 353.674C294.321 355.336 294.128 357.076 293.973 358.828C293.95 359.157 293.803 359.463 293.561 359.686C293.319 359.909 293.001 360.031 292.672 360.027ZM294.566 347.012C294.476 347.025 294.385 347.025 294.295 347.012C293.963 346.941 293.672 346.741 293.486 346.457C293.3 346.172 293.235 345.825 293.303 345.492C293.69 343.727 294.115 341.987 294.591 340.338C294.631 340.167 294.704 340.007 294.807 339.865C294.911 339.724 295.042 339.606 295.192 339.517C295.343 339.428 295.51 339.371 295.684 339.349C295.857 339.327 296.033 339.34 296.201 339.388C296.369 339.436 296.526 339.518 296.661 339.629C296.797 339.74 296.908 339.877 296.989 340.032C297.07 340.187 297.118 340.357 297.131 340.531C297.144 340.706 297.121 340.881 297.064 341.046C296.614 342.67 296.188 344.358 295.776 346.072C295.702 346.338 295.544 346.573 295.326 346.742C295.108 346.911 294.842 347.006 294.566 347.012ZM298.43 334.436C298.262 334.438 298.096 334.408 297.94 334.346C297.625 334.217 297.373 333.969 297.24 333.655C297.107 333.341 297.104 332.987 297.232 332.671C297.914 330.996 298.661 329.346 299.447 327.774C299.603 327.469 299.873 327.237 300.199 327.131C300.525 327.024 300.88 327.052 301.186 327.207C301.492 327.363 301.723 327.634 301.829 327.96C301.936 328.286 301.908 328.641 301.753 328.947C300.993 330.442 300.271 332.027 299.627 333.637C299.529 333.885 299.356 334.097 299.132 334.242C298.908 334.388 298.645 334.46 298.378 334.449L298.43 334.436ZM304.638 322.839C304.375 322.839 304.119 322.758 303.904 322.607C303.624 322.412 303.433 322.114 303.373 321.778C303.312 321.443 303.387 321.097 303.582 320.816C304.612 319.34 305.721 317.921 306.905 316.564C307.13 316.306 307.449 316.148 307.791 316.125C308.132 316.102 308.469 316.216 308.727 316.442C308.985 316.667 309.143 316.986 309.166 317.328C309.189 317.67 309.075 318.007 308.85 318.265C307.725 319.551 306.672 320.897 305.694 322.298C305.575 322.483 305.411 322.635 305.217 322.739C305.023 322.842 304.806 322.895 304.586 322.891L304.638 322.839ZM313.512 313.188C313.248 313.191 312.989 313.112 312.771 312.962C312.553 312.813 312.386 312.6 312.293 312.352C312.2 312.104 312.186 311.834 312.252 311.578C312.318 311.322 312.461 311.092 312.662 310.92C313.95 309.773 315.354 308.652 316.719 307.531C316.848 307.411 316.999 307.319 317.165 307.259C317.331 307.2 317.507 307.175 317.682 307.187C317.858 307.198 318.029 307.245 318.186 307.325C318.342 307.406 318.481 307.517 318.593 307.653C318.705 307.788 318.787 307.946 318.836 308.115C318.885 308.284 318.899 308.461 318.877 308.636C318.854 308.81 318.797 308.978 318.707 309.13C318.617 309.281 318.497 309.412 318.355 309.516C317.067 310.624 315.663 311.732 314.349 312.866C314.113 313.101 313.794 313.235 313.461 313.24L313.512 313.188ZM323.546 304.697C323.366 304.696 323.188 304.658 323.024 304.585C322.86 304.512 322.713 304.405 322.592 304.271C322.363 304.02 322.242 303.687 322.256 303.347C322.271 303.006 322.419 302.686 322.67 302.454C323.929 301.305 325.124 300.088 326.25 298.808C326.359 298.674 326.494 298.564 326.647 298.483C326.799 298.402 326.966 298.353 327.138 298.338C327.31 298.323 327.483 298.343 327.647 298.396C327.811 298.45 327.963 298.536 328.093 298.649C328.223 298.762 328.329 298.9 328.405 299.055C328.481 299.21 328.525 299.378 328.535 299.551C328.544 299.723 328.519 299.895 328.461 300.058C328.403 300.22 328.312 300.369 328.195 300.496C327.008 301.852 325.748 303.142 324.421 304.362C324.301 304.485 324.156 304.583 323.997 304.649C323.838 304.715 323.667 304.749 323.494 304.748L323.546 304.697ZM331.531 294.388C331.349 294.387 331.169 294.348 331.003 294.272C330.848 294.203 330.708 294.103 330.591 293.979C330.475 293.855 330.384 293.709 330.324 293.55C330.264 293.39 330.236 293.221 330.242 293.051C330.248 292.88 330.288 292.713 330.359 292.558C330.552 292.146 330.72 291.734 330.887 291.27C331.311 290.143 331.643 288.984 331.879 287.804C331.914 287.635 331.981 287.474 332.078 287.331C332.175 287.188 332.299 287.065 332.443 286.97C332.587 286.875 332.748 286.809 332.918 286.776C333.088 286.744 333.262 286.745 333.431 286.779C333.6 286.814 333.761 286.882 333.904 286.979C334.047 287.075 334.169 287.199 334.264 287.344C334.36 287.488 334.425 287.649 334.458 287.819C334.491 287.988 334.49 288.163 334.455 288.332C334.187 289.647 333.816 290.94 333.347 292.198C333.167 292.674 332.974 293.138 332.755 293.602C332.657 293.857 332.481 294.074 332.252 294.222C332.022 294.371 331.752 294.442 331.48 294.427L331.531 294.388ZM333.978 281.503C333.637 281.503 333.309 281.367 333.068 281.125C332.826 280.884 332.69 280.556 332.69 280.214L332.768 277.637C332.768 276.722 332.768 275.807 332.858 274.905C332.871 274.564 333.02 274.241 333.272 274.009C333.523 273.777 333.856 273.655 334.197 273.668C334.539 273.682 334.861 273.831 335.093 274.082C335.325 274.334 335.447 274.667 335.434 275.008C335.434 275.91 335.369 276.812 335.344 277.714L335.266 280.291C335.268 280.466 335.235 280.639 335.167 280.801C335.1 280.962 335.001 281.108 334.876 281.23C334.751 281.352 334.602 281.446 334.439 281.509C334.275 281.571 334.101 281.6 333.927 281.593L333.978 281.503ZM334.996 268.411H334.751C334.417 268.346 334.122 268.15 333.931 267.868C333.74 267.585 333.669 267.238 333.734 266.903C334.077 265.128 334.533 263.376 335.099 261.659C335.147 261.492 335.227 261.337 335.336 261.202C335.445 261.068 335.58 260.956 335.733 260.875C335.886 260.794 336.054 260.744 336.226 260.729C336.399 260.714 336.572 260.734 336.737 260.788C336.902 260.841 337.054 260.928 337.184 261.042C337.315 261.156 337.421 261.295 337.497 261.451C337.572 261.607 337.615 261.776 337.624 261.949C337.632 262.122 337.606 262.295 337.546 262.458C337.019 264.076 336.589 265.724 336.258 267.393C336.214 267.707 336.055 267.994 335.813 268.198C335.571 268.403 335.261 268.511 334.944 268.501L334.996 268.411ZM339.388 256.067C339.182 256.072 338.977 256.023 338.796 255.925C338.645 255.847 338.511 255.741 338.401 255.611C338.292 255.482 338.209 255.332 338.158 255.17C338.106 255.009 338.087 254.839 338.101 254.67C338.116 254.501 338.164 254.336 338.242 254.186C339.053 252.626 339.98 251.067 340.972 249.547C341.159 249.262 341.451 249.063 341.784 248.993C342.117 248.923 342.464 248.988 342.75 249.173C343.034 249.36 343.233 249.652 343.303 249.985C343.373 250.318 343.308 250.666 343.123 250.951C342.17 252.407 341.307 253.889 340.547 255.384C340.445 255.618 340.275 255.817 340.06 255.955C339.844 256.093 339.592 256.163 339.336 256.157L339.388 256.067ZM346.781 245.23C346.474 245.23 346.177 245.12 345.944 244.921C345.815 244.811 345.71 244.677 345.633 244.526C345.556 244.375 345.51 244.211 345.497 244.042C345.484 243.873 345.504 243.703 345.556 243.543C345.609 243.382 345.692 243.233 345.802 243.104C346.936 241.815 348.159 240.463 349.422 239.161C349.662 238.917 349.99 238.778 350.333 238.776C350.676 238.773 351.006 238.907 351.25 239.148C351.495 239.389 351.633 239.717 351.636 240.06C351.638 240.404 351.504 240.734 351.263 240.978C350.04 242.266 348.855 243.555 347.76 244.779C347.643 244.944 347.488 245.079 347.309 245.173C347.13 245.267 346.932 245.317 346.73 245.32L346.781 245.23ZM356.145 236.004C355.882 236.004 355.625 235.923 355.409 235.773C355.193 235.622 355.028 235.409 354.937 235.162C354.845 234.915 354.832 234.646 354.898 234.391C354.965 234.136 355.108 233.907 355.308 233.736C356.596 232.615 358.038 231.494 359.468 230.412C359.741 230.223 360.076 230.146 360.403 230.198C360.731 230.25 361.026 230.426 361.227 230.69C361.428 230.954 361.519 231.286 361.482 231.616C361.444 231.946 361.281 232.248 361.026 232.461C359.635 233.517 358.27 234.612 356.969 235.708C356.738 235.944 356.424 236.083 356.093 236.094L356.145 236.004ZM366.694 228.183C366.416 228.182 366.146 228.091 365.924 227.925C365.702 227.758 365.539 227.524 365.461 227.257C365.383 226.99 365.393 226.706 365.49 226.445C365.586 226.185 365.765 225.962 365.998 225.812C367.454 224.858 368.96 223.905 370.493 222.99C370.638 222.876 370.805 222.794 370.984 222.75C371.163 222.707 371.349 222.702 371.53 222.736C371.711 222.77 371.882 222.843 372.033 222.949C372.183 223.055 372.309 223.192 372.402 223.351C372.495 223.51 372.553 223.688 372.572 223.871C372.59 224.054 372.57 224.239 372.511 224.414C372.452 224.588 372.356 224.748 372.231 224.883C372.105 225.017 371.951 225.123 371.781 225.193C370.287 226.095 368.793 227.023 367.363 227.964C367.161 228.139 366.909 228.247 366.642 228.273L366.694 228.183ZM377.964 221.418C377.678 221.42 377.401 221.327 377.174 221.154C376.947 220.981 376.784 220.738 376.71 220.462C376.637 220.186 376.657 219.894 376.767 219.631C376.877 219.368 377.071 219.149 377.32 219.008L381.866 216.431C382.013 216.338 382.177 216.275 382.348 216.247C382.52 216.219 382.695 216.226 382.864 216.267C383.032 216.308 383.191 216.383 383.33 216.488C383.469 216.592 383.585 216.723 383.672 216.874C383.759 217.024 383.815 217.191 383.836 217.363C383.857 217.536 383.843 217.711 383.794 217.878C383.746 218.044 383.664 218.2 383.554 218.334C383.444 218.469 383.308 218.58 383.154 218.66L378.595 221.237C378.403 221.399 378.163 221.494 377.912 221.508L377.964 221.418Z" fill="#E0E0E0"/>
<path d="M291.938 383.684C291.597 383.684 291.269 383.549 291.027 383.307C290.786 383.065 290.65 382.738 290.65 382.396V379.819C290.65 379.477 290.786 379.149 291.027 378.908C291.269 378.666 291.597 378.53 291.938 378.53C292.28 378.53 292.607 378.666 292.849 378.908C293.09 379.149 293.226 379.477 293.226 379.819V382.396C293.226 382.738 293.09 383.065 292.849 383.307C292.607 383.549 292.28 383.684 291.938 383.684Z" fill="#E0E0E0"/>
</g>
<defs>
<filter id="filter0_d_2249_22080" x="-6.64282" y="315.55" width="657.244" height="409.479" filterUnits="userSpaceOnUse" color-interpolation-filters="sRGB">
<feFlood flood-opacity="0" result="BackgroundImageFix"/>
<feColorMatrix in="SourceAlpha" type="matrix" values="0 0 0 0 0 0 0 0 0 0 0 0 0 0 0 0 0 0 127 0" result="hardAlpha"/>
<feOffset dy="20"/>
<feGaussianBlur stdDeviation="17"/>
<feComposite in2="hardAlpha" operator="out"/>
<feColorMatrix type="matrix" values="0 0 0 0 0 0 0 0 0 0 0 0 0 0 0 0 0 0 0.09 0"/>
<feBlend mode="normal" in2="BackgroundImageFix" result="effect1_dropShadow_2249_22080"/>
<feBlend mode="normal" in="SourceGraphic" in2="effect1_dropShadow_2249_22080" result="shape"/>
</filter>
<clipPath id="clip0_2249_22080">
<rect width="644" height="715" fill="white"/>
</clipPath>
</defs>
</svg>
