<svg width="29" height="28" viewBox="0 0 29 28" fill="none" xmlns="http://www.w3.org/2000/svg">
<path d="M14.5 15.1668C15.1444 15.1668 15.6667 14.6445 15.6667 14.0002C15.6667 13.3558 15.1444 12.8335 14.5 12.8335C13.8557 12.8335 13.3334 13.3558 13.3334 14.0002C13.3334 14.6445 13.8557 15.1668 14.5 15.1668Z" stroke="url(#paint0_linear_3366_11761)" stroke-width="2" stroke-linecap="round" stroke-linejoin="round"/>
<path d="M14.5 6.99984C15.1444 6.99984 15.6667 6.4775 15.6667 5.83317C15.6667 5.18884 15.1444 4.6665 14.5 4.6665C13.8557 4.6665 13.3334 5.18884 13.3334 5.83317C13.3334 6.4775 13.8557 6.99984 14.5 6.99984Z" stroke="url(#paint1_linear_3366_11761)" stroke-width="2" stroke-linecap="round" stroke-linejoin="round"/>
<path d="M14.5 23.3333C15.1444 23.3333 15.6667 22.811 15.6667 22.1667C15.6667 21.5223 15.1444 21 14.5 21C13.8557 21 13.3334 21.5223 13.3334 22.1667C13.3334 22.811 13.8557 23.3333 14.5 23.3333Z" stroke="url(#paint2_linear_3366_11761)" stroke-width="2" stroke-linecap="round" stroke-linejoin="round"/>
<defs>
<linearGradient id="paint0_linear_3366_11761" x1="13.3334" y1="12.8335" x2="15.6667" y2="15.1668" gradientUnits="userSpaceOnUse">
<stop stop-color="#023E8A" stop-opacity="0.7"/>
<stop offset="0.723958" stop-color="#2684FF" stop-opacity="0.8"/>
</linearGradient>
<linearGradient id="paint1_linear_3366_11761" x1="13.3334" y1="4.6665" x2="15.6667" y2="6.99984" gradientUnits="userSpaceOnUse">
<stop stop-color="#023E8A" stop-opacity="0.7"/>
<stop offset="0.723958" stop-color="#2684FF" stop-opacity="0.8"/>
</linearGradient>
<linearGradient id="paint2_linear_3366_11761" x1="13.3334" y1="21" x2="15.6667" y2="23.3333" gradientUnits="userSpaceOnUse">
<stop stop-color="#023E8A" stop-opacity="0.7"/>
<stop offset="0.723958" stop-color="#2684FF" stop-opacity="0.8"/>
</linearGradient>
</defs>
</svg>
