<svg width="22" height="22" viewBox="0 0 22 22" fill="none" xmlns="http://www.w3.org/2000/svg">
<path d="M21.2835 17.6263H19.1183V15.5875C19.1183 15.4754 19.0208 15.3837 18.9017 15.3837H17.6026C17.4835 15.3837 17.3861 15.4754 17.3861 15.5875V17.6263H15.2209C15.1018 17.6263 15.0043 17.7181 15.0043 17.8302V19.0535C15.0043 19.1656 15.1018 19.2573 15.2209 19.2573H17.3861V21.2961C17.3861 21.4083 17.4835 21.5 17.6026 21.5H18.9017C19.0208 21.5 19.1183 21.4083 19.1183 21.2961V19.2573H21.2835C21.4026 19.2573 21.5 19.1656 21.5 19.0535V17.8302C21.5 17.7181 21.4026 17.6263 21.2835 17.6263ZM7.25014 10.6537C7.22578 10.432 7.21225 10.2077 7.21225 9.98091C7.21225 9.5757 7.25285 9.18069 7.32863 8.79587C7.34758 8.70413 7.29615 8.60983 7.20684 8.57161C6.83875 8.41615 6.50043 8.20208 6.20813 7.93194C5.8637 7.61748 5.59266 7.23886 5.41232 6.82025C5.23197 6.40165 5.14628 5.95224 5.1607 5.5007C5.18506 4.68264 5.5342 3.90536 6.14317 3.31921C6.81169 2.67444 7.71025 2.32275 8.66565 2.33295C9.52904 2.34059 10.3626 2.65406 10.9933 3.20962C11.2071 3.39821 11.3911 3.60718 11.5454 3.83145C11.5995 3.91045 11.7051 3.94358 11.7971 3.913C12.2735 3.75754 12.7769 3.64796 13.2938 3.59699C13.4454 3.5817 13.532 3.42879 13.4643 3.30137C12.5847 1.6627 10.7876 0.53118 8.70896 0.500598C5.71013 0.457274 3.2093 2.77383 3.2093 5.59754C3.2093 7.19798 3.99149 8.62512 5.21754 9.56041C4.35687 9.93504 3.56385 10.4524 2.8764 11.0997C1.39322 12.4937 0.554198 14.3337 0.500068 16.2986C0.499345 16.3258 0.504412 16.3528 0.51497 16.3782C0.525527 16.4035 0.541361 16.4266 0.56154 16.446C0.581718 16.4655 0.605832 16.481 0.632461 16.4916C0.65909 16.5021 0.687695 16.5076 0.71659 16.5075H2.23495C2.35133 16.5075 2.44877 16.4209 2.45147 16.3113C2.5029 14.8332 3.13893 13.4494 4.25672 12.3994C5.05244 11.6502 6.02679 11.1303 7.09046 10.878C7.19331 10.8499 7.26367 10.7556 7.25014 10.6537ZM19.443 9.98091C19.443 7.19288 17.064 4.92729 14.1139 4.88397C11.1151 4.84064 8.61694 7.15721 8.61694 9.98091C8.61694 11.5814 9.40183 13.0085 10.6252 13.9438C9.75559 14.3233 8.96397 14.8444 8.28674 15.4831C6.80357 16.8771 5.96454 18.7171 5.91041 20.6794C5.90969 20.7066 5.91476 20.7337 5.92531 20.759C5.93587 20.7843 5.95171 20.8074 5.97188 20.8269C5.99206 20.8463 6.01618 20.8618 6.04281 20.8724C6.06943 20.8829 6.09804 20.8884 6.12693 20.8884H7.64259C7.75897 20.8884 7.8564 20.8017 7.85911 20.6921C7.91053 19.214 8.54657 17.8302 9.66436 16.7802C10.8309 15.6818 12.379 15.0779 14.03 15.0779C17.018 15.0779 19.443 12.797 19.443 9.98091ZM16.4794 12.2873C15.8244 12.904 14.9556 13.243 14.03 13.243C13.1044 13.243 12.2356 12.904 11.5806 12.2873C11.2537 11.9811 10.9955 11.6163 10.8211 11.2144C10.6468 10.8126 10.5599 10.3818 10.5656 9.94778C10.5738 9.11188 10.9283 8.30402 11.5481 7.70513C12.1977 7.0782 13.0665 6.72906 13.9948 6.71887C14.9123 6.71122 15.8028 7.04762 16.4577 7.65161C17.129 8.27089 17.497 9.09914 17.497 9.98091C17.4943 10.8525 17.1344 11.6705 16.4794 12.2873Z" fill="white"/>
<path d="M21.2835 17.6263H19.1183V15.5875C19.1183 15.4754 19.0208 15.3837 18.9017 15.3837H17.6026C17.4835 15.3837 17.3861 15.4754 17.3861 15.5875V17.6263H15.2209C15.1018 17.6263 15.0043 17.7181 15.0043 17.8302V19.0535C15.0043 19.1656 15.1018 19.2573 15.2209 19.2573H17.3861V21.2961C17.3861 21.4083 17.4835 21.5 17.6026 21.5H18.9017C19.0208 21.5 19.1183 21.4083 19.1183 21.2961V19.2573H21.2835C21.4026 19.2573 21.5 19.1656 21.5 19.0535V17.8302C21.5 17.7181 21.4026 17.6263 21.2835 17.6263ZM7.25014 10.6537C7.22578 10.432 7.21225 10.2077 7.21225 9.98091C7.21225 9.5757 7.25285 9.18069 7.32863 8.79587C7.34758 8.70413 7.29615 8.60983 7.20684 8.57161C6.83875 8.41615 6.50043 8.20208 6.20813 7.93194C5.8637 7.61748 5.59266 7.23886 5.41232 6.82025C5.23197 6.40165 5.14628 5.95224 5.1607 5.5007C5.18506 4.68264 5.5342 3.90536 6.14317 3.31921C6.81169 2.67444 7.71025 2.32275 8.66565 2.33295C9.52904 2.34059 10.3626 2.65406 10.9933 3.20962C11.2071 3.39821 11.3911 3.60718 11.5454 3.83145C11.5995 3.91045 11.7051 3.94358 11.7971 3.913C12.2735 3.75754 12.7769 3.64796 13.2938 3.59699C13.4454 3.5817 13.532 3.42879 13.4643 3.30137C12.5847 1.6627 10.7876 0.53118 8.70896 0.500598C5.71013 0.457274 3.2093 2.77383 3.2093 5.59754C3.2093 7.19798 3.99149 8.62512 5.21754 9.56041C4.35687 9.93504 3.56385 10.4524 2.8764 11.0997C1.39322 12.4937 0.554198 14.3337 0.500068 16.2986C0.499345 16.3258 0.504412 16.3528 0.51497 16.3782C0.525527 16.4035 0.541361 16.4266 0.56154 16.446C0.581718 16.4655 0.605832 16.481 0.632461 16.4916C0.65909 16.5021 0.687695 16.5076 0.71659 16.5075H2.23495C2.35133 16.5075 2.44877 16.4209 2.45147 16.3113C2.5029 14.8332 3.13893 13.4494 4.25672 12.3994C5.05244 11.6502 6.02679 11.1303 7.09046 10.878C7.19331 10.8499 7.26367 10.7556 7.25014 10.6537ZM19.443 9.98091C19.443 7.19288 17.064 4.92729 14.1139 4.88397C11.1151 4.84064 8.61694 7.15721 8.61694 9.98091C8.61694 11.5814 9.40183 13.0085 10.6252 13.9438C9.75559 14.3233 8.96397 14.8444 8.28674 15.4831C6.80357 16.8771 5.96454 18.7171 5.91041 20.6794C5.90969 20.7066 5.91476 20.7337 5.92531 20.759C5.93587 20.7843 5.95171 20.8074 5.97188 20.8269C5.99206 20.8463 6.01618 20.8618 6.04281 20.8724C6.06943 20.8829 6.09804 20.8884 6.12693 20.8884H7.64259C7.75897 20.8884 7.8564 20.8017 7.85911 20.6921C7.91053 19.214 8.54657 17.8302 9.66436 16.7802C10.8309 15.6818 12.379 15.0779 14.03 15.0779C17.018 15.0779 19.443 12.797 19.443 9.98091ZM16.4794 12.2873C15.8244 12.904 14.9556 13.243 14.03 13.243C13.1044 13.243 12.2356 12.904 11.5806 12.2873C11.2537 11.9811 10.9955 11.6163 10.8211 11.2144C10.6468 10.8126 10.5599 10.3818 10.5656 9.94778C10.5738 9.11188 10.9283 8.30402 11.5481 7.70513C12.1977 7.0782 13.0665 6.72906 13.9948 6.71887C14.9123 6.71122 15.8028 7.04762 16.4577 7.65161C17.129 8.27089 17.497 9.09914 17.497 9.98091C17.4943 10.8525 17.1344 11.6705 16.4794 12.2873Z" fill="#E0E0E0" fill-opacity="0.2"/>
</svg>
