<svg width="24" height="24" viewBox="0 0 24 24" fill="none" xmlns="http://www.w3.org/2000/svg">
<path d="M14.7644 5.92028H18.0802M18.0802 5.92028H21.396M18.0802 5.92028V9.23607M18.0802 5.92028V2.60449" stroke="white" stroke-width="2.5" stroke-linecap="round"/>
<path d="M14.7644 5.92028H18.0802M18.0802 5.92028H21.396M18.0802 5.92028V9.23607M18.0802 5.92028V2.60449" stroke="#E0E0E0" stroke-opacity="0.2" stroke-width="2.5" stroke-linecap="round"/>
<path d="M1.5 5.92105C1.5 3.83653 1.5 2.79537 2.14768 2.14768C2.79537 1.5 3.83653 1.5 5.92105 1.5C8.00558 1.5 9.04674 1.5 9.69442 2.14768C10.3421 2.79537 10.3421 3.83653 10.3421 5.92105C10.3421 8.00558 10.3421 9.04674 9.69442 9.69442C9.04674 10.3421 8.00558 10.3421 5.92105 10.3421C3.83653 10.3421 2.79537 10.3421 2.14768 9.69442C1.5 9.04674 1.5 8.00558 1.5 5.92105ZM13.6579 18.0789C13.6579 15.9944 13.6579 14.9533 14.3056 14.3056C14.9533 13.6579 15.9944 13.6579 18.0789 13.6579C20.1635 13.6579 21.2046 13.6579 21.8523 14.3056C22.5 14.9533 22.5 15.9944 22.5 18.0789C22.5 20.1635 22.5 21.2046 21.8523 21.8523C21.2046 22.5 20.1635 22.5 18.0789 22.5C15.9944 22.5 14.9533 22.5 14.3056 21.8523C13.6579 21.2046 13.6579 20.1635 13.6579 18.0789Z" stroke="white" stroke-width="2.5"/>
<path d="M1.5 5.92105C1.5 3.83653 1.5 2.79537 2.14768 2.14768C2.79537 1.5 3.83653 1.5 5.92105 1.5C8.00558 1.5 9.04674 1.5 9.69442 2.14768C10.3421 2.79537 10.3421 3.83653 10.3421 5.92105C10.3421 8.00558 10.3421 9.04674 9.69442 9.69442C9.04674 10.3421 8.00558 10.3421 5.92105 10.3421C3.83653 10.3421 2.79537 10.3421 2.14768 9.69442C1.5 9.04674 1.5 8.00558 1.5 5.92105ZM13.6579 18.0789C13.6579 15.9944 13.6579 14.9533 14.3056 14.3056C14.9533 13.6579 15.9944 13.6579 18.0789 13.6579C20.1635 13.6579 21.2046 13.6579 21.8523 14.3056C22.5 14.9533 22.5 15.9944 22.5 18.0789C22.5 20.1635 22.5 21.2046 21.8523 21.8523C21.2046 22.5 20.1635 22.5 18.0789 22.5C15.9944 22.5 14.9533 22.5 14.3056 21.8523C13.6579 21.2046 13.6579 20.1635 13.6579 18.0789Z" stroke="#E0E0E0" stroke-opacity="0.2" stroke-width="2.5"/>
<g opacity="0.5">
<path d="M1.5 18.0793C1.5 15.9947 1.5 14.9536 2.14768 14.3059C2.79537 13.6582 3.83653 13.6582 5.92105 13.6582C8.00558 13.6582 9.04674 13.6582 9.69442 14.3059C10.3421 14.9536 10.3421 15.9947 10.3421 18.0793C10.3421 20.1638 10.3421 21.2049 9.69442 21.8526C9.04674 22.5003 8.00558 22.5003 5.92105 22.5003C3.83653 22.5003 2.79537 22.5003 2.14768 21.8526C1.5 21.2049 1.5 20.1638 1.5 18.0793Z" stroke="white" stroke-width="2.5"/>
<path d="M1.5 18.0793C1.5 15.9947 1.5 14.9536 2.14768 14.3059C2.79537 13.6582 3.83653 13.6582 5.92105 13.6582C8.00558 13.6582 9.04674 13.6582 9.69442 14.3059C10.3421 14.9536 10.3421 15.9947 10.3421 18.0793C10.3421 20.1638 10.3421 21.2049 9.69442 21.8526C9.04674 22.5003 8.00558 22.5003 5.92105 22.5003C3.83653 22.5003 2.79537 22.5003 2.14768 21.8526C1.5 21.2049 1.5 20.1638 1.5 18.0793Z" stroke="#E0E0E0" stroke-opacity="0.2" stroke-width="2.5"/>
</g>
</svg>
