<svg width="56" height="56" viewBox="0 0 56 56" fill="none" xmlns="http://www.w3.org/2000/svg">
<circle cx="28" cy="28" r="28" fill="#F4F7FE"/>
<path d="M35.2793 13C36.1235 13 36.9331 13.3274 37.53 13.9101C38.1269 14.4928 38.4623 15.2831 38.4623 16.1071V37.5119C38.4623 38.336 38.1269 39.1263 37.53 39.709C36.9331 40.2917 36.1235 40.619 35.2793 40.619H27.4154C28.0218 40.0027 28.5353 39.3052 28.9403 38.5476H35.2779C35.5593 38.5476 35.8292 38.4385 36.0281 38.2443C36.2271 38.05 36.3389 37.7866 36.3389 37.5119V16.1071C36.3389 15.8325 36.2271 15.569 36.0281 15.3748C35.8292 15.1805 35.5593 15.0714 35.2779 15.0714H20.4271C20.1457 15.0714 19.8758 15.1805 19.6768 15.3748C19.4779 15.569 19.3661 15.8325 19.3661 16.1071V25.5335C18.6373 25.6434 17.9247 25.839 17.2441 26.1163V16.1071C17.2441 15.2831 17.5795 14.4928 18.1764 13.9101C18.7733 13.3274 19.5829 13 20.4271 13H35.2793ZM39.8783 30.9551H40.9393C41.1957 30.9551 41.4434 31.0458 41.6366 31.2103C41.8298 31.3748 41.9555 31.602 41.9904 31.85L42.0003 31.9908V34.0595C42.0003 34.3098 41.9074 34.5516 41.7389 34.7402C41.5704 34.9289 41.3376 35.0515 41.0836 35.0856L40.9393 35.0952H39.8783V30.9551ZM39.8783 25.4313H40.9393C41.1957 25.4313 41.4434 25.522 41.6366 25.6865C41.8298 25.851 41.9555 26.0782 41.9904 26.3262L42.0003 26.467V28.5357C42.0003 28.786 41.9074 29.0278 41.7389 29.2164C41.5704 29.405 41.3376 29.5277 41.0836 29.5618L40.9393 29.5714H39.8783V25.4313ZM39.8783 19.9075H40.9393C41.1957 19.9075 41.4434 19.9982 41.6366 20.1627C41.8298 20.3272 41.9555 20.5544 41.9904 20.8024L42.0003 20.9432V23.0119C42.0003 23.2622 41.9074 23.504 41.7389 23.6926C41.5704 23.8812 41.3376 24.0039 41.0836 24.0379L40.9393 24.0476H39.8783V19.9075Z" fill="url(#paint0_linear_5259_16611)"/>
<path d="M33.1571 17.1431C33.4385 17.1431 33.7084 17.2522 33.9074 17.4464C34.1063 17.6407 34.2181 17.9041 34.2181 18.1788V21.6298C34.2181 21.9045 34.1063 22.1679 33.9074 22.3621C33.7084 22.5564 33.4385 22.6655 33.1571 22.6655H22.5488C22.2674 22.6655 21.9975 22.5564 21.7986 22.3621C21.5996 22.1679 21.4878 21.9045 21.4878 21.6298V18.1788C21.4878 17.9041 21.5996 17.6407 21.7986 17.4464C21.9975 17.2522 22.2674 17.1431 22.5488 17.1431H33.1571ZM32.0962 19.2145H23.6098V20.5941H32.0962V19.2145ZM28.561 34.405C28.561 33.4075 28.3597 32.4199 27.9687 31.4984C27.5777 30.5769 27.0046 29.7396 26.2821 29.0343C25.5597 28.329 24.7019 27.7696 23.758 27.3879C22.814 27.0062 21.8022 26.8097 20.7805 26.8097C19.7587 26.8097 18.747 27.0062 17.803 27.3879C16.8591 27.7696 16.0013 28.329 15.2789 29.0343C14.5564 29.7396 13.9833 30.5769 13.5923 31.4984C13.2012 32.4199 13 33.4075 13 34.405C13 36.4193 13.8197 38.3512 15.2789 39.7756C16.738 41.2 18.717 42.0002 20.7805 42.0002C22.844 42.0002 24.823 41.2 26.2821 39.7756C27.7413 38.3512 28.561 36.4193 28.561 34.405ZM21.4878 35.0954L21.4892 38.552C21.4892 38.7351 21.4147 38.9107 21.2821 39.0402C21.1494 39.1697 20.9695 39.2424 20.7819 39.2424C20.5943 39.2424 20.4144 39.1697 20.2818 39.0402C20.1491 38.9107 20.0746 38.7351 20.0746 38.552V35.0954H16.5309C16.3433 35.0954 16.1634 35.0227 16.0308 34.8932C15.8981 34.7637 15.8236 34.5881 15.8236 34.405C15.8236 34.2218 15.8981 34.0462 16.0308 33.9167C16.1634 33.7872 16.3433 33.7145 16.5309 33.7145H20.0732V30.2621C20.0732 30.079 20.1477 29.9034 20.2803 29.7739C20.413 29.6444 20.5929 29.5716 20.7805 29.5716C20.9681 29.5716 21.148 29.6444 21.2806 29.7739C21.4133 29.9034 21.4878 30.079 21.4878 30.2621V33.7145H25.0202C25.2078 33.7145 25.3877 33.7872 25.5203 33.9167C25.653 34.0462 25.7275 34.2218 25.7275 34.405C25.7275 34.5881 25.653 34.7637 25.5203 34.8932C25.3877 35.0227 25.2078 35.0954 25.0202 35.0954H21.4878Z" fill="url(#paint1_linear_5259_16611)"/>
<defs>
<linearGradient id="paint0_linear_5259_16611" x1="17.2441" y1="13" x2="44.6986" y2="37.6086" gradientUnits="userSpaceOnUse">
<stop stop-color="#023E8A" stop-opacity="0.7"/>
<stop offset="0.723958" stop-color="#2684FF" stop-opacity="0.8"/>
</linearGradient>
<linearGradient id="paint1_linear_5259_16611" x1="13" y1="17.1431" x2="37.5489" y2="38.0981" gradientUnits="userSpaceOnUse">
<stop stop-color="#023E8A" stop-opacity="0.7"/>
<stop offset="0.723958" stop-color="#2684FF" stop-opacity="0.8"/>
</linearGradient>
</defs>
</svg>
