<svg width="13" height="13" viewBox="0 0 13 13" fill="none" xmlns="http://www.w3.org/2000/svg">
<path d="M0 1.13158C0 0.964074 0.0665413 0.803429 0.184985 0.684985C0.303429 0.566541 0.464074 0.5 0.631579 0.5H8.52632C8.69382 0.5 8.85447 0.566541 8.97291 0.684985C9.09135 0.803429 9.1579 0.964074 9.1579 1.13158V2.39474C9.1579 2.56224 9.09135 2.72289 8.97291 2.84133C8.85447 2.95977 8.69382 3.02632 8.52632 3.02632C8.35881 3.02632 8.19817 2.95977 8.07972 2.84133C7.96128 2.72289 7.89474 2.56224 7.89474 2.39474V1.76316H5.21053V6.83726C4.79672 7.49231 4.57768 8.25151 4.57895 9.02632C4.57895 9.58589 4.69074 10.1189 4.89347 10.6053H3.31579C3.14828 10.6053 2.98764 10.5387 2.8692 10.4203C2.75075 10.3018 2.68421 10.1412 2.68421 9.97368C2.68421 9.80618 2.75075 9.64553 2.8692 9.52709C2.98764 9.40865 3.14828 9.3421 3.31579 9.3421H3.94737V1.76316H1.26316V2.39474C1.26316 2.56224 1.19662 2.72289 1.07817 2.84133C0.959729 2.95977 0.799084 3.02632 0.631579 3.02632C0.464074 3.02632 0.303429 2.95977 0.184985 2.84133C0.0665413 2.72289 0 2.56224 0 2.39474V1.13158ZM12.1579 9.02632C12.1579 8.10504 11.7919 7.22149 11.1405 6.57005C10.489 5.91861 9.60549 5.55263 8.68421 5.55263C7.76293 5.55263 6.87939 5.91861 6.22794 6.57005C5.5765 7.22149 5.21053 8.10504 5.21053 9.02632C5.21053 9.94759 5.5765 10.8311 6.22794 11.4826C6.87939 12.134 7.76293 12.5 8.68421 12.5C9.60549 12.5 10.489 12.134 11.1405 11.4826C11.7919 10.8311 12.1579 9.94759 12.1579 9.02632ZM9 9.3421L9.00063 10.9229C9.00063 11.0067 8.96736 11.087 8.90814 11.1462C8.84892 11.2055 8.76859 11.2387 8.68484 11.2387C8.60109 11.2387 8.52077 11.2055 8.46154 11.1462C8.40232 11.087 8.36905 11.0067 8.36905 10.9229V9.3421H6.78695C6.7032 9.3421 6.62287 9.30884 6.56365 9.24961C6.50443 9.19039 6.47116 9.11007 6.47116 9.02632C6.47116 8.94256 6.50443 8.86224 6.56365 8.80302C6.62287 8.7438 6.7032 8.71053 6.78695 8.71053H8.36842V7.13158C8.36842 7.04783 8.40169 6.9675 8.46091 6.90828C8.52014 6.84906 8.60046 6.81579 8.68421 6.81579C8.76796 6.81579 8.84829 6.84906 8.90751 6.90828C8.96673 6.9675 9 7.04783 9 7.13158V8.71053H10.5771C10.6608 8.71053 10.7411 8.7438 10.8004 8.80302C10.8596 8.86224 10.8928 8.94256 10.8928 9.02632C10.8928 9.11007 10.8596 9.19039 10.8004 9.24961C10.7411 9.30884 10.6608 9.3421 10.5771 9.3421H9Z" fill="white"/>
<path d="M0 1.13158C0 0.964074 0.0665413 0.803429 0.184985 0.684985C0.303429 0.566541 0.464074 0.5 0.631579 0.5H8.52632C8.69382 0.5 8.85447 0.566541 8.97291 0.684985C9.09135 0.803429 9.1579 0.964074 9.1579 1.13158V2.39474C9.1579 2.56224 9.09135 2.72289 8.97291 2.84133C8.85447 2.95977 8.69382 3.02632 8.52632 3.02632C8.35881 3.02632 8.19817 2.95977 8.07972 2.84133C7.96128 2.72289 7.89474 2.56224 7.89474 2.39474V1.76316H5.21053V6.83726C4.79672 7.49231 4.57768 8.25151 4.57895 9.02632C4.57895 9.58589 4.69074 10.1189 4.89347 10.6053H3.31579C3.14828 10.6053 2.98764 10.5387 2.8692 10.4203C2.75075 10.3018 2.68421 10.1412 2.68421 9.97368C2.68421 9.80618 2.75075 9.64553 2.8692 9.52709C2.98764 9.40865 3.14828 9.3421 3.31579 9.3421H3.94737V1.76316H1.26316V2.39474C1.26316 2.56224 1.19662 2.72289 1.07817 2.84133C0.959729 2.95977 0.799084 3.02632 0.631579 3.02632C0.464074 3.02632 0.303429 2.95977 0.184985 2.84133C0.0665413 2.72289 0 2.56224 0 2.39474V1.13158ZM12.1579 9.02632C12.1579 8.10504 11.7919 7.22149 11.1405 6.57005C10.489 5.91861 9.60549 5.55263 8.68421 5.55263C7.76293 5.55263 6.87939 5.91861 6.22794 6.57005C5.5765 7.22149 5.21053 8.10504 5.21053 9.02632C5.21053 9.94759 5.5765 10.8311 6.22794 11.4826C6.87939 12.134 7.76293 12.5 8.68421 12.5C9.60549 12.5 10.489 12.134 11.1405 11.4826C11.7919 10.8311 12.1579 9.94759 12.1579 9.02632ZM9 9.3421L9.00063 10.9229C9.00063 11.0067 8.96736 11.087 8.90814 11.1462C8.84892 11.2055 8.76859 11.2387 8.68484 11.2387C8.60109 11.2387 8.52077 11.2055 8.46154 11.1462C8.40232 11.087 8.36905 11.0067 8.36905 10.9229V9.3421H6.78695C6.7032 9.3421 6.62287 9.30884 6.56365 9.24961C6.50443 9.19039 6.47116 9.11007 6.47116 9.02632C6.47116 8.94256 6.50443 8.86224 6.56365 8.80302C6.62287 8.7438 6.7032 8.71053 6.78695 8.71053H8.36842V7.13158C8.36842 7.04783 8.40169 6.9675 8.46091 6.90828C8.52014 6.84906 8.60046 6.81579 8.68421 6.81579C8.76796 6.81579 8.84829 6.84906 8.90751 6.90828C8.96673 6.9675 9 7.04783 9 7.13158V8.71053H10.5771C10.6608 8.71053 10.7411 8.7438 10.8004 8.80302C10.8596 8.86224 10.8928 8.94256 10.8928 9.02632C10.8928 9.11007 10.8596 9.19039 10.8004 9.24961C10.7411 9.30884 10.6608 9.3421 10.5771 9.3421H9Z" fill="#E0E0E0" fill-opacity="0.2"/>
</svg>
