<svg width="22" height="22" viewBox="0 0 22 22" fill="none" xmlns="http://www.w3.org/2000/svg">
<path d="M16.6333 0.5C17.2446 0.5 17.8309 0.737053 18.2631 1.15901C18.6954 1.58097 18.9382 2.15326 18.9382 2.75V18.25C18.9382 18.8467 18.6954 19.419 18.2631 19.841C17.8309 20.2629 17.2446 20.5 16.6333 20.5H10.9387C11.3779 20.0537 11.7497 19.5486 12.043 19H16.6323C16.8361 19 17.0315 18.921 17.1756 18.7803C17.3197 18.6397 17.4006 18.4489 17.4006 18.25V2.75C17.4006 2.55109 17.3197 2.36032 17.1756 2.21967C17.0315 2.07902 16.8361 2 16.6323 2H5.87825C5.67448 2 5.47906 2.07902 5.33498 2.21967C5.1909 2.36032 5.10995 2.55109 5.10995 2.75V9.576C4.58217 9.65554 4.06621 9.79724 3.57336 9.998V2.75C3.57336 2.15326 3.8162 1.58097 4.24845 1.15901C4.6807 0.737053 5.26695 0.5 5.87825 0.5H16.6333ZM19.9636 13.502H20.7319C20.9176 13.502 21.097 13.5676 21.2369 13.6868C21.3768 13.8059 21.4678 13.9704 21.493 14.15L21.5002 14.252V15.75C21.5002 15.9312 21.433 16.1063 21.3109 16.2429C21.1889 16.3795 21.0203 16.4683 20.8364 16.493L20.7319 16.5H19.9636V13.502ZM19.9636 9.502H20.7319C20.9176 9.502 21.097 9.56764 21.2369 9.68676C21.3768 9.80589 21.4678 9.97044 21.493 10.15L21.5002 10.252V11.75C21.5002 11.9312 21.433 12.1063 21.3109 12.2429C21.1889 12.3795 21.0203 12.4683 20.8364 12.493L20.7319 12.5H19.9636V9.502ZM19.9636 5.502H20.7319C20.9176 5.50201 21.097 5.56764 21.2369 5.68676C21.3768 5.80589 21.4678 5.97044 21.493 6.15L21.5002 6.252V7.75C21.5002 7.93123 21.433 8.10634 21.3109 8.24293C21.1889 8.37952 21.0203 8.46835 20.8364 8.493L20.7319 8.5H19.9636V5.502Z" fill="white"/>
<path d="M16.6333 0.5C17.2446 0.5 17.8309 0.737053 18.2631 1.15901C18.6954 1.58097 18.9382 2.15326 18.9382 2.75V18.25C18.9382 18.8467 18.6954 19.419 18.2631 19.841C17.8309 20.2629 17.2446 20.5 16.6333 20.5H10.9387C11.3779 20.0537 11.7497 19.5486 12.043 19H16.6323C16.8361 19 17.0315 18.921 17.1756 18.7803C17.3197 18.6397 17.4006 18.4489 17.4006 18.25V2.75C17.4006 2.55109 17.3197 2.36032 17.1756 2.21967C17.0315 2.07902 16.8361 2 16.6323 2H5.87825C5.67448 2 5.47906 2.07902 5.33498 2.21967C5.1909 2.36032 5.10995 2.55109 5.10995 2.75V9.576C4.58217 9.65554 4.06621 9.79724 3.57336 9.998V2.75C3.57336 2.15326 3.8162 1.58097 4.24845 1.15901C4.6807 0.737053 5.26695 0.5 5.87825 0.5H16.6333ZM19.9636 13.502H20.7319C20.9176 13.502 21.097 13.5676 21.2369 13.6868C21.3768 13.8059 21.4678 13.9704 21.493 14.15L21.5002 14.252V15.75C21.5002 15.9312 21.433 16.1063 21.3109 16.2429C21.1889 16.3795 21.0203 16.4683 20.8364 16.493L20.7319 16.5H19.9636V13.502ZM19.9636 9.502H20.7319C20.9176 9.502 21.097 9.56764 21.2369 9.68676C21.3768 9.80589 21.4678 9.97044 21.493 10.15L21.5002 10.252V11.75C21.5002 11.9312 21.433 12.1063 21.3109 12.2429C21.1889 12.3795 21.0203 12.4683 20.8364 12.493L20.7319 12.5H19.9636V9.502ZM19.9636 5.502H20.7319C20.9176 5.50201 21.097 5.56764 21.2369 5.68676C21.3768 5.80589 21.4678 5.97044 21.493 6.15L21.5002 6.252V7.75C21.5002 7.93123 21.433 8.10634 21.3109 8.24293C21.1889 8.37952 21.0203 8.46835 20.8364 8.493L20.7319 8.5H19.9636V5.502Z" fill="#E0E0E0" fill-opacity="0.2"/>
<path d="M15.0966 3.5C15.3003 3.5 15.4957 3.57902 15.6398 3.71967C15.7839 3.86032 15.8649 4.05109 15.8649 4.25V6.749C15.8649 6.94791 15.7839 7.13868 15.6398 7.27933C15.4957 7.41998 15.3003 7.499 15.0966 7.499H7.41464C7.21088 7.499 7.01546 7.41998 6.87138 7.27933C6.72729 7.13868 6.64635 6.94791 6.64635 6.749V4.25C6.64635 4.05109 6.72729 3.86032 6.87138 3.71967C7.01546 3.57902 7.21088 3.5 7.41464 3.5H15.0966ZM14.3283 5H8.18294V5.999H14.3283V5ZM11.7683 16C11.7683 15.2777 11.6226 14.5625 11.3394 13.8952C11.0563 13.2279 10.6413 12.6216 10.1181 12.1109C9.59492 11.6002 8.97382 11.1951 8.29025 10.9187C7.60668 10.6423 6.87404 10.5 6.13415 10.5C5.39427 10.5 4.66162 10.6423 3.97806 10.9187C3.29449 11.1951 2.67338 11.6002 2.15021 12.1109C1.62703 12.6216 1.21202 13.2279 0.928874 13.8952C0.645732 14.5625 0.5 15.2777 0.5 16C0.5 17.4587 1.0936 18.8576 2.15021 19.8891C3.20681 20.9205 4.63988 21.5 6.13415 21.5C7.62842 21.5 9.06149 20.9205 10.1181 19.8891C11.1747 18.8576 11.7683 17.4587 11.7683 16ZM6.64635 16.5L6.64737 19.003C6.64737 19.1356 6.59341 19.2628 6.49736 19.3565C6.4013 19.4503 6.27102 19.503 6.13518 19.503C5.99934 19.503 5.86906 19.4503 5.773 19.3565C5.67695 19.2628 5.62298 19.1356 5.62298 19.003V16.5H3.05688C2.92104 16.5 2.79076 16.4473 2.6947 16.3535C2.59865 16.2598 2.54469 16.1326 2.54469 16C2.54469 15.8674 2.59865 15.7402 2.6947 15.6464C2.79076 15.5527 2.92104 15.5 3.05688 15.5H5.62196V13C5.62196 12.8674 5.67592 12.7402 5.77198 12.6464C5.86803 12.5527 5.99831 12.5 6.13415 12.5C6.27 12.5 6.40028 12.5527 6.49633 12.6464C6.59239 12.7402 6.64635 12.8674 6.64635 13V15.5H9.20426C9.3401 15.5 9.47038 15.5527 9.56643 15.6464C9.66249 15.7402 9.71645 15.8674 9.71645 16C9.71645 16.1326 9.66249 16.2598 9.56643 16.3535C9.47038 16.4473 9.3401 16.5 9.20426 16.5H6.64635Z" fill="white"/>
<path d="M15.0966 3.5C15.3003 3.5 15.4957 3.57902 15.6398 3.71967C15.7839 3.86032 15.8649 4.05109 15.8649 4.25V6.749C15.8649 6.94791 15.7839 7.13868 15.6398 7.27933C15.4957 7.41998 15.3003 7.499 15.0966 7.499H7.41464C7.21088 7.499 7.01546 7.41998 6.87138 7.27933C6.72729 7.13868 6.64635 6.94791 6.64635 6.749V4.25C6.64635 4.05109 6.72729 3.86032 6.87138 3.71967C7.01546 3.57902 7.21088 3.5 7.41464 3.5H15.0966ZM14.3283 5H8.18294V5.999H14.3283V5ZM11.7683 16C11.7683 15.2777 11.6226 14.5625 11.3394 13.8952C11.0563 13.2279 10.6413 12.6216 10.1181 12.1109C9.59492 11.6002 8.97382 11.1951 8.29025 10.9187C7.60668 10.6423 6.87404 10.5 6.13415 10.5C5.39427 10.5 4.66162 10.6423 3.97806 10.9187C3.29449 11.1951 2.67338 11.6002 2.15021 12.1109C1.62703 12.6216 1.21202 13.2279 0.928874 13.8952C0.645732 14.5625 0.5 15.2777 0.5 16C0.5 17.4587 1.0936 18.8576 2.15021 19.8891C3.20681 20.9205 4.63988 21.5 6.13415 21.5C7.62842 21.5 9.06149 20.9205 10.1181 19.8891C11.1747 18.8576 11.7683 17.4587 11.7683 16ZM6.64635 16.5L6.64737 19.003C6.64737 19.1356 6.59341 19.2628 6.49736 19.3565C6.4013 19.4503 6.27102 19.503 6.13518 19.503C5.99934 19.503 5.86906 19.4503 5.773 19.3565C5.67695 19.2628 5.62298 19.1356 5.62298 19.003V16.5H3.05688C2.92104 16.5 2.79076 16.4473 2.6947 16.3535C2.59865 16.2598 2.54469 16.1326 2.54469 16C2.54469 15.8674 2.59865 15.7402 2.6947 15.6464C2.79076 15.5527 2.92104 15.5 3.05688 15.5H5.62196V13C5.62196 12.8674 5.67592 12.7402 5.77198 12.6464C5.86803 12.5527 5.99831 12.5 6.13415 12.5C6.27 12.5 6.40028 12.5527 6.49633 12.6464C6.59239 12.7402 6.64635 12.8674 6.64635 13V15.5H9.20426C9.3401 15.5 9.47038 15.5527 9.56643 15.6464C9.66249 15.7402 9.71645 15.8674 9.71645 16C9.71645 16.1326 9.66249 16.2598 9.56643 16.3535C9.47038 16.4473 9.3401 16.5 9.20426 16.5H6.64635Z" fill="#E0E0E0" fill-opacity="0.2"/>
</svg>
