<svg width="56" height="56" viewBox="0 0 56 56" fill="none" xmlns="http://www.w3.org/2000/svg">
<path d="M15.1 18.55V21H21.5806C21.859 20.9998 22.1259 20.889 22.3226 20.692L24.4646 18.55L22.3226 16.408C22.1259 16.211 21.859 16.1002 21.5806 16.1H17.55C16.9002 16.1 16.2771 16.3581 15.8176 16.8176C15.3581 17.2771 15.1 17.9002 15.1 18.55ZM13 18.55C13 17.3433 13.4794 16.186 14.3327 15.3327C15.186 14.4794 16.3433 14 17.55 14H21.5806C22.4155 14.0004 23.2162 14.3322 23.8066 14.9226L26.3868 17.5H36.4514C37.6579 17.5004 38.8148 17.9799 39.6678 18.8332C40.5208 19.6864 41 20.8435 41 22.05V27.734C40.3752 27.1338 39.6681 26.6256 38.9 26.2248V22.05C38.9 21.4002 38.6419 20.7771 38.1824 20.3176C37.7229 19.8581 37.0998 19.6 36.45 19.6H26.384L23.808 22.1774C23.5155 22.4699 23.1682 22.7019 22.7861 22.8602C22.4039 23.0185 21.9943 23.1 21.5806 23.1H15.1V34.65C15.1 36.0024 16.1976 37.1 17.55 37.1H26.0382C26.2804 37.8476 26.615 38.5518 27.0308 39.2H17.55C16.3433 39.2 15.186 38.7206 14.3327 37.8673C13.4794 37.014 13 35.8567 13 34.65V18.55ZM42.4 34.3C42.4 32.2578 41.5888 30.2993 40.1447 28.8553C38.7007 27.4112 36.7422 26.6 34.7 26.6C32.6578 26.6 30.6993 27.4112 29.2553 28.8553C27.8112 30.2993 27 32.2578 27 34.3C27 36.3422 27.8112 38.3007 29.2553 39.7447C30.6993 41.1888 32.6578 42 34.7 42C36.7422 42 38.7007 41.1888 40.1447 39.7447C41.5888 38.3007 42.4 36.3422 42.4 34.3ZM35.4 35L35.4014 38.5042C35.4014 38.6899 35.3277 38.8679 35.1964 38.9992C35.0651 39.1305 34.8871 39.2042 34.7014 39.2042C34.5157 39.2042 34.3377 39.1305 34.2064 38.9992C34.0751 38.8679 34.0014 38.6899 34.0014 38.5042V35H30.4944C30.3087 35 30.1307 34.9263 29.9994 34.795C29.8681 34.6637 29.7944 34.4857 29.7944 34.3C29.7944 34.1143 29.8681 33.9363 29.9994 33.805C30.1307 33.6737 30.3087 33.6 30.4944 33.6H34V30.1C34 29.9143 34.0737 29.7363 34.205 29.605C34.3363 29.4737 34.5143 29.4 34.7 29.4C34.8857 29.4 35.0637 29.4737 35.195 29.605C35.3263 29.7363 35.4 29.9143 35.4 30.1V33.6H38.8958C39.0815 33.6 39.2595 33.6737 39.3908 33.805C39.5221 33.9363 39.5958 34.1143 39.5958 34.3C39.5958 34.4857 39.5221 34.6637 39.3908 34.795C39.2595 34.9263 39.0815 35 38.8958 35H35.4Z" fill="white"/>
<path d="M15.1 18.55V21H21.5806C21.859 20.9998 22.1259 20.889 22.3226 20.692L24.4646 18.55L22.3226 16.408C22.1259 16.211 21.859 16.1002 21.5806 16.1H17.55C16.9002 16.1 16.2771 16.3581 15.8176 16.8176C15.3581 17.2771 15.1 17.9002 15.1 18.55ZM13 18.55C13 17.3433 13.4794 16.186 14.3327 15.3327C15.186 14.4794 16.3433 14 17.55 14H21.5806C22.4155 14.0004 23.2162 14.3322 23.8066 14.9226L26.3868 17.5H36.4514C37.6579 17.5004 38.8148 17.9799 39.6678 18.8332C40.5208 19.6864 41 20.8435 41 22.05V27.734C40.3752 27.1338 39.6681 26.6256 38.9 26.2248V22.05C38.9 21.4002 38.6419 20.7771 38.1824 20.3176C37.7229 19.8581 37.0998 19.6 36.45 19.6H26.384L23.808 22.1774C23.5155 22.4699 23.1682 22.7019 22.7861 22.8602C22.4039 23.0185 21.9943 23.1 21.5806 23.1H15.1V34.65C15.1 36.0024 16.1976 37.1 17.55 37.1H26.0382C26.2804 37.8476 26.615 38.5518 27.0308 39.2H17.55C16.3433 39.2 15.186 38.7206 14.3327 37.8673C13.4794 37.014 13 35.8567 13 34.65V18.55ZM42.4 34.3C42.4 32.2578 41.5888 30.2993 40.1447 28.8553C38.7007 27.4112 36.7422 26.6 34.7 26.6C32.6578 26.6 30.6993 27.4112 29.2553 28.8553C27.8112 30.2993 27 32.2578 27 34.3C27 36.3422 27.8112 38.3007 29.2553 39.7447C30.6993 41.1888 32.6578 42 34.7 42C36.7422 42 38.7007 41.1888 40.1447 39.7447C41.5888 38.3007 42.4 36.3422 42.4 34.3ZM35.4 35L35.4014 38.5042C35.4014 38.6899 35.3277 38.8679 35.1964 38.9992C35.0651 39.1305 34.8871 39.2042 34.7014 39.2042C34.5157 39.2042 34.3377 39.1305 34.2064 38.9992C34.0751 38.8679 34.0014 38.6899 34.0014 38.5042V35H30.4944C30.3087 35 30.1307 34.9263 29.9994 34.795C29.8681 34.6637 29.7944 34.4857 29.7944 34.3C29.7944 34.1143 29.8681 33.9363 29.9994 33.805C30.1307 33.6737 30.3087 33.6 30.4944 33.6H34V30.1C34 29.9143 34.0737 29.7363 34.205 29.605C34.3363 29.4737 34.5143 29.4 34.7 29.4C34.8857 29.4 35.0637 29.4737 35.195 29.605C35.3263 29.7363 35.4 29.9143 35.4 30.1V33.6H38.8958C39.0815 33.6 39.2595 33.6737 39.3908 33.805C39.5221 33.9363 39.5958 34.1143 39.5958 34.3C39.5958 34.4857 39.5221 34.6637 39.3908 34.795C39.2595 34.9263 39.0815 35 38.8958 35H35.4Z" fill="#E0E0E0" fill-opacity="0.2"/>
</svg>
