<svg width="25" height="24" viewBox="0 0 25 24" fill="none" xmlns="http://www.w3.org/2000/svg">
<path d="M6.5931 14.247L6.59311 14.247L6.59479 14.2442C6.79508 13.9082 6.95978 13.4778 7.0745 13.0645C7.18915 12.6515 7.27058 12.1955 7.27058 11.8002V8.91016C7.27058 6.01437 9.62479 3.66016 12.5206 3.66016C15.4064 3.66016 17.7706 6.02437 17.7706 8.91016V11.8002C17.7706 12.1953 17.8519 12.6508 17.9648 13.0623C18.0779 13.4745 18.2388 13.902 18.4309 14.2349L18.4308 14.235L18.4381 14.247L19.5875 16.156C19.5876 16.1562 19.5877 16.1564 19.5878 16.1566C20.0015 16.8469 19.6659 17.7399 18.9152 17.9881L18.9129 17.9888C14.7576 19.3771 10.275 19.3773 6.11967 17.9893C5.66291 17.8343 5.40008 17.5491 5.29016 17.2522C5.18047 16.956 5.19425 16.5707 5.4431 16.157C5.44314 16.157 5.44318 16.1569 5.44321 16.1568L6.5931 14.247Z" stroke="#023E8A" stroke-opacity="0.7" stroke-width="1.5" stroke-miterlimit="10" stroke-linecap="round"/>
<mask id="path-2-inside-1_4978_24316" fill="white">
<path d="M14.3689 3.20043C13.1597 2.85602 11.8782 2.85602 10.6689 3.20043C10.9589 2.46043 11.6789 1.94043 12.5189 1.94043C13.3589 1.94043 14.0789 2.46043 14.3689 3.20043Z"/>
</mask>
<path d="M14.3689 3.20043L13.9581 4.64306C14.5064 4.79924 15.0959 4.63102 15.4793 4.20895C15.8627 3.78689 15.9736 3.18398 15.7655 2.65312L14.3689 3.20043ZM10.6689 3.20043L9.27236 2.65312C9.06432 3.18398 9.17524 3.78689 9.55859 4.20895C9.94195 4.63102 10.5314 4.79924 11.0798 4.64306L10.6689 3.20043ZM14.7798 1.7578C13.302 1.3369 11.7359 1.3369 10.2581 1.7578L11.0798 4.64306C12.0205 4.37514 13.0174 4.37514 13.9581 4.64306L14.7798 1.7578ZM12.0655 3.74774C12.1366 3.5663 12.3132 3.44043 12.5189 3.44043V0.44043C11.0447 0.44043 9.78126 1.35456 9.27236 2.65312L12.0655 3.74774ZM12.5189 3.44043C12.7247 3.44043 12.9013 3.5663 12.9724 3.74774L15.7655 2.65312C15.2566 1.35456 13.9932 0.44043 12.5189 0.44043V3.44043Z" fill="#023E8A" fill-opacity="0.7" mask="url(#path-2-inside-1_4978_24316)"/>
<mask id="path-4-inside-2_4978_24316" fill="white">
<path d="M15.5205 19.0605C15.5205 20.7105 14.1705 22.0605 12.5205 22.0605C11.7005 22.0605 10.9405 21.7205 10.4005 21.1805C9.83866 20.6179 9.5223 19.8557 9.52051 19.0605"/>
</mask>
<path d="M10.4005 21.1805L9.33905 22.2404L9.33985 22.2412L10.4005 21.1805ZM14.0205 19.0605C14.0205 19.8821 13.3421 20.5605 12.5205 20.5605V23.5605C14.9989 23.5605 17.0205 21.539 17.0205 19.0605H14.0205ZM12.5205 20.5605C12.1155 20.5605 11.7322 20.3909 11.4612 20.1199L9.33985 22.2412C10.1488 23.0502 11.2855 23.5605 12.5205 23.5605V20.5605ZM11.462 20.1207C11.1801 19.8384 11.0214 19.4561 11.0205 19.0572L8.02051 19.0639C8.0232 20.2554 8.49722 21.3973 9.33905 22.2404L11.462 20.1207Z" fill="#023E8A" fill-opacity="0.7" mask="url(#path-4-inside-2_4978_24316)"/>
</svg>
