<svg width="70" height="71" viewBox="0 0 70 71" fill="none" xmlns="http://www.w3.org/2000/svg">
<rect y="0.5" width="70" height="70" rx="35" fill="url(#paint0_linear_5259_16619)"/>
<path d="M45.7188 17.125C45.3127 17.125 44.9232 17.2863 44.636 17.5735C44.3488 17.8607 44.1875 18.2501 44.1875 18.6563V23.25H39.5938C39.1877 23.25 38.7982 23.4113 38.511 23.6985C38.2238 23.9857 38.0625 24.3751 38.0625 24.7813C38.0625 25.1874 38.2238 25.5768 38.511 25.864C38.7982 26.1512 39.1877 26.3125 39.5938 26.3125H44.1875V30.9063C44.1875 31.3124 44.3488 31.7018 44.636 31.989C44.9232 32.2762 45.3127 32.4375 45.7188 32.4375C46.1249 32.4375 46.5144 32.2762 46.8015 31.989C47.0887 31.7018 47.25 31.3124 47.25 30.9063V26.3125H51.8438C52.2499 26.3125 52.6394 26.1512 52.9265 25.864C53.2137 25.5768 53.375 25.1874 53.375 24.7813C53.375 24.3751 53.2137 23.9857 52.9265 23.6985C52.6394 23.4113 52.2499 23.25 51.8438 23.25H47.25V18.6563C47.25 18.2501 47.0887 17.8607 46.8015 17.5735C46.5144 17.2863 46.1249 17.125 45.7188 17.125ZM30.4063 23.25C30.8124 23.25 31.2019 23.4113 31.489 23.6985C31.7762 23.9857 31.9375 24.3751 31.9375 24.7813C31.9375 25.1874 31.7762 25.5768 31.489 25.864C31.2019 26.1512 30.8124 26.3125 30.4063 26.3125H18.1563C17.7502 26.3125 17.3607 26.1512 17.0735 25.864C16.7863 25.5768 16.625 25.1874 16.625 24.7813C16.625 24.3751 16.7863 23.9857 17.0735 23.6985C17.3607 23.4113 17.7502 23.25 18.1563 23.25H30.4063ZM43.5536 46.2188L38.5096 41.1779C38.3673 41.0355 38.2543 40.8665 38.1773 40.6805C38.1002 40.4945 38.0606 40.2951 38.0606 40.0938C38.0606 39.8924 38.1002 39.693 38.1773 39.507C38.2543 39.321 38.3673 39.152 38.5096 39.0096C38.652 38.8673 38.821 38.7543 39.007 38.6773C39.1931 38.6002 39.3924 38.5606 39.5938 38.5606C39.7951 38.5606 39.9945 38.6002 40.1805 38.6773C40.3665 38.7543 40.5355 38.8673 40.6779 39.0096L45.7188 44.0536L50.7596 39.0096C50.902 38.8673 51.071 38.7543 51.257 38.6773C51.4431 38.6002 51.6424 38.5606 51.8438 38.5606C52.0451 38.5606 52.2445 38.6002 52.4305 38.6773C52.6165 38.7543 52.7855 38.8673 52.9279 39.0096C53.0703 39.152 53.1832 39.321 53.2602 39.507C53.3373 39.693 53.377 39.8924 53.377 40.0938C53.377 40.2951 53.3373 40.4945 53.2602 40.6805C53.1832 40.8665 53.0703 41.0355 52.9279 41.1779L47.884 46.2188L52.9279 51.2596C53.0703 51.402 53.1832 51.571 53.2602 51.757C53.3373 51.943 53.377 52.1424 53.377 52.3438C53.377 52.5451 53.3373 52.7445 53.2602 52.9305C53.1832 53.1165 53.0703 53.2855 52.9279 53.4279C52.7855 53.5703 52.6165 53.6832 52.4305 53.7602C52.2445 53.8373 52.0451 53.8769 51.8438 53.8769C51.6424 53.8769 51.4431 53.8373 51.257 53.7602C51.071 53.6832 50.902 53.5703 50.7596 53.4279L45.7188 48.3839L40.6779 53.4279C40.3904 53.7154 40.0004 53.8769 39.5938 53.8769C39.1871 53.8769 38.7972 53.7154 38.5096 53.4279C38.2221 53.1404 38.0606 52.7504 38.0606 52.3438C38.0606 51.9371 38.2221 51.5472 38.5096 51.2596L43.5536 46.2188ZM24.2813 41.625C23.469 41.625 22.6901 41.3023 22.1158 40.728C21.5414 40.1537 21.2188 39.3747 21.2188 38.5625C21.2188 37.7503 21.5414 36.9713 22.1158 36.397C22.6901 35.8227 23.469 35.5 24.2813 35.5C25.0935 35.5 25.8724 35.8227 26.4468 36.397C27.0211 36.9713 27.3438 37.7503 27.3438 38.5625C27.3438 39.3747 27.0211 40.1537 26.4468 40.728C25.8724 41.3023 25.0935 41.625 24.2813 41.625ZM30.4063 43.1563C30.8124 43.1563 31.2019 43.3176 31.489 43.6047C31.7762 43.8919 31.9375 44.2814 31.9375 44.6875C31.9375 45.0936 31.7762 45.4831 31.489 45.7703C31.2019 46.0574 30.8124 46.2188 30.4063 46.2188H18.1563C17.7502 46.2188 17.3607 46.0574 17.0735 45.7703C16.7863 45.4831 16.625 45.0936 16.625 44.6875C16.625 44.2814 16.7863 43.8919 17.0735 43.6047C17.3607 43.3176 17.7502 43.1563 18.1563 43.1563H30.4063ZM21.2188 50.8125C21.2188 51.6247 21.5414 52.4037 22.1158 52.978C22.6901 53.5523 23.469 53.875 24.2813 53.875C25.0935 53.875 25.8724 53.5523 26.4468 52.978C27.0211 52.4037 27.3438 51.6247 27.3438 50.8125C27.3438 50.0003 27.0211 49.2213 26.4468 48.647C25.8724 48.0727 25.0935 47.75 24.2813 47.75C23.469 47.75 22.6901 48.0727 22.1158 48.647C21.5414 49.2213 21.2188 50.0003 21.2188 50.8125Z" fill="white"/>
<defs>
<linearGradient id="paint0_linear_5259_16619" x1="0" y1="0.5" x2="70" y2="70.5" gradientUnits="userSpaceOnUse">
<stop stop-color="#023E8A" stop-opacity="0.7"/>
<stop offset="0.723958" stop-color="#2684FF" stop-opacity="0.8"/>
</linearGradient>
</defs>
</svg>
