<svg width="25" height="24" viewBox="0 0 25 24" fill="none" xmlns="http://www.w3.org/2000/svg">
<path d="M18.7349 0C19.4335 0 20.1035 0.270912 20.5975 0.753138C21.0915 1.23536 21.369 1.8894 21.369 2.57137V20.2853C21.369 20.9673 21.0915 21.6213 20.5975 22.1035C20.1035 22.5857 19.4335 22.8567 18.7349 22.8567H12.227C12.7288 22.3466 13.1538 21.7694 13.489 21.1424H18.7338C18.9666 21.1424 19.19 21.0521 19.3546 20.8914C19.5193 20.7306 19.6118 20.5126 19.6118 20.2853V2.57137C19.6118 2.34405 19.5193 2.12604 19.3546 1.9653C19.19 1.80455 18.9666 1.71425 18.7338 1.71425H6.44367C6.2108 1.71425 5.98747 1.80455 5.8228 1.9653C5.65814 2.12604 5.56563 2.34405 5.56563 2.57137V10.3724C4.96247 10.4633 4.37281 10.6252 3.80957 10.8546V2.57137C3.80957 1.8894 4.08709 1.23536 4.58108 0.753138C5.07507 0.270912 5.74506 0 6.44367 0H18.7349ZM22.5409 14.8591H23.4189C23.6311 14.8591 23.8361 14.9341 23.996 15.0703C24.1559 15.2064 24.2599 15.3945 24.2888 15.5997L24.297 15.7162V17.4282C24.297 17.6353 24.2201 17.8354 24.0807 17.9915C23.9412 18.1476 23.7486 18.2492 23.5384 18.2773L23.4189 18.2853H22.5409V14.8591ZM22.5409 10.2878H23.4189C23.6311 10.2878 23.8361 10.3628 23.996 10.4989C24.1559 10.6351 24.2599 10.8231 24.2888 11.0283L24.297 11.1449V12.8569C24.297 13.064 24.2201 13.2641 24.0807 13.4202C23.9412 13.5763 23.7486 13.6778 23.5384 13.706L23.4189 13.714H22.5409V10.2878ZM22.5409 5.71645H23.4189C23.6311 5.71646 23.8361 5.79147 23.996 5.92761C24.1559 6.06375 24.2599 6.25181 24.2888 6.45701L24.297 6.57357V8.28554C24.297 8.49266 24.2201 8.69278 24.0807 8.84888C23.9412 9.00497 23.7486 9.10649 23.5384 9.13466L23.4189 9.14266H22.5409V5.71645Z" fill="white"/>
<path d="M18.7349 0C19.4335 0 20.1035 0.270912 20.5975 0.753138C21.0915 1.23536 21.369 1.8894 21.369 2.57137V20.2853C21.369 20.9673 21.0915 21.6213 20.5975 22.1035C20.1035 22.5857 19.4335 22.8567 18.7349 22.8567H12.227C12.7288 22.3466 13.1538 21.7694 13.489 21.1424H18.7338C18.9666 21.1424 19.19 21.0521 19.3546 20.8914C19.5193 20.7306 19.6118 20.5126 19.6118 20.2853V2.57137C19.6118 2.34405 19.5193 2.12604 19.3546 1.9653C19.19 1.80455 18.9666 1.71425 18.7338 1.71425H6.44367C6.2108 1.71425 5.98747 1.80455 5.8228 1.9653C5.65814 2.12604 5.56563 2.34405 5.56563 2.57137V10.3724C4.96247 10.4633 4.37281 10.6252 3.80957 10.8546V2.57137C3.80957 1.8894 4.08709 1.23536 4.58108 0.753138C5.07507 0.270912 5.74506 0 6.44367 0H18.7349ZM22.5409 14.8591H23.4189C23.6311 14.8591 23.8361 14.9341 23.996 15.0703C24.1559 15.2064 24.2599 15.3945 24.2888 15.5997L24.297 15.7162V17.4282C24.297 17.6353 24.2201 17.8354 24.0807 17.9915C23.9412 18.1476 23.7486 18.2492 23.5384 18.2773L23.4189 18.2853H22.5409V14.8591ZM22.5409 10.2878H23.4189C23.6311 10.2878 23.8361 10.3628 23.996 10.4989C24.1559 10.6351 24.2599 10.8231 24.2888 11.0283L24.297 11.1449V12.8569C24.297 13.064 24.2201 13.2641 24.0807 13.4202C23.9412 13.5763 23.7486 13.6778 23.5384 13.706L23.4189 13.714H22.5409V10.2878ZM22.5409 5.71645H23.4189C23.6311 5.71646 23.8361 5.79147 23.996 5.92761C24.1559 6.06375 24.2599 6.25181 24.2888 6.45701L24.297 6.57357V8.28554C24.297 8.49266 24.2201 8.69278 24.0807 8.84888C23.9412 9.00497 23.7486 9.10649 23.5384 9.13466L23.4189 9.14266H22.5409V5.71645Z" fill="#E0E0E0" fill-opacity="0.2"/>
<path d="M16.9812 3.42969C17.2141 3.42969 17.4374 3.51999 17.6021 3.68073C17.7668 3.84148 17.8593 4.05949 17.8593 4.28681V7.14275C17.8593 7.37007 17.7668 7.58809 17.6021 7.74883C17.4374 7.90957 17.2141 7.99988 16.9812 7.99988H8.20209C7.96922 7.99988 7.74589 7.90957 7.58123 7.74883C7.41656 7.58809 7.32406 7.37007 7.32406 7.14275V4.28681C7.32406 4.05949 7.41656 3.84148 7.58123 3.68073C7.74589 3.51999 7.96922 3.42969 8.20209 3.42969H16.9812ZM16.1032 5.14394H9.08012V6.28563H16.1032V5.14394ZM13.1776 17.7151C13.1776 16.8897 13.0111 16.0723 12.6875 15.3097C12.3639 14.5471 11.8896 13.8542 11.2917 13.2705C10.6938 12.6869 9.98397 12.2239 9.20276 11.908C8.42156 11.5921 7.58427 11.4295 6.7387 11.4295C5.89314 11.4295 5.05585 11.5921 4.27464 11.908C3.49344 12.2239 2.78362 12.6869 2.18571 13.2705C1.58781 13.8542 1.11352 14.5471 0.789937 15.3097C0.466352 16.0723 0.299805 16.8897 0.299805 17.7151C0.299805 19.3821 0.978187 20.9809 2.18571 22.1597C3.39324 23.3384 5.031 24.0007 6.7387 24.0007C8.44641 24.0007 10.0842 23.3384 11.2917 22.1597C12.4992 20.9809 13.1776 19.3821 13.1776 17.7151ZM7.32406 18.2865L7.32523 21.147C7.32523 21.2986 7.26356 21.4439 7.15378 21.5511C7.04401 21.6582 6.89512 21.7184 6.73987 21.7184C6.58463 21.7184 6.43574 21.6582 6.32597 21.5511C6.21619 21.4439 6.15452 21.2986 6.15452 21.147V18.2865H3.22189C3.06665 18.2865 2.91776 18.2263 2.80799 18.1192C2.69821 18.012 2.63654 17.8666 2.63654 17.7151C2.63654 17.5635 2.69821 17.4182 2.80799 17.311C2.91776 17.2039 3.06665 17.1437 3.22189 17.1437H6.15335V14.2866C6.15335 14.135 6.21502 13.9897 6.3248 13.8825C6.43457 13.7754 6.58346 13.7152 6.7387 13.7152C6.89395 13.7152 7.04284 13.7754 7.15261 13.8825C7.26239 13.9897 7.32406 14.135 7.32406 14.2866V17.1437H10.2473C10.4026 17.1437 10.5515 17.2039 10.6612 17.311C10.771 17.4182 10.8327 17.5635 10.8327 17.7151C10.8327 17.8666 10.771 18.012 10.6612 18.1192C10.5515 18.2263 10.4026 18.2865 10.2473 18.2865H7.32406Z" fill="white"/>
<path d="M16.9812 3.42969C17.2141 3.42969 17.4374 3.51999 17.6021 3.68073C17.7668 3.84148 17.8593 4.05949 17.8593 4.28681V7.14275C17.8593 7.37007 17.7668 7.58809 17.6021 7.74883C17.4374 7.90957 17.2141 7.99988 16.9812 7.99988H8.20209C7.96922 7.99988 7.74589 7.90957 7.58123 7.74883C7.41656 7.58809 7.32406 7.37007 7.32406 7.14275V4.28681C7.32406 4.05949 7.41656 3.84148 7.58123 3.68073C7.74589 3.51999 7.96922 3.42969 8.20209 3.42969H16.9812ZM16.1032 5.14394H9.08012V6.28563H16.1032V5.14394ZM13.1776 17.7151C13.1776 16.8897 13.0111 16.0723 12.6875 15.3097C12.3639 14.5471 11.8896 13.8542 11.2917 13.2705C10.6938 12.6869 9.98397 12.2239 9.20276 11.908C8.42156 11.5921 7.58427 11.4295 6.7387 11.4295C5.89314 11.4295 5.05585 11.5921 4.27464 11.908C3.49344 12.2239 2.78362 12.6869 2.18571 13.2705C1.58781 13.8542 1.11352 14.5471 0.789937 15.3097C0.466352 16.0723 0.299805 16.8897 0.299805 17.7151C0.299805 19.3821 0.978187 20.9809 2.18571 22.1597C3.39324 23.3384 5.031 24.0007 6.7387 24.0007C8.44641 24.0007 10.0842 23.3384 11.2917 22.1597C12.4992 20.9809 13.1776 19.3821 13.1776 17.7151ZM7.32406 18.2865L7.32523 21.147C7.32523 21.2986 7.26356 21.4439 7.15378 21.5511C7.04401 21.6582 6.89512 21.7184 6.73987 21.7184C6.58463 21.7184 6.43574 21.6582 6.32597 21.5511C6.21619 21.4439 6.15452 21.2986 6.15452 21.147V18.2865H3.22189C3.06665 18.2865 2.91776 18.2263 2.80799 18.1192C2.69821 18.012 2.63654 17.8666 2.63654 17.7151C2.63654 17.5635 2.69821 17.4182 2.80799 17.311C2.91776 17.2039 3.06665 17.1437 3.22189 17.1437H6.15335V14.2866C6.15335 14.135 6.21502 13.9897 6.3248 13.8825C6.43457 13.7754 6.58346 13.7152 6.7387 13.7152C6.89395 13.7152 7.04284 13.7754 7.15261 13.8825C7.26239 13.9897 7.32406 14.135 7.32406 14.2866V17.1437H10.2473C10.4026 17.1437 10.5515 17.2039 10.6612 17.311C10.771 17.4182 10.8327 17.5635 10.8327 17.7151C10.8327 17.8666 10.771 18.012 10.6612 18.1192C10.5515 18.2263 10.4026 18.2865 10.2473 18.2865H7.32406Z" fill="#E0E0E0" fill-opacity="0.2"/>
</svg>
