<svg width="78" height="78" viewBox="0 0 78 78" fill="none" xmlns="http://www.w3.org/2000/svg">
<circle cx="39" cy="39" r="39" fill="#56CC5B"/>
<path d="M21.625 15V21.625H15V26.0417H21.625V32.6667H26.0417V26.0417H32.6667V21.625H26.0417V15H21.625ZM34.875 21.625V28.25H28.25V34.875H21.625V56.9583C21.625 58.1297 22.0903 59.2531 22.9186 60.0814C23.7469 60.9097 24.8703 61.375 26.0417 61.375H56.9583C59.4096 61.375 61.375 59.4096 61.375 56.9583V54.75H41.5C40.3286 54.75 39.2052 54.2847 38.3769 53.4564C37.5487 52.6281 37.0833 51.5047 37.0833 50.3333V32.6667C37.0833 31.4953 37.5487 30.3719 38.3769 29.5436C39.2052 28.7153 40.3286 28.25 41.5 28.25H61.375V26.0417C61.375 24.8703 60.9097 23.7469 60.0814 22.9186C59.2531 22.0903 58.1297 21.625 56.9583 21.625H34.875ZM41.5 32.6667V50.3333H63.5833V32.6667H41.5ZM50.3333 38.1875C52.1662 38.1875 53.6458 39.6671 53.6458 41.5C53.6458 43.3329 52.1662 44.8125 50.3333 44.8125C48.5004 44.8125 47.0208 43.3329 47.0208 41.5C47.0208 39.6671 48.5004 38.1875 50.3333 38.1875Z" fill="white"/>
<path d="M21.625 15V21.625H15V26.0417H21.625V32.6667H26.0417V26.0417H32.6667V21.625H26.0417V15H21.625ZM34.875 21.625V28.25H28.25V34.875H21.625V56.9583C21.625 58.1297 22.0903 59.2531 22.9186 60.0814C23.7469 60.9097 24.8703 61.375 26.0417 61.375H56.9583C59.4096 61.375 61.375 59.4096 61.375 56.9583V54.75H41.5C40.3286 54.75 39.2052 54.2847 38.3769 53.4564C37.5487 52.6281 37.0833 51.5047 37.0833 50.3333V32.6667C37.0833 31.4953 37.5487 30.3719 38.3769 29.5436C39.2052 28.7153 40.3286 28.25 41.5 28.25H61.375V26.0417C61.375 24.8703 60.9097 23.7469 60.0814 22.9186C59.2531 22.0903 58.1297 21.625 56.9583 21.625H34.875ZM41.5 32.6667V50.3333H63.5833V32.6667H41.5ZM50.3333 38.1875C52.1662 38.1875 53.6458 39.6671 53.6458 41.5C53.6458 43.3329 52.1662 44.8125 50.3333 44.8125C48.5004 44.8125 47.0208 43.3329 47.0208 41.5C47.0208 39.6671 48.5004 38.1875 50.3333 38.1875Z" fill="#E0E0E0" fill-opacity="0.2"/>
</svg>
