<svg width="79" height="78" viewBox="0 0 79 78" fill="none" xmlns="http://www.w3.org/2000/svg">
<circle cx="39.5" cy="39" r="39" fill="#F56767"/>
<path fill-rule="evenodd" clip-rule="evenodd" d="M41.2545 41.123V52.088C45.1131 51.7415 46.737 49.5803 46.737 46.7261C46.737 43.9772 45.4738 42.3511 41.2545 41.123ZM37.965 35.6405V25.772C34.3762 26.227 32.4825 28.3268 32.4825 30.6295C32.4825 32.9321 33.9781 34.6284 37.965 35.6405ZM41.0791 36.4486L42.2545 36.7524C48.6932 38.2973 52.2195 41.032 52.2195 46.4257C52.2195 52.6297 47.3225 56.1494 41.0791 56.6056V60.86H38.3126V56.6056C32.0932 56.1242 27.1722 52.5036 27 46.4257H32.068C32.5088 49.3884 34.3707 51.5661 38.3126 51.9959V40.9574L37.3082 40.7041C31.0888 39.2096 27.7347 36.3225 27.7347 31.1821C27.7347 25.5099 32.1426 21.7621 38.3126 21.2807V17H41.0791V21.2796C47.1997 21.7862 51.6318 25.5845 51.828 31.3334H46.7348C46.4168 28.1426 44.2129 26.2939 41.0791 25.8882V36.4486Z" fill="white"/>
<path fill-rule="evenodd" clip-rule="evenodd" d="M41.2545 41.123V52.088C45.1131 51.7415 46.737 49.5803 46.737 46.7261C46.737 43.9772 45.4738 42.3511 41.2545 41.123ZM37.965 35.6405V25.772C34.3762 26.227 32.4825 28.3268 32.4825 30.6295C32.4825 32.9321 33.9781 34.6284 37.965 35.6405ZM41.0791 36.4486L42.2545 36.7524C48.6932 38.2973 52.2195 41.032 52.2195 46.4257C52.2195 52.6297 47.3225 56.1494 41.0791 56.6056V60.86H38.3126V56.6056C32.0932 56.1242 27.1722 52.5036 27 46.4257H32.068C32.5088 49.3884 34.3707 51.5661 38.3126 51.9959V40.9574L37.3082 40.7041C31.0888 39.2096 27.7347 36.3225 27.7347 31.1821C27.7347 25.5099 32.1426 21.7621 38.3126 21.2807V17H41.0791V21.2796C47.1997 21.7862 51.6318 25.5845 51.828 31.3334H46.7348C46.4168 28.1426 44.2129 26.2939 41.0791 25.8882V36.4486Z" fill="#E0E0E0" fill-opacity="0.2"/>
</svg>
