<svg width="22" height="23" viewBox="0 0 22 23" fill="none" xmlns="http://www.w3.org/2000/svg">
<path d="M8.94629 3.69643V4.10714H13.0534V3.69643C13.0534 3.15179 12.8371 2.62945 12.452 2.24433C12.0668 1.85922 11.5445 1.64286 10.9999 1.64286C10.4552 1.64286 9.93289 1.85922 9.54777 2.24433C9.16265 2.62945 8.94629 3.15179 8.94629 3.69643ZM7.30343 4.10714V3.69643C7.30343 2.71607 7.69288 1.77587 8.38609 1.08266C9.07931 0.389444 10.0195 0 10.9999 0C11.9802 0 12.9204 0.389444 13.6136 1.08266C14.3068 1.77587 14.6963 2.71607 14.6963 3.69643V4.10714H20.857C21.0749 4.10714 21.2838 4.19369 21.4378 4.34773C21.5919 4.50178 21.6784 4.71072 21.6784 4.92857C21.6784 5.14643 21.5919 5.35536 21.4378 5.50941C21.2838 5.66346 21.0749 5.75 20.857 5.75H19.6183L18.0641 19.3594C17.9495 20.3617 17.4701 21.2868 16.7171 21.9582C15.9642 22.6296 14.9905 23.0005 13.9816 23H8.01807C7.00925 23.0005 6.03553 22.6296 5.2826 21.9582C4.52966 21.2868 4.05018 20.3617 3.93557 19.3594L2.38143 5.75H1.14272C0.924861 5.75 0.715928 5.66346 0.56188 5.50941C0.407832 5.35536 0.321289 5.14643 0.321289 4.92857C0.321289 4.71072 0.407832 4.50178 0.56188 4.34773C0.715928 4.19369 0.924861 4.10714 1.14272 4.10714H7.30343ZM5.56857 19.1721C5.63715 19.7734 5.92454 20.3283 6.37597 20.7313C6.82741 21.1342 7.41132 21.357 8.01643 21.3571H13.9825C14.5876 21.357 15.1715 21.1342 15.6229 20.7313C16.0744 20.3283 16.3617 19.7734 16.4303 19.1721L17.9656 5.75H4.03497L5.56857 19.1721ZM8.53557 8.625C8.75343 8.625 8.96236 8.71154 9.11641 8.86559C9.27046 9.01964 9.357 9.22857 9.357 9.44643V17.6607C9.357 17.8786 9.27046 18.0875 9.11641 18.2416C8.96236 18.3956 8.75343 18.4821 8.53557 18.4821C8.31772 18.4821 8.10878 18.3956 7.95474 18.2416C7.80069 18.0875 7.71415 17.8786 7.71415 17.6607V9.44643C7.71415 9.22857 7.80069 9.01964 7.95474 8.86559C8.10878 8.71154 8.31772 8.625 8.53557 8.625ZM14.2856 9.44643C14.2856 9.22857 14.199 9.01964 14.045 8.86559C13.8909 8.71154 13.682 8.625 13.4641 8.625C13.2463 8.625 13.0374 8.71154 12.8833 8.86559C12.7293 9.01964 12.6427 9.22857 12.6427 9.44643V17.6607C12.6427 17.8786 12.7293 18.0875 12.8833 18.2416C13.0374 18.3956 13.2463 18.4821 13.4641 18.4821C13.682 18.4821 13.8909 18.3956 14.045 18.2416C14.199 18.0875 14.2856 17.8786 14.2856 17.6607V9.44643Z" fill="url(#paint0_linear_3637_10894)"/>
<defs>
<linearGradient id="paint0_linear_3637_10894" x1="0.321289" y1="0" x2="23.2583" y2="21.2986" gradientUnits="userSpaceOnUse">
<stop stop-color="#023E8A" stop-opacity="0.7"/>
<stop offset="0.723958" stop-color="#2684FF" stop-opacity="0.8"/>
</linearGradient>
</defs>
</svg>
