<svg width="16" height="21" viewBox="0 0 20 21" fill="none" xmlns="http://www.w3.org/2000/svg">
<path fill-rule="evenodd" clip-rule="evenodd" d="M18.25 2H1.75C1.61193 2 1.5 2.11193 1.5 2.25V18.75C1.5 18.8881 1.61193 19 1.75 19H18.25C18.3881 19 18.5 18.8881 18.5 18.75V2.25C18.5 2.11193 18.3881 2 18.25 2ZM1.75 0.5C0.783502 0.5 0 1.2835 0 2.25V18.75C0 19.7165 0.783501 20.5 1.75 20.5H18.25C19.2165 20.5 20 19.7165 20 18.75V2.25C20 1.2835 19.2165 0.5 18.25 0.5H1.75Z" fill="url(#paint0_linear_2571_12609)"/>
<rect x="3.75" y="4.25" width="3.75" height="1.75" rx="0.875" fill="url(#paint1_linear_2571_12609)"/>
<rect x="8.75" y="4.25" width="7.5" height="1.75" rx="0.875" fill="url(#paint2_linear_2571_12609)"/>
<rect x="3.75" y="8" width="3.75" height="1.75" rx="0.875" fill="url(#paint3_linear_2571_12609)"/>
<rect x="8.75" y="8" width="7.5" height="1.75" rx="0.875" fill="url(#paint4_linear_2571_12609)"/>
<rect x="3.75" y="11.75" width="3.75" height="1.75" rx="0.875" fill="url(#paint5_linear_2571_12609)"/>
<rect x="8.75" y="11.75" width="7.5" height="1.75" rx="0.875" fill="url(#paint6_linear_2571_12609)"/>
<defs>
<linearGradient id="paint0_linear_2571_12609" x1="0" y1="0.5" x2="20" y2="20.5" gradientUnits="userSpaceOnUse">
<stop stop-color="#023E8A" stop-opacity="0.7"/>
<stop offset="0.723958" stop-color="#2684FF" stop-opacity="0.8"/>
</linearGradient>
<linearGradient id="paint1_linear_2571_12609" x1="3.75" y1="4.25" x2="5.09124" y2="7.12409" gradientUnits="userSpaceOnUse">
<stop stop-color="#023E8A" stop-opacity="0.7"/>
<stop offset="0.723958" stop-color="#2684FF" stop-opacity="0.8"/>
</linearGradient>
<linearGradient id="paint2_linear_2571_12609" x1="8.75" y1="4.25" x2="9.5245" y2="7.56928" gradientUnits="userSpaceOnUse">
<stop stop-color="#023E8A" stop-opacity="0.7"/>
<stop offset="0.723958" stop-color="#2684FF" stop-opacity="0.8"/>
</linearGradient>
<linearGradient id="paint3_linear_2571_12609" x1="3.75" y1="8" x2="5.09124" y2="10.8741" gradientUnits="userSpaceOnUse">
<stop stop-color="#023E8A" stop-opacity="0.7"/>
<stop offset="0.723958" stop-color="#2684FF" stop-opacity="0.8"/>
</linearGradient>
<linearGradient id="paint4_linear_2571_12609" x1="8.75" y1="8" x2="9.5245" y2="11.3193" gradientUnits="userSpaceOnUse">
<stop stop-color="#023E8A" stop-opacity="0.7"/>
<stop offset="0.723958" stop-color="#2684FF" stop-opacity="0.8"/>
</linearGradient>
<linearGradient id="paint5_linear_2571_12609" x1="3.75" y1="11.75" x2="5.09124" y2="14.6241" gradientUnits="userSpaceOnUse">
<stop stop-color="#023E8A" stop-opacity="0.7"/>
<stop offset="0.723958" stop-color="#2684FF" stop-opacity="0.8"/>
</linearGradient>
<linearGradient id="paint6_linear_2571_12609" x1="8.75" y1="11.75" x2="9.5245" y2="15.0693" gradientUnits="userSpaceOnUse">
<stop stop-color="#023E8A" stop-opacity="0.7"/>
<stop offset="0.723958" stop-color="#2684FF" stop-opacity="0.8"/>
</linearGradient>
</defs>
</svg>
