<svg width="15" height="24" viewBox="0 0 15 24" fill="none" xmlns="http://www.w3.org/2000/svg">
<path fill-rule="evenodd" clip-rule="evenodd" d="M8.3 13.2V19.2C10.4114 19.0104 11.3 17.8278 11.3 16.266C11.3 14.7618 10.6088 13.872 8.3 13.2ZM6.5 10.2V4.8C4.5362 5.049 3.5 6.198 3.5 7.458C3.5 8.718 4.3184 9.6462 6.5 10.2ZM8.204 10.6422L8.8472 10.8084C12.3704 11.6538 14.3 13.1502 14.3 16.1016C14.3 19.4964 11.6204 21.4224 8.204 21.672V24H6.6902V21.672C3.287 21.4086 0.5942 19.4274 0.5 16.1016H3.2732C3.5144 17.7228 4.5332 18.9144 6.6902 19.1496V13.1094L6.1406 12.9708C2.7374 12.153 0.902 10.5732 0.902 7.7604C0.902 4.6566 3.314 2.6058 6.6902 2.3424V0H8.204V2.3418C11.5532 2.619 13.9784 4.6974 14.0858 7.8432H11.2988C11.1248 6.0972 9.9188 5.0856 8.204 4.8636V10.6422Z" fill="white"/>
<path fill-rule="evenodd" clip-rule="evenodd" d="M8.3 13.2V19.2C10.4114 19.0104 11.3 17.8278 11.3 16.266C11.3 14.7618 10.6088 13.872 8.3 13.2ZM6.5 10.2V4.8C4.5362 5.049 3.5 6.198 3.5 7.458C3.5 8.718 4.3184 9.6462 6.5 10.2ZM8.204 10.6422L8.8472 10.8084C12.3704 11.6538 14.3 13.1502 14.3 16.1016C14.3 19.4964 11.6204 21.4224 8.204 21.672V24H6.6902V21.672C3.287 21.4086 0.5942 19.4274 0.5 16.1016H3.2732C3.5144 17.7228 4.5332 18.9144 6.6902 19.1496V13.1094L6.1406 12.9708C2.7374 12.153 0.902 10.5732 0.902 7.7604C0.902 4.6566 3.314 2.6058 6.6902 2.3424V0H8.204V2.3418C11.5532 2.619 13.9784 4.6974 14.0858 7.8432H11.2988C11.1248 6.0972 9.9188 5.0856 8.204 4.8636V10.6422Z" fill="#E0E0E0" fill-opacity="0.2"/>
</svg>
