<svg width="27" height="26" viewBox="0 0 27 26" fill="none" xmlns="http://www.w3.org/2000/svg">
<path d="M5.5214 6.64746H4.10964C3.3608 6.64746 2.64263 6.94494 2.11312 7.47445C1.58361 8.00396 1.28613 8.72213 1.28613 9.47097V22.1768C1.28613 22.9256 1.58361 23.6438 2.11312 24.1733C2.64263 24.7028 3.3608 25.0003 4.10964 25.0003H16.8154C17.5643 25.0003 18.2825 24.7028 18.812 24.1733C19.3415 23.6438 19.639 22.9256 19.639 22.1768V20.765" stroke="url(#paint0_linear_3459_21375)" stroke-width="1.5" stroke-linecap="round" stroke-linejoin="round"/>
<path d="M18.227 3.82366L22.4623 8.05893M24.4176 6.0613C24.9736 5.50528 25.2859 4.75116 25.2859 3.96484C25.2859 3.17851 24.9736 2.4244 24.4176 1.86838C23.8616 1.31237 23.1074 1 22.3211 1C21.5348 1 20.7807 1.31237 20.2247 1.86838L8.34473 13.706V17.9412H12.58L24.4176 6.0613Z" stroke="url(#paint1_linear_3459_21375)" stroke-width="1.5" stroke-linecap="round" stroke-linejoin="round"/>
<defs>
<linearGradient id="paint0_linear_3459_21375" x1="1.28613" y1="6.64746" x2="19.639" y2="25.0003" gradientUnits="userSpaceOnUse">
<stop stop-color="#023E8A" stop-opacity="0.7"/>
<stop offset="0.723958" stop-color="#2684FF" stop-opacity="0.8"/>
</linearGradient>
<linearGradient id="paint1_linear_3459_21375" x1="8.34473" y1="1" x2="25.2859" y2="17.9412" gradientUnits="userSpaceOnUse">
<stop stop-color="#023E8A" stop-opacity="0.7"/>
<stop offset="0.723958" stop-color="#2684FF" stop-opacity="0.8"/>
</linearGradient>
</defs>
</svg>
