<svg width="56" height="56" viewBox="0 0 56 56" fill="none" xmlns="http://www.w3.org/2000/svg">
    <circle cx="28" cy="28" r="28" fill="#F4F7FE" />
    <path
        d="M14 15.4737C14 15.0828 14.1553 14.708 14.4316 14.4316C14.708 14.1553 15.0828 14 15.4737 14H33.8947C34.2856 14 34.6604 14.1553 34.9368 14.4316C35.2132 14.708 35.3684 15.0828 35.3684 15.4737V18.4211C35.3684 18.8119 35.2132 19.1867 34.9368 19.4631C34.6604 19.7395 34.2856 19.8947 33.8947 19.8947C33.5039 19.8947 33.1291 19.7395 32.8527 19.4631C32.5763 19.1867 32.4211 18.8119 32.4211 18.4211V16.9474H26.1579V28.7869C25.1924 30.3154 24.6813 32.0869 24.6842 33.8947C24.6842 35.2004 24.9451 36.4442 25.4181 37.5789H21.7368C21.346 37.5789 20.9712 37.4237 20.6948 37.1473C20.4184 36.8709 20.2632 36.4961 20.2632 36.1053C20.2632 35.7144 20.4184 35.3396 20.6948 35.0632C20.9712 34.7868 21.346 34.6316 21.7368 34.6316H23.2105V16.9474H16.9474V18.4211C16.9474 18.8119 16.7921 19.1867 16.5157 19.4631C16.2394 19.7395 15.8645 19.8947 15.4737 19.8947C15.0828 19.8947 14.708 19.7395 14.4316 19.4631C14.1553 19.1867 14 18.8119 14 18.4211V15.4737ZM42.3684 33.8947C42.3684 31.7451 41.5145 29.6835 39.9944 28.1634C38.4744 26.6434 36.4128 25.7895 34.2632 25.7895C32.1135 25.7895 30.0519 26.6434 28.5319 28.1634C27.0118 29.6835 26.1579 31.7451 26.1579 33.8947C26.1579 36.0444 27.0118 38.106 28.5319 39.626C30.0519 41.1461 32.1135 42 34.2632 42C36.4128 42 38.4744 41.1461 39.9944 39.626C41.5145 38.106 42.3684 36.0444 42.3684 33.8947ZM35 34.6316L35.0015 38.3202C35.0015 38.5156 34.9238 38.7031 34.7857 38.8412C34.6475 38.9794 34.4601 39.0571 34.2646 39.0571C34.0692 39.0571 33.8818 38.9794 33.7436 38.8412C33.6054 38.7031 33.5278 38.5156 33.5278 38.3202V34.6316H29.8362C29.6408 34.6316 29.4534 34.5539 29.3152 34.4158C29.177 34.2776 29.0994 34.0902 29.0994 33.8947C29.0994 33.6993 29.177 33.5119 29.3152 33.3737C29.4534 33.2355 29.6408 33.1579 29.8362 33.1579H33.5263V29.4737C33.5263 29.2783 33.6039 29.0908 33.7421 28.9527C33.8803 28.8145 34.0677 28.7368 34.2632 28.7368C34.4586 28.7368 34.646 28.8145 34.7842 28.9527C34.9224 29.0908 35 29.2783 35 29.4737V33.1579H38.6798C38.8752 33.1579 39.0626 33.2355 39.2008 33.3737C39.339 33.5119 39.4166 33.6993 39.4166 33.8947C39.4166 34.0902 39.339 34.2776 39.2008 34.4158C39.0626 34.5539 38.8752 34.6316 38.6798 34.6316H35Z"
        fill="url(#paint0_linear_4712_32585)" />
    <defs>
        <linearGradient id="paint0_linear_4712_32585" x1="14" y1="14" x2="41.9976" y2="42.366"
            gradientUnits="userSpaceOnUse">
            <stop stop-color="#023E8A" stop-opacity="0.7" />
            <stop offset="0.723958" stop-color="#2684FF" stop-opacity="0.8" />
        </linearGradient>
    </defs>
</svg>