<svg width="25" height="26" viewBox="0 0 25 26" fill="none" xmlns="http://www.w3.org/2000/svg">
    <path
        d="M15.0717 7.00028V5.28599C15.0717 4.83134 14.8911 4.3953 14.5696 4.07381C14.2481 3.75232 13.8121 3.57171 13.3574 3.57171H11.6431M7.35742 19.0003H3.07171C2.61705 19.0003 2.18102 18.8197 1.85952 18.4982C1.53803 18.1767 1.35742 17.7407 1.35742 17.286V5.28599C1.35742 4.83134 1.53803 4.3953 1.85952 4.07381C2.18102 3.75232 2.61705 3.57171 3.07171 3.57171H4.78599M15.0717 15.5717H20.2146M15.0717 19.0003H20.2146M21.9289 10.4289H13.3574C12.9028 10.4289 12.4667 10.6095 12.1452 10.931C11.8237 11.2524 11.6431 11.6885 11.6431 12.1431V22.4289C11.6431 22.8835 11.8237 23.3195 12.1452 23.641C12.4667 23.9625 12.9028 24.1431 13.3574 24.1431H21.9289C22.3835 24.1431 22.8195 23.9625 23.141 23.641C23.4625 23.3195 23.6431 22.8835 23.6431 22.4289V12.1431C23.6431 11.6885 23.4625 11.2524 23.141 10.931C22.8195 10.6095 22.3835 10.4289 21.9289 10.4289ZM12.0717 1.85742H4.35742L5.06028 4.63456C5.1031 4.82044 5.2079 4.98621 5.35745 5.1046C5.507 5.223 5.6924 5.28697 5.88314 5.28599H10.546C10.7367 5.28697 10.9221 5.223 11.0717 5.1046C11.2212 4.98621 11.326 4.82044 11.3689 4.63456L12.0717 1.85742Z"
        stroke="#9CA3AF" stroke-width="1.8" stroke-linecap="round" stroke-linejoin="round" />
</svg>