<svg xmlns="http://www.w3.org/2000/svg" viewBox="0 0 1080 1080">
    <defs>

    </defs>
    <g className="cls-1">
        <g id="Layer_1" data-name="Layer 1">
            <polygon className="cls-2" points="696.75 378.19 696.75 701.81 556.42 565.11 556.42 378.19 696.75 378.19" />
            <path className="cls-2"
                d="M356,378.19V583.46c-6.64-51.2-49.67-90.71-101.76-90.71H118.49c-.3-3.3-.46-6.65-.46-10,0-57.72,45.15-104.53,100.83-104.53Z" />
            <path className="cls-2"
                d="M962,538.57C962,627.13,891.62,699,804.84,699H708.21V378.19h96.63C891.62,378.19,962,450,962,538.57Z" />
            <path className="cls-2"
                d="M356.84,597.28c0,57.72-46,104.53-102.65,104.53H118.24V492.75h.25c4.87,53,48,94.5,100.37,94.5H356v-3.79A106.71,106.71,0,0,1,356.84,597.28Z" />
            <polygon className="cls-2" points="556.42 565.11 556.42 701.81 364.54 701.81 364.54 378.19 556.42 565.11" />
        </g>
    </g>
</svg>