<svg width="56" height="56" viewBox="0 0 56 56" fill="none" xmlns="http://www.w3.org/2000/svg">
<circle cx="28" cy="28" r="28" fill="#F4F7FE"/>
<path d="M41.7915 21.8538C41.7915 20.0913 41.0913 18.4009 39.845 17.1545C38.5986 15.9082 36.9083 15.208 35.1457 15.208C33.3831 15.208 31.6927 15.9082 30.4464 17.1545C29.2 18.4009 28.4998 20.0913 28.4998 21.8538C28.4998 23.6164 29.2 25.3068 30.4464 26.5532C31.6927 27.7995 33.3831 28.4997 35.1457 28.4997C36.9083 28.4997 38.5986 27.7995 39.845 26.5532C41.0913 25.3068 41.7915 23.6164 41.7915 21.8538ZM35.7498 22.458L35.751 25.4837C35.751 25.6439 35.6874 25.7976 35.5741 25.9109C35.4608 26.0242 35.3071 26.0878 35.1469 26.0878C34.9866 26.0878 34.833 26.0242 34.7197 25.9109C34.6064 25.7976 34.5427 25.6439 34.5427 25.4837V22.458H31.5158C31.3556 22.458 31.2019 22.3944 31.0886 22.2811C30.9753 22.1677 30.9117 22.0141 30.9117 21.8538C30.9117 21.6936 30.9753 21.5399 31.0886 21.4266C31.2019 21.3133 31.3556 21.2497 31.5158 21.2497H34.5415V18.2288C34.5415 18.0686 34.6052 17.9149 34.7185 17.8016C34.8318 17.6883 34.9854 17.6247 35.1457 17.6247C35.3059 17.6247 35.4596 17.6883 35.5729 17.8016C35.6862 17.9149 35.7498 18.0686 35.7498 18.2288V21.2497H38.767C38.9273 21.2497 39.081 21.3133 39.1943 21.4266C39.3076 21.5399 39.3712 21.6936 39.3712 21.8538C39.3712 22.0141 39.3076 22.1677 39.1943 22.2811C39.081 22.3944 38.9273 22.458 38.767 22.458H35.7498ZM38.7791 33.6363L38.7767 28.8199C39.4397 28.4736 40.05 28.0346 40.5892 27.5161L40.5916 33.6351C40.5918 33.992 40.5217 34.3454 40.3852 34.6751C40.2488 35.0049 40.0488 35.3046 39.7965 35.557C39.5443 35.8095 39.2448 36.0098 38.9152 36.1465C38.5855 36.2832 38.2322 36.3537 37.8753 36.3538H35.7498V37.8643C35.7498 38.5853 35.4634 39.2768 34.9535 39.7867C34.4437 40.2966 33.7521 40.583 33.0311 40.583H23.9686C23.2475 40.583 22.556 40.2966 22.0461 39.7867C21.5363 39.2768 21.2498 38.5853 21.2498 37.8643V36.3538H19.1353C18.4142 36.3538 17.7227 36.0674 17.2128 35.5575C16.7029 35.0477 16.4165 34.3561 16.4165 33.6351V26.3899C16.4165 25.3484 16.8302 24.3495 17.5667 23.6131C18.3032 22.8766 19.3021 22.4628 20.3436 22.4628L21.2486 22.4616L21.2498 21.5518C21.2498 20.8307 21.5363 20.1392 22.0461 19.6293C22.556 19.1194 23.2475 18.833 23.9686 18.833H27.8933C27.6507 19.4144 27.4795 20.023 27.3833 20.6455H23.9686C23.7282 20.6455 23.4977 20.741 23.3278 20.9109C23.1578 21.0809 23.0623 21.3114 23.0623 21.5518L23.0611 22.4616H27.3145C27.3628 23.09 27.4836 23.6966 27.6721 24.2741H20.3436C19.7828 24.2741 19.2449 24.4969 18.8484 24.8935C18.4518 25.29 18.229 25.8279 18.229 26.3887V33.6351C18.229 34.1353 18.635 34.5413 19.1353 34.5413H21.2498V32.4268C21.2498 31.7057 21.5363 31.0142 22.0461 30.5043C22.556 29.9944 23.2475 29.708 23.9686 29.708H33.0311C33.7521 29.708 34.4437 29.9944 34.9535 30.5043C35.4634 31.0142 35.7498 31.7057 35.7498 32.4268V34.5413H37.9043C38.1391 34.5335 38.3616 34.4347 38.5248 34.2658C38.6881 34.0969 38.7793 33.8712 38.7791 33.6363ZM33.9373 32.4268C33.9373 32.1864 33.8419 31.9559 33.6719 31.7859C33.5019 31.616 33.2714 31.5205 33.0311 31.5205H23.9686C23.7282 31.5205 23.4977 31.616 23.3278 31.7859C23.1578 31.9559 23.0623 32.1864 23.0623 32.4268V37.8643C23.0623 38.3645 23.4683 38.7705 23.9686 38.7705H33.0311C33.2714 38.7705 33.5019 38.675 33.6719 38.5051C33.8419 38.3351 33.9373 38.1046 33.9373 37.8643V32.4268Z" fill="url(#paint0_linear_3408_13556)"/>
<defs>
<linearGradient id="paint0_linear_3408_13556" x1="16.4165" y1="15.208" x2="41.7915" y2="40.583" gradientUnits="userSpaceOnUse">
<stop stop-color="#023E8A" stop-opacity="0.7"/>
<stop offset="0.723958" stop-color="#2684FF" stop-opacity="0.8"/>
</linearGradient>
</defs>
</svg>
