<svg width="56" height="56" viewBox="0 0 56 56" fill="none" xmlns="http://www.w3.org/2000/svg">
<circle cx="28" cy="28" r="28" fill="#F4F7FE"/>
<path d="M34.6667 27.3333C36.6116 27.3333 38.4769 28.106 39.8521 29.4812C41.2274 30.8565 42 32.7217 42 34.6667C42 36.6116 41.2274 38.4769 39.8521 39.8521C38.4769 41.2274 36.6116 42 34.6667 42C32.7217 42 30.8565 41.2274 29.4812 39.8521C28.106 38.4769 27.3333 36.6116 27.3333 34.6667C27.3333 32.7217 28.106 30.8565 29.4812 29.4812C30.8565 28.106 32.7217 27.3333 34.6667 27.3333ZM27.336 14C34.7 14 40.6707 19.9707 40.6707 27.336C40.6707 27.6867 40.6573 28.0347 40.6307 28.3787C40.0433 27.8213 39.3809 27.3487 38.6627 26.9747L38.668 27.2107L38.6573 26.7867C38.6236 26.072 38.5223 25.3622 38.3547 24.6667L38.336 24.668H33.8773C33.92 25.1147 33.9533 25.568 33.9747 26.028C33.2987 26.0805 32.6314 26.213 31.9867 26.4227C31.9667 25.8213 31.9253 25.236 31.8653 24.668H22.8067C22.5721 26.8884 22.6326 29.1301 22.9867 31.3347H26.664C26.3965 31.9762 26.2076 32.6478 26.1013 33.3347H23.4173C24.2147 36.2893 25.5533 38.3147 26.9573 38.628C27.3336 39.3597 27.8122 40.034 28.3787 40.6307C28.0347 40.6573 27.6853 40.6707 27.336 40.6707C19.9707 40.6707 14 34.7 14 27.336C14 19.9707 19.9707 14 27.336 14ZM34.6667 30L34.5467 30.0093C34.4135 30.0337 34.2908 30.098 34.1951 30.1937C34.0993 30.2895 34.035 30.4121 34.0107 30.5453L34 30.6667V34H30.664L30.544 34.0107C30.4108 34.035 30.2882 34.0993 30.1924 34.1951C30.0967 34.2908 30.0323 34.4135 30.008 34.5467L29.9973 34.6667L30.008 34.7867C30.0323 34.9199 30.0967 35.0425 30.1924 35.1383C30.2882 35.234 30.4108 35.2983 30.544 35.3227L30.664 35.3333H34V38.6707L34.0107 38.7907C34.035 38.9239 34.0993 39.0465 34.1951 39.1423C34.2908 39.238 34.4135 39.3023 34.5467 39.3267L34.6667 39.3373L34.7867 39.3267C34.9199 39.3023 35.0425 39.238 35.1383 39.1423C35.234 39.0465 35.2983 38.9239 35.3227 38.7907L35.3333 38.6707V35.3333L38.672 35.3347L38.792 35.324C38.9252 35.2997 39.0478 35.2353 39.1436 35.1396C39.2393 35.0438 39.3037 34.9212 39.328 34.788L39.3387 34.668L39.328 34.548C39.3036 34.4146 39.2391 34.2918 39.1431 34.1961C39.047 34.1003 38.9241 34.0361 38.7907 34.012L38.6707 34.0013H35.3333V30.668L35.3227 30.548C35.2986 30.4146 35.2344 30.2916 35.1386 30.1956C35.0428 30.0996 34.9201 30.0351 34.7867 30.0107L34.6667 30ZM21.3467 33.336H17.716C19.0038 35.3957 20.9172 36.989 23.176 37.8827C22.4027 36.6693 21.7787 35.1147 21.3467 33.336ZM16.316 24.6667L16.3107 24.6893C16.1038 25.5559 15.9995 26.4438 16 27.3347C16 28.7427 16.2573 30.0907 16.7267 31.3347H20.9573C20.7617 30.0104 20.6645 28.6734 20.6667 27.3347C20.6667 26.4227 20.7093 25.5293 20.7933 24.6667H16.336H16.316ZM23.1773 16.7867L23.1467 16.7973C20.4174 17.8867 18.2156 19.99 17.0027 22.6667H21.0667C21.484 20.3307 22.2133 18.296 23.1773 16.7867ZM27.336 15.9987L27.1813 16.0053C25.4947 16.16 23.864 18.8293 23.1067 22.6667H31.564C30.784 18.7133 29.0773 15.9987 27.336 15.9987ZM31.496 16.7867L31.6373 17.02C32.5307 18.5027 33.208 20.4493 33.604 22.6693H37.668C36.4506 19.9826 34.2372 17.8739 31.4947 16.788" fill="url(#paint0_linear_3408_13544)"/>
<defs>
<linearGradient id="paint0_linear_3408_13544" x1="14" y1="14" x2="42" y2="42" gradientUnits="userSpaceOnUse">
<stop stop-color="#023E8A" stop-opacity="0.7"/>
<stop offset="0.723958" stop-color="#2684FF" stop-opacity="0.8"/>
</linearGradient>
</defs>
</svg>
