<svg width="64" height="64" viewBox="0 0 64 64" fill="none" xmlns="http://www.w3.org/2000/svg">
<rect x="4" y="4" width="56" height="56" rx="28" fill="#E3EFFF" fill-opacity="0.7"/>
<rect x="4" y="4" width="56" height="56" rx="28" stroke="#F0F6FF" stroke-opacity="0.7" stroke-width="8"/>
<path d="M28.5 22.251H25.7501C25.0207 22.251 24.3213 22.5407 23.8056 23.0564C23.2898 23.5721 23.0001 24.2716 23.0001 25.0009V41.5007C23.0001 42.23 23.2898 42.9295 23.8056 43.4452C24.3213 43.9609 25.0207 44.2506 25.7501 44.2506H39.4999C40.2292 44.2506 40.9287 43.9609 41.4444 43.4452C41.9601 42.9295 42.2498 42.23 42.2498 41.5007V25.0009C42.2498 24.2716 41.9601 23.5721 41.4444 23.0564C40.9287 22.5407 40.2292 22.251 39.4999 22.251H36.7499" stroke="url(#paint0_linear_5238_12609)" stroke-width="1.3" stroke-linecap="round" stroke-linejoin="round"/>
<path d="M35.375 30.4998H31.9376C31.3906 30.4998 30.866 30.7171 30.4792 31.1039C30.0924 31.4907 29.8751 32.0153 29.8751 32.5623C29.8751 33.1093 30.0924 33.6339 30.4792 34.0207C30.866 34.4075 31.3906 34.6248 31.9376 34.6248H33.3125C33.8596 34.6248 34.3841 34.8421 34.7709 35.2289C35.1577 35.6156 35.375 36.1402 35.375 36.6872C35.375 37.2342 35.1577 37.7588 34.7709 38.1456C34.3841 38.5324 33.8596 38.7497 33.3125 38.7497H29.8751M32.6251 38.7497V40.1247M32.6251 29.1249V30.4998M28.5001 22.25C28.5001 21.5206 28.7898 20.8212 29.3056 20.3054C29.8213 19.7897 30.5207 19.5 31.2501 19.5H34C34.7294 19.5 35.4288 19.7897 35.9446 20.3054C36.4603 20.8212 36.75 21.5206 36.75 22.25C36.75 22.9793 36.4603 23.6788 35.9446 24.1945C35.4288 24.7102 34.7294 24.9999 34 24.9999H31.2501C30.5207 24.9999 29.8213 24.7102 29.3056 24.1945C28.7898 23.6788 28.5001 22.9793 28.5001 22.25Z" stroke="url(#paint1_linear_5238_12609)" stroke-width="1.3" stroke-linecap="round" stroke-linejoin="round"/>
<defs>
<linearGradient id="paint0_linear_5238_12609" x1="23.0001" y1="22.251" x2="44.8051" y2="41.3303" gradientUnits="userSpaceOnUse">
<stop stop-color="#023E8A" stop-opacity="0.7"/>
<stop offset="0.723958" stop-color="#2684FF" stop-opacity="0.8"/>
</linearGradient>
<linearGradient id="paint1_linear_5238_12609" x1="28.5001" y1="19.5" x2="42.724" y2="25.1896" gradientUnits="userSpaceOnUse">
<stop stop-color="#023E8A" stop-opacity="0.7"/>
<stop offset="0.723958" stop-color="#2684FF" stop-opacity="0.8"/>
</linearGradient>
</defs>
</svg>
