<svg width="48" height="48" viewBox="0 0 48 48" fill="none" xmlns="http://www.w3.org/2000/svg">
    <rect width="48" height="48" rx="16" fill="#F4F7FE" />
    <g clip-path="url(#clip0_4712_32604)">
        <path
            d="M22.5 32C22.5 32.3978 22.658 32.7794 22.9393 33.0607C23.2206 33.342 23.6022 33.5 24 33.5C24.3978 33.5 24.7794 33.342 25.0607 33.0607C25.342 32.7794 25.5 32.3978 25.5 32V25.5H32C32.3978 25.5 32.7794 25.342 33.0607 25.0607C33.342 24.7794 33.5 24.3978 33.5 24C33.5 23.6022 33.342 23.2206 33.0607 22.9393C32.7794 22.658 32.3978 22.5 32 22.5H25.5V16C25.5 15.6022 25.342 15.2206 25.0607 14.9393C24.7794 14.658 24.3978 14.5 24 14.5C23.6022 14.5 23.2206 14.658 22.9393 14.9393C22.658 15.2206 22.5 15.6022 22.5 16V22.5H16C15.6022 22.5 15.2206 22.658 14.9393 22.9393C14.658 23.2206 14.5 23.6022 14.5 24C14.5 24.3978 14.658 24.7794 14.9393 25.0607C15.2206 25.342 15.6022 25.5 16 25.5H22.5V32Z"
            fill="#023E8A" fill-opacity="0.7" />
    </g>
    <defs>
        <clipPath id="clip0_4712_32604">
            <rect width="24" height="24" fill="white" transform="translate(12 12)" />
        </clipPath>
    </defs>
</svg>