<svg width="57" height="56" viewBox="0 0 57 56" fill="none" xmlns="http://www.w3.org/2000/svg">
    <circle cx="28.25" cy="28" r="28" fill="#F4F7FE" />
    <path
        d="M40 29.998H30V39.998C30 40.5285 29.7893 41.0372 29.4142 41.4123C29.0391 41.7873 28.5304 41.998 28 41.998C27.4696 41.998 26.9609 41.7873 26.5858 41.4123C26.2107 41.0372 26 40.5285 26 39.998V29.998H16C15.4696 29.998 14.9609 29.7873 14.5858 29.4123C14.2107 29.0372 14 28.5285 14 27.998C14 27.4676 14.2107 26.9589 14.5858 26.5838C14.9609 26.2088 15.4696 25.998 16 25.998H26V15.998C26 15.4676 26.2107 14.9589 26.5858 14.5838C26.9609 14.2088 27.4696 13.998 28 13.998C28.5304 13.998 29.0391 14.2088 29.4142 14.5838C29.7893 14.9589 30 15.4676 30 15.998V25.998H40C40.5304 25.998 41.0391 26.2088 41.4142 26.5838C41.7893 26.9589 42 27.4676 42 27.998C42 28.5285 41.7893 29.0372 41.4142 29.4123C41.0391 29.7873 40.5304 29.998 40 29.998Z"
        fill="url(#paint0_linear_4712_32384)" />
    <defs>
        <linearGradient id="paint0_linear_4712_32384" x1="14" y1="13.998" x2="42" y2="41.998"
            gradientUnits="userSpaceOnUse">
            <stop stop-color="#023E8A" stop-opacity="0.7" />
            <stop offset="0.723958" stop-color="#2684FF" stop-opacity="0.8" />
        </linearGradient>
    </defs>
</svg>