<svg width="19" height="20" viewBox="0 0 19 20" fill="none" xmlns="http://www.w3.org/2000/svg">
<path d="M7.5 3.21429V3.57143H11.0714V3.21429C11.0714 2.74068 10.8833 2.28648 10.5484 1.9516C10.2135 1.61671 9.75932 1.42857 9.28571 1.42857C8.81211 1.42857 8.35791 1.61671 8.02302 1.9516C7.68814 2.28648 7.5 2.74068 7.5 3.21429ZM6.07143 3.57143V3.21429C6.07143 2.3618 6.41008 1.54424 7.01287 0.941442C7.61567 0.338647 8.43323 0 9.28571 0C10.1382 0 10.9558 0.338647 11.5586 0.941442C12.1614 1.54424 12.5 2.3618 12.5 3.21429V3.57143H17.8571C18.0466 3.57143 18.2283 3.64668 18.3622 3.78064C18.4962 3.91459 18.5714 4.09627 18.5714 4.28571C18.5714 4.47515 18.4962 4.65684 18.3622 4.79079C18.2283 4.92475 18.0466 5 17.8571 5H16.78L15.4286 16.8343C15.3289 17.7058 14.912 18.5102 14.2572 19.0941C13.6025 19.678 12.7558 20.0004 11.8786 20H6.69286C5.81562 20.0004 4.96891 19.678 4.31418 19.0941C3.65945 18.5102 3.24251 17.7058 3.14286 16.8343L1.79143 5H0.714286C0.524845 5 0.343164 4.92475 0.209209 4.79079C0.0752549 4.65684 0 4.47515 0 4.28571C0 4.09627 0.0752549 3.91459 0.209209 3.78064C0.343164 3.64668 0.524845 3.57143 0.714286 3.57143H6.07143ZM4.56286 16.6714C4.62249 17.1942 4.8724 17.6768 5.26494 18.0272C5.65749 18.3776 6.16524 18.5713 6.69143 18.5714H11.8793C12.4055 18.5713 12.9132 18.3776 13.3058 18.0272C13.6983 17.6768 13.9482 17.1942 14.0079 16.6714L15.3429 5H3.22929L4.56286 16.6714ZM7.14286 7.5C7.3323 7.5 7.51398 7.57526 7.64793 7.70921C7.78189 7.84316 7.85714 8.02485 7.85714 8.21429V15.3571C7.85714 15.5466 7.78189 15.7283 7.64793 15.8622C7.51398 15.9962 7.3323 16.0714 7.14286 16.0714C6.95342 16.0714 6.77174 15.9962 6.63778 15.8622C6.50383 15.7283 6.42857 15.5466 6.42857 15.3571V8.21429C6.42857 8.02485 6.50383 7.84316 6.63778 7.70921C6.77174 7.57526 6.95342 7.5 7.14286 7.5ZM12.1429 8.21429C12.1429 8.02485 12.0676 7.84316 11.9336 7.70921C11.7997 7.57526 11.618 7.5 11.4286 7.5C11.2391 7.5 11.0574 7.57526 10.9235 7.70921C10.7895 7.84316 10.7143 8.02485 10.7143 8.21429V15.3571C10.7143 15.5466 10.7895 15.7283 10.9235 15.8622C11.0574 15.9962 11.2391 16.0714 11.4286 16.0714C11.618 16.0714 11.7997 15.9962 11.9336 15.8622C12.0676 15.7283 12.1429 15.5466 12.1429 15.3571V8.21429Z" fill="white"/>
<path d="M7.5 3.21429V3.57143H11.0714V3.21429C11.0714 2.74068 10.8833 2.28648 10.5484 1.9516C10.2135 1.61671 9.75932 1.42857 9.28571 1.42857C8.81211 1.42857 8.35791 1.61671 8.02302 1.9516C7.68814 2.28648 7.5 2.74068 7.5 3.21429ZM6.07143 3.57143V3.21429C6.07143 2.3618 6.41008 1.54424 7.01287 0.941442C7.61567 0.338647 8.43323 0 9.28571 0C10.1382 0 10.9558 0.338647 11.5586 0.941442C12.1614 1.54424 12.5 2.3618 12.5 3.21429V3.57143H17.8571C18.0466 3.57143 18.2283 3.64668 18.3622 3.78064C18.4962 3.91459 18.5714 4.09627 18.5714 4.28571C18.5714 4.47515 18.4962 4.65684 18.3622 4.79079C18.2283 4.92475 18.0466 5 17.8571 5H16.78L15.4286 16.8343C15.3289 17.7058 14.912 18.5102 14.2572 19.0941C13.6025 19.678 12.7558 20.0004 11.8786 20H6.69286C5.81562 20.0004 4.96891 19.678 4.31418 19.0941C3.65945 18.5102 3.24251 17.7058 3.14286 16.8343L1.79143 5H0.714286C0.524845 5 0.343164 4.92475 0.209209 4.79079C0.0752549 4.65684 0 4.47515 0 4.28571C0 4.09627 0.0752549 3.91459 0.209209 3.78064C0.343164 3.64668 0.524845 3.57143 0.714286 3.57143H6.07143ZM4.56286 16.6714C4.62249 17.1942 4.8724 17.6768 5.26494 18.0272C5.65749 18.3776 6.16524 18.5713 6.69143 18.5714H11.8793C12.4055 18.5713 12.9132 18.3776 13.3058 18.0272C13.6983 17.6768 13.9482 17.1942 14.0079 16.6714L15.3429 5H3.22929L4.56286 16.6714ZM7.14286 7.5C7.3323 7.5 7.51398 7.57526 7.64793 7.70921C7.78189 7.84316 7.85714 8.02485 7.85714 8.21429V15.3571C7.85714 15.5466 7.78189 15.7283 7.64793 15.8622C7.51398 15.9962 7.3323 16.0714 7.14286 16.0714C6.95342 16.0714 6.77174 15.9962 6.63778 15.8622C6.50383 15.7283 6.42857 15.5466 6.42857 15.3571V8.21429C6.42857 8.02485 6.50383 7.84316 6.63778 7.70921C6.77174 7.57526 6.95342 7.5 7.14286 7.5ZM12.1429 8.21429C12.1429 8.02485 12.0676 7.84316 11.9336 7.70921C11.7997 7.57526 11.618 7.5 11.4286 7.5C11.2391 7.5 11.0574 7.57526 10.9235 7.70921C10.7895 7.84316 10.7143 8.02485 10.7143 8.21429V15.3571C10.7143 15.5466 10.7895 15.7283 10.9235 15.8622C11.0574 15.9962 11.2391 16.0714 11.4286 16.0714C11.618 16.0714 11.7997 15.9962 11.9336 15.8622C12.0676 15.7283 12.1429 15.5466 12.1429 15.3571V8.21429Z" fill="#FF0000" fill-opacity="0.6"/>
</svg>
