<svg width="16" height="15" viewBox="0 0 16 15" fill="none" xmlns="http://www.w3.org/2000/svg">
<path d="M14.7223 6.72351H14.7216C14.6197 6.7236 14.5189 6.74375 14.4248 6.78282C14.3307 6.82189 14.2452 6.8791 14.1732 6.95121C14.1013 7.02331 14.0442 7.10888 14.0053 7.20304C13.9664 7.2972 13.9464 7.3981 13.9465 7.49998C13.9455 8.58761 13.6464 9.65417 13.0817 10.5837C12.517 11.5133 11.7084 12.2703 10.7436 12.7724C9.7788 13.2745 8.69484 13.5026 7.60952 13.4318C6.52419 13.361 5.47903 12.9941 4.58764 12.3709C1.90147 10.49 1.24628 6.77436 3.12719 4.08816C5.00809 1.40195 8.72377 0.746698 11.4099 2.62767C11.8163 2.91148 12.1857 3.24496 12.5094 3.62035H10.3262C10.1204 3.62035 9.92308 3.70209 9.7776 3.84758C9.63211 3.99307 9.55037 4.19039 9.55037 4.39614C9.55037 4.6019 9.63211 4.79922 9.7776 4.94471C9.92308 5.0902 10.1204 5.17193 10.3262 5.17193H13.9465C14.1523 5.17193 14.3496 5.0902 14.4951 4.94471C14.6406 4.79922 14.7223 4.6019 14.7223 4.39614V0.77579C14.7223 0.570038 14.6406 0.372713 14.4951 0.227224C14.3496 0.0817348 14.1523 0 13.9465 0C13.7408 0 13.5434 0.0817348 13.3979 0.227224C13.2525 0.372713 13.1707 0.570038 13.1707 0.77579V2.06771C12.8985 1.8094 12.6074 1.5717 12.2999 1.35657C11.4932 0.791738 10.5832 0.391326 9.62181 0.178191C8.66039 -0.0349445 7.66642 -0.0566287 6.69663 0.114376C5.72683 0.285381 4.80022 0.645727 3.96969 1.17484C3.13916 1.70395 2.42098 2.39146 1.85615 3.19813C0.71543 4.82726 0.268601 6.84282 0.613961 8.80141C0.959321 10.76 2.06858 12.5012 3.69771 13.6419C4.95202 14.5254 6.44867 14.9997 7.98289 15C8.42478 14.9998 8.86581 14.961 9.30095 14.8841C11.0372 14.5778 12.6101 13.6696 13.7434 12.319C14.8767 10.9684 15.498 9.26172 15.4981 7.49863C15.4979 7.293 15.4161 7.09585 15.2706 6.95051C15.1252 6.80517 14.928 6.72352 14.7223 6.72351Z" fill="white"/>
<path d="M14.7223 6.72351H14.7216C14.6197 6.7236 14.5189 6.74375 14.4248 6.78282C14.3307 6.82189 14.2452 6.8791 14.1732 6.95121C14.1013 7.02331 14.0442 7.10888 14.0053 7.20304C13.9664 7.2972 13.9464 7.3981 13.9465 7.49998C13.9455 8.58761 13.6464 9.65417 13.0817 10.5837C12.517 11.5133 11.7084 12.2703 10.7436 12.7724C9.7788 13.2745 8.69484 13.5026 7.60952 13.4318C6.52419 13.361 5.47903 12.9941 4.58764 12.3709C1.90147 10.49 1.24628 6.77436 3.12719 4.08816C5.00809 1.40195 8.72377 0.746698 11.4099 2.62767C11.8163 2.91148 12.1857 3.24496 12.5094 3.62035H10.3262C10.1204 3.62035 9.92308 3.70209 9.7776 3.84758C9.63211 3.99307 9.55037 4.19039 9.55037 4.39614C9.55037 4.6019 9.63211 4.79922 9.7776 4.94471C9.92308 5.0902 10.1204 5.17193 10.3262 5.17193H13.9465C14.1523 5.17193 14.3496 5.0902 14.4951 4.94471C14.6406 4.79922 14.7223 4.6019 14.7223 4.39614V0.77579C14.7223 0.570038 14.6406 0.372713 14.4951 0.227224C14.3496 0.0817348 14.1523 0 13.9465 0C13.7408 0 13.5434 0.0817348 13.3979 0.227224C13.2525 0.372713 13.1707 0.570038 13.1707 0.77579V2.06771C12.8985 1.8094 12.6074 1.5717 12.2999 1.35657C11.4932 0.791738 10.5832 0.391326 9.62181 0.178191C8.66039 -0.0349445 7.66642 -0.0566287 6.69663 0.114376C5.72683 0.285381 4.80022 0.645727 3.96969 1.17484C3.13916 1.70395 2.42098 2.39146 1.85615 3.19813C0.71543 4.82726 0.268601 6.84282 0.613961 8.80141C0.959321 10.76 2.06858 12.5012 3.69771 13.6419C4.95202 14.5254 6.44867 14.9997 7.98289 15C8.42478 14.9998 8.86581 14.961 9.30095 14.8841C11.0372 14.5778 12.6101 13.6696 13.7434 12.319C14.8767 10.9684 15.498 9.26172 15.4981 7.49863C15.4979 7.293 15.4161 7.09585 15.2706 6.95051C15.1252 6.80517 14.928 6.72352 14.7223 6.72351Z" fill="#FF0000" fill-opacity="0.6"/>
</svg>
