<svg width="56" height="56" viewBox="0 0 56 56" fill="none" xmlns="http://www.w3.org/2000/svg">
<circle cx="28" cy="28" r="28" fill="#F4F7FE"/>
<g clip-path="url(#clip0_5083_10702)">
<path d="M44 36.5781V44H36V40H32V36H28V32.7656C27.2292 33.1719 26.4219 33.4792 25.5781 33.6875C24.7344 33.8958 23.875 34 23 34C21.9896 34 21.0156 33.8698 20.0781 33.6094C19.1406 33.349 18.2656 32.9792 17.4531 32.5C16.6406 32.0208 15.901 31.4479 15.2344 30.7812C14.5677 30.1146 13.9896 29.3698 13.5 28.5469C13.0104 27.724 12.6406 26.849 12.3906 25.9219C12.1406 24.9948 12.0104 24.0208 12 23C12 21.9896 12.1302 21.0156 12.3906 20.0781C12.651 19.1406 13.0208 18.2656 13.5 17.4531C13.9792 16.6406 14.5521 15.901 15.2188 15.2344C15.8854 14.5677 16.6302 13.9896 17.4531 13.5C18.276 13.0104 19.151 12.6406 20.0781 12.3906C21.0052 12.1406 21.9792 12.0104 23 12C24.0104 12 24.9844 12.1302 25.9219 12.3906C26.8594 12.651 27.7344 13.0208 28.5469 13.5C29.3594 13.9792 30.099 14.5521 30.7656 15.2188C31.4323 15.8854 32.0104 16.6302 32.5 17.4531C32.9896 18.276 33.3594 19.151 33.6094 20.0781C33.8594 21.0052 33.9896 21.9792 34 23C34 23.5312 33.9583 24.0573 33.875 24.5781C33.7917 25.099 33.6719 25.6094 33.5156 26.1094L44 36.5781ZM42 37.4219L31.2188 26.6406C31.4479 26.0469 31.6354 25.4531 31.7812 24.8594C31.9271 24.2656 32 23.6458 32 23C32 21.7604 31.7656 20.5938 31.2969 19.5C30.8281 18.4062 30.1823 17.4531 29.3594 16.6406C28.5365 15.8281 27.5833 15.1875 26.5 14.7188C25.4167 14.25 24.25 14.0104 23 14C21.7604 14 20.5938 14.2344 19.5 14.7031C18.4062 15.1719 17.4531 15.8177 16.6406 16.6406C15.8281 17.4635 15.1875 18.4167 14.7188 19.5C14.25 20.5833 14.0104 21.75 14 23C14 24.2396 14.2344 25.4062 14.7031 26.5C15.1719 27.5938 15.8177 28.5469 16.6406 29.3594C17.4635 30.1719 18.4167 30.8125 19.5 31.2812C20.5833 31.75 21.75 31.9896 23 32C24.0104 32 25 31.8281 25.9688 31.4844C26.9375 31.1406 27.8177 30.6458 28.6094 30H30V34H34V38H38V42H42V37.4219ZM20 18C20.2812 18 20.5417 18.0521 20.7812 18.1562C21.0208 18.2604 21.2292 18.401 21.4062 18.5781C21.5833 18.7552 21.7292 18.9688 21.8438 19.2188C21.9583 19.4688 22.0104 19.7292 22 20C22 20.2812 21.9479 20.5417 21.8438 20.7812C21.7396 21.0208 21.599 21.2292 21.4219 21.4062C21.2448 21.5833 21.0312 21.7292 20.7812 21.8438C20.5312 21.9583 20.2708 22.0104 20 22C19.7188 22 19.4583 21.9479 19.2188 21.8438C18.9792 21.7396 18.7708 21.599 18.5938 21.4219C18.4167 21.2448 18.2708 21.0312 18.1562 20.7812C18.0417 20.5312 17.9896 20.2708 18 20C18 19.7188 18.0521 19.4583 18.1562 19.2188C18.2604 18.9792 18.401 18.7708 18.5781 18.5938C18.7552 18.4167 18.9688 18.2708 19.2188 18.1562C19.4688 18.0417 19.7292 17.9896 20 18Z" fill="url(#paint0_linear_5083_10702)"/>
</g>
<defs>
<linearGradient id="paint0_linear_5083_10702" x1="12" y1="12" x2="44" y2="44" gradientUnits="userSpaceOnUse">
<stop stop-color="#023E8A" stop-opacity="0.7"/>
<stop offset="0.723958" stop-color="#2684FF" stop-opacity="0.8"/>
</linearGradient>
<clipPath id="clip0_5083_10702">
<rect width="32" height="32" fill="white" transform="translate(12 12)"/>
</clipPath>
</defs>
</svg>
