<svg width="56" height="56" viewBox="0 0 56 56" fill="none" xmlns="http://www.w3.org/2000/svg">
<circle cx="28" cy="28" r="28" fill="#F4F7FE"/>
<path d="M13.0715 18.1606C13.0715 16.8108 13.6077 15.5163 14.5622 14.5619C15.5166 13.6075 16.8111 13.0713 18.1608 13.0713H37.8394C39.1892 13.0713 40.4836 13.6075 41.4381 14.5619C42.3925 15.5163 42.9287 16.8108 42.9287 18.1606V28.6784C42.2985 28.2045 41.6154 27.8055 40.893 27.4896V18.1606C40.893 17.3507 40.5712 16.574 39.9986 16.0014C39.4259 15.4287 38.6493 15.107 37.8394 15.107H18.1608C17.351 15.107 16.5743 15.4287 16.0016 16.0014C15.429 16.574 15.1072 17.3507 15.1072 18.1606V37.8391C15.1072 38.649 15.429 39.4257 16.0016 39.9983C16.5743 40.571 17.351 40.8927 18.1608 40.8927H27.4898C27.8074 41.6188 28.2077 42.3014 28.6773 42.9284H18.1608C16.8111 42.9284 15.5166 42.3922 14.5622 41.4378C13.6077 40.4834 13.0715 39.1889 13.0715 37.8391V18.1606ZM37.8394 26.6427C38.1093 26.6427 38.3682 26.5355 38.5591 26.3446C38.75 26.1537 38.8572 25.8948 38.8572 25.6249C38.8572 25.3549 38.75 25.096 38.5591 24.9051C38.3682 24.7142 38.1093 24.607 37.8394 24.607H27.6608C27.3909 24.607 27.132 24.7142 26.9411 24.9051C26.7502 25.096 26.643 25.3549 26.643 25.6249C26.643 25.8948 26.7502 26.1537 26.9411 26.3446C27.132 26.5355 27.3909 26.6427 27.6608 26.6427H37.8394ZM17.143 18.8391C17.143 18.5692 17.2502 18.3103 17.4411 18.1194C17.632 17.9285 17.8909 17.8213 18.1608 17.8213H37.8394C38.1093 17.8213 38.3682 17.9285 38.5591 18.1194C38.75 18.3103 38.8572 18.5692 38.8572 18.8391C38.8572 19.1091 38.75 19.368 38.5591 19.5589C38.3682 19.7498 38.1093 19.857 37.8394 19.857H18.1608C17.8909 19.857 17.632 19.7498 17.4411 19.5589C17.2502 19.368 17.143 19.1091 17.143 18.8391ZM20.5358 22.5713C19.636 22.5713 18.773 22.9288 18.1367 23.565C17.5004 24.2013 17.143 25.0643 17.143 25.9641C17.143 26.864 17.5004 27.727 18.1367 28.3633C18.773 28.9995 19.636 29.357 20.5358 29.357C21.4357 29.357 22.2986 28.9995 22.9349 28.3633C23.5712 27.727 23.9287 26.864 23.9287 25.9641C23.9287 25.0643 23.5712 24.2013 22.9349 23.565C22.2986 22.9288 21.4357 22.5713 20.5358 22.5713ZM19.1787 25.9641C19.1787 25.6042 19.3217 25.259 19.5762 25.0045C19.8307 24.75 20.1759 24.607 20.5358 24.607C20.8958 24.607 21.241 24.75 21.4955 25.0045C21.75 25.259 21.893 25.6042 21.893 25.9641C21.893 26.3241 21.75 26.6693 21.4955 26.9238C21.241 27.1783 20.8958 27.3213 20.5358 27.3213C20.1759 27.3213 19.8307 27.1783 19.5762 26.9238C19.3217 26.6693 19.1787 26.3241 19.1787 25.9641ZM17.143 35.4641C17.143 34.5643 17.5004 33.7013 18.1367 33.065C18.773 32.4288 19.636 32.0713 20.5358 32.0713C21.4357 32.0713 22.2986 32.4288 22.9349 33.065C23.5712 33.7013 23.9287 34.5643 23.9287 35.4641C23.9287 36.364 23.5712 37.227 22.9349 37.8633C22.2986 38.4995 21.4357 38.857 20.5358 38.857C19.636 38.857 18.773 38.4995 18.1367 37.8633C17.5004 37.227 17.143 36.364 17.143 35.4641ZM20.5358 34.107C20.1759 34.107 19.8307 34.25 19.5762 34.5045C19.3217 34.759 19.1787 35.1042 19.1787 35.4641C19.1787 35.8241 19.3217 36.1693 19.5762 36.4238C19.8307 36.6783 20.1759 36.8213 20.5358 36.8213C20.8958 36.8213 21.241 36.6783 21.4955 36.4238C21.75 36.1693 21.893 35.8241 21.893 35.4641C21.893 35.1042 21.75 34.759 21.4955 34.5045C21.241 34.25 20.8958 34.107 20.5358 34.107ZM45.643 36.8213C45.643 39.1609 44.7136 41.4046 43.0592 43.059C41.4049 44.7133 39.1611 45.6427 36.8215 45.6427C34.4819 45.6427 32.2382 44.7133 30.5838 43.059C28.9295 41.4046 28.0001 39.1609 28.0001 36.8213C28.0001 34.4817 28.9295 32.2379 30.5838 30.5836C32.2382 28.9293 34.4819 27.9999 36.8215 27.9999C39.1611 27.9999 41.4049 28.9293 43.0592 30.5836C44.7136 32.2379 45.643 34.4817 45.643 36.8213ZM37.5001 31.3927C37.5001 31.2127 37.4286 31.0402 37.3014 30.9129C37.1741 30.7856 37.0015 30.7141 36.8215 30.7141C36.6416 30.7141 36.469 30.7856 36.3417 30.9129C36.2145 31.0402 36.143 31.2127 36.143 31.3927V36.1427H31.393C31.213 36.1427 31.0404 36.2142 30.9131 36.3415C30.7859 36.4687 30.7144 36.6413 30.7144 36.8213C30.7144 37.0013 30.7859 37.1739 30.9131 37.3011C31.0404 37.4284 31.213 37.4999 31.393 37.4999H36.143V42.2499C36.143 42.4298 36.2145 42.6024 36.3417 42.7297C36.469 42.8569 36.6416 42.9284 36.8215 42.9284C37.0015 42.9284 37.1741 42.8569 37.3014 42.7297C37.4286 42.6024 37.5001 42.4298 37.5001 42.2499V37.4999H42.2501C42.4301 37.4999 42.6027 37.4284 42.7299 37.3011C42.8572 37.1739 42.9287 37.0013 42.9287 36.8213C42.9287 36.6413 42.8572 36.4687 42.7299 36.3415C42.6027 36.2142 42.4301 36.1427 42.2501 36.1427H37.5001V31.3927Z" fill="url(#paint0_linear_5083_10686)"/>
<defs>
<linearGradient id="paint0_linear_5083_10686" x1="13.0715" y1="13.0713" x2="45.643" y2="45.6427" gradientUnits="userSpaceOnUse">
<stop stop-color="#023E8A" stop-opacity="0.7"/>
<stop offset="0.723958" stop-color="#2684FF" stop-opacity="0.8"/>
</linearGradient>
</defs>
</svg>
