<svg width="56" height="56" viewBox="0 0 56 56" fill="none" xmlns="http://www.w3.org/2000/svg">
<circle cx="28" cy="28" r="28" fill="#F4F7FE"/>
<path d="M27.5815 32.2957C29.0734 31.0417 30.1435 29.3592 30.6467 27.4764C31.1499 25.5936 31.0619 23.6015 30.3945 21.7705C29.7272 19.9394 28.5129 18.3578 26.9162 17.2403C25.3195 16.1228 23.4177 15.5234 21.4688 15.5234C19.5199 15.5234 17.6182 16.1228 16.0215 17.2403C14.4248 18.3578 13.2105 19.9394 12.5431 21.7705C11.8758 23.6015 11.7878 25.5936 12.291 27.4764C12.7942 29.3592 13.8643 31.0417 15.3562 32.2957C13.0266 33.349 11.0077 34.985 9.49439 37.0457C9.21488 37.4266 9.09812 37.9029 9.1698 38.3699C9.24148 38.8368 9.49573 39.2562 9.87662 39.5357C10.2575 39.8152 10.7338 39.932 11.2008 39.8603C11.6678 39.7886 12.0871 39.5344 12.3667 39.1535C13.4142 37.7227 14.7844 36.5591 16.3658 35.757C17.9473 34.9549 19.6956 34.5368 21.4688 34.5368C23.2421 34.5368 24.9904 34.9549 26.5719 35.757C28.1533 36.5591 29.5234 37.7227 30.571 39.1535C30.8505 39.5346 31.27 39.789 31.7371 39.8608C32.2042 39.9326 32.6807 39.816 33.0618 39.5365C33.4429 39.2569 33.6973 38.8375 33.7692 38.3704C33.841 37.9033 33.7243 37.4268 33.4448 37.0457C31.9305 34.9852 29.9113 33.3494 27.5815 32.2957ZM15.5313 25.0311C15.5313 23.8568 15.8796 22.7089 16.532 21.7324C17.1844 20.756 18.1117 19.995 19.1967 19.5456C20.2816 19.0962 21.4754 18.9786 22.6272 19.2077C23.779 19.4368 24.8369 20.0023 25.6673 20.8327C26.4977 21.6631 27.0632 22.721 27.2923 23.8728C27.5214 25.0246 27.4038 26.2184 26.9544 27.3033C26.505 28.3883 25.744 29.3156 24.7675 29.968C23.7911 30.6204 22.6432 30.9686 21.4688 30.9686C19.8941 30.9686 18.3839 30.3431 17.2704 29.2296C16.1569 28.1161 15.5313 26.6059 15.5313 25.0311ZM46.1243 39.529C45.9357 39.6676 45.7217 39.7677 45.4945 39.8235C45.2672 39.8793 45.0312 39.8898 44.7999 39.8544C44.5686 39.8189 44.3465 39.7383 44.1464 39.617C43.9463 39.4957 43.772 39.3362 43.6335 39.1476C42.5834 37.7195 41.2127 36.5579 39.6318 35.7561C38.0509 34.9543 36.3039 34.5348 34.5313 34.5311C34.0589 34.5311 33.6059 34.3435 33.2718 34.0094C32.9378 33.6754 32.7501 33.2223 32.7501 32.7499C32.7501 32.2775 32.9378 31.8244 33.2718 31.4904C33.6059 31.1563 34.0589 30.9686 34.5313 30.9686C35.4056 30.9676 36.2688 30.7735 37.0594 30.4003C37.8499 30.027 38.5483 29.4838 39.1046 28.8094C39.6609 28.135 40.0615 27.3461 40.2776 26.499C40.4937 25.6519 40.5201 24.7675 40.3549 23.909C40.1897 23.0505 39.8369 22.2391 39.3218 21.5328C38.8067 20.8264 38.142 20.2425 37.3751 19.8227C36.6082 19.403 35.7581 19.1578 34.8854 19.1046C34.0128 19.0515 33.1392 19.1917 32.327 19.5152C32.1095 19.6043 31.8764 19.6494 31.6414 19.648C31.4063 19.6466 31.1738 19.5987 30.9573 19.507C30.7409 19.4153 30.5447 19.2816 30.3801 19.1138C30.2155 18.9459 30.0858 18.7471 29.9984 18.5288C29.9111 18.3106 29.8678 18.0772 29.871 17.8421C29.8743 17.6071 29.924 17.375 30.0174 17.1592C30.1108 16.9435 30.2459 16.7484 30.4151 16.5851C30.5843 16.4218 30.7841 16.2937 31.003 16.208C33.0994 15.3687 35.4262 15.3035 37.5663 16.0243C39.7064 16.7451 41.5197 18.2046 42.6812 20.1412C43.8426 22.0778 44.2762 24.3649 43.9043 26.5922C43.5323 28.8195 42.3791 30.8415 40.6514 32.2957C42.981 33.349 44.9999 34.985 46.5132 37.0457C46.79 37.4269 46.9044 37.9022 46.8315 38.3677C46.7586 38.8331 46.5043 39.2507 46.1243 39.529Z" fill="url(#paint0_linear_5083_10694)"/>
<defs>
<linearGradient id="paint0_linear_5083_10694" x1="9.14917" y1="15.5234" x2="31.3541" y2="49.8944" gradientUnits="userSpaceOnUse">
<stop stop-color="#023E8A" stop-opacity="0.7"/>
<stop offset="0.723958" stop-color="#2684FF" stop-opacity="0.8"/>
</linearGradient>
</defs>
</svg>
