<svg width="56" height="56" viewBox="0 0 56 56" fill="none" xmlns="http://www.w3.org/2000/svg">
<circle cx="27.9985" cy="28" r="28" fill="#F4F7FE"/>
<path d="M17.7338 13.8824H32.6672C33.1622 13.8824 33.637 14.0807 33.9871 14.4337C34.3372 14.7867 34.5338 15.2655 34.5338 15.7647V25.2179C35.1654 25.2756 35.7903 25.3922 36.4005 25.5661V15.7647C36.4005 14.7662 36.0072 13.8087 35.307 13.1027C34.6069 12.3966 33.6573 12 32.6672 12H17.7338C16.7437 12 15.7941 12.3966 15.094 13.1027C14.3938 13.8087 14.0005 14.7662 14.0005 15.7647V38.3529C14.0005 39.3514 14.3938 40.309 15.094 41.015C15.7941 41.721 16.7437 42.1176 17.7338 42.1176H25.6802C25.2048 41.537 24.7936 40.9058 24.4538 40.2353H17.7338C17.2388 40.2353 16.764 40.037 16.4139 39.684C16.0638 39.331 15.8672 38.8522 15.8672 38.3529H23.7202C23.5475 37.7376 23.4319 37.1075 23.3749 36.4706H15.8672V15.7647C15.8672 15.2655 16.0638 14.7867 16.4139 14.4337C16.764 14.0807 17.2388 13.8824 17.7338 13.8824ZM19.6005 15.7647C19.1054 15.7647 18.6306 15.963 18.2806 16.316C17.9305 16.669 17.7338 17.1478 17.7338 17.6471V19.5294C17.7338 20.0286 17.9305 20.5074 18.2806 20.8604C18.6306 21.2134 19.1054 21.4118 19.6005 21.4118H30.8005C31.2956 21.4118 31.7704 21.2134 32.1204 20.8604C32.4705 20.5074 32.6672 20.0286 32.6672 19.5294V17.6471C32.6672 17.1478 32.4705 16.669 32.1204 16.316C31.7704 15.963 31.2956 15.7647 30.8005 15.7647H19.6005ZM30.8005 17.6471V19.5294H19.6005V17.6471H30.8005ZM42.0005 35.5294C42.0005 37.776 41.1155 39.9305 39.5402 41.519C37.9649 43.1076 35.8283 44 33.6005 44C31.3727 44 29.2361 43.1076 27.6608 41.519C26.0855 39.9305 25.2005 37.776 25.2005 35.5294C25.2005 33.2829 26.0855 31.1283 27.6608 29.5398C29.2361 27.9513 31.3727 27.0588 33.6005 27.0588C35.8283 27.0588 37.9649 27.9513 39.5402 29.5398C41.1155 31.1283 42.0005 33.2829 42.0005 35.5294ZM32.7045 31.8287C32.5834 31.7449 32.4428 31.6944 32.2965 31.6822C32.1501 31.6699 32.0032 31.6964 31.8701 31.7591C31.7615 31.8073 31.6632 31.8763 31.5808 31.9624C31.4069 32.142 31.3097 32.3833 31.3101 32.6344V38.4226C31.3089 38.5474 31.3323 38.6711 31.3787 38.7868C31.4252 38.9024 31.4938 39.0077 31.5808 39.0965C31.666 39.1819 31.7651 39.2519 31.8738 39.3035C32.0632 39.391 32.2781 39.4045 32.4768 39.3412C32.5628 39.3126 32.6445 39.272 32.7194 39.2207L37.0053 36.2711C37.1357 36.1844 37.2407 36.0642 37.3096 35.9228C37.3805 35.7804 37.4169 35.6231 37.416 35.4638C37.415 35.3045 37.3766 35.1476 37.304 35.0061C37.231 34.8668 37.1236 34.7488 36.9922 34.6635L32.7045 31.8287Z" fill="url(#paint0_linear_5259_16590)"/>
<defs>
<linearGradient id="paint0_linear_5259_16590" x1="14.0005" y1="12" x2="45.7173" y2="39.7522" gradientUnits="userSpaceOnUse">
<stop stop-color="#023E8A" stop-opacity="0.7"/>
<stop offset="0.723958" stop-color="#2684FF" stop-opacity="0.8"/>
</linearGradient>
</defs>
</svg>
