<svg width="25" height="25" viewBox="0 0 25 25" fill="none" xmlns="http://www.w3.org/2000/svg">
<path d="M12.1463 1C13.4697 1 14.5589 2 14.6994 3.28571H16.7143C17.3659 3.28563 17.9932 3.53291 18.4694 3.97756C18.9457 4.42222 19.2354 5.0311 19.28 5.68114L19.2857 5.85714V11.4846C18.7239 11.3521 18.1486 11.2854 17.5714 11.2857V5.85714C17.5714 5.65001 17.4964 5.4499 17.3603 5.29379C17.2241 5.13769 17.0361 5.03617 16.8309 5.008L16.7143 5H14.2777C14.0429 5.34963 13.7257 5.63606 13.3539 5.83398C12.9822 6.03191 12.5674 6.13524 12.1463 6.13486H8.13943C7.71839 6.13537 7.3037 6.03221 6.93197 5.83449C6.56024 5.63676 6.24291 5.35056 6.008 5.00114L3.57143 5C3.3643 5.00001 3.16418 5.07502 3.00808 5.21116C2.85198 5.3473 2.75046 5.53537 2.72229 5.74057L2.71429 5.85714V21.2914C2.71429 21.7257 3.03657 22.0834 3.45486 22.1406L3.57143 22.1486H10.9829C11.3104 22.7757 11.7256 23.3529 12.216 23.8629H3.57143C2.91986 23.8629 2.29255 23.6157 1.81628 23.171C1.34002 22.7264 1.05031 22.1175 1.00571 21.4674L1 21.2914V5.85714C0.99992 5.20557 1.24719 4.57826 1.69185 4.102C2.13651 3.62573 2.74538 3.33603 3.39543 3.29143L3.57143 3.28571H5.58629C5.65579 2.65723 5.95473 2.07648 6.42584 1.65471C6.89695 1.23295 7.50711 0.999826 8.13943 1H12.1463ZM12.1463 2.71429H8.13943C7.91856 2.72237 7.70944 2.81579 7.55605 2.97491C7.40266 3.13402 7.31695 3.34642 7.31695 3.56743C7.31695 3.78844 7.40266 4.00084 7.55605 4.15995C7.70944 4.31906 7.91856 4.41249 8.13943 4.42057H12.1463C12.261 4.42477 12.3753 4.40581 12.4825 4.36483C12.5896 4.32384 12.6874 4.26167 12.77 4.18204C12.8526 4.1024 12.9183 4.00693 12.9632 3.90133C13.0081 3.79573 13.0312 3.68217 13.0312 3.56743C13.0312 3.45269 13.0081 3.33913 12.9632 3.23353C12.9183 3.12793 12.8526 3.03245 12.77 2.95282C12.6874 2.87318 12.5896 2.81102 12.4825 2.77003C12.3753 2.72905 12.261 2.71009 12.1463 2.71429ZM7 14.7097H11.3143C10.5475 15.9044 10.1408 17.2947 10.1429 18.7143C10.1429 19.1029 10.1726 19.4834 10.2297 19.856H10.1429C7.25371 19.856 5.57143 18.8171 5.57143 16.7063V16.1371C5.57143 15.3486 6.21143 14.7086 7 14.7086M10.1429 7.85143C10.9006 7.85143 11.6273 8.15245 12.1632 8.68827C12.699 9.22408 13 9.95081 13 10.7086C13 11.4663 12.699 12.1931 12.1632 12.7289C11.6273 13.2647 10.9006 13.5657 10.1429 13.5657C9.3851 13.5657 8.65837 13.2647 8.12255 12.7289C7.58673 12.1931 7.28571 11.4663 7.28571 10.7086C7.28571 9.95081 7.58673 9.22408 8.12255 8.68827C8.65837 8.15245 9.3851 7.85143 10.1429 7.85143ZM23.8571 18.7143C23.8571 17.0472 23.1949 15.4484 22.0161 14.2696C20.8373 13.0908 19.2385 12.4286 17.5714 12.4286C15.9044 12.4286 14.3056 13.0908 13.1268 14.2696C11.948 15.4484 11.2857 17.0472 11.2857 18.7143C11.2857 20.3814 11.948 21.9802 13.1268 23.159C14.3056 24.3378 15.9044 25 17.5714 25C19.2385 25 20.8373 24.3378 22.0161 23.159C23.1949 21.9802 23.8571 20.3814 23.8571 18.7143ZM18.1429 19.2857L18.144 22.1463C18.144 22.2978 18.0838 22.4432 17.9766 22.5503C17.8695 22.6575 17.7241 22.7177 17.5726 22.7177C17.421 22.7177 17.2757 22.6575 17.1685 22.5503C17.0613 22.4432 17.0011 22.2978 17.0011 22.1463V19.2857H14.1383C13.9867 19.2857 13.8414 19.2255 13.7342 19.1183C13.6271 19.0112 13.5669 18.8658 13.5669 18.7143C13.5669 18.5627 13.6271 18.4174 13.7342 18.3102C13.8414 18.2031 13.9867 18.1429 14.1383 18.1429H17V15.2857C17 15.1342 17.0602 14.9888 17.1674 14.8817C17.2745 14.7745 17.4199 14.7143 17.5714 14.7143C17.723 14.7143 17.8683 14.7745 17.9755 14.8817C18.0827 14.9888 18.1429 15.1342 18.1429 15.2857V18.1429H21.0034C21.155 18.1429 21.3003 18.2031 21.4075 18.3102C21.5147 18.4174 21.5749 18.5627 21.5749 18.7143C21.5749 18.8658 21.5147 19.0112 21.4075 19.1183C21.3003 19.2255 21.155 19.2857 21.0034 19.2857H18.1429Z" fill="url(#paint0_linear_3408_13880)"/>
<defs>
<linearGradient id="paint0_linear_3408_13880" x1="1" y1="1" x2="24.9715" y2="23.83" gradientUnits="userSpaceOnUse">
<stop stop-color="#023E8A" stop-opacity="0.7"/>
<stop offset="0.723958" stop-color="#2684FF" stop-opacity="0.8"/>
</linearGradient>
</defs>
</svg>
