<svg width="39" height="39" viewBox="0 0 39 39" fill="none" xmlns="http://www.w3.org/2000/svg">
<rect x="0.5" y="0.5" width="38" height="38" rx="19" fill="url(#paint0_linear_3677_37971)"/>
<path d="M15.8553 27.622L16.0513 28.686C15.6126 28.77 15.2066 28.8353 14.8333 28.882C14.4693 28.938 14.1193 28.966 13.7833 28.966C13.0833 28.966 12.472 28.854 11.9493 28.63C11.436 28.4153 11.0393 28.0933 10.7593 27.664C10.4793 27.244 10.3393 26.74 10.3393 26.152C10.3393 25.5547 10.4793 25.046 10.7593 24.626C11.0393 24.206 11.436 23.8887 11.9493 23.674C12.472 23.45 13.088 23.338 13.7973 23.338H15.8833V24.5H13.7973C13.0506 24.5 12.5046 24.64 12.1593 24.92C11.814 25.2 11.6413 25.6153 11.6413 26.166C11.6413 26.698 11.814 27.104 12.1593 27.384C12.5046 27.664 13.046 27.804 13.7833 27.804C14.0166 27.804 14.2966 27.79 14.6233 27.762C14.9593 27.734 15.37 27.6873 15.8553 27.622ZM11.1933 18.9L11.0533 17.85C11.4453 17.7473 11.8653 17.6633 12.3133 17.598C12.7706 17.5233 13.2093 17.486 13.6293 17.486C14.3573 17.486 14.9826 17.6027 15.5053 17.836C16.0373 18.0693 16.448 18.41 16.7373 18.858C17.036 19.2967 17.1853 19.8287 17.1853 20.454V24.5H15.8833V20.454C15.8833 19.866 15.6966 19.4227 15.3233 19.124C14.95 18.8253 14.376 18.676 13.6013 18.676C13.368 18.676 13.032 18.6947 12.5933 18.732C12.1546 18.7693 11.688 18.8253 11.1933 18.9ZM21.9959 29.148C21.9026 28.6253 21.8186 28.126 21.7439 27.65C21.6786 27.174 21.6459 26.7633 21.6459 26.418C21.6459 25.7833 21.7579 25.2327 21.9819 24.766C22.2153 24.3087 22.5466 23.9587 22.9759 23.716C23.4053 23.464 23.9139 23.338 24.5019 23.338C24.6606 23.338 24.8799 23.338 25.1599 23.338C25.4399 23.338 25.7619 23.338 26.1259 23.338C26.4993 23.338 26.8866 23.338 27.2879 23.338C27.6986 23.338 28.0999 23.338 28.4919 23.338L27.6659 24.08V21.056C27.6659 20.4493 27.5959 19.9733 27.4559 19.628C27.3253 19.2827 27.0873 19.0353 26.7419 18.886C26.4059 18.7367 25.9439 18.662 25.3559 18.662C24.9733 18.662 24.5906 18.69 24.2079 18.746C23.8253 18.7927 23.5266 18.8627 23.3119 18.956L24.1099 18.172C24.0539 18.396 23.9979 18.6807 23.9419 19.026C23.8953 19.362 23.8533 19.7213 23.8159 20.104C23.7879 20.4867 23.7739 20.8647 23.7739 21.238C23.7739 21.6207 23.7879 21.9987 23.8159 22.372C23.8533 22.7453 23.8906 23.072 23.9279 23.352C23.9746 23.632 24.0119 23.8233 24.0399 23.926L22.8079 24.276C22.7706 24.1547 22.7239 23.9447 22.6679 23.646C22.6119 23.3473 22.5606 22.9927 22.5139 22.582C22.4766 22.162 22.4579 21.714 22.4579 21.238C22.4579 20.7807 22.4813 20.3373 22.5279 19.908C22.5746 19.4693 22.6259 19.0727 22.6819 18.718C22.7473 18.3633 22.8079 18.0787 22.8639 17.864C23.0786 17.78 23.4099 17.696 23.8579 17.612C24.3153 17.528 24.8193 17.486 25.3699 17.486C25.8739 17.486 26.3219 17.5327 26.7139 17.626C27.1059 17.7193 27.4419 17.8593 27.7219 18.046C28.0113 18.2327 28.2493 18.466 28.4359 18.746C28.6226 19.026 28.7579 19.362 28.8419 19.754C28.9259 20.1367 28.9679 20.5753 28.9679 21.07V24.5C28.5759 24.5 28.1513 24.5 27.6939 24.5C27.2459 24.5 26.8073 24.5 26.3779 24.5C25.9486 24.5 25.5659 24.5 25.2299 24.5C24.9033 24.5 24.6606 24.5 24.5019 24.5C24.3526 24.5 24.1893 24.5187 24.0119 24.556C23.8346 24.6027 23.6619 24.6867 23.4939 24.808C23.3353 24.9387 23.2046 25.13 23.1019 25.382C22.9993 25.6433 22.9479 25.9887 22.9479 26.418C22.9479 26.7727 22.9806 27.174 23.0459 27.622C23.1113 28.0793 23.1859 28.588 23.2699 29.148H21.9959Z" fill="white"/>
<defs>
<linearGradient id="paint0_linear_3677_37971" x1="0.5" y1="0.5" x2="38.5" y2="38.5" gradientUnits="userSpaceOnUse">
<stop stop-color="#023E8A" stop-opacity="0.7"/>
<stop offset="0.723958" stop-color="#2684FF" stop-opacity="0.8"/>
</linearGradient>
</defs>
</svg>
