<svg xmlns="http://www.w3.org/2000/svg" viewBox="0 0 1080 1080"><defs><style>.cls-1{isolation:isolate;}.cls-2{fill:#0f4c81;mix-blend-mode:multiply;}</style></defs><g class="cls-1"><g id="Layer_1" data-name="Layer 1"><polygon class="cls-2" points="696.75 378.19 696.75 701.81 556.42 565.11 556.42 378.19 696.75 378.19"/><path class="cls-2" d="M349,378.19V583.46c-6.64-51.2-49.67-90.71-101.76-90.71H111.49c-.3-3.3-.46-6.65-.46-10,0-57.72,45.15-104.53,100.83-104.53Z"/><path class="cls-2" d="M966.11,538.57C966.11,627.13,895.76,699,809,699H712.34V378.19H809C895.76,378.19,966.11,450,966.11,538.57Z"/><path class="cls-2" d="M349.84,597.28c0,57.72-46,104.53-102.65,104.53H111.24V492.75h.25c4.87,53,48,94.5,100.37,94.5H349v-3.79A106.71,106.71,0,0,1,349.84,597.28Z"/><polygon class="cls-2" points="556.42 565.11 556.42 701.81 364.54 701.81 364.54 378.19 556.42 565.11"/></g></g></svg>