<svg width="56" height="56" viewBox="0 0 56 56" fill="none" xmlns="http://www.w3.org/2000/svg">
<circle cx="28" cy="28" r="28" fill="#F4F7FE"/>
<g clip-path="url(#clip0_4712_32591)">
<path d="M30.625 38.5H16.625C15.1725 38.5 14 37.3275 14 35.875V18.165C14 16.7125 15.1725 15.54 16.625 15.54H35.875C37.3275 15.54 38.5 16.7125 38.5 18.165V30.8525C38.5 31.3425 38.115 31.7275 37.625 31.7275C37.135 31.7275 36.75 31.3425 36.75 30.8525V18.165C36.75 17.675 36.365 17.29 35.875 17.29H16.625C16.135 17.29 15.75 17.675 15.75 18.165V35.875C15.75 36.365 16.135 36.75 16.625 36.75H30.625C31.115 36.75 31.5 37.135 31.5 37.625C31.5 38.115 31.115 38.5 30.625 38.5Z" fill="url(#paint0_linear_4712_32591)"/>
<path d="M21 20.335C20.51 20.335 20.125 19.95 20.125 19.46V14.875C20.125 14.385 20.51 14 21 14C21.49 14 21.875 14.385 21.875 14.875V19.46C21.875 19.95 21.49 20.335 21 20.335ZM31.71 20.335C31.22 20.335 30.835 19.95 30.835 19.46V14.875C30.835 14.385 31.22 14 31.71 14C32.2 14 32.585 14.385 32.585 14.875V19.46C32.585 19.95 32.2 20.335 31.71 20.335ZM37.625 24.5H14.875C14.385 24.5 14 24.115 14 23.625C14 23.135 14.385 22.75 14.875 22.75H37.625C38.115 22.75 38.5 23.135 38.5 23.625C38.5 24.115 38.115 24.5 37.625 24.5ZM35.875 42C32.4975 42 29.75 39.2525 29.75 35.875C29.75 32.4975 32.4975 29.75 35.875 29.75C39.2525 29.75 42 32.4975 42 35.875C42 39.2525 39.2525 42 35.875 42ZM35.875 31.5C34.7147 31.5 33.6019 31.9609 32.7814 32.7814C31.9609 33.6019 31.5 34.7147 31.5 35.875C31.5 37.0353 31.9609 38.1481 32.7814 38.9686C33.6019 39.7891 34.7147 40.25 35.875 40.25C37.0353 40.25 38.1481 39.7891 38.9686 38.9686C39.7891 38.1481 40.25 37.0353 40.25 35.875C40.25 34.7147 39.7891 33.6019 38.9686 32.7814C38.1481 31.9609 37.0353 31.5 35.875 31.5Z" fill="url(#paint1_linear_4712_32591)"/>
<path d="M37.625 38.5C37.5102 38.5014 37.3965 38.4788 37.291 38.4336C37.1855 38.3883 37.0906 38.3216 37.0125 38.2375L35.2625 36.4875C35.0992 36.3249 35.0051 36.1054 35 35.875V33.25C35 32.76 35.385 32.375 35.875 32.375C36.365 32.375 36.75 32.76 36.75 33.25V35.5075L38.2375 36.995C38.5875 37.345 38.5875 37.8875 38.2375 38.2375C38.0625 38.4125 37.835 38.5 37.625 38.5Z" fill="url(#paint2_linear_4712_32591)"/>
</g>
<defs>
<linearGradient id="paint0_linear_4712_32591" x1="14" y1="15.54" x2="36.9117" y2="39.9885" gradientUnits="userSpaceOnUse">
<stop stop-color="#023E8A" stop-opacity="0.7"/>
<stop offset="0.723958" stop-color="#2684FF" stop-opacity="0.8"/>
</linearGradient>
<linearGradient id="paint1_linear_4712_32591" x1="14" y1="14" x2="42" y2="42" gradientUnits="userSpaceOnUse">
<stop stop-color="#023E8A" stop-opacity="0.7"/>
<stop offset="0.723958" stop-color="#2684FF" stop-opacity="0.8"/>
</linearGradient>
<linearGradient id="paint2_linear_4712_32591" x1="35" y1="32.375" x2="40.2769" y2="35.3904" gradientUnits="userSpaceOnUse">
<stop stop-color="#023E8A" stop-opacity="0.7"/>
<stop offset="0.723958" stop-color="#2684FF" stop-opacity="0.8"/>
</linearGradient>
<clipPath id="clip0_4712_32591">
<rect width="28" height="28" fill="white" transform="translate(14 14)"/>
</clipPath>
</defs>
</svg>
